<svg width="79" height="79" viewBox="0 0 79 79" fill="none" xmlns="http://www.w3.org/2000/svg">
<g clip-path="url(#clip0_388_469)">
<g clip-path="url(#clip1_388_469)">
<path d="M12.2841 53.6463C11.1592 51.6883 9.27263 49.8493 7.80262 48.1253C-1.5332 37.1588 0.315712 19.6794 13.9267 13.1567C16.6425 11.8553 19.7313 11.6986 22.1476 9.86551C22.6713 9.46875 23.1097 8.83194 23.5918 8.37765C24.6869 7.35202 26.0795 6.44938 27.2222 5.50707C31.2096 2.21791 33.0784 -0.0198294 38.5478 8.77555e-06C43.4101 0.0178631 45.136 1.58706 48.818 4.55683C49.9586 5.47533 51.2223 6.39582 52.3511 7.36987C53.5077 8.36178 54.6484 9.59571 55.9517 10.3833C57.1797 11.1232 58.6358 11.6053 60.0086 12.0219C63.1867 12.988 66.1228 14.1307 68.42 16.6541C72.4214 21.0483 75.3693 27.2298 75.1035 33.2844C74.8396 39.2676 72.4214 45.0722 68.0669 49.2164C68.0371 51.1685 68.0471 57.5623 67.7673 59.197C67.7574 62.2243 67.7792 65.2873 67.6344 68.3086C69.279 71.3677 68.8267 75.7995 65.3669 77.5274C64.5635 77.9281 62.2404 78.1226 61.31 78.1404C53.7338 78.2872 46.1398 78.0531 38.5616 78.063C30.9121 78.0234 23.3121 78.311 15.6585 78.0888C12.8395 78.0075 10.1257 77.5373 9.104 74.4069C8.29659 71.9311 9.23295 69.5822 10.3736 67.3862C10.1376 67.0033 9.92133 66.6085 9.72692 66.2018C7.3761 61.2879 10.8875 57.9591 12.2841 53.6443V53.6463Z" fill="#333A4E"/>
<path d="M12.2841 53.6463C11.1592 51.6883 9.27263 49.8493 7.80262 48.1253C-1.5332 37.1588 0.315712 19.6794 13.9267 13.1567C16.6425 11.8553 19.7313 11.6986 22.1476 9.86551C22.6713 9.46875 23.1097 8.83194 23.5918 8.37765C24.6869 7.35202 26.0795 6.44938 27.2222 5.50707C31.2096 2.21791 33.0784 -0.0198294 38.5478 8.77556e-06C43.4101 0.0178631 45.136 1.58706 48.818 4.55683C49.9586 5.47533 51.2223 6.39582 52.3511 7.36987C53.5077 8.36178 54.6484 9.59571 55.9517 10.3833C57.1797 11.1232 58.6358 11.6053 60.0086 12.0219C63.1867 12.988 66.1228 14.1307 68.42 16.6541C72.4214 21.0483 75.3693 27.2298 75.1035 33.2844C74.8396 39.2676 72.4214 45.0722 68.0669 49.2164C68.0371 51.1685 68.0471 57.5623 67.7673 59.197C67.7574 62.2243 67.7792 65.2873 67.6344 68.3086C66.9163 67.3762 66.2081 66.4379 65.5058 65.4956C65.6189 61.8652 66.1327 58.3519 62.0559 56.8243C61.4727 55.8027 61.3041 55.4079 60.8895 54.3089C61.6016 51.9382 62.175 52.0493 62.8276 50.4345C64.2719 49.0696 66.2656 47.4072 67.4936 45.961C70.3443 42.6064 72.4571 36.9822 72.3936 32.5365C72.2131 19.9096 64.3631 13.1448 52.1984 14.9956C52.3868 9.34773 51.4267 8.35385 45.8065 8.13166C45.5645 2.64642 43.0351 2.70791 38.3593 2.65633C33.9156 2.60872 31.4953 2.87654 31.041 8.09992C25.6153 8.37963 24.6888 9.45089 24.8396 14.8965C22.1257 14.5295 19.4178 14.3549 16.7337 15.1028C3.58107 18.7708 1.49211 35.3535 9.104 45.2052C12.0996 49.0835 17.5253 52.2675 19.9951 56.1756C12.3892 57.0584 11.7048 57.9075 11.7782 65.5055L10.3736 67.3862C10.1376 67.0033 9.92133 66.6085 9.72692 66.2018C7.3761 61.2879 10.8875 57.9591 12.2841 53.6443V53.6463Z" fill="#79C5DB"/>
<path d="M68.0648 49.2164C68.0351 51.1685 68.045 57.5623 67.7653 59.197C66.692 57.5762 65.6545 56.8997 64.7915 54.9834C63.1985 51.4462 67.3923 51.2379 68.0648 49.2164Z" fill="#B0EDF8"/>
<path d="M62.8257 50.4344C62.173 52.0513 61.5977 51.9382 60.8875 54.3088C61.3021 55.4079 61.4687 55.8026 62.054 56.8243C60.7069 56.493 58.7886 56.249 57.3821 56.0308C58.8541 53.8307 60.7486 52.0433 62.8276 50.4344H62.8257Z" fill="#1FCBF7"/>
<path d="M45.5189 24.4406C45.0944 23.9248 45.1777 24.1986 45.1063 23.6431C47.0028 20.0385 55.0135 17.9298 58.8244 18.8899C60.3618 19.2768 62.8515 20.1119 63.7522 21.4828C63.7561 22.1315 63.7006 21.9926 63.278 22.6492L63.4129 22.7326L64.1946 22.0184C65.2123 22.0819 66.7418 24.9386 67.0989 25.8591C67.6246 27.585 67.3647 28.4083 67.4679 30.1362C67.577 29.3069 67.6464 28.0095 67.7813 27.2735C69.3128 36.6153 66.9481 42.6243 59.1398 48.0837L58.8363 48.3178C57.8979 49.4922 56.8306 50.4901 55.8407 51.6149C54.6306 52.9897 53.5593 54.549 52.5476 56.0745C51.4942 55.6063 51.2343 56.017 50.5737 55.7174C50.0857 56.3265 46.4255 56.0467 45.507 56.0229C45.0508 54.8723 44.3306 54.053 43.8962 52.8687H43.6304C41.9501 53.2138 35.588 52.9222 33.5308 52.9341C33.2749 51.8391 32.7015 49.6787 32.6638 48.6451C32.1957 48.2008 31.6957 48.1849 31.2434 47.679C31.3684 47.4191 31.2791 47.5124 31.4954 47.3775C32.3167 47.6651 32.2869 47.7663 32.9614 47.5243C32.9297 46.697 32.9336 45.8301 32.9237 45.0009L33.0725 43.9336L32.8364 43.273L32.5091 43.1162C32.4595 42.7274 32.5726 42.4239 32.5389 41.8962L32.281 41.3526L32.1381 40.3548L32.0826 40.2417L31.8267 39.7418C31.5033 39.3073 31.6323 39.5493 31.6442 38.857C31.535 38.5475 31.4974 38.5178 31.3307 38.2301C31.2176 37.9067 31.2117 37.752 31.1561 37.4048L31.0748 36.6748C30.8447 36.2661 30.7574 35.9626 30.6086 35.5242L30.3745 35.0064C30.2019 34.5898 29.9778 34.3319 29.7159 33.959L29.6266 33.7705C29.2854 32.6834 29.21 32.6615 28.1884 32.4037L27.8372 31.4732C27.5833 30.9654 27.9562 30.5567 28.1963 30.1104L27.8412 29.5271C27.986 28.9478 28.2637 28.7376 28.6704 28.2991C29.4024 27.5016 31.6759 24.9505 32.6896 24.7997L32.8166 25.0477L32.642 25.0001L32.7353 25.254L32.5448 25.4821L32.9416 25.8055C33.7787 25.2877 34.0089 25.7995 34.6953 26.4304C34.8361 26.6387 35.0127 26.9918 35.3678 27.0176C37.2445 27.1485 40.2162 27.4382 41.9481 26.7359C42.5313 26.4998 42.7456 25.7559 42.8507 25.2917C43.3844 25.2619 43.3744 25.2223 43.8387 25.4623C44.0212 25.8948 44.0291 25.6825 43.8664 26.1169C45.4198 26.8232 46.9513 27.8925 47.8539 29.3764L48.0741 28.93C47.2826 27.9599 44.6818 25.6408 44.3366 24.762L44.533 24.5914L45.0766 24.8791L45.5229 24.4367L45.5189 24.4406Z" fill="#4C4E4F"/>
<path d="M28.6665 28.305C29.3985 27.5075 31.6719 24.9563 32.6857 24.8055L32.8126 25.0535L32.638 25.0059L32.7313 25.2598L32.5408 25.488L32.9376 25.8113C33.7748 25.2936 34.0049 25.8054 34.6913 26.4362C34.8321 26.6445 35.0087 26.9977 35.3638 27.0234C37.2405 27.1544 40.2122 27.444 41.9441 26.7417C42.5274 26.5057 42.7416 25.7617 42.8467 25.2975C43.3804 25.2678 43.3705 25.2281 43.8347 25.4681C44.0172 25.9006 44.0251 25.6883 43.8625 26.1228C45.4158 26.829 46.9473 27.8983 47.8499 29.3822L48.0701 28.9358C48.4907 29.4159 48.6355 29.7234 49.1771 29.9317L49.2684 29.8682L50.1869 29.7849L49.7663 30.2709L48.9827 30.8661C48.5998 31.5465 48.2963 32.0346 47.8579 32.6813L47.4393 33.7585L47.1834 34.2703C47.0544 34.4588 46.7767 34.8337 46.6993 35.0242L46.5247 35.5023C46.2034 35.9585 46.1716 35.9804 45.9554 36.5219C45.9772 36.8889 45.9772 37.125 46.0526 37.4861L45.9574 37.9503L45.64 38.105L45.4535 38.9045C45.4733 39.4659 45.5646 39.3151 45.3583 39.7278L45.0607 40.5967C44.6064 41.3684 44.8246 40.6721 44.5449 40.9915C43.9676 41.6541 44.1858 42.9237 44.3485 43.6736C45.1579 43.9712 46.1696 44.2806 46.7568 44.9174C47.7388 47.7087 49.6671 45.2428 51.1966 44.2727L52.0477 43.8978C51.7263 44.8063 48.1237 46.6354 47.11 47.2028L46.9671 47.0917C46.8838 47.3059 46.8838 47.2008 46.9532 47.4051C45.9832 48.032 44.8663 48.3117 44.5409 49.1866C44.1779 50.4344 43.916 51.6088 43.6304 52.8785C41.9501 53.2197 35.588 52.9281 33.5308 52.94C33.2749 51.8449 32.7015 49.6845 32.6638 48.651C32.1957 48.2066 31.6957 48.1907 31.2434 47.6849C31.3684 47.425 31.2791 47.5182 31.4954 47.3833C32.3167 47.671 32.2869 47.7721 32.9614 47.5301C32.9297 46.7029 32.9336 45.8359 32.9237 45.0067L33.0725 43.9394L32.8364 43.2788L32.5091 43.1221C32.4595 42.7333 32.5726 42.4297 32.5389 41.902L32.281 41.3585L32.1381 40.3606L32.0826 40.2475L31.8267 39.7476C31.5033 39.3132 31.6323 39.5552 31.6442 38.8628C31.535 38.5534 31.4974 38.5236 31.3307 38.236C31.2176 37.9126 31.2117 37.7579 31.1561 37.4107L31.0748 36.6806C30.8447 36.272 30.7574 35.9685 30.6086 35.53L30.3745 35.0123C30.2019 34.5957 29.9778 34.3378 29.7159 33.9648L29.6266 33.7763C29.2854 32.6892 29.21 32.6674 28.1884 32.4095L27.8372 31.4791C27.5833 30.9712 27.9562 30.5626 28.1963 30.1162L27.8412 29.533C27.986 28.9537 28.2637 28.7434 28.6704 28.305H28.6665Z" fill="#525356"/>
<path d="M29.3469 28.8704C29.327 29.0569 29.2993 29.2831 29.2695 29.5548C30.3785 31.7489 31.7989 33.5859 32.7392 35.911C33.7609 38.4384 33.9652 40.9082 34.6575 43.3562C35.5225 43.378 36.5461 43.4276 37.3952 43.4098C37.5856 42.4516 37.786 41.5351 37.8991 40.565L37.8059 40.4638L37.9328 40.2297L37.8376 40.1881L37.9407 40.079V39.8905C37.9467 40.0155 37.9546 40.1405 37.9626 40.2635L37.8495 40.5055C37.8733 40.8646 37.8753 41.6224 38.0241 41.8902C38.0796 42.6321 38.0022 42.7611 38.4407 43.2074L38.6867 43.1063C39.0715 42.5528 38.9842 42.2314 38.9763 41.5152C39.0338 42.1342 39.0021 42.7373 39.3989 43.1816C39.867 43.4554 39.8948 43.4634 40.4423 43.4455L42.3032 43.3919C43.7335 37.6468 43.9854 34.6036 47.8519 29.3803L48.0721 28.9339C48.4927 29.414 48.6375 29.7215 49.1791 29.9298L49.2703 29.8663L50.1888 29.783L49.7682 30.269L48.9846 30.8642C48.6018 31.5446 48.2982 32.0326 47.8598 32.6793L47.4412 33.7566L47.1853 34.2684C47.0564 34.4568 46.7786 34.8318 46.7013 35.0222L46.5267 35.5003C46.2053 35.9566 46.1736 35.9784 45.9573 36.52C45.9792 36.887 45.9792 37.1231 46.0545 37.4841L45.9593 37.9483L45.6419 38.1031L45.4554 38.9026C45.4753 39.464 45.5665 39.3132 45.3602 39.7258L45.0626 40.5948C44.6083 41.3665 44.8266 40.6701 44.5468 40.9895C43.9696 41.6521 44.1878 42.9218 44.3504 43.6717C45.1598 43.9692 46.1716 44.2787 46.7588 44.9155C47.7408 47.7067 49.6691 45.2408 51.1986 44.2708L52.0496 43.8958C51.7282 44.8044 48.1256 46.6335 47.1119 47.2009L46.9691 47.0898C46.8858 47.304 46.8858 47.1989 46.9552 47.4032C45.9851 48.0301 44.8682 48.3098 44.5429 49.1847C44.1798 50.4325 43.918 51.6069 43.6323 52.8765C41.952 53.2178 35.5899 52.9261 33.5327 52.938C33.2768 51.843 32.7035 49.6826 32.6658 48.649C32.1976 48.2047 31.6977 48.1888 31.2454 47.6829C31.3704 47.423 31.2811 47.5163 31.4973 47.3814C32.3186 47.669 32.2889 47.7702 32.9634 47.5282C32.9316 46.7009 32.9356 45.834 32.9257 45.0048L33.0745 43.9375L32.8384 43.2769L32.5111 43.1202C32.4615 42.7313 32.5745 42.4278 32.5408 41.9001L32.2829 41.3565L32.1401 40.3587L32.0845 40.2456L31.8286 39.7457C31.5053 39.3112 31.6342 39.5533 31.6461 38.8609C31.537 38.5514 31.4993 38.5217 31.3327 38.234C31.2196 37.9107 31.2136 37.7559 31.1581 37.4088L31.0768 36.6787C30.8466 36.27 30.7593 35.9665 30.6106 35.5281L30.3765 35.0103C30.2039 34.5937 29.9797 34.3358 29.7178 33.9629L29.6286 33.7744C29.2874 32.6873 29.212 32.6655 28.1903 32.4076L27.8392 31.4772C27.5852 30.9693 27.9582 30.5606 28.1982 30.1143L29.3508 28.8665L29.3469 28.8704Z" fill="#353641"/>
<path d="M32.6639 48.649C32.8999 48.5577 33.0963 48.4784 33.3284 48.3732L33.5209 48.2859C34.0743 48.5319 33.8184 48.3514 34.1874 49.0041L34.4731 48.9346C35.3837 47.9447 34.4731 46.199 34.7667 44.4016C35.1218 44.0049 35.0167 44.1318 35.6892 44.0307C37.185 44.0366 41.0514 43.9354 42.2953 44.1219C42.5095 44.5048 42.3925 44.8559 42.329 45.3122C42.3508 46.7921 42.2814 48.0816 42.2 49.5516C42.8468 49.1231 43.2534 48.7819 44.0073 48.6073L44.4199 48.7105L44.539 49.1826C44.1759 50.4304 43.9141 51.6049 43.6284 52.8745C41.9481 53.2157 35.586 52.9241 33.5288 52.936C33.2729 51.8409 32.6996 49.6806 32.6619 48.647L32.6639 48.649Z" fill="#4C4E4F"/>
<path d="M35.691 44.0287C37.1868 44.0347 41.0533 43.9335 42.2971 44.12C42.5114 44.5028 42.3943 44.854 42.3309 45.3103C41.0791 45.3222 36.1374 45.5443 35.3736 44.8441C35.3756 44.235 35.2804 44.5009 35.693 44.0287H35.691Z" fill="#828486"/>
<path d="M32.1382 40.3586C33.8701 40.9994 33.4634 42.519 33.0726 43.9374L32.8365 43.2768L32.5092 43.1201C32.4596 42.7313 32.5726 42.4278 32.5389 41.9001L32.281 41.3565L32.1382 40.3586Z" fill="#3D3F47"/>
<path d="M44.3465 44.6893C44.8464 44.8103 45.3424 44.9254 45.8006 45.1674C46.3283 45.4452 46.6556 45.7229 46.8421 46.2942C46.6199 46.81 46.4771 46.7942 45.9871 47.0322L44.1064 47.669C44.1997 46.6771 44.281 45.6852 44.3485 44.6913L44.3465 44.6893Z" fill="#747478"/>
<path d="M28.6663 28.305C29.3983 27.5075 31.6718 24.9563 32.6855 24.8055L32.8125 25.0535L32.6379 25.0059L32.7311 25.2598L32.5407 25.488L32.9374 25.8113C33.4691 26.7616 34.8637 28.422 35.1058 28.9239L35.3517 29.2572C36.4052 29.6857 40.9163 29.4556 42.2237 29.4001C42.1304 30.017 41.9043 30.7451 41.7376 31.3601C39.4582 31.3759 37.532 31.3918 35.2625 31.2291C34.709 29.0231 33.6675 28.4954 32.6161 26.3966C31.6738 26.9977 30.1065 28.7394 29.4201 28.8069L29.3507 28.8704L28.1981 30.1182L27.843 29.535C27.9878 28.9557 28.2656 28.7454 28.6722 28.307L28.6663 28.305Z" fill="#373637"/>
<path d="M28.6664 28.305C29.3984 27.5075 31.6718 24.9563 32.6856 24.8055L32.8125 25.0535L32.638 25.0059L32.7312 25.2598L32.5407 25.488C31.4715 26.5711 30.3863 27.6345 29.4162 28.8069L29.3468 28.8704L28.1942 30.1182L27.8391 29.535C27.9839 28.9557 28.2617 28.7454 28.6683 28.307L28.6664 28.305Z" fill="#2AB7EF"/>
<path d="M42.8467 25.2976C43.3803 25.2679 43.3704 25.2282 43.8346 25.4682C44.0171 25.9007 44.0251 25.6884 43.8624 26.1229C43.2375 26.9878 42.6265 27.8627 42.0313 28.7495C40.851 28.7614 35.943 28.7395 35.1039 28.9221C34.8618 28.4202 33.4692 26.7617 32.9355 25.8095C33.7727 25.2917 34.0028 25.8035 34.6892 26.4344C34.8301 26.6427 35.0066 26.9958 35.3617 27.0216C37.2384 27.1525 40.2102 27.4421 41.9421 26.7399C42.5253 26.5038 42.7395 25.7599 42.8447 25.2956L42.8467 25.2976Z" fill="#828486"/>
<path d="M38.022 41.8901C38.4108 39.5552 37.7542 34.4945 38.3156 31.8679L38.4981 31.8282C39.3273 33.2784 38.9266 39.337 38.9742 41.5172C38.9821 42.2353 39.0694 42.5547 38.6846 43.1082L38.4386 43.2094C38.0001 42.763 38.0775 42.6341 38.022 41.8921V41.8901Z" fill="#1FCBF7"/>
<path d="M54.1188 28.3229C54.7198 27.8845 55.4757 28.0452 56.1859 28.1424C55.9062 28.2376 55.6701 28.3467 55.3864 28.3705C56.1561 29.1859 55.9062 29.7771 57.154 31.1261C57.154 31.4276 57.2016 31.3244 57.1183 31.4673C57.3742 31.7371 58.0011 32.4393 58.2114 32.7349C57.9197 37.2402 54.9182 41.7573 51.0994 44.0883L51.2006 44.2649C49.671 45.2369 47.7428 47.7008 46.7608 44.9096C46.1736 44.2728 45.1618 43.9633 44.3524 43.6657C44.1898 42.9159 43.9715 41.6462 44.5488 40.9836C44.8266 40.6642 44.6103 41.3606 45.0646 40.5888L45.3622 39.7199C45.5685 39.3073 45.4773 39.4581 45.4574 38.8967L45.6439 38.0972L45.9613 37.9424L46.0565 37.4782C45.9792 37.1152 45.9812 36.8811 45.9593 36.5141C46.1756 35.9725 46.2073 35.9507 46.5287 35.4944L46.7033 35.0163C46.7806 34.8259 47.0584 34.4509 47.1873 34.2625L47.4432 33.7506L47.8618 32.6734C48.3002 32.0267 48.6038 31.5387 48.9866 30.8582L49.7702 30.2631L50.1908 29.7771C50.294 29.6699 50.4031 29.5688 50.5161 29.4716C51.0994 28.9736 52.3869 28.5431 53.1566 28.5888C53.5633 28.5134 53.7339 28.4439 54.1207 28.317L54.1188 28.3229Z" fill="#333A4E"/>
<path d="M51.0955 44.0923C50.5717 43.9673 49.4231 42.9734 49.195 42.5072C47.6893 39.4105 51.1411 34.3974 53.7042 32.7826C55.2694 31.7966 56.6561 32.3481 58.2054 32.7389C57.9138 37.2441 54.9123 41.7613 51.0935 44.0923H51.0955Z" fill="#6A6B6F"/>
<path d="M50.1867 29.7829C50.2899 29.6758 50.399 29.5746 50.5121 29.4774C51.0953 28.9795 52.3828 28.549 53.1525 28.5946C53.2993 29.1937 53.9163 30.5725 53.9341 30.761C53.4878 31.2073 53.4441 31.2113 53.3509 31.8719C52.8728 31.9274 53.0474 31.9631 52.6228 31.7846C51.9265 32.0742 52.1447 31.8441 51.8075 32.3639L51.5575 32.9967C50.7402 32.4274 50.5319 32.0147 49.9943 31.1974C50.1173 30.7729 50.0102 30.7967 49.7642 30.269L50.1847 29.7829H50.1867Z" fill="#454850"/>
<path d="M51.8096 28.2911C52.6586 29.6342 53.0375 30.2531 53.353 31.8719C52.8749 31.9275 53.0495 31.9632 52.6249 31.7846C52.1667 30.4694 51.8413 29.6818 51.8116 28.2911H51.8096Z" fill="#2AB7EF"/>
<path d="M49.9944 31.1975C50.8673 30.9753 50.9367 31.1499 51.4346 31.8442L51.8076 32.364L51.5576 32.9968C50.7403 32.4274 50.532 32.0148 49.9944 31.1975Z" fill="#6C879C"/>
<path d="M45.0983 42.2988C48.0204 43.0328 48.4886 44.6893 49.7067 45.0385C49.2524 45.2686 48.804 45.4471 48.4291 45.7725L48.0819 45.9272C47.5562 45.8558 47.2547 45.3737 46.7567 44.9135C46.1695 44.2767 45.1578 43.9672 44.3484 43.6696L44.6757 43.253L45.3066 43.1241L44.7313 43.009L44.8146 42.7968L45.2312 42.7313L45.1003 42.2988H45.0983Z" fill="#2E3E4C"/>
<path d="M44.6757 43.255C46.5286 43.4971 47.7427 43.7887 48.4291 45.7725L48.0819 45.9272C47.5562 45.8558 47.2547 45.3737 46.7567 44.9135C46.1695 44.2767 45.1578 43.9672 44.3484 43.6697L44.6757 43.2531V43.255Z" fill="#2AB7EF"/>
<path d="M48.9808 30.8642L49.7644 30.269C50.0104 30.7967 50.1175 30.7729 49.9945 31.1975C50.5321 32.0148 50.7404 32.4274 51.5578 32.9968C51.3177 33.2586 51.2741 33.2864 51.0816 33.58C50.9011 33.709 50.7781 33.8141 50.5797 33.9054C50.2187 33.4154 50.185 33.4233 49.7029 33.0861C48.9252 33.3638 48.588 33.0285 47.856 32.6774C48.2944 32.0307 48.5979 31.5427 48.9808 30.8622V30.8642Z" fill="#454850"/>
<path d="M48.9808 30.8641L49.0165 31.4017L49.3756 31.5446L49.2863 31.7132L48.9411 31.8858C49.0482 32.4869 49.2466 32.5385 49.7029 33.09C48.9252 33.3677 48.588 33.0324 47.856 32.6813C48.2944 32.0346 48.5979 31.5466 48.9808 30.8661V30.8641Z" fill="#3D3F47"/>
<path d="M49.7047 33.09C49.2484 32.5385 49.052 32.4869 48.9429 31.8858L49.2881 31.7133C49.8792 32.2667 50.6589 32.9194 51.0834 33.582C50.9029 33.711 50.7799 33.8161 50.5815 33.9074C50.2204 33.4174 50.1867 33.4253 49.7047 33.088V33.09Z" fill="#2AB7EF"/>
<path d="M45.0983 42.2989L44.8503 41.9041L44.9714 41.6482C45.7986 41.5054 47.098 41.9577 47.9054 42.2235C48.4569 42.8286 50.0539 44.2411 49.7067 45.0386C48.4887 44.6874 48.0205 43.0329 45.0983 42.2989Z" fill="#1FCBF7"/>
<path d="M47.8578 32.6793C48.5898 33.0324 48.9271 33.3657 49.7047 33.088C50.1868 33.4233 50.2205 33.4153 50.5816 33.9073C50.2939 34.3437 50.3395 34.6254 49.8218 35.3237C49.052 34.6731 48.3637 34.1612 47.4392 33.7565L47.8578 32.6793Z" fill="#2E3E4C"/>
<path d="M55.3844 28.3705C56.1542 29.1859 55.9042 29.777 57.152 31.126C57.152 31.4276 57.1996 31.3244 57.1163 31.4672C55.194 31.1419 55.1841 30.0746 55.3844 28.3685V28.3705Z" fill="#1FCBF7"/>
<path d="M54.1187 28.3229C54.3468 29.1779 54.69 30.2154 54.6821 31.0724L54.4996 31.251C54.2219 31.0367 54.1901 31.0129 53.9342 30.761C53.9164 30.5725 53.2994 29.1958 53.1526 28.5947C53.5593 28.5193 53.7299 28.4498 54.1167 28.3229H54.1187Z" fill="#6C879C"/>
<path d="M45.9553 36.52C47.0782 36.9763 47.6396 37.1747 48.5085 38.0694V38.238C47.4154 38.3471 47.0186 37.7381 46.0525 37.4861C45.9752 37.1231 45.9771 36.889 45.9553 36.522V36.52Z" fill="#6C879C"/>
<path d="M45.6398 38.1031C46.481 38.3729 47.0761 38.4761 47.7268 39.0653L47.7982 39.3272C47.2686 39.5791 46.971 39.4561 46.4373 39.2676C46.108 39.1506 45.7807 39.0276 45.4534 38.9026L45.6398 38.1031Z" fill="#6C879C"/>
<path d="M45.3581 39.7258C46.1596 40.0274 46.7369 40.1662 47.3578 40.7475L47.3935 41.0113C46.6853 41.2315 45.7846 40.8288 45.0605 40.5947L45.3581 39.7258Z" fill="#2AB7EF"/>
<path d="M47.4373 33.7566C48.3638 34.1613 49.0502 34.6731 49.8199 35.3238C49.2367 36.1927 47.8004 34.7545 47.1794 34.2684L47.4354 33.7566H47.4373Z" fill="#2AB7EF"/>
<path d="M46.6992 35.0222C48.0879 35.7443 48.6215 35.9368 49.5976 37.1965C48.3656 36.641 47.6256 36.3097 46.5266 35.5003L46.7012 35.0222H46.6992Z" fill="#2AB7EF"/>
<path d="M46.9532 47.4012C48.3915 47.4865 52.4365 43.6082 53.9362 43.2927L54.1981 43.4852L54.3033 44.2787C55.071 45.7943 55.5987 46.4668 56.9477 47.5619L57.3107 47.2445L57.5309 47.3357L58.1677 46.9013C58.4851 47.2723 58.864 47.6889 59.1418 48.0836L58.8383 48.3177C57.8999 49.4921 56.8326 50.49 55.8427 51.6148C54.6326 52.9896 53.5613 54.5489 52.5496 56.0744C51.4962 55.6063 51.2363 56.0169 50.5757 55.7173C50.0877 56.3264 46.4275 56.0467 45.509 56.0229C45.0527 54.8722 44.3326 54.0529 43.8982 52.8686H43.6323C43.918 51.6029 44.1779 50.4265 44.5429 49.1787C44.8682 48.3038 45.9851 48.0261 46.9552 47.3972L46.9532 47.4012Z" fill="#4C4E4F"/>
<path d="M58.1677 46.9033C58.4851 47.2743 58.8641 47.6909 59.1418 48.0857L58.8383 48.3198C57.8999 49.4942 56.8326 50.492 55.8427 51.6169C54.6326 52.9916 53.5613 54.5509 52.5496 56.0765C51.4962 55.6083 51.2363 56.0189 50.5757 55.7194C51.7858 53.1107 52.6825 51.7299 54.829 49.7779C55.3864 49.27 56.5708 48.1789 56.9497 47.5639L57.3127 47.2465L57.5329 47.3378L58.1697 46.9033H58.1677Z" fill="#373637"/>
<path d="M58.1678 46.9033C58.4852 47.2743 58.8641 47.6909 59.1419 48.0857L58.8383 48.3198C58.2392 47.9428 58.0666 47.8079 57.531 47.3398L58.1678 46.9053V46.9033Z" fill="#1AA2E0"/>
<path d="M46.9533 47.4012C48.3915 47.4865 52.4365 43.6082 53.9363 43.2927L54.1981 43.4852L54.3033 44.2787C51.153 46.5283 48.7863 47.919 45.1063 49.1311C44.8048 49.9107 44.0509 52.6543 43.8962 52.8706H43.6304C43.916 51.6049 44.1759 50.4285 44.5409 49.1807C44.8663 48.3058 45.9832 48.0281 46.9533 47.3992V47.4012Z" fill="#2B2D30"/>
<path d="M45.5188 24.4406C45.0943 23.9248 45.1776 24.1986 45.1062 23.6431C47.0027 20.0385 55.0134 17.9298 58.8243 18.8899C60.3617 19.2768 62.8514 20.1119 63.7521 21.4828C63.756 22.1315 63.7005 21.9926 63.2779 22.6492L63.4128 22.7326L64.1945 22.0184C65.2122 22.0819 66.7417 24.9386 67.0988 25.8591C67.6245 27.585 67.3646 28.4083 67.4677 30.1362C67.4955 31.3145 67.1325 33.7903 66.4005 34.7525L66.1049 34.6652L65.8529 34.5958C65.8906 34.0304 65.9204 33.463 65.9402 32.8956C66.3032 21.3082 54.5353 16.8843 46.3917 24.9009C47.213 25.6607 48.3835 27.1624 49.3853 28.1583L48.8556 28.7257C49.054 29.1423 49.2147 29.4041 49.2682 29.8664L49.177 29.9298C48.6354 29.7215 48.4926 29.414 48.07 28.934C47.2785 27.9639 44.6777 25.6448 44.3325 24.766L44.5289 24.5954L45.0725 24.883L45.5188 24.4406Z" fill="#3D3F47"/>
<path d="M45.5188 24.4406C45.0943 23.9248 45.1776 24.1986 45.1062 23.6431C47.0027 20.0385 55.0134 17.9298 58.8243 18.8899C60.3617 19.2768 62.8514 20.1119 63.7521 21.4828C63.756 22.1315 63.7005 21.9926 63.2779 22.6492L62.8931 22.804C61.9924 22.1672 61.1096 21.5125 60.1058 21.0503C54.9697 18.6777 49.1036 20.1834 45.5188 24.4386V24.4406Z" fill="#828486"/>
<path d="M63.4148 22.7325L64.1965 22.0183C65.2141 22.0818 66.7437 24.9385 67.1008 25.859C66.8548 25.9344 66.3529 26.1407 66.1604 26.0673C65.2042 25.7062 63.8215 23.9724 63.3018 23.155L63.4168 22.7325H63.4148Z" fill="#828486"/>
<path d="M48.07 28.9359C47.2785 27.9658 44.6777 25.6467 44.3325 24.7679L44.5289 24.5973L45.0725 24.8849C46.5484 26.1685 47.7248 27.1147 48.8556 28.7276C49.054 29.1442 49.2147 29.4061 49.2682 29.8683L49.177 29.9318C48.6354 29.7235 48.4926 29.416 48.07 28.9359Z" fill="#2AB7EF"/>
<path d="M49.3874 28.1583C53.0733 26.2816 57.1481 24.76 59.4433 29.6283C61.2804 33.5245 59.3005 37.8869 56.8941 41.0193C56.0332 42.1422 55.6384 42.4655 55.6602 43.882C56.2077 44.8679 56.7454 45.5444 57.5766 46.3201L58.1697 46.9033L57.5329 47.3378L57.3127 47.2465L56.9497 47.5639C55.6007 46.4689 55.073 45.7944 54.3053 44.2807L54.2001 43.4872L53.9383 43.2948C52.4385 43.6102 48.3935 47.4886 46.9552 47.4033C46.8858 47.1989 46.8858 47.3041 46.9691 47.0898L47.112 47.2009C48.1277 46.6355 51.7283 44.8064 52.0497 43.8959L51.1986 44.2708L51.0974 44.0943C54.9163 41.7633 57.9178 37.2461 58.2094 32.7409C58.0011 32.4453 57.3722 31.743 57.1163 31.4732C57.2016 31.3284 57.154 31.4336 57.152 31.132C55.9042 29.781 56.1542 29.1899 55.3845 28.3765C55.6682 28.3527 55.9042 28.2436 56.1839 28.1484C55.4757 28.0512 54.7179 27.8885 54.1168 28.3289C53.73 28.4559 53.5574 28.5253 53.1527 28.6007C52.383 28.555 51.0955 28.9855 50.5122 29.4835C50.3991 29.5807 50.29 29.6819 50.1869 29.789L49.2684 29.8723C49.2148 29.4101 49.0541 29.1482 48.8557 28.7316L49.3854 28.1642L49.3874 28.1583Z" fill="#2B2D30"/>
<path d="M56.184 28.1423C57.6123 29.0827 58.5189 30.2849 58.9137 31.9632C59.8997 36.149 56.6105 39.1902 54.9203 42.5071L55.6583 43.8799C56.2058 44.8659 56.7434 45.5424 57.5746 46.318L58.1678 46.9013L57.531 47.3357L57.3108 47.2445L56.9477 47.5619C55.5987 46.4668 55.0711 45.7923 54.3033 44.2787L54.1982 43.4851L53.9363 43.2927C52.4365 43.6081 48.3916 47.4865 46.9533 47.4012C46.8839 47.1969 46.8839 47.302 46.9672 47.0877L47.11 47.1988C48.1257 46.6335 51.7263 44.8044 52.0477 43.8938L51.1967 44.2687L51.0955 44.0922C54.9143 41.7612 57.9158 37.2441 58.2075 32.7388C57.9992 32.4432 57.3703 31.741 57.1144 31.4712C57.1997 31.3264 57.1521 31.4315 57.1501 31.13C55.9023 29.779 56.1522 29.1878 55.3825 28.3744C55.6662 28.3506 55.9023 28.2415 56.182 28.1463L56.184 28.1423Z" fill="#2E3E4C"/>
<path d="M54.9202 42.5071L55.6582 43.8799C56.2057 44.8659 56.7433 45.5423 57.5745 46.318L58.1677 46.9013L57.5309 47.3357L57.3107 47.2445C56.0569 45.9153 54.1048 44.4691 54.9202 42.5051V42.5071Z" fill="#79C5DB"/>
<path d="M67.4678 30.1361C67.5769 29.3068 67.6463 28.0094 67.7812 27.2734C69.3127 36.6152 66.948 42.6242 59.1397 48.0836C58.862 47.6889 58.4831 47.2742 58.1657 46.9013L57.5725 46.318C57.7511 46.2803 57.9832 46.2407 58.1319 46.1335C62.411 43.0408 64.8888 39.6405 65.851 34.5957L66.1029 34.6651L66.3985 34.7524C67.1305 33.7903 67.4936 31.3125 67.4658 30.1361H67.4678Z" fill="#373637"/>
<path d="M22.719 43.4515C24.1771 42.7611 26.0042 45.5345 27.4048 45.9015C28.4562 46.6375 30.0274 47.1929 31.2435 47.6829C31.6938 48.1888 32.1957 48.2047 32.6639 48.649C32.6996 49.6826 33.2749 51.843 33.5308 52.938C35.588 52.9261 41.9501 53.2178 43.6304 52.8765H43.8962C44.3307 54.0589 45.0528 54.8762 45.5071 56.0268C46.4256 56.0507 50.0877 56.3304 50.5737 55.7213C51.2363 56.0209 51.4942 55.6102 52.5476 56.0784L52.2263 56.62C52.4167 57.725 52.3592 57.9948 52.2124 59.1057C51.397 59.2247 50.544 59.3973 49.7782 59.7068C51.6787 59.8397 59.9354 60.3317 61.0741 61.1371L61.332 61.7105C61.0522 63.113 61.4272 64.1763 61.1316 65.3805L60.7983 65.5968L61.1336 65.7138C61.5998 67.3286 60.0643 67.9535 58.7788 68.1043C56.5946 68.3582 54.3509 67.7591 52.2659 68.3305C54.7536 68.5348 61.207 67.896 62.8595 68.6756C63.2325 69.4136 64.272 71.1435 64.4029 71.7724L64.2065 71.9569L64.4862 72.1949C64.2561 75.0179 61.33 74.149 59.4136 74.1391C58.9117 74.1629 58.2035 74.1033 57.6857 74.0756C57.2294 74.1252 57.0053 74.1311 56.5569 74.1331C55.5769 73.6034 55.8943 74.3275 54.8489 74.0141C54.9064 73.4983 54.9302 73.1888 54.9441 72.671C54.6207 72.8456 54.1704 73.7502 53.9323 74.143C52.133 74.1529 45.9217 74.3275 44.4358 73.8633C43.9577 73.8633 43.6284 73.8335 43.1622 73.9288C40.8987 73.8038 36.2665 74.6053 34.0545 73.8931C33.7907 73.6887 33.5506 73.5439 33.2709 73.3654C32.9119 73.5856 32.3604 73.9486 32.0053 74.1371C30.7416 74.1291 24.3953 74.2323 23.6276 73.9625L22.6476 74.0696L22.0029 73.7998C21.7093 73.9109 19.5052 74.0855 19.3029 73.9387C18.7633 73.9684 18.2733 74.0319 17.7357 74.0974C14.9306 74.3454 13.3475 75.0615 12.7424 71.8775C12.923 71.1316 13.5082 70.467 13.9109 69.6219C14.6727 68.0309 15.2639 68.3146 16.8688 68.3324C16.107 67.5707 15.4126 66.4795 16.0217 65.4202C16.1308 64.8508 16.1586 63.5534 16.1883 62.9226C16.1665 62.2104 16.1328 62.0398 15.978 61.3355L16.1665 61.0062C17.0572 60.5698 23.6613 60.0599 25.1492 59.8794L24.8278 59.4866C24.6989 58.6058 24.687 57.3996 24.8834 56.5327L24.7068 56.1796C23.8458 55.2948 22.6635 52.7079 21.616 51.4363C20.884 50.5476 18.9478 48.9089 18.6185 48.3693L19.9873 47.1652C20.5983 46.6196 21.1637 46.0304 21.739 45.4472L21.8184 45.4075C22.1913 44.7171 22.4175 44.1716 22.721 43.4554L22.719 43.4515Z" fill="#373637"/>
<path d="M26.1728 68.2313C27.0576 67.4199 29.2934 67.5726 30.5055 67.5865C36.33 67.65 42.1584 67.6361 47.9809 67.6579C49.1474 67.6639 50.5142 67.892 51.6093 68.2769L52.2659 68.3304C54.7536 68.5348 61.207 67.896 62.8595 68.6756C63.2325 69.4136 64.272 71.1435 64.4029 71.7724L64.2065 71.9569L64.4862 72.1949C64.2561 75.0179 61.33 74.149 59.4136 74.139C58.9117 74.1629 58.2035 74.1033 57.6857 74.0756C57.2294 74.1252 57.0053 74.1311 56.5569 74.1331C55.5769 73.6034 55.8943 74.3275 54.8489 74.0141C54.9064 73.4983 54.9302 73.1888 54.9441 72.671C54.6207 72.8456 54.1704 73.7502 53.9323 74.143C52.133 74.1529 45.9217 74.3275 44.4358 73.8633C43.9577 73.8633 43.6284 73.8335 43.1622 73.9288C40.8987 73.8038 36.2665 74.6052 34.0545 73.8931C33.7907 73.6887 33.5506 73.5439 33.2709 73.3654C32.9119 73.5856 32.3604 73.9486 32.0053 74.1371C30.7416 74.1291 24.3953 74.2323 23.6276 73.9625L22.6476 74.0696L22.0029 73.7998C21.7093 73.9109 19.5052 74.0855 19.3029 73.9387C18.7633 73.9684 18.2733 74.0319 17.7357 74.0974C14.9306 74.3454 13.3475 75.0615 12.7424 71.8775C12.923 71.1316 13.5082 70.467 13.9109 69.6219C14.6727 68.0309 15.2639 68.3146 16.8688 68.3324C19.9258 68.3523 22.9809 68.3483 26.0379 68.3166L26.1748 68.2352L26.1728 68.2313Z" fill="#333535"/>
<path d="M34.3599 69.9592C37.0936 69.7905 40.3569 69.9929 43.1482 70.0604L44.9991 73.4586C47.5959 73.3971 50.5518 73.7066 53.1406 73.3793C54.0909 73.2583 53.9957 72.1632 54.5233 71.4411C55.7017 71.5323 58.7945 71.6692 59.7626 71.9112C60.0145 72.6175 59.7031 72.6869 59.6951 73.5142L59.4035 73.9149L59.4134 74.1371C58.9115 74.1609 58.2033 74.1014 57.6855 74.0736C57.2293 74.1232 57.0051 74.1291 56.5568 74.1311C55.5767 73.6015 55.8942 74.3255 54.8487 74.0121C54.9062 73.4963 54.93 73.1868 54.9439 72.6691C54.6205 72.8436 54.1702 73.7483 53.9322 74.1411C52.1328 74.151 45.9215 74.3255 44.4357 73.8613C43.9576 73.8613 43.6282 73.8316 43.162 73.9268C40.8985 73.8018 36.2663 74.6033 34.0544 73.8911C33.7905 73.6868 33.5505 73.5419 33.2708 73.3634C32.9117 73.5836 32.3602 73.9466 32.0051 74.1351C30.7414 74.1272 24.3952 74.2303 23.6274 73.9605L22.6474 74.0676L22.0027 73.7979C21.7091 73.9089 19.5051 74.0835 19.3027 73.9367C19.1896 73.4566 19.2452 73.0341 18.9595 72.6532C18.5469 72.7246 18.7354 72.7563 18.3941 72.5937L18.1561 71.8656C17.8407 72.2386 17.7276 72.3278 17.2673 72.2108L17.3764 71.9291C18.1462 71.5125 21.8579 71.7109 22.943 71.7287L23.7901 73.5281C26.3472 73.5796 29.5412 73.4785 32.2233 73.5023C32.9295 72.3179 33.6417 71.1376 34.3619 69.9612L34.3599 69.9592Z" fill="#2B2D30"/>
<path d="M35.1991 71.5422C37.6511 71.3478 39.5417 71.4212 42.0016 71.5779C42.5154 72.304 43.0927 73.0221 43.1621 73.9287C40.8986 73.8038 36.2664 74.6052 34.0544 73.893C34.6079 73.1015 34.842 72.429 35.1991 71.5442V71.5422Z" fill="#373637"/>
<path d="M35.6594 72.3795C36.9449 72.2961 38.9347 72.0918 40.1627 72.435C40.4761 72.5223 40.3531 72.4449 40.5297 72.7663L40.365 72.9687C39.0973 72.8476 36.5858 73.292 35.582 72.8576L35.6594 72.3814V72.3795Z" fill="#3D3F47"/>
<path d="M34.6914 70.5861C37.2128 70.5801 40.2381 70.5027 42.7099 70.6872C43.4876 71.5204 44.1938 72.7504 44.4378 73.8633C43.9597 73.8633 43.6304 73.8336 43.1642 73.9288C43.0948 73.0242 42.5175 72.304 42.0037 71.578C39.5438 71.4212 37.6512 71.3498 35.2012 71.5423C34.8441 72.427 34.61 73.0996 34.0566 73.8911C33.7927 73.6868 33.5527 73.5419 33.2729 73.3634C33.6161 73.0619 34.2133 71.3221 34.6934 70.5841L34.6914 70.5861Z" fill="#353641"/>
<path d="M18.1562 71.8636L18.4677 71.9569L18.5153 72.2207C20.3662 72.8079 21.6478 71.6673 22.0048 73.7979C21.7112 73.909 19.5072 74.0835 19.3049 73.9367C19.1918 73.4567 19.2473 73.0341 18.9617 72.6532C18.549 72.7246 18.7375 72.7564 18.3963 72.5937L18.1582 71.8656L18.1562 71.8636Z" fill="#353641"/>
<path d="M22.6476 74.0697C22.4096 73.3575 22.233 73.1353 22.4096 72.4628C22.9134 72.5282 23.3737 73.5162 23.6276 73.9625L22.6476 74.0697Z" fill="#3D3F47"/>
<path d="M57.6855 74.0756C58.239 73.4566 58.3144 72.437 58.9334 72.314C59.1675 73.1095 58.4811 73.4785 58.8124 74.0181L59.2547 73.7741L59.4035 73.9169L59.4134 74.1391C58.9115 74.1629 58.2033 74.1034 57.6855 74.0756Z" fill="#3D3F47"/>
<path d="M56.5569 74.1331C56.783 73.7284 57.2096 72.8694 57.5766 72.677C57.7353 73.3217 57.3603 73.4011 57.6857 74.0756C57.2294 74.1252 57.0052 74.1311 56.5569 74.1331Z" fill="#3D3F47"/>
<path d="M16.8668 68.3284C19.9238 68.3483 22.9789 68.3443 26.036 68.3126C25.9665 69.1259 25.8078 68.6776 25.5638 69.2807L25.5817 69.4453C24.5878 69.7965 25.4309 69.6913 25.0143 69.9512C24.433 70.3142 23.0483 70.2726 22.4234 70.2765L20.2908 70.6198H19.4061C18.4221 70.7031 17.3687 70.6634 16.6843 71.3934C16.353 72.4211 17.2278 73.2126 17.7357 74.0974C14.9306 74.3454 13.3475 75.0615 12.7424 71.8775C12.923 71.1316 13.5082 70.467 13.9109 69.6219C14.6727 68.0309 15.2639 68.3146 16.8688 68.3324L16.8668 68.3284Z" fill="#4C4E4F"/>
<path d="M16.8668 68.3285C19.9239 68.3483 22.9789 68.3444 26.036 68.3126C25.9666 69.126 25.8078 68.6777 25.5638 69.2807C21.5407 69.3819 17.95 69.3819 13.9089 69.618C14.6707 68.027 15.2619 68.3107 16.8668 68.3285Z" fill="#747478"/>
<path d="M15.7023 71.7227C15.7777 71.6335 15.853 71.5462 15.9284 71.4589C16.7854 70.4987 17.1842 70.3063 18.4161 70.2349C18.7534 70.3539 19.0946 70.4511 19.4061 70.6177C18.4221 70.6991 17.3687 70.6594 16.6843 71.3875C16.353 72.4151 17.2278 73.2066 17.7357 74.0914C14.9306 74.3394 13.3475 75.0555 12.7424 71.8715C13.8792 71.9786 14.6072 71.8874 15.7023 71.7207V71.7227Z" fill="#373637"/>
<path d="M18.416 70.2369L22.4253 70.2766L20.2927 70.6198H19.4079C19.0965 70.4552 18.7552 70.356 18.418 70.2389L18.416 70.2369Z" fill="#23272F"/>
<path d="M52.2658 68.3285C54.7535 68.5328 61.2068 67.8941 62.8593 68.6737C63.2323 69.4117 64.2718 71.1416 64.4027 71.7704L64.2063 71.9549C63.3454 71.9767 62.4368 71.8994 61.5738 71.8478C61.2564 71.3538 61.0461 70.9293 60.7783 70.4056C58.1716 70.2746 55.5708 70.3242 52.9403 70.2012L51.9563 68.9891L51.6091 68.275L52.2658 68.3285Z" fill="#525356"/>
<path d="M52.2657 68.3285C54.7534 68.5328 61.2068 67.8941 62.8593 68.6737C61.2346 69.3522 54.0413 69.0645 51.9583 68.9891L51.6111 68.275L52.2677 68.3285H52.2657Z" fill="#828486"/>
<path d="M26.1729 68.2313C27.0576 67.4199 29.2934 67.5726 30.5055 67.5865C36.33 67.65 42.1584 67.6361 47.9809 67.6579C49.1474 67.6639 50.5142 67.892 51.6093 68.2769L51.9565 68.991L51.7382 69.3501C51.5756 69.0605 51.4169 68.7669 51.2601 68.4753C50.6313 68.2114 50.7067 68.3285 49.9072 68.4534C49.6235 69.2688 48.7486 69.3561 47.9551 69.5921C47.3937 69.4116 46.6597 68.878 46.2332 68.4455L45.6103 68.3384C43.4717 68.1678 33.2947 67.9238 31.7533 68.509L31.6938 68.7867C30.9082 69.1974 30.2595 69.5525 29.4303 69.8798L29.0256 69.9215L28.9383 69.7747C27.9127 68.5348 27.6111 69.2946 26.3474 68.9216L26.4903 68.4316L26.1748 68.2352L26.1729 68.2313Z" fill="#2A3B5E"/>
<path d="M26.4902 68.4276C27.8591 68.4455 30.4599 68.3959 31.7533 68.505L31.6938 68.7827C30.9082 69.1934 30.2595 69.5485 29.4303 69.8758L29.0256 69.9175L28.9383 69.7707C27.9126 68.5308 27.6111 69.2906 26.3474 68.9176L26.4902 68.4276Z" fill="#828486"/>
<path d="M46.2332 68.4416C47.356 68.4376 48.8141 68.392 49.9072 68.4495C49.6235 69.2648 48.7486 69.3521 47.9551 69.5882C47.3937 69.4077 46.6597 68.874 46.2332 68.4416Z" fill="#828486"/>
<path d="M49.9071 68.4495C50.7066 68.3245 50.6312 68.2075 51.2601 68.4713C51.4168 68.7649 51.5775 69.0566 51.7382 69.3462C52.3492 72.4846 50.048 72.2049 47.7964 72.1454C47.5821 71.8121 47.2548 71.336 47.0723 71.0027C47.4869 71.1336 47.6674 71.1792 48.0959 71.2606L48.2348 71.0919C48.0384 70.471 47.9908 70.2349 47.9531 69.5862C48.7466 69.3502 49.6215 69.2629 49.9052 68.4475L49.9071 68.4495Z" fill="#4C4E4F"/>
<path d="M26.036 68.3125L26.1729 68.2312L26.4883 68.4276L26.3455 68.9176C27.6111 69.2906 27.9107 68.5308 28.9363 69.7706L29.0236 69.9174L29.4283 69.8758C29.4243 71.1097 29.345 71.2387 28.6705 72.2603C26.5954 72.2306 24.5918 72.2068 25.5817 69.4433L25.5638 69.2787C25.8078 68.6756 25.9665 69.1239 26.036 68.3106V68.3125Z" fill="#4C4E4F"/>
<path d="M29.0255 69.9175C28.9621 70.834 28.853 71.6811 27.8432 71.9906C26.8969 71.8934 26.5041 71.3438 26.5081 70.4154C27.0973 69.3045 27.8868 69.4731 28.9383 69.7687L29.0255 69.9155V69.9175Z" fill="#2A3B5E"/>
<path d="M22.4253 70.2746C23.0502 70.2706 24.4349 70.3123 25.0162 69.9492C25.4328 69.6894 24.5876 69.7945 25.5835 69.4434C24.5956 72.2068 26.5973 72.2286 28.6723 72.2604C29.1603 72.1691 29.5035 71.9628 29.9479 71.7446C30.1265 72.1592 30.0788 71.941 29.9836 72.425C29.325 72.9468 26.2223 72.6433 25.2721 72.6016C24.9229 72.0283 24.5817 71.3597 24.2603 70.7626C22.9748 70.6575 21.6278 70.709 20.2947 70.6158L22.4273 70.2726L22.4253 70.2746Z" fill="#2B2D30"/>
<path d="M54.5215 71.443C54.1842 71.3061 53.8867 71.1891 53.5435 71.0681C53.9739 70.8776 55.8367 70.8697 56.4775 70.8637C57.5904 70.8558 59.9353 70.4928 60.6653 71.4708C60.7685 72.425 60.3301 72.8436 59.6953 73.5141C59.7032 72.6849 60.0127 72.6154 59.7627 71.9112C58.7946 71.6692 55.7018 71.5323 54.5235 71.441L54.5215 71.443Z" fill="#3D3F47"/>
<path d="M29.4302 69.8758C30.2594 69.5465 30.9081 69.1934 31.6937 68.7827C31.1799 70.1139 30.3725 70.8439 29.948 71.7445C29.5036 71.9628 29.1604 72.1691 28.6724 72.2603C29.3469 71.2387 29.4242 71.1097 29.4302 69.8758Z" fill="#454850"/>
<path d="M45.6101 68.3345L46.233 68.4416C46.6595 68.8741 47.3936 69.4077 47.955 69.5882C47.9927 70.237 48.0403 70.473 48.2367 71.094L48.0978 71.2626C47.6713 71.1832 47.4888 71.1356 47.0742 71.0047C46.6199 70.0525 46.1418 69.245 45.6101 68.3345Z" fill="#525356"/>
<path d="M22.719 43.4515C24.1771 42.7611 26.0042 45.5345 27.4048 45.9015C28.4562 46.6375 30.0274 47.1929 31.2435 47.6829C31.6938 48.1888 32.1957 48.2047 32.6639 48.649C32.6996 49.6826 33.2749 51.843 33.5308 52.938C35.588 52.9261 41.9501 53.2178 43.6304 52.8765H43.8962C44.3307 54.0589 45.0528 54.8762 45.5071 56.0268C46.4256 56.0507 50.0877 56.3304 50.5738 55.7213C51.2364 56.0209 51.4943 55.6102 52.5477 56.0784L52.2263 56.62C52.4167 57.725 52.3592 57.9948 52.2124 59.1057C51.397 59.2247 50.544 59.3973 49.7783 59.7068C49.1414 59.7028 48.0246 59.6632 47.4294 59.7386L47.2469 60.0937C46.6577 59.2386 45.6083 59.5124 44.9536 60.1433L44.6025 60.9368L44.414 61.0598C44.0371 61.3197 43.9835 61.4169 43.5451 61.4803C42.4619 62.2183 40.4623 61.8731 39.0538 62.0715L38.7978 62.0814L37.2267 62.1191C35.5444 62.1211 33.9831 62.1211 32.2989 62.0358C31.0907 60.4706 31.4062 60.6789 29.6148 60.4071L29.5771 60.0084L29.4858 59.6414C27.9702 59.685 26.6529 59.7445 25.1433 59.8754L24.8219 59.4826C24.6929 58.6018 24.681 57.3957 24.8774 56.5287L24.7009 56.1756C23.8399 55.2909 22.6575 52.704 21.6101 51.4323C20.8781 50.5436 18.9419 48.905 18.6125 48.3654L19.9814 47.1612C20.5924 46.6156 21.1578 46.0264 21.7331 45.4432L21.8124 45.4035C22.1854 44.7132 22.4116 44.1676 22.7151 43.4515H22.719Z" fill="#353641"/>
<path d="M21.8163 45.4035C22.1476 45.1635 22.8995 44.4394 23.2387 44.6378C26.1212 46.3359 28.5454 48.1313 31.8385 48.9426C32.3504 50.2678 32.7392 51.7557 33.132 53.1305C32.5904 54.2831 32.148 54.9873 31.4636 56.0764C30.8248 56.0705 27.2797 56.005 26.8473 56.0784C26.1986 56.126 25.3376 56.2193 24.7067 56.1736C23.8458 55.2889 22.6634 52.702 21.6159 51.4303C20.8839 50.5416 18.9477 48.903 18.6184 48.3634L19.9872 47.1592C20.5983 46.6136 21.1636 46.0245 21.7389 45.4412L21.8183 45.4015L21.8163 45.4035Z" fill="#4C4E4F"/>
<path d="M21.7389 45.4432C21.6933 46.3002 20.9513 46.8359 20.3126 47.437C23.7803 50.865 24.2941 52.208 26.8492 56.0804C26.2005 56.1281 25.3395 56.2213 24.7087 56.1757C23.8477 55.2909 22.6654 52.704 21.6179 51.4324C20.8859 50.5436 18.9497 48.905 18.6204 48.3654L19.9892 47.1612C20.6002 46.6157 21.1656 46.0265 21.7409 45.4432H21.7389Z" fill="#373637"/>
<path d="M22.719 43.4515C24.1771 42.7611 26.0042 45.5345 27.4048 45.9015C28.4562 46.6375 30.0274 47.1929 31.2435 47.6829C31.6938 48.1888 32.1957 48.2047 32.6639 48.649C32.6996 49.6826 33.2749 51.843 33.5308 52.938C35.588 52.9261 41.9501 53.2178 43.6304 52.8765H43.8962C44.3307 54.0589 45.0528 54.8762 45.5071 56.0268C46.4256 56.0507 50.0877 56.3304 50.5738 55.7213C51.2364 56.0209 51.4942 55.6102 52.5477 56.0784L52.2263 56.62C50.4329 56.8065 46.6339 56.3621 45.6896 56.9473L45.2988 57.719L45.0449 56.8382L44.9675 57.11C44.537 57.598 44.4061 57.9154 43.7633 57.6575C43.3626 57.1239 42.9242 55.5924 42.5968 54.7731C39.9028 54.8128 37.2088 54.8128 34.5148 54.7731C34.2093 55.8543 34.0307 57.2112 33.1579 57.7726C32.5885 57.6456 32.6877 57.5742 32.2017 57.0346L31.9517 57.1021C31.4121 56.5605 30.0572 56.6894 29.2259 56.6736C28.6963 56.6736 27.998 56.6021 27.5675 56.8462L27.625 57.2271C26.647 58.1872 27.8928 59.191 24.8278 59.4846C24.6989 58.6038 24.687 57.3977 24.8834 56.5307L24.7068 56.1776C25.3377 56.2213 26.1986 56.13 26.8474 56.0824C27.2818 56.009 30.8249 56.0745 31.4637 56.0804C32.1481 54.9933 32.5885 54.289 33.1321 53.1344C32.7393 51.7597 32.3485 50.2718 31.8386 48.9466C28.5455 48.1352 26.1213 46.3399 23.2388 44.6417C22.8996 44.4414 22.1477 45.1675 21.8164 45.4075C22.1894 44.7171 22.4155 44.1716 22.719 43.4554V43.4515Z" fill="url(#paint0_linear_388_469)"/>
<path d="M33.5824 53.5213L43.5252 53.6284C44.2235 54.9278 44.5191 55.6876 44.9695 57.106C44.539 57.594 44.408 57.9114 43.7653 57.6536C43.3645 57.1199 42.9261 55.5884 42.5988 54.7691C39.9048 54.8088 37.2108 54.8088 34.5167 54.7691C34.2112 55.8503 34.0327 57.2072 33.1598 57.7686C32.5905 57.6417 32.6896 57.5702 32.2036 57.0306C32.4278 55.8701 33.0547 54.5846 33.5843 53.5193L33.5824 53.5213Z" fill="#525356"/>
<path d="M24.8852 56.5288L29.2278 56.6716C28.6981 56.6716 27.9998 56.6002 27.5693 56.8442L27.6268 57.2251C26.6488 58.1853 27.8946 59.1891 24.8296 59.4827C24.7007 58.6019 24.6888 57.3957 24.8852 56.5288Z" fill="#333535"/>
<path d="M45.3008 57.7151L45.6916 56.9434C46.6359 56.3582 50.4329 56.8026 52.2283 56.6161C52.4187 57.7211 52.3612 57.9909 52.2144 59.1018C51.2046 58.9431 50.3595 59.2387 49.9032 58.1297C50.0322 57.729 50.0778 57.6893 50.0639 57.2767L49.6652 57.0882L49.4589 57.1755C49.3954 57.8361 49.4589 58.2369 48.9074 58.6257C48.1039 58.6316 45.273 58.8122 44.9377 58.1893L45.3008 57.7131V57.7151Z" fill="#373637"/>
<path d="M44.1501 60.665C42.3825 61.3057 36.1077 60.5043 33.8997 60.7939C33.6696 60.8237 33.253 60.5638 33.0606 60.4328C32.7233 59.9389 32.7213 59.9805 32.6797 59.3894L32.9138 59.2207C33.9315 59.2049 34.5484 60.0976 35.2071 60.0956C37.5559 60.0936 40 60.3694 42.327 60.0956C42.5254 60.0718 43.3605 59.3437 43.8267 59.1791C44.3842 59.183 44.3505 59.2128 44.8127 59.5441L44.9575 60.1432L44.6064 60.9367L44.4179 61.0597L44.1501 60.6669V60.665Z" fill="#525356"/>
<path d="M44.8127 59.5421L44.9576 60.1412L44.6064 60.9347L44.418 61.0577L44.1501 60.6649C44.4457 60.2642 44.5786 59.9766 44.8127 59.5421Z" fill="#3D3F47"/>
<path d="M29.5811 60.0084C30.2198 59.4846 30.8388 59.6275 31.7414 59.6632C32.0608 60.2048 32.4794 60.9705 32.8464 61.4546C36.4748 61.4189 39.9266 61.3375 43.5491 61.4804C42.4659 62.2183 40.4662 61.8732 39.0577 62.0715L38.8018 62.0815L37.2306 62.1191C35.5484 62.1211 33.9871 62.1211 32.3028 62.0358C31.0947 60.4706 31.4101 60.6789 29.6187 60.4071L29.5811 60.0084Z" fill="url(#paint1_linear_388_469)"/>
<path d="M29.2259 56.6716C30.0571 56.6875 31.412 56.5605 31.9516 57.1001C32.0429 57.6635 32.1758 57.8679 32.0012 58.3221C30.9161 58.5543 28.9541 58.6237 27.8312 58.5582C27.6943 57.9869 27.6785 57.8163 27.6249 57.2251L27.5674 56.8442C27.9979 56.6002 28.6962 56.6696 29.2259 56.6716Z" fill="#373637"/>
<path d="M34.9808 55.3206C37.4725 55.4475 39.9959 55.3602 42.4955 55.4455C42.7157 56.1081 43.2751 57.3262 42.9934 57.9749L42.5629 58.0404C39.6805 58.0265 36.8 58.0384 33.9175 58.0761C34.2527 57.1477 34.5979 56.2311 34.9808 55.3206Z" fill="#4C4E4F"/>
<path d="M35.2885 59.0898C36.4252 59.0283 41.1903 58.7565 41.9363 59.3497L41.6784 59.556C40.2937 59.6711 36.0701 59.9885 35.1199 59.3041L35.2905 59.0898H35.2885Z" fill="#525356"/>
<path d="M44.9575 60.1412C45.6102 59.5104 46.6616 59.2366 47.2508 60.0916L47.4552 60.7542C48.1257 61.4862 51.0836 64.5135 49.7623 65.3884C49.3457 65.3249 49.3576 65.3527 49.0363 65.0869L49.2287 64.2735L49.0263 64.1366C47.9571 64.5949 49.0263 64.9956 47.4353 65.065C45.5586 65.1484 43.6581 65.065 41.7874 65.1622L40.8431 65.1047C40.617 63.6684 39.8333 64.1743 40.9879 62.9086C40.4463 62.0437 40.0178 62.1568 39.0537 62.0695C40.4622 61.8691 42.4619 62.2163 43.5451 61.4783C43.9835 61.4148 44.037 61.3176 44.414 61.0577L44.6024 60.9347L44.9536 60.1412H44.9575Z" fill="#3D3F47"/>
<path d="M44.9576 60.1412C45.6103 59.5104 46.6617 59.2366 47.2509 60.0916L47.4552 60.7542C46.9573 60.7879 45.0012 60.9585 44.6064 60.9347L44.9576 60.1412Z" fill="#747478"/>
<path d="M40.9918 62.9106C41.0236 63.5474 40.9304 64.4798 41.2339 64.9956L41.7913 65.1643L40.847 65.1067C40.6209 63.6704 39.8373 64.1763 40.9918 62.9106Z" fill="#353641"/>
<path d="M47.4314 59.7366C48.0246 59.6612 49.1434 59.7009 49.7802 59.7049C51.6807 59.8378 59.9374 60.3298 61.0761 61.1352L61.334 61.7085L60.4988 61.8157L58.6201 61.8335C57.3405 61.7998 55.5015 61.6312 54.341 62.0676C53.3134 63.125 54.4561 64.1942 55.1544 65.1941L51.403 65.1881C50.3436 63.3075 49.562 62.26 48.1971 60.5857L47.4334 59.7366H47.4314Z" fill="#525356"/>
<path d="M47.4314 59.7366C48.0246 59.6612 49.1434 59.7009 49.7802 59.7049C51.6807 59.8378 59.9374 60.3298 61.0761 61.1352L61.334 61.7085L60.4988 61.8157C58.269 60.8714 51.161 60.7682 48.1952 60.5857L47.4314 59.7366Z" fill="#828486"/>
<path d="M29.4917 59.6414L29.5829 60.0084L29.6206 60.4071C31.412 60.6769 31.0966 60.4686 32.3047 62.0358C33.989 62.1211 35.5522 62.1211 37.2325 62.1191C35.7704 63.0634 35.8716 63.4007 35.8676 65.1008C34.8956 65.194 29.8983 65.2456 28.6267 64.9639C28.4521 64.9262 28.7418 64.4442 28.0574 64.0534C27.5793 64.339 27.7122 64.3787 27.5039 65.1187L27.121 65.1742C26.7996 64.9381 26.8472 64.95 26.6588 64.5949L26.4743 64.9262L25.9744 64.8786C26.3354 63.6586 28.0475 61.5339 28.8747 60.5718C29.0374 60.3635 29.331 59.8854 29.4917 59.6433V59.6414Z" fill="#3D3F47"/>
<path d="M25.1492 59.8754C26.6589 59.7445 27.9762 59.683 29.4918 59.6414C29.3311 59.8834 29.0375 60.3595 28.8748 60.5698C28.0476 61.5319 26.3355 63.6546 25.9745 64.8766L25.8991 64.96C25.0381 65.1167 23.1694 65.1206 22.2152 65.1484C22.9155 63.9819 23.4749 63.0357 24.072 61.8176C22.5663 61.7422 20.7194 61.7918 19.1581 61.762C18.319 61.7819 18.1007 61.7759 17.3985 62.2798C16.9362 62.5695 16.7101 62.7381 16.1864 62.9206C16.1645 62.2084 16.1308 62.0378 15.9761 61.3335L16.1645 61.0042C17.0553 60.5678 23.6594 60.058 25.1472 59.8774L25.1492 59.8754Z" fill="#4C4E4F"/>
<path d="M25.1492 59.8754C26.6589 59.7445 27.9761 59.683 29.4918 59.6414C29.3311 59.8834 29.0375 60.3595 28.8748 60.5698C26.8077 60.7364 24.7544 60.9288 22.6793 60.9507C21.3204 60.9408 16.6009 61.526 15.978 61.3335L16.1665 61.0042C17.0572 60.5678 23.6613 60.058 25.1492 59.8774V59.8754Z" fill="#828486"/>
<path d="M15.9781 61.3336C16.603 61.526 21.3205 60.9408 22.6794 60.9507C20.9078 61.528 21.1578 61.2899 19.295 61.4169L21.8402 61.4744C21.1122 61.5597 19.7255 61.6053 19.1581 61.7621C18.319 61.7819 18.1007 61.776 17.3985 62.2798C16.9362 62.5695 16.7101 62.7381 16.1864 62.9206C16.1645 62.2084 16.1308 62.0378 15.9761 61.3336H15.9781Z" fill="#605F63"/>
<path d="M38.8018 62.0814L39.0577 62.0715C40.0218 62.1588 40.4503 62.0457 40.9919 62.9107C39.8373 64.1764 40.621 63.6705 40.8471 65.1068C39.9861 67.7552 39.0914 65.9717 38.0539 65.6206C37.5103 66.0689 37.3159 66.3784 36.7466 66.3447C36.3339 66.0233 36.3339 65.7039 36.2169 65.1802L35.8638 65.0968C35.8697 63.3987 35.7666 63.0615 37.2286 62.1152L38.7998 62.0775L38.8018 62.0814Z" fill="#333A4E"/>
<path d="M37.2306 62.1191L38.8018 62.0814C39.8929 63.7617 39.3037 63.7359 39.8274 65.5174L39.6469 65.7773L39.2977 65.7177C38.4884 64.4045 39.9524 63.6943 38.6947 63.3015C38.6213 63.3273 37.8337 63.599 37.8337 63.599C37.056 63.5157 36.8815 63.0198 36.4549 63.5435C36.3637 64.0871 36.2843 64.6326 36.2169 65.1801L35.8638 65.0968C35.8697 63.3987 35.7666 63.0614 37.2286 62.1151L37.2306 62.1191Z" fill="#353641"/>
<path d="M60.4988 61.8156L61.334 61.7085C61.0543 63.1111 61.4292 64.1744 61.1336 65.3786L60.8003 65.5948C59.5347 65.5531 56.5827 65.6801 55.7317 64.8548C57.1323 64.7933 59.0546 65.1921 59.9036 63.9343C60.0802 62.7857 59.6656 62.1291 58.6181 61.8335L60.4968 61.8156H60.4988Z" fill="#3D3F47"/>
<path d="M16.1883 62.9206C16.7121 62.738 16.9382 62.5694 17.4004 62.2798L17.3449 62.4901C16.4482 65.9717 20.1123 64.3271 21.2967 65.0135C19.6263 65.5551 17.7694 65.5273 16.0237 65.4162C16.1328 64.8468 16.1606 63.5494 16.1903 62.9186L16.1883 62.9206Z" fill="#4C4E4F"/>
<path d="M54.9837 62.2977C55.682 62.1906 56.6283 62.0477 57.2909 62.3156C57.5329 62.7639 57.3266 63.0436 57.1898 63.5217C57.3485 63.8114 57.3068 63.8451 57.6262 63.9879C57.6817 63.7975 57.7313 63.607 57.777 63.4126L57.8186 63.2281C58.1955 63.4305 58.4614 63.5574 58.8899 63.6288C58.9494 63.5118 59.0783 63.3868 59.1636 63.2857L59.237 63.9502C58.7867 64.2101 58.5149 63.7895 57.9595 63.8352L57.9138 63.978L58.5467 64.3113C57.7869 64.7437 55.938 64.0157 55.1048 63.8074L55.1603 63.8887C55.0175 63.7657 54.7874 63.5971 54.6743 63.4364C54.4223 63.0813 54.4005 62.9742 54.4521 62.5695L54.9837 62.2977Z" fill="#3D3F47"/>
<path d="M13.1868 21.5383C16.1705 17.0965 26.2601 18.5288 29.7437 21.5938C30.3666 22.1414 32.6619 23.538 31.9656 24.4426L31.3228 24.5616C30.8467 24.1391 29.9103 23.2781 29.3965 22.9587C29.7735 23.9903 31.2078 24.3057 31.0272 25.248C30.6463 25.6349 30.6186 25.8055 30.1861 25.8868L30.7257 25.2381L30.692 24.9405L30.5214 24.9723C29.9718 26.2121 28.6308 27.0017 28.0257 28.0551L28.6645 28.3031C28.2578 28.7415 27.9801 28.9538 27.8353 29.5311L28.1904 30.1143C27.9503 30.5607 27.5774 30.9693 27.8313 31.4772L28.1824 32.4076C29.2041 32.6655 29.2775 32.6873 29.6207 33.7744L29.71 33.9629C29.9718 34.3359 30.196 34.5938 30.3686 35.0104L30.6027 35.5281C30.7535 35.9666 30.8388 36.2681 31.0689 36.6787L31.1502 37.4088C31.2078 37.756 31.2137 37.9087 31.3248 38.2341C31.4914 38.5217 31.5291 38.5515 31.6382 38.8609C31.6263 39.5533 31.4974 39.3133 31.8208 39.7457L32.0767 40.2456L32.1322 40.3587L32.275 41.3566L32.5329 41.9001C32.5647 42.4278 32.4536 42.7333 32.5032 43.1202L32.8305 43.2769L33.0666 43.9375L32.9178 45.0048C32.9277 45.836 32.9238 46.703 32.9555 47.5282C32.283 47.7702 32.3127 47.6691 31.4895 47.3814C31.2732 47.5183 31.3645 47.4231 31.2375 47.683C30.0195 47.193 28.4503 46.6375 27.3988 45.9015C26.0002 45.5345 24.1732 42.7611 22.7131 43.4515C22.5762 42.9317 22.5742 42.6778 22.1556 42.3505C21.7886 43.4078 21.6378 43.8859 20.9395 44.8163C20.4535 45.5682 20.2313 45.7666 19.5806 46.3955L19.5509 46.4808L19.9794 47.1592L18.6105 48.3634C18.2495 48.5677 18.3209 48.53 17.9301 48.661L17.8607 48.4467L18.1979 47.8615C15.3769 46.8636 12.304 42.281 10.834 39.7576C8.76686 37.7103 8.60816 30.7452 9.30448 28.0432C9.83614 25.9761 10.9828 23.0519 12.8535 21.8537L13.1789 21.5403L13.1868 21.5383Z" fill="#4C4E4F"/>
<path d="M21.3004 28.4756C21.9213 28.0808 22.7466 27.9261 23.3358 28.4756C23.9964 28.4756 24.3634 28.4141 24.8157 28.9676L25.3136 29.2294C25.5339 29.3544 25.9961 29.6361 26.2103 29.7095L27.4324 30.2829C27.6307 30.0071 27.6863 29.8464 27.8371 29.533L28.1922 30.1162C27.9521 30.5626 27.5792 30.9712 27.8331 31.4791L28.1842 32.4095C29.2059 32.6674 29.2793 32.6892 29.6225 33.7763L29.7118 33.9648C29.9736 34.3378 30.1978 34.5957 30.3704 35.0123L30.6045 35.53C30.7552 35.9685 30.8405 36.27 31.0707 36.6806L31.152 37.4107C31.2095 37.7579 31.2155 37.9106 31.3266 38.236C31.4932 38.5236 31.5309 38.5534 31.64 38.8628C31.6281 39.5552 31.4992 39.3152 31.8225 39.7476L32.0784 40.2475L32.134 40.3606L32.2768 41.3585L32.5347 41.902C32.5665 42.4297 32.4554 42.7352 32.505 43.1221L32.8323 43.2788L33.0684 43.9394L32.9196 45.0067C32.9295 45.8379 32.9255 46.7049 32.9573 47.5301C32.2848 47.7721 32.3145 47.671 31.4912 47.3833C31.275 47.5202 31.3663 47.425 31.2393 47.6849C30.0212 47.1949 28.452 46.6394 27.4006 45.9034C26.002 45.5364 24.1749 42.763 22.7149 43.4534C22.578 42.9336 22.576 42.6797 22.1574 42.3524C20.2014 39.8964 17.6383 34.8615 18.2056 31.6378C18.4259 30.3939 20.0645 29.3743 21.0663 28.6898L21.2944 28.4796L21.3004 28.4756Z" fill="#333A4E"/>
<path d="M32.5387 41.9001C32.5705 42.4278 32.4594 42.7333 32.509 43.1202L32.8363 43.2769L33.0724 43.9375L32.9236 45.0048C32.9335 45.836 32.9295 46.703 32.9613 47.5282C32.2888 47.7702 32.3185 47.6691 31.4952 47.3814C31.279 47.5183 31.3703 47.4231 31.2433 47.683C30.0252 47.193 28.456 46.6375 27.4046 45.9015C27.2935 45.5543 27.2737 45.6 27.0078 45.348L27.1328 45.4036L26.9463 45.4452L26.9424 45.3242L27.1051 45.2647L27.0733 45.4214L27.1765 45.2667L27.3352 45.2786L27.5415 45.0266C28.4521 44.7906 29.1424 43.3245 29.9736 42.8762C30.664 42.5052 31.9832 42.5191 32.5367 41.9041L32.5387 41.9001Z" fill="#2E3E4C"/>
<path d="M32.5071 43.1201L32.8344 43.2769L33.0705 43.9375L32.9217 45.0048C32.2908 44.4672 31.3505 45.0226 30.7296 45.4154L30.3189 44.9691C30.071 45.1714 29.9698 45.5285 29.4302 45.959L29.1227 45.8717L28.9402 45.4432C29.0592 43.8264 31.2493 43.3245 32.5051 43.1182L32.5071 43.1201Z" fill="#1FCBF7"/>
<path d="M32.8343 43.2769L33.0704 43.9375L32.9216 45.0048C32.2908 44.4671 31.3504 45.0226 30.7295 45.4154L30.3188 44.969C31.4992 43.7351 32.144 44.2152 32.8343 43.2769Z" fill="#2E3E4C"/>
<path d="M30.7315 45.4154C31.3505 45.0206 32.2928 44.4671 32.9236 45.0048C32.9336 45.836 32.9296 46.7029 32.9613 47.5282C32.759 47.4825 32.5606 47.427 32.3622 47.3655C31.0509 46.9687 30.1344 46.9112 30.7315 45.4134V45.4154Z" fill="#747478"/>
<path d="M26.385 33.6574C27.0813 33.4868 27.5515 32.9035 28.1883 32.4095C29.21 32.6674 29.2834 32.6893 29.6266 33.7764L29.7158 33.9649C29.3746 34.6036 28.464 35.173 27.8471 35.6372L27.5376 35.2028C27.2123 34.6651 26.8909 33.9946 26.385 33.6574Z" fill="#525356"/>
<path d="M29.6246 33.7764L29.7139 33.9648C29.3727 34.6036 28.4621 35.173 27.8451 35.6372L27.5356 35.2027C28.2181 34.5362 28.7815 34.189 29.6246 33.7764Z" fill="#1AA2E0"/>
<path d="M23.3359 28.4776C23.9965 28.4776 24.3635 28.4161 24.8158 28.9696L25.3138 29.2315C25.1015 29.8107 24.5639 31.1716 24.429 31.7073C24.0005 31.8322 24.1751 31.8065 23.7029 31.7192L22.832 31.3403C23.1752 30.5686 23.6196 29.3922 23.209 28.6244L23.3379 28.4776H23.3359Z" fill="#454850"/>
<path d="M24.8138 28.9696L25.3118 29.2315C25.0995 29.8107 24.5619 31.1716 24.427 31.7073C23.9985 31.8322 24.1731 31.8065 23.7009 31.7192C24.0283 30.7193 24.2445 29.8584 24.8138 28.9716V28.9696Z" fill="#2AB7EF"/>
<path d="M25.3138 29.2314C25.534 29.3564 25.9962 29.6381 26.2104 29.7115L27.4325 30.2848C26.9901 30.8661 25.9545 32.0961 25.3277 32.4155C25.2761 32.352 25.1928 32.2964 25.1868 32.2151C24.9527 32.0266 24.6829 31.8699 24.427 31.7072C24.5619 31.1716 25.0995 29.8107 25.3118 29.2314H25.3138Z" fill="#6A6B6F"/>
<path d="M25.3138 29.2314C25.534 29.3564 25.9962 29.6381 26.2104 29.7115C25.8375 30.3245 25.3277 31.5148 25.1868 32.2151C24.9527 32.0266 24.6829 31.8699 24.427 31.7072C24.5619 31.1716 25.0995 29.8107 25.3118 29.2314H25.3138Z" fill="#525356"/>
<path d="M29.4678 42.1184L32.2808 41.3546L32.5387 41.8982C31.9833 42.5151 30.664 42.4993 29.9757 42.8702C29.1424 43.3186 28.4541 44.7846 27.5435 45.0207L27.4463 44.7846C27.5971 43.9574 28.8588 42.7512 29.4698 42.1164L29.4678 42.1184Z" fill="#1FCBF7"/>
<path d="M29.714 33.9648C29.9758 34.3378 30.2 34.5957 30.3726 35.0123L30.6067 35.5301C30.0254 36.1332 29.214 36.7461 28.3352 36.7461L27.8452 35.6372C28.4622 35.173 29.3747 34.6036 29.714 33.9648Z" fill="#525356"/>
<path d="M28.3352 36.7462C28.5137 35.792 29.5592 35.3992 30.3726 35.0123L30.6067 35.5301C30.0254 36.1332 29.214 36.7462 28.3352 36.7462Z" fill="#2AB7EF"/>
<path d="M30.6067 35.53C30.7574 35.9685 30.8427 36.27 31.0729 36.6806L31.1542 37.4107C30.3964 37.744 29.8667 38.0415 29.0454 38.1407L28.732 38.0078C28.6625 37.5357 28.5038 37.1925 28.3352 36.7481C29.214 36.7481 30.0254 36.1351 30.6067 35.532V35.53Z" fill="#454850"/>
<path d="M31.0748 36.6787L31.1561 37.4088C30.3983 37.742 29.8686 38.0396 29.0473 38.1388L28.7339 38.0059C29.6564 37.3691 30.0749 37.1647 31.0748 36.6807V36.6787Z" fill="#6C879C"/>
<path d="M21.3006 28.4757C22.4354 30.1282 20.7432 32.0624 19.3862 31.5962C19.6898 30.7809 20.6043 30.6758 20.7551 29.6759C20.7551 29.6759 21.0427 28.7812 21.0725 28.686L21.3006 28.4757Z" fill="#2AB7EF"/>
<path d="M27.8351 31.4792L28.1863 32.4096C27.5514 32.9035 27.0813 33.4868 26.383 33.6574L26.2937 33.2844C26.6329 32.5524 27.2459 32.0545 27.8331 31.4772L27.8351 31.4792Z" fill="#1AA2E0"/>
<path d="M32.0825 40.2456C31.5965 40.7535 30.5986 41.2257 29.9221 40.8091L30.0173 40.4877C30.5629 40.0116 31.1164 39.9401 31.8266 39.7457L32.0825 40.2456Z" fill="#79C5DB"/>
<path d="M31.3308 38.234C31.4974 38.5217 31.5351 38.5514 31.6442 38.8609C31.053 39.1505 30.2238 39.5394 29.589 39.2755L29.5811 39.0117C30.0492 38.5117 30.6464 38.4324 31.3308 38.234Z" fill="#6C879C"/>
<path d="M23.2049 28.6224C23.6156 29.3902 23.1712 30.5646 22.828 31.3383L22.4729 31.132C22.4927 30.1797 22.7506 29.4517 23.2049 28.6224Z" fill="#6C879C"/>
<path d="M21.6794 32.1953C22.2904 32.231 22.8717 32.3699 23.4212 32.6437C26.5695 34.2129 27.8193 37.8135 28.8648 40.9142C28.2578 42.1957 27.5237 43.2848 26.2739 44.003C25.7284 43.7074 25.1987 43.3781 24.6909 43.021C21.3878 40.6721 19.6579 37.0199 18.9973 33.1198C19.89 32.7349 20.7332 32.4274 21.6794 32.1973V32.1953Z" fill="#6A6B6F"/>
<path d="M10.8418 39.7556C8.77468 37.7083 8.61597 30.7431 9.31229 28.0412C9.84395 25.974 10.9906 23.0499 12.8613 21.8517C13.2343 22.2227 13.7084 22.669 14.0556 23.0499L13.7997 23.3614C13.7798 24.8314 12.9546 24.8631 12.3614 25.9959C12.3098 27.2873 11.4608 28.6343 11.2564 29.8901C10.5184 34.4112 11.6869 38.5554 14.7301 41.9933C16.8508 44.606 17.5511 44.5941 19.5865 46.3954L19.5567 46.4807L19.9852 47.1592L18.6164 48.3634C18.2553 48.5677 18.3267 48.53 17.9359 48.6609L17.8665 48.4467L18.2037 47.8615C15.3828 46.8636 12.3098 42.281 10.8398 39.7576L10.8418 39.7556Z" fill="#2B2D30"/>
<path d="M10.8418 39.7556C8.77468 37.7083 8.61597 30.7431 9.31229 28.0412C9.84395 25.974 10.9906 23.0499 12.8613 21.8517C13.2343 22.2227 13.7084 22.669 14.0556 23.0499L13.7997 23.3614C13.7798 24.8314 12.9546 24.8631 12.3614 25.9959C10.0899 29.7135 10.3875 32.7547 11.06 36.887C11.1255 37.2917 10.8974 37.3889 10.6355 37.5813C10.445 38.0158 10.7545 39.2239 10.8438 39.7576L10.8418 39.7556Z" fill="#828486"/>
<path d="M10.6357 37.5793C10.2687 36.5299 9.92942 32.9829 9.93141 31.8402C9.94132 28.0412 11.2229 25.9701 13.8018 23.3594C13.782 24.8294 12.9567 24.8611 12.3636 25.9939C10.0921 29.7115 10.3897 32.7527 11.0622 36.885C11.1276 37.2897 10.8995 37.3869 10.6376 37.5793H10.6357Z" fill="#747478"/>
<path d="M19.5567 46.4807L19.9852 47.1592L18.6163 48.3633C18.2553 48.5677 18.3267 48.53 17.9359 48.6609L17.8665 48.4467L18.2037 47.8614C18.6382 47.3556 19.0786 46.9429 19.5547 46.4827L19.5567 46.4807Z" fill="#1AA2E0"/>
<path d="M21.3859 42.775C18.9458 39.4699 16.0594 35.2603 16.9957 30.9455C17.7159 27.6305 20.2948 25.9165 23.5721 26.5236C25.2147 26.8271 26.4744 27.6841 28.0277 28.0551L28.6665 28.303C28.2598 28.7415 27.9821 28.9537 27.8373 29.531C27.6865 29.8445 27.631 30.0071 27.4326 30.2809L26.2105 29.7076C25.9943 29.6362 25.5341 29.3525 25.3139 29.2275L24.8159 28.9656C24.3636 28.4122 23.9966 28.4737 23.336 28.4737C22.7488 27.9222 21.9215 28.0769 21.3006 28.4737L21.0725 28.6839C20.0726 29.3684 18.432 30.388 18.2118 31.6319C17.6425 34.8556 20.2055 39.8925 22.1636 42.3465C21.7966 43.4038 21.6458 43.8819 20.9475 44.8123C20.6797 44.2231 21.1578 43.3761 21.3879 42.771L21.3859 42.775Z" fill="#373637"/>
<path d="M13.1867 21.5383C16.1704 17.0965 26.26 18.5288 29.7436 21.5938C30.3665 22.1414 32.6618 23.538 31.9655 24.4426L31.3227 24.5616C30.8466 24.1391 29.9102 23.2781 29.3964 22.9587C28.3371 21.7763 25.407 20.9154 23.9013 20.5543C22.2071 20.0941 19.7373 19.8461 18.2058 20.8658C16.3033 21.5065 15.6347 22.3239 14.2996 22.8793C14.3968 23.1472 14.4206 23.2047 14.4861 23.4864L14.254 23.6471C14.0001 23.292 14.0497 23.4943 14.0536 23.046C13.7065 22.6651 13.2323 22.2207 12.8594 21.8478L13.1847 21.5343L13.1867 21.5383Z" fill="#828486"/>
<path d="M13.1867 21.5382C13.6172 21.9767 14.0258 22.3337 14.3016 22.8813C14.3988 23.1491 14.4226 23.2066 14.4881 23.4883L14.2559 23.649C14.002 23.2939 14.0516 23.4963 14.0556 23.0479C13.7084 22.667 13.2343 22.2227 12.8613 21.8497L13.1867 21.5363V21.5382Z" fill="#525356"/>
<path d="M18.2077 20.8657C19.7392 19.8461 22.209 20.094 23.9032 20.5543C21.9749 20.8201 19.9256 20.8935 18.0886 21.4787C17.8744 21.5462 17.9755 21.5244 17.6938 21.5085C17.8783 21.32 18.1144 21.1177 18.2077 20.8638V20.8657Z" fill="#747478"/>
<path d="M35.336 7.56627C35.2547 7.31234 35.2745 7.45517 35.3082 7.13181C36.1196 6.741 40.4324 6.86598 41.4938 7.0346L41.716 7.36788L41.8112 7.63967C42.4916 8.30623 41.96 11.1808 42.1643 12.3849L42.3428 12.8948C42.8348 12.5595 43.6264 12.4445 44.1719 12.6905C44.1898 13.8708 42.2575 13.6506 41.466 13.6665L41.4581 13.7994L41.9004 14.1267C43.3268 14.2001 45.2908 13.8788 46.1478 14.5612C46.3938 15.0195 46.3105 15.448 46.2906 15.9836C46.5267 15.1524 46.4593 14.458 46.3501 13.6209C46.8064 12.8749 46.7648 13.0118 47.5325 12.7817L48.0463 12.5675C48.6157 13.3213 48.3855 17.9317 48.2308 18.9633C48.2149 19.0763 48.1951 19.1874 48.1733 19.2985C46.4057 19.2906 44.281 19.2291 42.5432 19.3422C42.5234 20.5761 42.3091 24.4069 42.8447 25.2956C42.7396 25.7598 42.5253 26.5018 41.9421 26.7398C40.2102 27.4421 37.2385 27.1544 35.3618 27.0215C35.0087 26.9957 34.8301 26.6426 34.6893 26.4343C34.6595 24.018 34.7667 21.6156 34.725 19.1716C33.2133 19.122 30.2217 19.4731 29.0057 18.8978C28.1685 18.501 28.5375 12.9345 28.8251 12.5556C29.7972 12.3314 30.6026 12.2381 31.6045 12.3849C32.269 12.2282 32.8582 12.1191 33.503 12.3155L33.7628 12.3413C34.1398 12.2342 34.2608 12.1826 34.6238 12.0358C35.6455 10.8951 34.8996 9.25647 35.3539 7.70513L35.332 7.56627H35.336Z" fill="#B0EDF8"/>
<path d="M31.6084 12.385C32.2729 12.2283 32.8621 12.1191 33.5069 12.3155C33.2649 12.6349 33.126 12.8789 32.7808 13.0813L32.7391 13.4304L32.9633 13.4701L33.3621 13.0555L33.7529 13.4424L34.0028 13.4146C33.9096 12.9285 33.9889 13.1606 33.6299 12.746C34.11 12.5754 35.7565 12.9325 36.4449 13.0218L36.4925 13.3134C35.3855 13.6645 33.1736 13.851 32.5626 14.2398L30.8267 14.2974C30.8148 15.0611 30.6819 16.6819 31.0013 17.2929C31.648 17.3029 32.1222 17.3068 32.761 17.3802L32.9494 17.4754C33.8104 18.3086 34.2508 18.4356 35.3975 18.8006C36.1196 19.856 35.7049 22.7881 35.5621 24.0379C35.33 26.0812 40.0297 25.6468 41.2299 25.6468C41.2061 24.022 41.0791 19.8203 41.3469 18.3463C42.4142 18.3265 42.9002 18.2412 43.5827 17.3802L44.0667 17.3901L44.4079 17.279C44.9693 17.3227 45.5407 17.2652 46.1041 17.2294C46.2608 16.7771 46.2489 16.4657 46.2945 15.9836C46.5306 15.1524 46.4632 14.4581 46.354 13.6209C46.8103 12.875 46.7687 13.0119 47.5364 12.7817L48.0502 12.5675C48.6196 13.3213 48.3894 17.9317 48.2347 18.9633C48.2188 19.0764 48.199 19.1875 48.1772 19.2986C46.4096 19.2906 44.2849 19.2291 42.5471 19.3422C42.5273 20.5761 42.313 24.4069 42.8487 25.2956C42.7435 25.7598 42.5293 26.5018 41.946 26.7398C40.2141 27.4421 37.2424 27.1545 35.3657 27.0216C35.0126 26.9958 34.834 26.6426 34.6932 26.4343C34.6634 24.0181 34.7706 21.6157 34.7289 19.1716C33.2172 19.122 30.2256 19.4731 29.0096 18.8978C28.1724 18.5011 28.5414 12.9345 28.829 12.5556C29.8011 12.3314 30.6065 12.2382 31.6084 12.385Z" fill="#353641"/>
<path d="M46.3521 13.6209C46.8084 12.875 46.7667 13.0119 47.5344 12.7817C47.3241 14.4382 47.3896 16.428 47.2666 18.1579C46.3342 18.1936 44.8345 18.3543 44.0528 17.8901C43.9457 17.533 43.9298 17.6976 44.0647 17.3901L44.406 17.279C44.9674 17.3227 45.5387 17.2652 46.1021 17.2294C46.2588 16.7771 46.2469 16.4657 46.2926 15.9836C46.5286 15.1524 46.4612 14.4581 46.3521 13.6209Z" fill="#4C4E4F"/>
<path d="M30.17 18.136C29.9637 17.0549 28.6663 14.7814 29.8883 13.5792C30.5093 14.3529 30.4577 16.6323 30.5727 17.6599C30.2652 17.9079 30.3525 17.7928 30.17 18.136Z" fill="#4C4E4F"/>
<path d="M28.8291 12.5555C29.8012 12.3314 30.6066 12.2381 31.6084 12.3849C32.0032 12.6646 32.0409 12.6349 32.2234 13.0674L31.9754 13.2161C30.9756 13.1685 29.823 12.8134 28.8291 12.5555Z" fill="#6A6B6F"/>
<path d="M30.9974 17.2928C31.6442 17.3028 32.1183 17.3067 32.7571 17.3801C31.4974 18.0427 31.6819 18.2768 30.1682 18.134C30.3507 17.7888 30.2634 17.9058 30.5709 17.6579L30.9955 17.2928H30.9974Z" fill="#525356"/>
<path d="M40.2836 14.0771L41.9044 14.1287C43.3308 14.2021 45.2948 13.8808 46.1518 14.5632C46.3978 15.0214 46.3144 15.4499 46.2946 15.9856C46.251 16.4676 46.2609 16.7791 46.1042 17.2314C45.5408 17.2671 44.9694 17.3247 44.408 17.281L44.0668 17.3921L43.5827 17.3822C42.9003 18.2432 42.4123 18.3285 41.347 18.3483C41.0792 19.8223 41.2061 24.024 41.2299 25.6487C40.0277 25.6487 35.3281 26.0832 35.5622 24.0399C35.705 22.792 36.1196 19.858 35.3975 18.8026C34.2509 18.4376 33.8105 18.3106 32.9495 17.4774L32.761 17.3822C32.1203 17.3068 31.6481 17.3028 31.0014 17.2949C30.684 16.6839 30.8149 15.0631 30.8268 14.2993L32.5626 14.2418C33.7549 14.2458 35.2071 14.0057 36.3339 14.2418L36.0224 14.3727L36.4965 14.5592L35.9629 14.7516C34.8182 14.7715 32.9495 14.6029 32.2075 15.3686C32.0707 15.9102 32.0925 15.8804 32.2075 16.4339C32.8166 16.9576 36.4846 16.6938 37.4706 16.664C37.4785 18.0011 37.179 22.1195 38.0816 23.0638C38.2324 23.2225 38.4129 23.1868 38.6668 23.2146C39.0021 23.044 39.2521 23.0043 39.3116 22.5381C39.5437 20.6733 39.4643 18.5586 39.5576 16.6918C41.3212 16.5291 44.5488 16.8961 45.6022 16.1006C45.8879 15.4559 45.8363 15.7852 45.7471 15.071C44.9992 14.7834 44.0727 14.8608 43.2435 14.8588C42.3131 14.8508 41.3728 14.7933 40.4404 14.7477L40.6209 14.3727L40.2836 14.0771Z" fill="#1FCBF7"/>
<path d="M36.8596 17.4001C36.8893 19.6616 36.9369 21.9489 36.9409 24.2065C37.9586 24.2164 38.9981 24.2164 40.0118 24.2402C40.0813 22.0382 40.1309 19.8342 40.1606 17.6302C40.6804 18.0884 40.7042 18.1281 41.345 18.3463C41.0771 19.8203 41.2041 24.022 41.2279 25.6468C40.0257 25.6468 35.3261 26.0812 35.5602 24.0379C35.703 22.7901 36.1176 19.856 35.3955 18.8006L36.3458 18.6955C36.7703 18.2888 36.6909 18.0904 36.8615 17.3981L36.8596 17.4001Z" fill="#4C4E4F"/>
<path d="M32.9475 17.4774C34.3362 17.3802 35.463 17.3842 36.8596 17.4C36.689 18.0924 36.7684 18.2908 36.3438 18.6974L35.3936 18.8026C34.2469 18.4376 33.8065 18.3106 32.9456 17.4774H32.9475Z" fill="#525356"/>
<path d="M40.2837 14.0771L41.9045 14.1287C43.3308 14.2021 45.2948 13.8808 46.1518 14.5632C46.3978 15.0214 46.3145 15.4499 46.2946 15.9856C46.251 16.4676 46.2609 16.7791 46.1042 17.2314C46.0526 16.6958 46.1736 15.3289 46.2113 14.7318C45.2393 14.7219 44.1898 14.6624 43.2455 14.8608C42.3151 14.8528 41.3748 14.7953 40.4424 14.7497L40.6229 14.3747L40.2857 14.0791L40.2837 14.0771Z" fill="#79C5DB"/>
<path d="M40.1606 17.6301L40.4086 17.396C41.5632 17.2056 43.2296 17.2036 44.408 17.279L44.0668 17.3901L43.5827 17.3802C42.9003 18.2411 42.4123 18.3264 41.347 18.3463C40.7062 18.1281 40.6824 18.0884 40.1626 17.6301H40.1606Z" fill="#6A6B6F"/>
<path d="M35.336 7.56627C35.2546 7.31234 35.2745 7.45517 35.3082 7.13181C36.1196 6.741 40.4324 6.86598 41.4937 7.0346L41.7159 7.36788L41.8111 7.63967L41.2735 8.29829C40.9006 8.37765 38.7918 8.78234 38.6569 8.89542C38.0776 8.91129 37.4686 8.84384 37.046 9.19101L36.9726 9.51635L37.2186 9.54214C37.5975 10.2523 37.29 12.4544 37.5301 13.5375C37.5856 14.2894 37.7086 14.212 37.3733 14.6802C36.7782 14.8012 36.552 14.7695 35.9569 14.7497L36.4905 14.5572L36.0164 14.3707L36.3279 14.2398C35.2011 14.0018 33.7469 14.2438 32.5566 14.2398C33.1677 13.851 35.3796 13.6645 36.4866 13.3134L36.439 13.0218C35.7526 12.9325 34.106 12.5754 33.6239 12.746C33.983 13.1626 33.9056 12.9285 33.9969 13.4145L33.7469 13.4423L33.3561 13.0555L32.9574 13.4701L32.7332 13.4304L32.7749 13.0813C33.12 12.8789 33.2589 12.6369 33.5009 12.3155L33.7608 12.3413C34.1377 12.2342 34.2588 12.1826 34.6218 12.0358C35.6435 10.8951 34.8975 9.25647 35.3518 7.70513L35.33 7.56627H35.336Z" fill="#373637"/>
<path d="M35.3359 7.56627C35.2546 7.31234 35.2744 7.45517 35.3081 7.13181C36.1195 6.741 40.4323 6.86598 41.4937 7.0346L41.7158 7.36788L41.8111 7.63967L41.2734 8.29829C40.9005 8.37765 38.7917 8.78234 38.6568 8.89542C38.0775 8.91129 37.4685 8.84384 37.0459 9.19101L36.9725 9.51635L36.8218 9.93494C36.798 9.71077 36.8257 9.50247 36.8495 9.2783L36.5559 9.02238L36.6016 8.82202L36.7285 8.86963L36.6115 8.69704C36.1631 9.38542 36.179 9.60959 35.5105 9.91907C35.5105 9.09777 35.5521 8.50263 35.3538 7.70315L35.3319 7.56428L35.3359 7.56627Z" fill="#3D3F47"/>
<path d="M35.3359 7.56627C35.2546 7.31234 35.2744 7.45517 35.3081 7.13181C36.1195 6.741 40.4323 6.86598 41.4937 7.0346L41.7158 7.36788C40.6783 7.8321 36.5599 7.74679 35.3339 7.56627H35.3359Z" fill="#828486"/>
<path d="M36.9766 9.51831L37.2226 9.5441C37.6016 10.2543 37.2941 12.4563 37.5341 13.5395C37.5896 14.2914 37.7126 14.214 37.3774 14.6822C36.7822 14.8032 36.5561 14.7714 35.9609 14.7516L36.4946 14.5592L36.0205 14.3727L36.3319 14.2418C37.2683 13.8093 36.9251 10.8832 36.8259 9.93888L36.9766 9.52029V9.51831Z" fill="#23DFF3"/>
<path d="M33.7668 12.3412C34.1438 12.2341 34.2648 12.1825 34.6278 12.0357C35.6495 10.895 34.9036 9.25642 35.3579 7.70508C35.5562 8.50455 35.5126 9.10168 35.5146 9.921C35.5523 10.653 35.6614 11.1926 35.3598 11.8433C34.8381 12.3651 34.4572 12.367 33.7668 12.3412Z" fill="#353641"/>
<path d="M41.8132 7.63968C42.4936 8.30624 41.962 11.1808 42.1663 12.385L42.3449 12.8948C42.8368 12.5595 43.6284 12.4445 44.1739 12.6905C44.1918 13.8708 42.2596 13.6506 41.468 13.6665L41.4601 13.7994L41.9025 14.1267L40.2817 14.0752C40.0793 13.0158 40.121 12.1548 40.127 11.0796C40.1309 10.4825 40.1944 9.81394 39.9663 9.28228C39.5874 8.90932 39.2085 8.949 38.6589 8.89345C38.7938 8.78037 40.9026 8.37567 41.2756 8.29632L41.8132 7.6377V7.63968Z" fill="#3D3F47"/>
<path d="M41.8131 7.63965C42.4936 8.30621 41.9619 11.1808 42.1662 12.3849C41.6227 12.5674 41.6306 12.6686 41.1624 12.5496C41.0474 11.7342 41.3092 9.57387 41.2834 8.58394L41.2735 8.29827L41.8111 7.63965H41.8131Z" fill="#373637"/>
<path d="M40.1289 11.0815C40.2102 11.6291 40.2836 12.1786 40.3451 12.7281L40.6645 12.5754C41.095 12.7896 41.5076 13.0158 41.9302 13.2439C42.0968 13.115 42.2019 13.0495 42.3468 12.8967C42.8387 12.5615 43.6303 12.4464 44.1758 12.6924C44.1937 13.8728 42.2615 13.6526 41.4699 13.6684L41.462 13.8014L41.9044 14.1287L40.2836 14.0771C40.0812 13.0177 40.1229 12.1568 40.1289 11.0815Z" fill="#6A6B6F"/>
<path d="M38.6589 8.89539C39.2084 8.95093 39.5873 8.90927 39.9662 9.28421C40.1944 9.81587 40.1309 10.4824 40.1269 11.0815C40.121 12.1548 40.0793 13.0177 40.2817 14.0771L40.6189 14.3727L40.4384 14.7476C40.0734 14.7754 40.0496 14.7595 39.6806 14.7238C38.7323 13.5692 40.2856 11.1629 38.8255 9.84365C38.3217 9.7266 38.274 9.67701 37.7622 9.79207C37.5559 10.3138 37.5519 12.8233 37.5301 13.5395C37.2901 12.4563 37.5976 10.2563 37.2187 9.54409L36.9727 9.5183L37.0461 9.19296C37.4686 8.84381 38.0776 8.91324 38.6569 8.89737L38.6589 8.89539Z" fill="#1FCBF7"/>
<path d="M22.1636 42.3485C22.5822 42.6778 22.5842 42.9298 22.721 43.4495C22.4175 44.1657 22.1894 44.7112 21.8184 45.4016L21.739 45.4413C21.1637 46.0245 20.5984 46.6137 19.9873 47.1593L19.5588 46.4808L19.5886 46.3955C20.2393 45.7666 20.4615 45.5682 20.9475 44.8164C21.6458 43.886 21.7966 43.4079 22.1636 42.3505V42.3485Z" fill="#79C5DB"/>
<path d="M45.5347 12.4762C46.4909 12.4325 47.1297 12.2837 48.0482 12.5654L47.5344 12.7797C46.7666 13.0098 46.8083 12.8749 46.352 13.6188C45.7787 13.5573 45.3185 13.5494 44.7908 13.3213L44.8185 13.0475L45.5327 12.4742L45.5347 12.4762Z" fill="#747478"/>
</g>
</g>
<defs>
<linearGradient id="paint0_linear_388_469" x1="37.4355" y1="44.2995" x2="37.0451" y2="57.3035" gradientUnits="userSpaceOnUse">
<stop stop-color="#332E2A"/>
<stop offset="1" stop-color="#28354A"/>
</linearGradient>
<linearGradient id="paint1_linear_388_469" x1="40.2465" y1="63.3355" x2="31.0945" y2="57.6712" gradientUnits="userSpaceOnUse">
<stop stop-color="#686A65"/>
<stop offset="1" stop-color="#88888A"/>
</linearGradient>
<clipPath id="clip0_388_469">
<rect width="78.19" height="78.19" fill="white"/>
</clipPath>
<clipPath id="clip1_388_469">
<rect width="73.1174" height="78.19" fill="white" transform="translate(2)"/>
</clipPath>
</defs>
</svg>
