<svg width="49" height="49" viewBox="0 0 49 49" fill="none" xmlns="http://www.w3.org/2000/svg">
<path d="M2.43571 6.03339L2.01807 7.70465L2.85355 7.91328L8.65546 9.36414L11.4693 13.5846L17.445 31.5118L13.9188 38.5644H15.6249C15.4253 38.97 15.3126 39.4248 15.3126 39.9043C15.3126 41.5855 16.6939 42.9668 18.3751 42.9668C20.0563 42.9668 21.4376 41.5855 21.4376 39.9043C21.4376 39.4248 21.3248 38.97 21.1252 38.5644H30.9374C30.7378 38.97 30.6251 39.4248 30.6251 39.9043C30.6251 41.5855 32.0064 42.9668 33.6876 42.9668C35.3688 42.9668 36.7501 41.5855 36.7501 39.9043C36.7501 39.4248 36.6373 38.97 36.4377 38.5644H37.6114V36.8418H16.7062L18.9074 32.4394H37.3708L44.07 12.3418H12.711L9.71968 7.85433L3.27149 6.2424L2.43571 6.03339ZM13.4452 14.0642H22.1075V18.4666H14.9127L13.4452 14.0642ZM23.8301 14.0642H31.295V18.4666H23.8301V14.0642ZM33.0176 14.0642H41.6799L40.2124 18.4666H33.0176V14.0642ZM15.4868 20.1892H22.1075V24.5916H16.9543L15.4868 20.1892ZM23.8301 20.1892H31.295V24.5916H23.8301V20.1892ZM33.0176 20.1892H39.6384L38.1709 24.5916H33.0176V20.1892ZM17.5285 26.3142H22.1075V30.7166H18.9958L17.5285 26.3142ZM23.8301 26.3142H31.295V30.7166H23.8301V26.3142ZM33.0176 26.3142H37.5967L36.1293 30.7166H33.0176V26.3142ZM18.3751 38.5642C19.1254 38.5642 19.7149 39.1537 19.7149 39.9041C19.7149 40.6544 19.1254 41.2439 18.3751 41.2439C17.6248 41.2439 17.0352 40.6544 17.0352 39.9041C17.0352 39.1537 17.6248 38.5642 18.3751 38.5642ZM33.6876 38.5642C34.4379 38.5642 35.0274 39.1537 35.0274 39.9041C35.0274 40.6544 34.4379 41.2439 33.6876 41.2439C32.9373 41.2439 32.3477 40.6544 32.3477 39.9041C32.3477 39.1537 32.9373 38.5642 33.6876 38.5642Z" fill="url(#paint0_linear_83_51)"/>
<defs>
<linearGradient id="paint0_linear_83_51" x1="2.01807" y1="24.5001" x2="44.07" y2="24.5001" gradientUnits="userSpaceOnUse">
<stop stop-color="#2FC8E3"/>
<stop offset="1" stop-color="white"/>
</linearGradient>
</defs>
</svg>
