<svg width="25" height="25" viewBox="0 0 25 25" fill="none" xmlns="http://www.w3.org/2000/svg">
<path d="M9.19326 2.9038C8.26133 2.9038 7.50576 3.65907 7.50576 4.5913C7.50576 5.37631 8.04204 6.03514 8.76763 6.22411L7.04185 10.2249C7.81709 10.3658 8.40439 11.0444 8.40439 11.8606C8.40439 12.7789 7.66074 13.5239 6.74277 13.5239C5.82471 13.5239 5.08105 12.7788 5.08105 11.8606C5.08105 11.2078 5.45718 10.6436 6.0042 10.3713L3.52305 6.50316C3.91401 6.21898 4.16855 5.75902 4.16855 5.23827C4.16855 4.37435 3.46963 3.67284 2.60605 3.67284C1.74238 3.67284 1.04199 4.3745 1.04199 5.23827C1.04199 6.10218 1.74238 6.80233 2.60596 6.80233C2.6418 6.80233 2.67764 6.80165 2.71279 6.7993L4.75903 17.8833H20.1887L22.2364 6.7993C22.2715 6.80165 22.3074 6.80238 22.3432 6.80238C23.2068 6.80238 23.9072 6.10218 23.9072 5.23832C23.9072 4.3744 23.2068 3.67289 22.3432 3.67289C21.4796 3.67289 20.7792 4.37455 20.7792 5.23832C20.7792 5.7619 21.0374 6.22401 21.4322 6.50785L18.9588 10.3912C19.4851 10.6705 19.8438 11.2233 19.8438 11.8607C19.8438 12.7789 19.1002 13.5239 18.1822 13.5239C17.2643 13.5239 16.5205 12.7789 16.5205 11.8606C16.5205 11.0252 17.1358 10.3339 17.938 10.2158L16.2412 6.2347C16.9871 6.06005 17.5428 5.39061 17.5428 4.5913C17.5428 3.65897 16.7873 2.9038 15.8553 2.9038C14.9232 2.9038 14.1676 3.65907 14.1676 4.5913C14.1676 5.31385 14.6221 5.92992 15.2602 6.17064L13.0858 9.88012C13.7997 10.1008 14.3187 10.7645 14.3187 11.5509C14.3187 12.5175 13.5349 13.3011 12.5686 13.3011C11.6022 13.3011 10.8199 12.5175 10.8199 11.5509C10.8199 10.8107 11.2791 10.1787 11.9277 9.92279L9.77319 6.1767C10.4194 5.94012 10.881 5.31967 10.881 4.59125C10.881 3.65892 10.1254 2.90375 9.19336 2.90375L9.19326 2.9038ZM4.75762 18.7957C3.58682 18.9794 3.64141 20.7412 4.96211 20.7412H5.28711L5.29023 20.758H19.6594L19.6625 20.7412H20.0348C21.306 20.7412 21.3961 18.987 20.2454 18.7958H4.75757L4.75762 18.7957Z" fill="#D57DFF"/>
</svg>
