<svg width="44" height="44" viewBox="0 0 44 44" fill="none" xmlns="http://www.w3.org/2000/svg">
<path d="M22.0134 1.85841C18.0942 1.85841 14.5475 2.10351 11.9398 2.50836C10.6361 2.71074 9.57189 2.9475 8.77095 3.2414C8.37049 3.38836 8.03464 3.54347 7.74246 3.76511C7.46419 3.97626 7.17097 4.31167 7.14347 4.77487H7.07902C7.07902 5.64112 7.11013 6.49551 7.17046 7.33693H4.94399C4.93367 6.65355 4.94424 5.96863 4.9763 5.28517L2.67214 4.74548C1.93789 13.9126 5.5086 22.835 12.0797 29.1891L13.4251 26.6459C13.0643 26.3471 12.7161 26.0389 12.3803 25.7221C12.8827 25.1968 13.4368 24.7114 14.0372 24.2746C15.1946 25.4066 16.4591 26.2997 17.8024 26.909C19.7028 28.4339 18.4944 29.4328 15.7829 30.0243C20.8414 30.9352 19.1299 35.3753 14.569 37.9574C14.3851 37.9806 14.2032 38.0023 14.0293 38.0272C12.994 38.1748 12.1493 38.346 11.5022 38.5643C11.1787 38.6734 10.9043 38.7877 10.6509 38.9644C10.3974 39.141 10.0815 39.4547 10.0815 39.9446C10.0815 40.4346 10.3975 40.7456 10.6509 40.9222C10.9043 41.0988 11.1786 41.2132 11.5022 41.3224C12.1493 41.5407 12.9941 41.7118 14.0293 41.8595C16.0999 42.1548 18.9092 42.3347 22.0134 42.3347C25.1177 42.3347 27.9269 42.1548 29.9975 41.8595C31.0329 41.7118 31.8776 41.5407 32.5247 41.3224C32.8482 41.2132 33.1225 41.0988 33.3759 40.9222C33.6292 40.7456 33.9452 40.4346 33.9452 39.9447C33.9452 39.4547 33.6292 39.141 33.3759 38.9644C33.1225 38.7878 32.8482 38.6733 32.5246 38.5643C31.8775 38.346 31.0327 38.1748 29.9973 38.0272C29.8244 38.0025 29.6433 37.9804 29.4602 37.9573C24.899 35.3753 23.1877 30.9354 28.2464 30.0243C25.5335 29.4325 24.325 28.4325 26.2296 26.9064C27.5822 26.292 28.8547 25.3892 30.0187 24.245C30.5901 24.6551 31.1222 25.1076 31.606 25.5959C31.2532 25.9544 30.8895 26.3055 30.5129 26.6458L31.904 29.189C38.7032 23.0054 41.8895 13.7607 41.3597 4.69684L39.01 5.38176C39.0487 6.03575 39.065 6.68715 39.0583 7.33684H36.8589C36.9192 6.49534 36.9502 5.64087 36.9502 4.7747H36.8858C36.858 4.3115 36.5624 3.97608 36.2842 3.76494C35.9918 3.54322 35.656 3.38827 35.2555 3.24132C34.4546 2.94724 33.3903 2.71048 32.0866 2.5081C29.4791 2.10333 25.9323 1.85815 22.013 1.85815L22.0134 1.85841ZM22.0134 3.46441C25.8653 3.46441 29.3547 3.70968 31.8398 4.09545C33.0825 4.28838 34.0794 4.51929 34.7027 4.74806C34.7921 4.78089 34.8552 4.81251 34.9283 4.84474C34.8552 4.87697 34.7925 4.90851 34.7027 4.94142C34.0795 5.17019 33.0824 5.40376 31.8398 5.59669C29.3547 5.98255 25.8653 6.22782 22.0134 6.22782C18.1617 6.22782 14.6722 5.98247 12.187 5.59661C10.9443 5.40368 9.94744 5.1701 9.32422 4.94133C9.23399 4.90816 9.17211 4.87705 9.09863 4.84465C9.17194 4.81234 9.23416 4.78106 9.32422 4.74797C9.94744 4.51921 10.9444 4.28821 12.1871 4.09537C14.6722 3.70951 18.1616 3.46441 22.0134 3.46441ZM5.06224 9.64108H7.41211C8.10451 14.615 9.83813 18.9937 12.2408 22.2094C11.6414 22.7027 11.0886 23.2379 10.5918 23.8154C7.27049 19.8231 5.51788 14.8223 5.06224 9.64108ZM36.6175 9.64108H38.9378C38.4579 14.7658 36.5523 19.623 33.3463 23.6328C32.8788 23.1125 32.3661 22.6248 31.813 22.1745C34.203 18.9621 35.9271 14.5969 36.6175 9.64117V9.64108Z" fill="url(#paint0_linear_83_48)"/>
<defs>
<linearGradient id="paint0_linear_83_48" x1="2.57739" y1="22.0964" x2="41.4164" y2="22.0964" gradientUnits="userSpaceOnUse">
<stop stop-color="#2FC8E3"/>
<stop offset="1" stop-color="white"/>
</linearGradient>
</defs>
</svg>
