<svg width="46" height="47" viewBox="0 0 46 47" fill="none" xmlns="http://www.w3.org/2000/svg">
<path d="M45.7519 0L37.42 3.32281L21.6769 19.066L18.3601 15.9944L21.3418 13.2339L0 0.448561L14.9475 14.2957L11.9717 17.0532L18.0549 22.6877L11.3528 29.3898C11.6334 29.7276 11.9189 30.0606 12.211 30.3887L13.1352 31.3128L19.9779 24.47L21.2908 25.6843L14.4002 32.575L15.3422 33.5171C15.6773 33.8153 16.0163 34.1095 16.3621 34.3963L23.2527 27.5057L27.1557 31.1184L24.3803 33.6906L45.7221 46.4759L30.5349 32.4104L33.3103 29.8416L26.8775 23.881L42.4292 8.32924L45.7518 0.000191392L45.7519 0ZM39.3073 5.13811L40.5723 6.40311L24.9126 22.0626L23.5998 20.8484L39.3071 5.13801L39.3073 5.13811ZM6.67252 25.8937L4.01044 28.5554L17.1549 41.7026L19.8164 39.0379C14.4299 35.7195 9.95762 31.2269 6.67223 25.8938L6.67252 25.8937ZM8.46695 35.5418L0.714998 43.2937L2.41373 44.9924L10.1657 37.2405L8.46695 35.5418Z" fill="url(#paint0_linear_83_121)"/>
<defs>
<linearGradient id="paint0_linear_83_121" x1="0" y1="23.238" x2="45.7519" y2="23.238" gradientUnits="userSpaceOnUse">
<stop stop-color="#2FC8E3"/>
<stop offset="1" stop-color="white"/>
</linearGradient>
</defs>
</svg>
