<svg width="79" height="79" viewBox="0 0 79 79" fill="none" xmlns="http://www.w3.org/2000/svg">
<g clip-path="url(#clip0_375_451)">
<g clip-path="url(#clip1_375_451)">
<path d="M38.4516 0C39.3425 1.88733 40.1482 4.57108 41.0057 6.6603C42.4337 6.3158 43.8488 6.19171 45.312 6.15096C44.2933 7.43264 41.7966 10.6869 42.6393 12.3649C44.0655 13.5299 47.9698 11.1832 49.2607 10.3924C49.007 11.6889 48.7458 12.9817 48.4736 14.2745C49.909 15.0246 52.3501 15.8636 53.9652 16.5489C52.0315 17.2971 50.2738 17.9787 48.3884 18.8381C48.6273 19.7197 49.0514 21.0477 49.0477 21.9145C48.2013 22.8999 44.9008 19.5716 42.8857 20.2532C41.5077 21.4663 43.2709 24.3871 44.0099 25.591C48.7681 22.2942 49.6793 22.1257 55.2117 20.7866C55.8358 19.7049 56.5378 18.2566 57.1508 17.1156C57.4898 18.3399 57.8658 20.0013 58.3047 21.1478C59.2901 21.5386 60.2643 21.9553 61.2256 22.3998C62.6721 21.496 64.2112 20.3439 65.6151 19.3419L63.9038 24.3631C64.5316 25.015 65.1521 25.6725 65.7652 26.3375L69.5028 25.7244C68.7934 26.832 67.7544 28.1822 66.9672 29.2712C67.1857 30.1492 67.4062 30.79 67.7006 31.642C69.0416 31.8754 70.5548 32.2254 71.9013 32.5014C70.7993 33.2089 69.249 34.0331 68.084 34.7017C68.0229 35.7056 67.9692 36.6372 67.847 37.6355C69.2601 38.4208 70.6548 39.2395 72.0273 40.0915C70.2973 40.3841 68.6249 40.636 66.9302 41.0953C66.6134 41.8232 66.4986 42.3566 66.3078 43.1179C67.0635 44.0328 67.7414 44.9218 68.4582 45.8683C67.2543 45.5405 66.3171 45.4052 65.0762 45.2145L64.1408 46.6128C68.1655 49.1169 66.1615 51.2247 66.0578 55.0605C66.0374 55.8439 66.5393 57.7146 66.7264 58.5758C65.467 59.2889 65.4077 59.7668 64.7372 61.0929L63.5463 60.5243C63.0777 60.891 62.5795 61.3244 62.1183 61.7096C62.2461 60.1594 62.7517 54.0585 61.6145 53.1065L61.2978 53.1509C60.0569 54.3844 59.5531 55.9736 59.066 57.6035C59.6698 58.3073 59.8531 58.6444 60.305 59.4297C59.9902 60.8929 59.5494 61.9689 59.2975 63.5229C60.1884 65.012 60.3625 65.4751 60.2865 67.1587C61.5108 68.8089 62.9462 70.4944 64.276 72.0613C65.604 72.2261 66.1652 72.5669 66.4986 73.9486C66.8116 75.2432 66.4801 76.8454 65.78 77.9752C65.0095 78.2937 59.5475 78.0178 58.2751 78.0178L38.2979 78.0678C30.6986 78.0807 23.1122 78.1641 15.5166 78.19C14.0774 78.1956 12.5142 78.0881 11.0918 77.89C10.3787 77.301 10.3713 75.5655 10.3732 74.6746C10.375 72.8281 10.6806 72.4761 12.405 72.1446C13.7811 70.7425 15.4925 68.5441 16.7223 66.9994C16.7112 65.3547 17.5076 64.1211 17.4669 62.7802C17.3854 60.1576 15.4202 60.0353 17.9021 57.6572C17.6039 56.7663 16.6001 52.9046 15.2999 53.2305C14.9683 53.6676 14.9813 53.9381 14.9016 54.4807C14.8313 55.505 14.7387 56.6607 14.809 57.6775L14.9165 59.2908L15.0461 61.8726C14.0515 60.9262 14.2997 60.8651 12.8661 60.6891C11.9549 60.578 12.1809 59.4741 10.2472 59.0666C11.0825 55.905 11.4122 54.6271 10.4417 51.3784C9.70454 48.9114 11.0992 47.8556 12.9273 46.5165C12.668 46.022 12.3161 45.5534 11.9938 45.0922L8.62845 45.8146C9.31003 44.8792 10.0046 43.9532 10.7084 43.0345L10.099 41.1361C8.40804 40.786 6.70963 40.4878 5.00195 40.2396L9.31929 37.6818C9.21002 36.7372 9.16557 35.8 9.11186 34.8517C7.85055 34.0627 6.39662 33.3348 5.07233 32.6366C6.45774 32.2643 8.05984 31.9235 9.47302 31.5846C9.70824 30.7752 9.85086 30.0677 10.0213 29.249C9.44339 28.2803 8.16726 26.6838 7.44678 25.6911L11.4715 26.4912C11.9734 25.6911 12.6031 24.9446 13.194 24.2019C12.6365 22.6665 12.1605 21.0959 11.6715 19.5364C13.068 20.4847 14.4553 21.4422 15.837 22.4128C16.7723 21.9831 17.7817 21.6108 18.7467 21.2367C19.1597 19.8864 19.5487 18.4918 19.9432 17.1323C20.6359 18.4177 21.21 19.6994 21.9361 21.0144C24.1994 21.3219 25.5292 21.7015 27.6888 22.3461C27.9889 21.2052 28.2611 20.0124 28.539 18.8641C26.9109 18.1028 24.6643 17.2546 22.9622 16.5526C24.542 15.8154 26.8017 15.0301 28.4797 14.4023C28.1834 13.0317 27.9537 11.8759 27.75 10.4905C29.2446 11.3536 32.8193 13.5669 34.414 12.2667C35.3845 10.4887 32.6859 7.41412 31.6135 6.138C33.0378 6.13059 34.6473 6.42323 36.0401 6.69734C36.8292 4.87113 37.7719 1.93364 38.4553 0.00555642L38.4516 0Z" fill="#3D3F47"/>
<path d="M11.5566 52.4008L13.5736 52.4767C14.0681 53.0101 14.1311 53.1175 14.4608 53.7695C14.7812 54.1677 14.7404 54.0325 14.8979 54.4844C14.8275 55.5087 14.7349 56.6644 14.8053 57.6812L14.9127 59.2944C14.7701 59.6519 14.746 60.0093 14.3089 60.0649C12.6734 58.8184 12.6864 59.8167 11.3455 58.2924C11.8103 55.8198 11.6437 54.8937 11.5566 52.4026V52.4008Z" fill="#F2E9DA"/>
<path d="M14.4626 53.7695C14.7831 54.1677 14.7423 54.0325 14.8998 54.4845C14.8294 55.5087 14.7368 56.6644 14.8071 57.6813L14.3237 57.6572C14.2441 57.5423 13.8385 56.9385 13.8496 56.8774C14.0681 55.6569 14.3182 55.0494 14.4608 53.7714L14.4626 53.7695Z" fill="#454850"/>
<path d="M14.3238 57.6553L14.8072 57.6794L14.9146 59.2926C14.772 59.6501 14.7479 60.0075 14.3108 60.0631C14.5368 59.3593 14.3867 58.411 14.3256 57.6534L14.3238 57.6553Z" fill="#454850"/>
<path d="M35.2752 28.91C35.2567 28.3118 35.1918 28.0896 35.4956 27.5747L35.8068 27.3969C36.5643 27.7451 36.5291 28.121 36.7513 28.9008C37.0236 29.6305 37.3625 30.627 37.6626 31.3234C37.8793 31.9402 38.159 32.8477 38.4812 33.3848C39.0258 33.7015 39.0554 33.7256 39.6499 33.9108L39.7277 34.1998C40.013 34.3016 40.3778 34.4461 40.6612 34.5276C40.8501 34.898 41.2002 35.4055 41.0372 35.8148C40.915 36.6261 40.8186 36.4927 41.4817 37.0965L41.3724 37.2799L40.8705 36.9391L40.7112 37.0669C41.0205 37.5021 40.8168 37.7096 40.6631 38.2467C40.902 38.3115 40.9001 38.3208 41.1465 38.3393L40.8779 38.8005L40.1463 38.3912C40.4464 39.145 40.4853 40.3155 40.5408 41.1472C39.8277 43.3827 40.6427 42.3603 40.8094 43.8457L41.152 43.6661L41.0039 44.1643C41.8077 44.2773 41.8355 44.4366 42.293 45.02L42.643 45.1811C42.7949 45.7423 42.8782 47.6574 42.7541 48.2779C42.4856 52.1026 42.4504 54.5567 42.5022 58.398C40.3964 58.4035 36.6717 58.5165 34.701 58.348C34.4843 56.1032 34.7232 51.1265 34.3713 49.6096C33.9009 50.393 34.2898 50.8968 33.9787 51.8451C33.9639 51.245 34.0398 50.0115 33.7268 49.5948C33.9398 49.554 33.9731 49.517 34.1732 49.4207C34.3287 48.8465 34.5955 47.8612 34.2769 47.3629L34.1435 46.1387L33.9361 45.346C33.399 44.5773 33.5027 44.7218 33.5842 43.8605C32.9044 43.8476 32.6285 43.9717 32.3562 43.3327L32.1932 43.1512C32.3303 42.8733 32.7433 42.4103 32.9563 42.1473L33.486 41.4287C33.5342 41.1786 33.5194 41.2842 33.7657 41.0471C33.2675 40.6656 33.4027 40.8916 33.1897 40.4081L32.9971 40.3063C33.9305 39.5321 34.0176 39.6562 33.825 38.5467L33.9842 38.18C33.862 37.041 33.8157 36.4372 33.8342 35.2962L30.7189 35.3537C27.9407 35.2944 25.1606 35.3333 22.3861 35.474L21.4619 34.1257C24.9087 33.6793 31.2246 33.9294 34.9103 34.0071L34.8492 32.9829C34.8807 32.0254 35.1381 29.8417 35.277 28.9119L35.2752 28.91Z" fill="#F1CE6D"/>
<path d="M42.5836 48.315L42.7558 48.2761C42.4873 52.1008 42.4521 54.5549 42.5039 58.3962C40.3981 58.4018 36.6734 58.5148 34.7027 58.3462C34.486 56.1014 34.725 51.1247 34.373 49.6078L34.4231 48.9318C35.0732 48.7688 36.1104 49.6282 36.6215 50.0394C37.292 50.6432 37.8106 51.1136 38.5367 51.6507C38.82 51.3988 39.8054 50.4931 40.061 50.3283L40.8852 49.6967C41.4519 49.267 42.0335 48.7688 42.5854 48.315H42.5836Z" fill="white"/>
<path d="M38.4404 52.8953C39.109 53.3287 40.5222 56.4588 41.1445 57.3849C40.3277 57.5664 39.4868 57.6738 38.6589 57.8072C37.8162 57.6757 36.9827 57.4441 36.153 57.246L36.0752 57.0737C37.0531 55.8124 37.7292 54.314 38.4404 52.8934V52.8953Z" fill="#3A3C4B"/>
<path d="M38.4201 54.6085C38.6202 54.8067 38.8609 55.003 38.985 55.2382C39.3221 55.8309 39.6388 56.2236 39.624 56.8885L39.374 57.0237C38.9146 56.7533 39.0499 56.9404 38.8998 56.4866L38.6794 56.2217C38.5702 56.5088 38.5424 56.6218 38.4757 56.9218C38.1238 57.1793 38.0127 57.2404 37.62 57.1145L37.5015 56.7644C37.6552 55.7624 37.8497 55.4605 38.422 54.6085H38.4201Z" fill="#E6E4E5"/>
<path d="M38.9831 55.2383C39.3202 55.831 39.637 56.2236 39.6221 56.8885L39.3721 57.0237C38.9128 56.7533 39.048 56.9404 38.8979 56.4866L38.9831 55.2401V55.2383Z" fill="#CFCFD1"/>
<path d="M38.4199 54.6085C38.62 54.8067 38.8607 55.003 38.9848 55.2383L38.8996 56.4848L38.6792 56.2199C38.5699 56.507 38.5422 56.62 38.4755 56.92L38.4218 54.6067L38.4199 54.6085Z" fill="#605F63"/>
<path d="M41.3741 52.7583C41.6705 52.6027 42.0372 52.712 42.2039 53.0046C42.3687 53.2954 42.2724 53.6658 41.9872 53.8418C41.7927 53.9603 41.5501 53.964 41.3519 53.851C41.1556 53.738 41.0352 53.525 41.0389 53.2991C41.0426 53.0713 41.1723 52.8657 41.3741 52.7601V52.7583Z" fill="#3D3F47"/>
<path d="M35.6122 52.5471L35.9956 52.7694C36.2438 53.2194 36.2512 53.5343 36.2512 54.0437C35.9104 53.9788 35.6697 53.9251 35.3733 53.7381C35.264 53.2472 35.4363 53.0102 35.6122 52.5471Z" fill="#605F63"/>
<path d="M33.9843 38.1782C34.7863 39.0691 34.9715 39.5729 36.242 39.3451C36.8421 39.9933 36.3995 41.3454 36.9051 42.8845C36.5458 43.6309 35.8698 43.1383 36.1957 44.1125C36.7143 44.5552 37.9256 45.2516 38.6072 45.1164C38.9073 44.9867 39.7537 44.7645 40.1 44.6626L40.8094 43.8421L41.1521 43.6624L41.0039 44.1607C41.8077 44.2736 41.8355 44.4329 42.293 45.0164L42.643 45.1775C42.7949 45.7387 42.8783 47.6538 42.7542 48.2743L42.5819 48.3132C42.03 48.7688 41.4484 49.2652 40.8817 49.6949L40.0575 50.3264C39.8037 50.4913 38.8184 51.3988 38.5331 51.6489C37.8071 51.1099 37.2885 50.6395 36.618 50.0375C36.1068 49.6263 35.0696 48.7651 34.4195 48.9299L34.3695 49.606C33.8991 50.3894 34.288 50.8932 33.9769 51.8415C33.9621 51.2414 34.038 50.0079 33.725 49.5911C33.938 49.5504 33.9713 49.5133 34.1713 49.417C34.3269 48.8429 34.5936 47.8575 34.2751 47.3593L34.1417 46.135L33.9343 45.3423C33.3972 44.5737 33.5009 44.7182 33.5824 43.8569C32.9026 43.8439 32.6267 43.968 32.3544 43.3291L32.1914 43.1475C32.3285 42.8697 32.7415 42.4067 32.9545 42.1437L33.4842 41.425C33.5324 41.175 33.5175 41.2806 33.7639 41.0435C33.2656 40.662 33.4009 40.8879 33.1879 40.4045L32.9952 40.3027C33.9287 39.5285 34.0158 39.6526 33.8231 38.5431L33.9824 38.1764L33.9843 38.1782Z" fill="#454850"/>
<path d="M40.4186 49.0225C40.5686 49.2299 40.765 49.4781 40.8835 49.6967L40.0593 50.3282C39.8056 50.4931 38.8202 51.4006 38.535 51.6507C37.8089 51.1117 37.2903 50.6413 36.6199 50.0393L37.1348 49.1466L37.6126 49.1299L37.7534 49.3373C37.909 49.8004 37.9497 50.0949 38.3313 50.3894C38.861 50.2856 38.9128 49.9356 39.0906 49.4355L39.5981 49.3596L40.4186 49.0206V49.0225Z" fill="#3D3F47"/>
<path d="M40.4185 49.0225C40.5685 49.2299 40.7649 49.4781 40.8834 49.6966L40.0592 50.3282C39.548 49.7707 39.6369 50.0282 39.5999 49.3614L40.4204 49.0225H40.4185Z" fill="#23272F"/>
<path d="M38.2347 46.2942L38.5737 45.9701C39.0219 46.046 38.8145 45.9608 39.1571 46.335C39.2404 47.6018 39.2905 48.1964 39.0904 49.4392C38.9126 49.9392 38.8608 50.2893 38.331 50.393C37.9495 50.0985 37.9088 49.804 37.7532 49.341C37.8532 49.0113 38.0699 47.6074 38.1421 47.1851L38.2347 46.2942Z" fill="#E8BA52"/>
<path d="M39.6795 46.0239L39.8332 45.8979C40.2166 46.3054 40.2703 46.4795 40.5074 46.9722C40.5703 47.4704 40.6148 47.8983 40.65 48.4002L40.4166 49.0225L39.5961 49.3615L39.0886 49.4374C39.2868 48.1946 39.2386 47.6001 39.1553 46.3332L39.6776 46.022L39.6795 46.0239Z" fill="#DFAF50"/>
<path d="M39.6796 46.0239C39.6296 47.1667 39.5888 48.2206 39.5981 49.3633L39.0906 49.4393C39.2888 48.1965 39.2406 47.6019 39.1573 46.3351L39.6796 46.0239Z" fill="#675B48"/>
<path d="M36.8569 47.1759C37.0477 46.7036 37.1662 46.2332 37.5496 45.9294L37.8515 45.9961L38.2349 46.2943L38.1423 47.1852C38.07 47.6056 37.8552 49.0114 37.7533 49.3411L37.6126 49.1336L37.1347 49.1503L37.1069 49.0688L36.5605 48.6169C36.6383 48.1428 36.7532 47.6482 36.855 47.1759H36.8569Z" fill="#EEC05B"/>
<path d="M37.8385 46.9166L38.1423 47.187C38.07 47.6075 37.8552 49.0133 37.7533 49.3429L37.6126 49.1355L37.1347 49.1522L37.1069 49.0707L37.3977 48.9744C37.707 48.4909 37.7459 47.5427 37.8367 46.9185L37.8385 46.9166Z" fill="#95784E"/>
<path d="M37.8513 45.9961L38.2347 46.2943L38.1421 47.1852L37.8384 46.9148L37.8513 45.9943V45.9961Z" fill="#4C4E4F"/>
<path d="M33.1785 42.3473C33.6156 41.9417 33.6822 41.8213 34.2768 41.7231L34.6046 41.8472C34.9213 42.7918 34.2694 43.3067 33.5841 43.8605C32.9043 43.8475 32.6284 43.9716 32.3561 43.3327L32.1931 43.1511C32.3302 42.8733 32.7432 42.4103 32.9562 42.1473L33.1785 42.3473Z" fill="#EEC05B"/>
<path d="M32.1931 43.1512C32.3302 42.8734 32.7432 42.4103 32.9562 42.1473L33.1785 42.3474L32.3561 43.3327L32.1931 43.1512Z" fill="#675B48"/>
<path d="M36.3086 48.5354C34.8195 48.2354 35.4251 46.2499 36.2882 45.5868L36.4864 45.6664L36.5771 46.0721C36.6253 46.5073 36.6086 46.824 36.8568 47.1759C36.755 47.6482 36.6383 48.1427 36.5623 48.6169L36.3086 48.5373V48.5354Z" fill="#EEC05B"/>
<path d="M36.3086 48.5354C36.3327 47.8334 36.4901 46.7925 36.579 46.0702C36.6272 46.5054 36.6105 46.8222 36.8587 47.1741C36.7568 47.6464 36.6401 48.1409 36.5642 48.615L36.3104 48.5354H36.3086Z" fill="#675B48"/>
<path d="M40.7982 46.6962C40.7519 46.2405 40.6649 45.9312 40.8575 45.5275C41.5243 45.9016 41.7521 47.1666 41.7298 47.8908C41.5298 48.1649 41.465 48.3409 41.0594 48.2594L40.6519 48.402C40.6149 47.9001 40.5723 47.4722 40.5093 46.974L40.7982 46.698V46.6962Z" fill="#E8BA52"/>
<path d="M40.7982 46.6962C40.8723 47.1277 41.0205 47.8463 41.0594 48.2594L40.6519 48.402C40.6149 47.9001 40.5723 47.4722 40.5093 46.974L40.7982 46.698V46.6962Z" fill="#675B48"/>
<path d="M33.936 45.346C34.2861 44.983 34.262 44.9867 34.7102 44.7644L35.0732 44.8681C35.3603 45.4738 35.2622 45.3052 35.1047 46.1128L34.1435 46.1368L33.936 45.3441V45.346Z" fill="#8697BB"/>
<path d="M42.2929 45.0182L42.6429 45.1793C42.7948 45.7405 42.8782 47.6556 42.7541 48.2761L42.5818 48.315C43.0152 46.9092 41.3927 46.048 42.291 45.0182H42.2929Z" fill="#8697BB"/>
<path d="M33.1897 40.4082C33.9528 39.9433 33.9713 39.7877 34.7992 39.7692L34.6788 40.1748L34.7566 40.1248C34.338 40.6249 34.2991 40.6915 33.7676 41.0471C33.2693 40.6656 33.4045 40.8916 33.1916 40.4082H33.1897Z" fill="#E8BA52"/>
<path d="M34.1436 46.1387L35.1048 46.1146C34.9548 46.6184 34.9103 47.0351 34.5084 47.3352L34.2769 47.3648L34.1436 46.1406V46.1387Z" fill="#A0A0AA"/>
<path d="M35.4954 41.9418L35.7047 42.0751C35.8714 42.3845 35.9344 42.4771 35.8288 42.8401C35.6955 43.2994 35.2102 43.6254 34.8361 43.8717C34.6397 43.7995 34.7546 43.8606 34.5342 43.618C34.6786 43.0086 35.1491 42.453 35.4973 41.9399L35.4954 41.9418Z" fill="#DFAF50"/>
<path d="M35.275 28.91C35.2565 28.3118 35.1917 28.0896 35.4954 27.5747L35.8066 27.3969C36.5641 27.7451 36.5289 28.121 36.7512 28.9008C37.0234 29.6305 37.3624 30.627 37.6624 31.3234C37.8791 31.9402 38.1588 32.8477 38.4811 33.3848C39.0256 33.7015 39.0552 33.7256 39.6498 33.9108L39.7276 34.1998C40.0128 34.3016 40.3777 34.4461 40.661 34.5276C40.85 34.898 41.2 35.4055 41.037 35.8148C40.9148 36.6261 40.8185 36.4927 41.4815 37.0965L41.3723 37.2799L40.8703 36.9391L40.711 37.0669C41.0204 37.5021 40.8166 37.7096 40.6629 38.2467C40.9018 38.3115 40.9 38.3208 41.1463 38.3393L40.8777 38.8005L40.1461 38.3912C39.785 38.3263 39.9498 38.4004 39.659 38.1652L39.6331 37.2558C39.4257 37.065 39.3182 36.9465 39.1293 36.7391C39.5127 36.565 39.5627 36.6483 40.048 36.6927L40.185 36.4464C39.735 35.5444 37.0994 35.2647 36.6326 36.4501L36.4882 37.7337C36.0955 37.491 36.0048 37.2706 35.7603 36.8817L35.5491 36.2612C35.8307 35.5296 35.8807 35.3444 36.3622 34.735C36.3752 34.1849 36.3993 34.1812 36.2066 33.6386C35.8307 33.1903 35.4213 33.1478 34.8472 32.9774C34.8787 32.0198 35.1361 29.8361 35.275 28.9063V28.91Z" fill="url(#paint0_linear_375_451)"/>
<path d="M35.275 28.91C35.2565 28.3118 35.1917 28.0896 35.4954 27.5747L35.8066 27.3969C36.5641 27.7451 36.5289 28.121 36.7512 28.9008C37.0234 29.6305 37.3624 30.627 37.6624 31.3234C37.5198 32.2754 37.5217 32.6903 37.8495 33.6034C37.4161 33.996 36.8753 34.6202 36.3622 34.7369C36.3752 34.1868 36.3993 34.1831 36.2066 33.6404C35.8307 33.1922 35.4213 33.1496 34.8472 32.9792C34.8787 32.0216 35.1361 29.838 35.275 28.9082V28.91Z" fill="white"/>
<path d="M35.275 28.91C35.2565 28.3118 35.1917 28.0896 35.4954 27.5747L35.8066 27.3969C36.5641 27.7451 36.5289 28.121 36.7512 28.9008C36.2567 28.8063 35.7807 28.8749 35.275 28.91Z" fill="#E6E4E5"/>
<path d="M37.6626 31.3234C37.8793 31.9401 38.159 32.8477 38.4812 33.3848C39.0258 33.7015 39.0554 33.7256 39.6499 33.9108L39.7277 34.1997L39.6222 34.7387C39.2777 34.9147 39.2628 34.8721 38.8646 34.8332C38.5572 34.3701 38.2164 34.0182 37.8478 33.6052C37.52 32.6921 37.5181 32.2754 37.6607 31.3252L37.6626 31.3234Z" fill="#CFCFD1"/>
<path d="M37.8497 33.6052C38.2183 34.0183 38.559 34.3702 38.8665 34.8332C38.4776 34.8554 37.8682 34.8721 37.507 34.9406C36.418 35.3185 36.2531 35.3814 35.5493 36.2649C35.8308 35.5333 35.8808 35.3481 36.3624 34.7387C36.8754 34.6202 37.4163 33.9979 37.8497 33.6052Z" fill="#E6E4E5"/>
<path d="M39.7276 34.1998C40.0128 34.3017 40.3777 34.4462 40.661 34.5277C40.85 34.8981 41.2 35.4056 41.037 35.8149L39.9109 35.0685C39.0682 35.0111 38.3885 35.0278 37.5068 34.9389C37.868 34.8703 38.4774 34.8555 38.8663 34.8314C39.2645 34.8703 39.2793 34.9129 39.6238 34.737L39.7294 34.198L39.7276 34.1998Z" fill="#B1B0B8"/>
<path d="M39.1295 36.7428C39.3184 36.9502 39.4258 37.0688 39.6333 37.2595L39.6592 38.1689C39.95 38.4023 39.787 38.3301 40.1463 38.3949C40.4463 39.1487 40.4852 40.3193 40.5408 41.1509C39.8277 43.3864 40.6427 42.364 40.8094 43.8495L40.1 44.67C40.0704 44.2903 40.0278 43.9198 40.0333 43.5383L40.0389 43.2327L39.8018 43.1031C39.6147 42.8697 39.4073 42.5752 39.2276 42.3307L38.5794 42.7641L37.8885 42.5659C37.7737 42.0936 37.4551 42.0659 37.4292 41.738C37.2959 40.0063 36.8736 38.1986 38.9739 37.6874L39.1295 36.7484V36.7428Z" fill="#FAD97B"/>
<path d="M39.1295 36.7428C39.3184 36.9502 39.4258 37.0688 39.6332 37.2595L39.6592 38.1689C39.95 38.4023 39.787 38.3301 40.1463 38.3949C40.4463 39.1487 40.4852 40.3193 40.5408 41.1509C39.8277 43.3864 40.6427 42.364 40.8093 43.8495L40.1 44.67C40.0703 44.2903 40.0277 43.9198 40.0333 43.5383L40.0389 43.2327L39.8018 43.1031C39.6147 42.8697 39.4073 42.5752 39.2276 42.3307C39.311 42.2677 39.4165 42.1196 39.4869 42.0288C39.474 40.5101 39.4869 39.1228 38.9739 37.6855L39.1295 36.7465V36.7428Z" fill="#E8BA52"/>
<path d="M38.5774 42.7586L39.2257 42.3252C39.4072 42.5697 39.6128 42.8642 39.7999 43.0975L40.0369 43.2272L40.0314 43.5328C40.0258 43.9143 40.0684 44.2848 40.0981 44.6644C39.7517 44.7645 38.9071 44.9867 38.6052 45.1182C38.6423 43.4624 37.0383 43.8569 37.4236 42.7234L37.8847 42.5604L38.5756 42.7586H38.5774Z" fill="#EEC05B"/>
<path d="M38.5775 42.7586L39.2258 42.3252C39.4073 42.5697 39.6129 42.8642 39.7999 43.0975C39.4036 43.4013 39.2758 43.5032 38.8276 43.7532C38.5275 43.4717 38.6238 43.3068 38.5757 42.7586H38.5775Z" fill="#675B48"/>
<path d="M34.8474 32.9811C35.4215 33.1515 35.8309 33.1941 36.2068 33.6423C36.3995 34.185 36.3754 34.1868 36.3624 34.7388C35.8809 35.3463 35.829 35.5315 35.5493 36.2649L35.7605 36.8854L34.7659 36.2427C34.9085 35.7426 35.3511 34.6184 35.2808 34.222L34.9085 34.0053L34.8474 32.9811Z" fill="#454850"/>
<path d="M34.7659 36.2427L35.7605 36.8854C36.005 37.2743 36.0957 37.4947 36.4884 37.7374C36.881 37.9226 36.8884 37.8966 37.1681 38.2189C36.6699 38.6671 36.944 38.569 36.3643 38.6319C35.3548 38.1911 34.8159 37.3466 34.7659 36.2445V36.2427Z" fill="#3D3F47"/>
<path d="M36.6327 36.4539C37.3106 36.6854 37.1606 36.5316 37.5588 37.0188C37.6181 37.5262 37.4403 37.78 37.168 38.2189C36.8883 37.8967 36.8828 37.9226 36.4883 37.7374L36.6327 36.4539Z" fill="#454850"/>
<path d="M37.9014 61.2262C38.3107 61.0669 38.5737 61.041 38.9719 61.2577C39.935 61.4207 42.4965 61.3688 43.5041 61.2873L44.0875 61.2781C45.2692 61.3077 47.3195 61.354 48.4882 61.2725L48.9512 61.3744C50.007 61.2207 56.4765 61.028 57.0951 61.3318C56.8302 61.9337 55.6949 61.893 56.4246 63.2913L56.4209 64.5471H50.846C52.3684 64.8583 56.8265 64.5193 57.9526 64.8564L56.6247 64.9898C57.5304 65.099 58.3157 64.8935 58.9806 65.5436C59.1195 66.0807 59.1102 65.8029 58.8991 66.4029C56.821 66.8956 51.1905 66.6419 48.8994 66.6437C42.1965 66.6919 35.4936 66.6956 28.7925 66.6548L21.4414 66.64C20.8117 66.6382 18.6058 66.7271 18.1631 66.4437C17.8223 65.9288 17.8575 66.1862 17.9464 65.6639C18.5039 65.0713 18.2242 65.2528 19.0206 64.999C19.48 64.5175 21.6581 64.6064 22.523 64.5378C21.3451 64.4878 19.943 64.5378 18.7484 64.5508C19.0743 64.3323 19.3966 64.11 19.7189 63.8859C20.4209 63.384 20.5579 63.2543 20.6876 62.4227C20.5709 61.8745 20.4764 61.8485 20.0801 61.4911C20.2949 61.2707 20.7246 61.3633 21.1487 61.3577C23.5658 61.2947 26.7959 61.2558 29.2185 61.3373C29.7575 61.3355 30.6373 61.3614 31.1466 61.3244C31.5096 61.4503 32.1079 61.5726 32.2764 61.817C32.7432 61.5189 33.3488 61.554 33.7804 61.9022C34.1341 61.7874 34.2952 61.5911 34.5675 61.3392C35.7455 61.1892 36.8845 61.3781 37.9014 61.2262Z" fill="#353641"/>
<path d="M19.0188 64.9972L44.1431 64.9639L52.5277 64.9991C53.4631 65.0028 55.7875 65.0694 56.6247 64.9898C57.5304 65.0991 58.3157 64.8935 58.9806 65.5436C59.1195 66.0807 59.1102 65.8029 58.8991 66.403C56.821 66.8956 51.1905 66.6419 48.8994 66.6438C42.1965 66.6919 35.4936 66.6956 28.7925 66.6549L21.4414 66.6401C20.8117 66.6382 18.6058 66.7271 18.1631 66.4437C17.8223 65.9288 17.8575 66.1863 17.9464 65.664C18.5039 65.0713 18.2242 65.2528 19.0206 64.9991L19.0188 64.9972Z" fill="url(#paint1_linear_375_451)"/>
<path d="M48.4882 61.2725L48.9512 61.3744C50.007 61.2207 56.4765 61.028 57.0951 61.3318C56.8303 61.9337 55.6949 61.893 56.4246 63.2914L56.4209 64.5471H50.846L49.5643 64.4897L49.1568 64.1489L48.5141 64.1915C47.6251 63.3784 47.4825 63.1136 47.8103 61.9245C48.0381 61.8152 48.2993 61.4781 48.4901 61.2707L48.4882 61.2725Z" fill="#B1B0B8"/>
<path d="M48.4884 61.2726L48.9514 61.3744C50.1479 62.2135 50.6202 63.2581 49.1551 64.1508L48.5124 64.1934C47.6234 63.3803 47.4808 63.1155 47.8086 61.9264C48.0364 61.8171 48.2976 61.48 48.4884 61.2726Z" fill="#2B2D30"/>
<path d="M48.4161 61.993C48.7199 61.83 49.0903 61.8578 49.3663 62.0653C49.6422 62.2727 49.7719 62.6209 49.6978 62.958C49.6237 63.2951 49.3626 63.5581 49.0255 63.6322C48.5958 63.7266 48.1605 63.4914 48.0068 63.0765C47.8531 62.6635 48.029 62.2005 48.4161 61.9912V61.993Z" fill="#E6E4E5"/>
<path d="M52.9242 61.7541C53.3298 61.6041 53.7836 61.6856 54.1133 61.9653C54.4429 62.245 54.5967 62.6802 54.5152 63.1043C54.4337 63.5285 54.1299 63.8767 53.7206 64.0138C53.1001 64.223 52.426 63.8952 52.2093 63.2766C51.9907 62.658 52.3093 61.9801 52.9242 61.7541Z" fill="#23272F"/>
<path d="M52.9371 62.169C53.3002 61.9467 53.7743 62.0616 53.9947 62.4246C54.2151 62.7895 54.0966 63.2617 53.7317 63.4803C53.3705 63.6951 52.9019 63.5785 52.6834 63.2191C52.4648 62.858 52.5797 62.3894 52.9371 62.169Z" fill="#CFCFD1"/>
<path d="M43.5042 61.2873L44.0876 61.2781C45.2693 61.3077 47.3196 61.354 48.4883 61.2725C48.2975 61.48 48.0364 61.8189 47.8085 61.9263C47.4807 63.1154 47.6252 63.3802 48.5124 64.1933C47.8882 64.3378 39.4609 64.4304 38.7312 64.2896C40.0129 63.1839 40.0499 62.5783 38.9701 61.2577C39.9332 61.4207 42.4948 61.3688 43.5023 61.2873H43.5042Z" fill="#CFCFD1"/>
<path d="M43.5041 61.2873L44.0875 61.2781L44.6117 61.5948C45.0599 62.2523 45.1747 62.4986 45.0673 63.2765C44.0301 64.8638 40.8963 63.5303 43.5023 61.2873H43.5041Z" fill="#3A3C4B"/>
<path d="M44.0876 61.2781C45.2693 61.3078 47.3196 61.3541 48.4883 61.2726C48.2976 61.48 48.0364 61.819 47.8086 61.9264C47.3215 61.7801 45.6138 61.8097 44.6137 61.5949L44.0895 61.2781H44.0876Z" fill="#BEBDC2"/>
<path d="M37.9015 61.2262C38.3108 61.0669 38.5738 61.041 38.972 61.2577C40.0518 62.5764 40.0129 63.1821 38.7331 64.2897L38.0607 64.2471L37.8755 64.5138C36.5753 64.536 35.2233 64.5138 33.9194 64.5082L33.3896 64.1174C33.7767 63.984 34.0786 63.6729 34.199 63.2821C34.3194 62.8913 34.2472 62.4653 34.0046 62.1356C33.9397 62.0486 33.8656 61.9708 33.7805 61.9022C34.1342 61.7874 34.2953 61.5911 34.5676 61.3392C35.7456 61.1892 36.8846 61.3781 37.9015 61.2262Z" fill="#DBDBDC"/>
<path d="M37.9016 61.2262C38.3109 61.0669 38.5739 61.041 38.9721 61.2577C40.0519 62.5764 40.013 63.1821 38.7332 64.2897L38.0608 64.2471C37.207 63.5451 37.0922 63.2765 37.1348 62.1801L37.9034 61.2262H37.9016Z" fill="#3D3F47"/>
<path d="M38.1385 62.0208C38.3811 61.9116 38.6645 61.943 38.8757 62.1042C39.0887 62.2653 39.1961 62.5283 39.1572 62.7913C39.1183 63.0543 38.9386 63.2766 38.6886 63.3673C38.32 63.5025 37.9107 63.3229 37.7625 62.9599C37.6144 62.5968 37.7811 62.182 38.1385 62.0208Z" fill="white"/>
<path d="M34.5676 61.3392C35.7455 61.1892 36.8846 61.3781 37.9014 61.2262L37.1328 62.18C37.0643 62.0782 37.1235 62.1504 36.8735 61.9374C36.04 61.8541 34.8084 61.9152 34.0027 62.1356C33.9378 62.0485 33.8638 61.9708 33.7786 61.9022C34.1323 61.7874 34.2935 61.5911 34.5657 61.3392H34.5676Z" fill="#BEBDC2"/>
<path d="M29.2185 61.3374C29.7575 61.3356 30.6373 61.3615 31.1466 61.3245C31.5096 61.4504 32.1079 61.5727 32.2764 61.8171C32.7431 61.5189 33.3488 61.5541 33.7803 61.9023C33.8637 61.9709 33.9396 62.0487 34.0045 62.1357C34.2489 62.4654 34.3212 62.8914 34.1989 63.2822C34.0767 63.673 33.7766 63.9841 33.3895 64.1175C33.1395 64.2045 32.8672 64.212 32.6135 64.1379L31.3096 64.4916C30.3372 64.5398 29.0074 64.5046 28.0054 64.5083C29.3074 63.6452 29.213 63.2303 28.9092 61.7819L28.8481 61.5004L29.2185 61.3356V61.3374Z" fill="#CFCFD1"/>
<path d="M32.2746 61.8171C32.7413 61.5189 33.347 61.5541 33.7785 61.9023C33.8619 61.9709 33.9378 62.0487 34.0026 62.1357C34.2471 62.4654 34.3193 62.8914 34.1971 63.2822C34.0749 63.673 33.7748 63.9841 33.3877 64.1175C33.1377 64.2045 32.8654 64.212 32.6117 64.1379C32.1264 63.999 31.7671 63.5859 31.6949 63.0858C31.6226 62.5858 31.8504 62.0894 32.2764 61.8171H32.2746Z" fill="#353641"/>
<path d="M32.7173 62.0116C33.1618 61.9208 33.5952 62.2061 33.6915 62.6487C33.7878 63.0914 33.51 63.5285 33.0673 63.6304C32.7765 63.697 32.4728 63.6026 32.2709 63.3822C32.069 63.1618 32.0023 62.8506 32.0949 62.5672C32.1876 62.2839 32.4246 62.0709 32.7173 62.0116Z" fill="white"/>
<path d="M24.3233 61.63C24.7826 61.2688 26.7681 61.2762 27.2126 61.654C27.4645 63.0783 25.9606 62.7987 28.1628 64.5026C26.4792 64.5119 24.7974 64.51 23.1138 64.5008L23.2546 64.31C22.3267 63.158 22.1285 63.0339 22.7304 61.6337C23.462 61.7392 23.588 61.7318 24.3233 61.6318V61.63Z" fill="#DBDBDC"/>
<path d="M22.7304 61.6319C23.462 61.7374 23.588 61.73 24.3233 61.63C24.9067 63.0765 24.8104 63.7655 23.2546 64.3082C22.3267 63.1562 22.1285 63.0321 22.7304 61.6319Z" fill="#2B2D30"/>
<path d="M23.3845 61.9042C23.6845 61.8708 23.9809 62.0023 24.1531 62.2505C24.3272 62.4987 24.3494 62.821 24.2142 63.0914C24.079 63.3618 23.8068 63.5359 23.503 63.5452C23.0603 63.56 22.6862 63.2229 22.6547 62.7821C22.6232 62.3413 22.9437 61.9542 23.3826 61.9042H23.3845Z" fill="#E6E4E5"/>
<path d="M18.7466 64.5508C19.0726 64.3322 19.3948 64.11 19.7171 63.8859C20.4191 63.3839 20.5561 63.2543 20.6858 62.4227C20.5691 61.8744 20.4746 61.8485 20.0783 61.491C20.2931 61.2706 20.7228 61.3632 21.147 61.3577C21.8026 61.3966 22.2434 61.3114 22.7305 61.6318C22.1286 63.032 22.3268 63.1561 23.2547 64.3081L23.1139 64.4989L22.5212 64.5378C21.3433 64.4878 19.9412 64.5378 18.7466 64.5508Z" fill="#CFCFD1"/>
<path d="M48.5143 64.1934L49.157 64.1508L49.5645 64.4916C45.7583 64.5786 41.6985 64.5119 37.8738 64.5156L38.059 64.2489L38.7313 64.2915C39.4611 64.4304 47.8883 64.3378 48.5125 64.1952L48.5143 64.1934Z" fill="#BEBDC2"/>
<path d="M32.6116 64.1396C32.8654 64.2137 33.1376 64.2063 33.3877 64.1193L33.9174 64.5101L31.3096 64.4934L32.6135 64.1396H32.6116Z" fill="#CFCFD1"/>
<path d="M27.6962 62.0097C28.1018 61.8726 28.5408 62.0856 28.6834 62.4894C28.8241 62.8931 28.6148 63.3358 28.2129 63.4803C27.8055 63.6284 27.3554 63.4136 27.2128 63.0061C27.0683 62.5968 27.2869 62.1504 27.698 62.0097H27.6962Z" fill="#DBDBDC"/>
<path d="M43.0689 7.23628C39.9388 13.6336 40.4314 15.7969 47.8696 12.4612C47.414 14.154 47.1343 15.256 45.8712 16.56C47.064 18.0732 47.2473 18.2769 47.6789 20.1309L47.79 20.5902C45.0748 19.3845 44.2172 19.0807 41.2353 19.0881C41.2316 22.2145 41.4779 23.9278 43.2041 26.556C40.9334 26.03 40.487 25.8725 38.5311 24.6501C36.8475 25.6225 35.6196 26.0151 33.7619 26.6208C35.427 23.6703 35.7437 22.6202 35.7715 19.2196C33.034 19.1863 31.5412 19.39 29.0797 20.7199L29.9187 18.1509C29.6724 17.8213 29.7742 17.9657 29.2389 17.799C28.9426 17.725 28.6444 17.6546 28.3462 17.5879C27.5609 17.4082 26.7367 17.3082 26.2959 16.6063L26.4774 16.2303C27.6628 15.5079 28.8407 14.9467 29.9798 15.8765L30.2206 15.6765C29.5816 14.3355 29.4445 13.9744 29.0889 12.5075C34.9843 15.0153 38.0088 14.7282 34.2323 7.91045C34.0953 7.65856 33.9508 7.41038 33.8026 7.16589C35.6937 7.66968 36.992 7.95861 38.5237 9.24955C40.3036 7.89564 40.8241 7.74006 43.0689 7.23813V7.23628Z" fill="#F1CE6D"/>
<path d="M26.4793 16.2285C27.6646 15.5061 28.8426 14.9449 29.9817 15.8747L30.2298 16.3155C30.4669 16.8841 30.0946 17.299 29.7094 17.6824L29.2389 17.7954C28.9426 17.7213 28.6444 17.6509 28.3462 17.5842C27.5609 17.4046 26.7367 17.3045 26.2959 16.6026L26.4774 16.2266L26.4793 16.2285Z" fill="#A0A0AA"/>
<path d="M26.4792 16.2285C27.6646 15.5061 28.8426 14.9449 29.9816 15.8747L30.2298 16.3155C29.5094 16.7471 27.3053 16.4507 26.4792 16.2285Z" fill="white"/>
<path d="M30.2206 15.6747L31.0837 16.6304C30.7596 17.0342 30.1632 17.7324 29.9187 18.1491C29.6724 17.8195 29.7743 17.9639 29.239 17.7972L29.7095 17.6843C30.0947 17.3009 30.467 16.886 30.2299 16.3174L29.9817 15.8766L30.2225 15.6765L30.2206 15.6747Z" fill="#4C4E4F"/>
<path d="M38.5478 10.0515C39.3924 9.60145 40.0333 9.29584 40.913 8.9143C40.1851 10.8942 40.1296 13.0316 39.937 15.1412C42.7244 15.1616 43.556 15.0671 46.2583 14.3281L44.6821 16.597L46.225 18.6825C44.3228 18.2102 43.1763 18.0565 41.2186 17.9861C40.7926 17.9972 40.3 17.9676 39.8666 17.9528C40.2129 19.703 40.1111 21.5311 40.5148 23.5036C40.6982 24.0333 40.7723 23.9667 40.6519 24.4223C39.9314 24.4816 39.2424 23.9222 38.6127 23.511C37.6496 24.0611 37.2143 24.2519 36.1771 24.6557C36.5216 23.7259 36.7383 22.5275 36.8994 21.5422L37.0402 17.8398C34.4546 18.0009 33.134 18.1028 30.6892 18.8918L32.2302 16.7526C31.656 15.8709 31.3319 15.2449 30.854 14.304C33.11 15.0301 34.6287 15.0375 36.992 15.2301C36.9717 12.6964 36.9976 11.2424 36.153 8.8717L38.546 10.0497L38.5478 10.0515Z" fill="#3A3C4B"/>
<path d="M37.3218 17.5638C37.6848 17.8528 38.0774 18.2195 38.4886 18.3769L38.7627 18.4807C39.1646 18.1528 39.3739 17.9269 39.8703 17.7694C40.3519 17.8657 40.7223 17.9491 41.2168 17.988C40.7908 17.9991 40.2982 17.9695 39.8648 17.9546C40.2111 19.7049 40.1092 21.533 40.513 23.5055C40.6964 24.0352 40.7705 23.9685 40.6501 24.4242C39.9296 24.4834 39.2406 23.9241 38.6109 23.5129C37.6477 24.063 37.2125 24.2538 36.1753 24.6575C36.5198 23.7278 36.7365 22.5294 36.8976 21.5441L37.3866 21.3793C37.431 20.3309 37.4996 18.551 37.3199 17.5638H37.3218Z" fill="url(#paint2_linear_375_451)"/>
<path d="M38.7626 18.4788C39.1646 18.151 39.3739 17.925 39.8702 17.7676C40.3518 17.8639 40.7222 17.9472 41.2167 17.9861C40.7907 17.9972 40.2981 17.9676 39.8647 17.9528C40.211 19.7031 40.1092 21.5311 40.5129 23.5037C40.1518 23.5037 40.3259 23.5518 39.998 23.3407C38.257 22.7906 38.783 20.0624 38.7626 18.4788Z" fill="#A0A0AA"/>
<path d="M39.9981 23.3406C39.6073 22.3553 39.1591 18.7899 39.8647 17.9528C40.2111 19.703 40.1092 21.5311 40.513 23.5036C40.1518 23.5036 40.3259 23.5518 39.9981 23.3406Z" fill="#333A4E"/>
<path d="M37.3218 17.5638C37.6848 17.8528 38.0774 18.2195 38.4886 18.3769C38.4682 20.1272 38.6146 21.7645 37.8052 23.3388L37.4625 23.3703C37.1643 22.6813 37.3069 22.1423 37.3884 21.3811C37.4329 20.3328 37.5014 18.5529 37.3218 17.5657V17.5638Z" fill="#BEBDC2"/>
<path d="M38.7998 14.9005C39.2351 15.1858 39.0832 15.1672 39.5463 15.2395C39.8 15.6229 39.6815 15.5747 40.0315 15.7562L40.3167 16.536L40.2297 16.8027C40.1408 17.0546 40.0612 17.1916 40.0482 17.4435L39.8722 17.7676C39.3759 17.9269 39.1647 18.151 38.7647 18.4789L38.4905 18.3752C38.0794 18.2177 37.6867 17.851 37.3237 17.5621C37.1737 17.4935 37.2774 17.5491 37.0514 17.3324L36.9384 16.9768L36.9199 16.2193C37.0292 15.8285 37.3959 15.5895 37.7182 15.3043L38.3405 14.9728L38.7998 14.8987V14.9005Z" fill="#454850"/>
<path d="M38.1978 15.645C38.2793 15.6598 38.3608 15.6654 38.4404 15.6876C38.8275 15.7913 39.0535 15.9062 39.2832 16.2377C39.2924 16.7396 39.2017 16.7971 38.9238 17.1953C38.4423 17.1323 38.1274 17.0601 37.7866 16.7007C37.7885 16.1895 37.9274 16.0673 38.1978 15.645Z" fill="#A0A0AA"/>
<path d="M37.5718 15.1894C37.5662 14.1633 37.2013 11.135 37.4699 10.5646C37.957 10.7165 37.9088 10.8387 38.2978 11.3406L38.9071 11.3202C38.8812 12.1852 38.8979 14.1577 38.8016 14.9004L38.3422 14.9745L37.7199 15.3061L37.5755 15.1894H37.5718Z" fill="#CFCFD1"/>
<path d="M38.2959 11.3407L38.9053 11.3203C38.8793 12.1853 38.896 14.1578 38.7997 14.9005L38.3403 14.9746C38.3126 13.7725 38.3107 12.5464 38.2959 11.3425V11.3407Z" fill="#605F63"/>
<path d="M37.5717 15.1894L37.7162 15.3061C37.3939 15.5913 37.029 15.8302 36.9179 16.221L36.8271 16.4044C36.2937 16.7174 34.4879 16.4192 33.2303 16.7248L31.843 15.1635C32.0116 15.1949 32.1783 15.2264 32.3468 15.2542C33.7655 15.4857 36.403 16.0377 37.5698 15.1912L37.5717 15.1894Z" fill="#BEBDC2"/>
<path d="M40.0315 15.7561C41.9929 15.2616 42.6764 15.908 45.2471 15.0356L43.9784 16.5525C42.7653 16.5322 41.528 16.4933 40.3167 16.5359L40.0315 15.7561Z" fill="#CFCFD1"/>
<path d="M40.0925 9.87561C39.7869 11.0925 39.2257 14.0837 39.5479 15.2413C39.083 15.1672 39.2368 15.1857 38.8015 14.9023C38.8978 14.1578 38.8812 12.1871 38.9071 11.3221C39.3238 10.7683 39.6183 10.3794 40.0925 9.87746V9.87561Z" fill="#A0A0AA"/>
<path d="M40.2296 16.8026C41.189 17.0026 43.7913 16.81 44.3377 17.1823L44.5266 17.4564C43.8654 17.8861 41.0353 17.4453 40.0481 17.4435C40.0611 17.1916 40.1407 17.0545 40.2296 16.8026Z" fill="#A0A0AA"/>
<path d="M37.0514 17.3323C36.6828 17.3842 36.3142 17.4286 35.9457 17.4694C35.1992 17.5527 33.3378 17.7972 32.7952 17.3638C33.6805 16.8008 35.8531 16.9434 36.9384 16.9786L37.0514 17.3342V17.3323Z" fill="#828486"/>
<path d="M33.5878 68.6866C33.7397 68.4014 33.9434 67.8217 34.312 67.792C36.6883 67.6031 39.1128 67.7142 41.4983 67.7068C42.5726 67.7031 42.6003 67.7994 43.006 68.7551C43.1819 69.7164 43.5709 71.2537 43.8857 72.189C45.3489 72.1779 45.1711 72.3816 46.2991 72.4816C45.9786 71.4241 45.4267 70.0813 45.0526 68.8811C44.9192 68.4921 44.9174 68.5199 44.9544 68.1106C45.6397 67.5364 47.7882 67.6179 48.4124 68.2995C48.8402 68.9978 50.3071 72.1297 50.4053 72.8984L50.3219 73.2244L50.9461 73.404L51.1017 73.7281C51.2887 74.7135 51.2758 75.7155 51.298 76.7138L35.5937 76.7249C33.0099 76.7249 30.278 76.9009 27.711 76.6805C27.2368 76.6397 26.8923 76.5582 26.4663 76.3452C26.1422 76.5415 26.1607 76.5212 25.7773 76.4934C25.5532 76.2582 25.4866 76.2767 25.4532 75.9507C25.2402 73.8745 25.2124 73.0466 27.5369 73.2633C28.1814 73.3225 29.4446 73.2633 30.0669 73.2058L30.2706 73.1855L30.3132 73.004C30.9078 72.7317 33.3859 73.0095 34.6065 72.7521L32.8081 72.7484L32.6858 72.3075L32.7747 71.8927C32.6951 71.3685 32.6914 71.2907 32.5062 70.7721C32.3024 71.2018 32.0839 71.6278 31.5894 71.676C31.23 70.874 31.9524 68.5847 32.6395 68.0606L33.0396 68.118C33.1285 68.4681 33.1452 68.6848 33.3285 68.9885L33.586 68.6866H33.5878Z" fill="white"/>
<path d="M33.5878 68.6866C33.7397 68.4014 33.9434 67.8217 34.312 67.792C36.6883 67.6031 39.1127 67.7142 41.4983 67.7068C42.5725 67.7031 42.6003 67.7994 43.0059 68.7551C43.1819 69.7164 43.5708 71.2537 43.8857 72.189C45.3489 72.1779 45.1711 72.3816 46.299 72.4816C45.5823 72.815 44.1246 72.565 43.1041 72.7391C42.0187 72.8891 36.1938 72.7391 34.6065 72.7539L32.808 72.7502L32.6858 72.3094L32.7747 71.8945C32.6951 71.3704 32.6914 71.2926 32.5061 70.774C32.3024 71.2037 32.0839 71.6297 31.5893 71.6778C31.23 70.8758 31.9524 68.5866 32.6395 68.0624L33.0396 68.1199C33.1285 68.4699 33.1451 68.6866 33.3285 68.9904L33.5859 68.6885L33.5878 68.6866Z" fill="white"/>
<path d="M33.5879 68.6866C33.7398 68.4014 33.9435 67.8217 34.3121 67.792C36.6884 67.6031 39.1128 67.7142 41.4984 67.7068C42.5726 67.7031 42.6004 67.7994 43.006 68.7551C39.8704 68.957 36.7236 68.9348 33.5897 68.6866H33.5879Z" fill="#B1B0B8"/>
<path d="M32.5061 70.774C32.3024 71.2037 32.0839 71.6297 31.5893 71.6779C31.23 70.8759 31.9524 68.5867 32.6395 68.0625L33.0396 68.1199C32.9636 69.4516 32.6136 69.8906 32.5061 70.7759V70.774Z" fill="white"/>
<path d="M33.0397 68.118C33.1286 68.4681 33.1452 68.6848 33.3286 68.9886C33.1415 70.035 32.8118 70.8481 32.773 71.8964C32.6933 71.3723 32.6896 71.2945 32.5044 70.7759C32.6137 69.8905 32.9637 69.4516 33.0378 68.1199L33.0397 68.118Z" fill="#454850"/>
<path d="M34.6545 70.0183C35.6991 70.0183 36.8586 70.1887 37.8495 70.5202C36.7326 70.661 35.651 70.5684 34.6545 70.0183Z" fill="#828486"/>
<path d="M51.0997 73.73C51.2868 74.7154 51.2738 75.7174 51.296 76.7157L35.5917 76.7268C33.008 76.7268 30.2761 76.9027 27.709 76.6823C27.2348 76.6416 26.8903 76.5601 26.4644 76.3471C27.0533 76.1934 27.6256 76.0174 28.1998 75.8137C28.5054 75.9952 28.8925 75.9544 29.1537 75.7137C31.7004 75.9933 34.5434 75.7507 37.1271 75.7414C40.4462 75.7303 44.0208 76.0045 47.2991 75.6118C47.4843 75.8544 47.7862 75.9767 48.0881 75.9304C48.39 75.8859 48.6438 75.6803 48.7493 75.3951C48.7938 75.4062 48.8382 75.4192 48.8845 75.4266C49.3568 75.5025 50.3014 75.5062 50.6663 75.1673C51.1164 74.7506 51.0423 74.2986 51.0997 73.7263V73.73Z" fill="#BEBDC2"/>
<path d="M45.0506 68.883C44.9173 68.494 44.9154 68.5218 44.9524 68.1125C45.6377 67.5383 47.7862 67.6198 48.4104 68.3014C48.8382 68.9997 50.3051 72.1316 50.4033 72.9003C48.1029 72.7188 45.5099 72.9651 43.104 72.741C44.1245 72.5669 45.5822 72.8169 46.2989 72.4835C45.9785 71.426 45.4266 70.0832 45.0525 68.883H45.0506Z" fill="#E6E4E5"/>
<path d="M45.0507 68.883C44.9173 68.494 44.9155 68.5218 44.9525 68.1125C45.6378 67.5383 47.7863 67.6198 48.4105 68.3014C47.9104 68.7348 48.0715 68.4774 47.8771 69.0775C47.7659 69.3775 47.464 69.5646 47.1455 69.5275C46.8269 69.4905 46.575 69.2404 46.538 68.9219C46.1898 68.5181 45.4563 68.594 45.0526 68.883H45.0507Z" fill="#BEBDC2"/>
<path d="M46.5362 68.9219C46.501 68.6366 46.6473 68.3607 46.9011 68.2255C47.1548 68.0921 47.4641 68.1273 47.6808 68.3162C47.8975 68.5051 47.9753 68.807 47.8753 69.0774C47.7642 69.3775 47.4623 69.5646 47.1437 69.5275C46.8251 69.4905 46.5732 69.2404 46.5362 68.9219Z" fill="#3D3F47"/>
<path d="M47.9605 71.1C48.1846 70.9482 48.4754 70.9389 48.7106 71.0741C48.9458 71.2093 49.081 71.4668 49.0625 71.7372C49.044 72.0076 48.8717 72.2428 48.6199 72.3428C48.2846 72.478 47.9012 72.3373 47.7308 72.0168C47.5604 71.6964 47.6604 71.3019 47.9605 71.0982V71.1Z" fill="#3D3F47"/>
<path d="M34.6047 72.7558C36.1901 72.741 42.0169 72.891 43.1023 72.741C45.5082 72.9669 48.1012 72.7206 50.4016 72.9003L50.3182 73.2262C43.8543 72.9854 36.8476 73.4559 30.2688 73.1873L30.3114 73.0058C30.9059 72.7336 33.3841 73.0114 34.6047 72.7539V72.7558Z" fill="#23272F"/>
<path d="M47.2991 75.6137C47.0546 75.2933 47.0713 74.8451 47.3398 74.545C47.6084 74.245 48.0529 74.1783 48.3974 74.3876C48.7419 74.5969 48.8901 75.021 48.7493 75.397C48.6419 75.6822 48.39 75.8878 48.0881 75.9323C47.7862 75.9767 47.4843 75.8545 47.2991 75.6137Z" fill="#454850"/>
<path d="M28.2 75.8137C27.9018 75.6378 27.7518 75.2896 27.8259 74.9507C27.8999 74.6117 28.1815 74.3598 28.526 74.3246C28.8705 74.2894 29.1983 74.4784 29.3409 74.7932C29.4835 75.1081 29.4076 75.4804 29.152 75.7137C28.8908 75.9527 28.5037 75.9934 28.1981 75.8137H28.2Z" fill="#454850"/>
<path d="M57.8306 37.0077C59.2938 37.2466 61.559 37.956 62.9536 38.495C61.496 43.3402 60.1032 44.1662 56.7508 47.739C56.5656 47.9705 56.2952 48.0094 55.9673 48.1372C54.2245 50.1746 52.7168 51.4766 51.4185 53.8992C50.7684 55.1124 50.4405 57.6646 49.8516 58.3425C49.6904 58.3536 49.3867 58.3814 49.2367 58.3758C47.6679 58.2314 44.9471 58.3758 43.1487 58.3147C43.1079 55.4735 43.2042 52.5731 43.032 49.7449C50.2313 46.9185 54.9042 44.7404 57.8287 37.0077H57.8306Z" fill="white"/>
<path d="M55.6393 47.7464L55.969 48.1372C54.2261 50.1745 52.7185 51.4766 51.4201 53.8992C50.77 55.1123 50.4422 57.6646 49.8532 58.3425C49.6921 58.3536 49.3883 58.3814 49.2383 58.3758C50.131 53.7362 52.3406 50.932 55.6393 47.7445V47.7464Z" fill="#BEBDC2"/>
<path d="M53.1187 44.3107C54.5855 45.3997 55.2616 46.6203 56.7526 47.7408C56.5673 47.9724 56.2969 48.0112 55.9691 48.139L55.6394 47.7482C54.5059 46.5036 53.8354 45.8313 53.1187 44.3125V44.3107Z" fill="#525356"/>
<path d="M44.0692 55.7698C44.3711 55.6846 44.6878 55.8495 44.7915 56.1458C44.8952 56.4422 44.7508 56.7681 44.4618 56.8904C44.2581 56.9774 44.0229 56.9422 43.8525 56.8015C43.6821 56.6607 43.6024 56.4366 43.6487 56.2199C43.695 56.0032 43.8562 55.8291 44.071 55.7698H44.0692Z" fill="#454850"/>
<path d="M48.9606 48.0316L49.1495 48.1965C49.3421 48.8484 49.0902 49.7837 48.9365 50.4394C48.8457 50.3616 48.7994 50.3375 48.7438 50.2227C48.4494 49.6133 48.7957 48.6521 48.9606 48.0335V48.0316Z" fill="#828486"/>
<path d="M43.8598 53.3602C44.0117 53.2324 44.221 53.2009 44.4044 53.2768C44.5877 53.3546 44.71 53.5269 44.7229 53.7251C44.7359 53.9232 44.6377 54.1122 44.4673 54.2122C44.2321 54.3511 43.9302 54.2881 43.7709 54.0659C43.6135 53.8436 43.6505 53.5362 43.8598 53.3602Z" fill="#3A3C4B"/>
<path d="M60.1678 39.8804L60.3734 39.9359L60.4197 40.2026L60.0697 40.5138L59.9808 40.4156L59.7104 40.5175C59.4529 40.5768 59.2214 40.599 58.9565 40.6046C59.2381 40.2397 59.7604 40.073 60.1678 39.8804Z" fill="#828486"/>
<path d="M18.8855 36.9316C21.7211 43.216 25.2235 46.4368 31.8208 48.9224C32.4506 49.1632 33.0859 49.3873 33.7286 49.5929C34.0416 50.0096 33.9656 51.2431 33.9804 51.8432C33.9416 53.9676 34.0434 56.2439 34.0416 58.4072C31.7542 58.4554 29.4668 58.435 27.1812 58.3442C26.5237 55.1549 25.1457 51.9284 22.6379 49.7596C21.9212 49.5225 20.8951 48.2556 20.3153 47.6537L20.2246 47.5444C17.2889 44.0809 15.4275 43.2308 14.0718 38.5041C15.911 37.6614 16.9 37.3576 18.8855 36.9335V36.9316Z" fill="white"/>
<path d="M20.3135 47.6519C21.1506 47.2815 22.9954 45.1182 23.3695 45.1312C23.3195 45.7035 21.6063 47.5093 21.1025 48.1113C21.5377 48.5595 22.286 49.2818 22.6379 49.7578C21.9211 49.5207 20.895 48.2539 20.3153 47.6519H20.3135Z" fill="#525356"/>
<path d="M26.6164 47.6185C26.8331 47.437 27.1535 47.4463 27.3591 47.6408C27.5647 47.8352 27.5943 48.1519 27.4258 48.3798C27.298 48.5539 27.0813 48.6372 26.8683 48.5965C26.6572 48.5557 26.4868 48.3964 26.433 48.1871C26.3793 47.9778 26.4516 47.7574 26.6164 47.6185Z" fill="#6A6B6F"/>
<path d="M29.5945 49.4466C29.989 49.4707 30.3798 49.5596 30.7688 49.6281C30.791 49.6725 30.8114 49.7188 30.8373 49.7614C30.8484 49.7781 30.8651 49.7911 30.8781 49.804C30.5021 49.8429 30.1391 49.8985 29.7668 49.967L27.7776 50.7727C28.3666 50.3078 28.9833 49.88 29.5927 49.4429L29.5945 49.4466Z" fill="#6A6B6F"/>
<path d="M16.5186 40.4619C17.1149 40.8416 17.3002 41.4824 17.5632 42.1048C17.4909 42.0622 17.4168 42.0233 17.3446 41.9788C16.7853 41.6343 16.6501 41.0639 16.5186 40.4619Z" fill="#605F63"/>
<path d="M42.5336 28.6434C45.6823 25.2762 50.459 22.3276 55.1801 22.1831C58.049 22.0942 60.8365 23.1555 62.9165 25.1355C68.597 30.5808 67.5061 41.2417 62.1756 46.524C59.3437 49.33 57.6527 50.8228 56.0784 54.5697L55.6005 54.5215C54.6744 51.008 50.7646 54.4363 52.1463 56.8404C52.9205 58.1869 54.3836 57.2312 55.2264 56.5682C55.1745 57.1016 55.0875 57.7683 55.0986 58.2943C53.9632 58.3184 52.1981 58.411 51.1276 58.2573C50.8738 57.9906 50.8794 58.0147 50.9239 57.6035C51.5073 52.073 56.6618 48.7669 60.0994 45.0534C62.9072 41.9937 63.924 38.8154 63.8555 34.7333C63.7777 30.0399 61.0051 25.4374 55.958 25.0299C51.9296 24.7058 48.1012 27.1821 45.2285 29.7195C44.3895 30.4659 43.5579 31.2216 42.7318 31.9847C42.4985 30.5474 42.467 30.1307 42.5336 28.6453V28.6434Z" fill="url(#paint3_linear_375_451)"/>
<path d="M65.2094 33.1701C65.5706 33.0978 65.9262 33.3182 66.0225 33.6738C66.1188 34.0295 65.9243 34.398 65.5761 34.5203C65.3279 34.6073 65.0538 34.5481 64.8631 34.3665C64.6723 34.1869 64.6 33.9146 64.6723 33.6627C64.7445 33.4108 64.952 33.2201 65.2094 33.1701Z" fill="#3D3F47"/>
<path d="M57.1969 23.2851C57.4062 23.1277 57.6896 23.1073 57.9193 23.2314C58.1489 23.3555 58.286 23.6056 58.2675 23.8667C58.249 24.1279 58.0804 24.3557 57.8359 24.4483C57.5229 24.5668 57.1729 24.4372 57.0117 24.1445C56.8506 23.8519 56.9302 23.4852 57.1969 23.2851Z" fill="#454850"/>
<path d="M52.1907 23.3888C52.5407 23.274 52.9186 23.4666 53.0334 23.8167C53.1464 24.1686 52.9538 24.5445 52.6019 24.6575C52.2518 24.7687 51.8777 24.576 51.7647 24.2278C51.6517 23.8778 51.8425 23.5036 52.1925 23.3888H52.1907Z" fill="#3D3F47"/>
<path d="M62.3404 26.4578C62.5553 26.3448 62.8146 26.3615 63.0146 26.4986C63.2147 26.6356 63.3202 26.8727 63.2906 27.1135C63.261 27.3542 63.1017 27.558 62.8739 27.645C62.5516 27.7673 62.1886 27.6172 62.0478 27.3024C61.907 26.9875 62.0348 26.6171 62.3404 26.4578Z" fill="#605F63"/>
<path d="M62.3237 43.5457C62.633 43.692 62.7979 43.8068 63.0201 44.0661C62.9609 44.5958 62.7256 44.7495 62.3811 45.1478C62.0867 45.02 61.9718 44.9107 61.7773 44.6569C61.8385 44.1328 62.0181 43.9661 62.3237 43.5457Z" fill="#3D3F47"/>
<path d="M64.6039 38.6301C64.928 38.4801 65.3114 38.6227 65.4596 38.9469C65.6077 39.271 65.4651 39.6544 65.1392 39.8025C64.815 39.9489 64.4353 39.8062 64.2872 39.484C64.139 39.1617 64.2816 38.7802 64.602 38.6301H64.6039Z" fill="#525356"/>
<path d="M46.5769 26.1171C46.9751 26.2245 47.0788 26.1949 47.3141 26.5264C47.3307 26.9487 47.1122 27.2413 46.9084 27.5932C46.5751 27.4821 46.3991 27.395 46.1472 27.1487C46.1472 26.6597 46.3139 26.519 46.5769 26.1171Z" fill="#454850"/>
<path d="M41.265 34.0535C44.9804 33.7572 51.7981 33.6609 55.4246 34.2017C55.0005 34.9425 54.8634 35.413 54.1448 35.6223C54.0596 35.7038 53.7818 35.9816 53.6966 36.0372L54.0448 36.1816C54.0633 36.6891 53.5447 37.3763 53.1335 37.6115L52.8872 38.2653L51.7315 39.5859C51.4851 40.0933 51.6352 39.9674 51.2258 40.2563L49.7182 41.3269C48.8162 41.0213 46.4047 40.0582 45.8491 39.3729L45.7546 38.995C45.3008 39.434 45.2971 39.384 44.6433 39.1691L44.4563 39.4192L44.7785 39.81L44.6933 40.1748C44.2785 40.3693 44.247 40.4175 43.7636 40.2323L43.6117 40.4378L43.5172 40.7638C43.0783 40.9583 43.3135 40.8953 42.693 40.7138L42.5541 40.8212C42.2967 40.599 42.1596 40.4786 41.8799 40.2897C41.0798 40.4878 41.891 40.8342 40.5334 41.1491C40.476 40.3175 40.4371 39.1487 40.1389 38.3931L40.8705 38.8024L41.1391 38.3412C42.9542 36.9984 42.2467 35.613 41.2576 34.0535H41.265Z" fill="#373637"/>
<path d="M41.265 34.0535C44.9804 33.7572 51.7982 33.6609 55.4246 34.2017C55.0005 34.9425 54.8634 35.413 54.1448 35.6223C52.4279 35.2537 45.1193 35.1833 43.1764 35.2444C43.2209 36.5187 43.1431 38.695 41.7355 39.2302C41.0965 39.1358 41.3799 39.2599 40.8779 38.8024L41.1465 38.3412C42.9616 36.9984 42.2541 35.613 41.265 34.0535Z" fill="#EEC05B"/>
<path d="M53.1352 37.6115C52.0461 37.3781 47.9899 37.4003 47.6399 36.4353L47.7862 36.1316C48.7364 35.5482 52.3795 35.9575 53.6964 36.0371L54.0446 36.1816C54.0631 36.6891 53.5445 37.3762 53.1333 37.6115H53.1352Z" fill="#EEC05B"/>
<path d="M51.7331 39.5858C50.8145 39.3969 47.088 38.7264 46.8787 37.7077C47.8473 37.228 51.8572 37.8466 52.8889 38.2652L51.7331 39.5858Z" fill="#F1CE6D"/>
<path d="M45.8527 39.371C46.0268 39.1228 46.1249 38.8598 46.3435 38.8469C47.2844 38.7931 50.5405 39.9007 51.2276 40.2545L49.72 41.325C48.818 41.0194 46.4065 40.0563 45.8508 39.371H45.8527Z" fill="#F1CE6D"/>
<path d="M44.6489 39.1672C44.0859 38.8376 43.8229 38.7709 43.5784 38.2041L43.8025 38.0096C44.5804 37.9652 45.5231 38.1745 45.7602 38.9931C45.3064 39.4321 45.3027 39.3821 44.6489 39.1672Z" fill="#E8BA52"/>
<path d="M43.0412 39.6359C42.9819 39.2729 42.9652 39.2932 43.1227 38.9654C43.6987 38.921 43.845 39.121 44.4599 39.4173L44.7822 39.8081L44.697 40.173C44.2821 40.3675 44.2506 40.4156 43.7672 40.2304C43.4709 39.8415 43.4783 39.91 43.0393 39.6359H43.0412Z" fill="#DFAF50"/>
<path d="M43.0411 39.6359C43.4801 39.91 43.4708 39.8415 43.769 40.2304L43.6172 40.436L43.5227 40.762C43.0837 40.9564 43.319 40.8935 42.6985 40.712C42.4188 40.3341 42.4299 40.3415 42.2688 39.8952L42.4096 39.6766L42.8244 39.6914L43.0393 39.6359H43.0411Z" fill="#E8BA52"/>
<path d="M43.041 39.6359C43.48 39.91 43.4707 39.8415 43.7689 40.2304L43.617 40.436L42.8262 39.6933L43.041 39.6377V39.6359Z" fill="#95784E"/>
<path d="M43.8987 35.6686C44.4451 35.7019 44.9971 35.7038 45.5453 35.7075C46.0861 35.713 46.4251 35.7297 46.927 35.9445C47.1567 36.3316 47.0659 36.4761 47.0011 36.9132C46.1954 36.7447 44.3599 36.7021 43.8191 36.0927L43.8987 35.6686Z" fill="#EEC05B"/>
<path d="M43.7449 36.8965C44.5283 36.8243 45.7952 36.8484 46.4064 37.4133C46.6138 37.6059 46.5268 37.8726 46.5268 38.1375C45.7452 38.1078 44.7061 37.8893 44.0449 37.4577C43.7356 37.2558 43.8097 37.2336 43.7449 36.8984V36.8965Z" fill="#E8BA52"/>
<path d="M10.6212 32.5329C10.7787 30.6011 11.7955 28.1007 12.9568 26.5616C17.9557 19.942 25.844 21.8293 31.5338 26.0911C32.8673 27.1209 34.6361 28.0637 34.4287 29.9251L33.297 29.8213L32.1616 29.9232C27.6554 25.7985 20.9377 22.4776 15.7091 27.6969C14.8052 28.5989 14.4589 29.8695 13.8032 30.7493C13.1309 31.3531 12.7308 32.5977 11.7603 33.007C11.5103 33.3663 11.3677 33.5423 11.1695 33.9368L11.1139 34.1498C10.8805 32.168 12.0881 32.7699 11.2139 31.0086C10.9046 31.5475 11.1398 32.0828 10.6194 32.5329H10.6212Z" fill="white"/>
<path d="M31.5337 26.0911C32.8672 27.1209 34.636 28.0636 34.4286 29.925L33.2969 29.8213C32.4209 28.4785 32.0375 27.5969 31.5337 26.0929V26.0911Z" fill="#BEBDC2"/>
<path d="M14.422 26.3208C14.7979 26.256 15.1573 26.5042 15.2295 26.8783C15.3017 27.2543 15.0591 27.6173 14.685 27.697C14.4368 27.7488 14.1793 27.6636 14.0126 27.4729C13.8459 27.2821 13.7941 27.0172 13.8793 26.7783C13.9645 26.5394 14.1701 26.3653 14.4201 26.3208H14.422Z" fill="#605F63"/>
<path d="M24.5716 23.3296C24.9069 23.2851 25.2236 23.4926 25.3162 23.8167C25.4106 24.1408 25.2514 24.4853 24.9439 24.6261C24.6994 24.7372 24.4142 24.6965 24.2105 24.5205C24.0086 24.3446 23.9289 24.0649 24.0049 23.8093C24.0827 23.5518 24.3031 23.3648 24.5698 23.3296H24.5716Z" fill="#605F63"/>
<path d="M19.3133 23.2407C19.6578 23.1092 20.0449 23.2759 20.1856 23.6185C20.3264 23.9593 20.1689 24.352 19.8319 24.5002C19.6059 24.6002 19.3429 24.5687 19.1447 24.4205C18.9465 24.2705 18.8465 24.026 18.8817 23.7815C18.9169 23.537 19.0817 23.3296 19.3133 23.2407Z" fill="#3D3F47"/>
<path d="M29.9595 26.3263C30.1429 26.1726 30.3929 26.1318 30.6152 26.2207C30.8356 26.3078 30.9911 26.5097 31.0208 26.7467C31.0486 26.9838 30.9448 27.2153 30.7504 27.3524C30.467 27.5524 30.0743 27.4932 29.8632 27.219C29.6502 26.9431 29.6946 26.5504 29.9595 26.3263Z" fill="#454850"/>
<path d="M11.7621 33.0052C12.7326 32.5959 13.1327 31.3512 13.805 30.7474C12.69 34.4054 12.7511 38.4283 14.6051 41.8344C18.3576 48.7299 24.9994 49.9264 26.4551 58.3962C25.142 58.3962 23.764 58.4258 22.4619 58.3166L22.1008 56.796C27.2127 60.5299 25.2735 50.5376 21.6785 53.6195C21.471 54.1289 21.5155 54.2585 21.1451 54.5641C20.7746 54.3141 20.1634 52.7935 19.856 52.1934C17.6667 48.904 14.8181 47.0889 12.7623 43.8273C11.0342 41.0861 9.86181 35.6556 10.623 32.5366C11.1435 32.0865 10.9101 31.5513 11.2176 31.0123C12.0918 32.7737 10.8842 32.1717 11.1176 34.1535L11.1731 33.9405C11.3713 33.546 11.5139 33.3701 11.764 33.0108L11.7621 33.0052Z" fill="#E6E4E5"/>
<path d="M19.8542 52.1897C20.8266 52.3768 21.0581 52.8139 21.6786 53.6158C21.4712 54.1252 21.5156 54.2548 21.1452 54.5604C20.7748 54.3104 20.1636 52.7898 19.8561 52.1897H19.8542Z" fill="#CFCFD1"/>
<path d="M11.7622 33.0051C12.3493 33.4385 12.1549 33.1663 12.3901 33.833C12.2919 34.4128 12.4345 34.2072 12.0308 34.5202C11.54 34.4424 11.5789 34.4109 11.1714 33.9349C11.3696 33.5404 11.5122 33.3644 11.7622 33.0051Z" fill="#353641"/>
<path d="M14.3921 43.9421C14.5699 43.7902 14.8163 43.7495 15.033 43.8365C15.2497 43.9236 15.3997 44.1236 15.4219 44.357C15.4441 44.5904 15.3367 44.8145 15.1404 44.9423C14.8644 45.1219 14.4958 45.0571 14.2995 44.7922C14.1032 44.5292 14.1439 44.157 14.394 43.9421H14.3921Z" fill="#454850"/>
<path d="M12.0547 38.7839C12.238 38.669 12.4696 38.6616 12.6585 38.7672C12.8474 38.8728 12.9641 39.0728 12.9641 39.2895C12.9641 39.5062 12.8437 39.7044 12.6548 39.8081C12.3733 39.9618 12.0213 39.8637 11.8584 39.5858C11.6972 39.3099 11.7824 38.9543 12.0547 38.7839Z" fill="#454850"/>
<path d="M20.2839 50.4727C20.4673 50.3745 20.6877 50.3838 20.8618 50.4967C21.0359 50.6079 21.1377 50.806 21.1266 51.0116C21.1155 51.2191 20.9933 51.4024 20.8081 51.495C20.5265 51.634 20.1857 51.521 20.0413 51.2413C19.8987 50.9616 20.0061 50.619 20.2839 50.4708V50.4727Z" fill="#525356"/>
<path d="M16.7426 27.8025C21.2766 23.2055 28.2388 26.8709 31.9838 30.5974C32.1468 30.7604 32.308 30.9252 32.4673 31.0938C32.921 31.6624 33.5211 32.2069 33.7045 32.8403C33.3192 33.4367 32.2228 33.2311 31.5486 33.2052L29.2279 33.2089C26.2755 30.6659 23.8326 28.6212 20.145 31.2864L18.1354 29.1101L18.0817 29.0249C17.8761 28.8971 17.4519 28.5489 17.2408 28.3841L16.7407 27.8007L16.7426 27.8025Z" fill="white"/>
<path d="M16.7427 27.8025C21.2767 23.2055 28.2389 26.8709 31.9839 30.5974C32.1469 30.7604 32.3081 30.9252 32.4674 31.0938L31.771 31.1975C26.7016 27.7247 25.4848 25.8967 19.1356 27.2024L18.8134 27.458C18.8023 28.297 18.5411 28.2211 18.0836 29.0249C17.878 28.8971 17.4539 28.5489 17.2428 28.3841L16.7427 27.8007V27.8025Z" fill="#BEBDC2"/>
<path d="M18.8152 27.458C18.8041 28.297 18.543 28.2211 18.0855 29.0249C17.8799 28.8971 17.4558 28.5489 17.2446 28.3841C17.7799 27.784 18.0503 27.7377 18.8171 27.4562L18.8152 27.458Z" fill="#CFCFD1"/>
<path d="M31.7708 31.1975L32.4672 31.0938C32.921 31.6624 33.5211 32.2069 33.7045 32.8403C33.3192 33.4367 32.2228 33.2311 31.5486 33.2052C32.2394 33.0737 32.6006 33.0366 33.2433 32.7422L33.2896 32.5329C32.7006 32.0958 33.0081 32.1791 32.3783 32.1402C32.1913 31.8068 31.9561 31.7031 31.6319 31.4938L31.769 31.1975H31.7708Z" fill="#CFCFD1"/>
<path d="M31.6338 31.4938C31.9579 31.7031 32.1931 31.8068 32.3802 32.1402C32.0171 32.4087 32.0375 32.4106 31.6097 32.5458C31.0911 32.418 31.2596 32.5662 31.0151 32.1828C31.2189 31.6345 31.0577 31.8846 31.6338 31.4938Z" fill="#4C4E4F"/>
<path d="M18.8152 27.458L19.1375 27.2024C19.5079 27.8117 19.4764 27.5117 19.3449 28.1192C18.8948 28.573 18.6633 28.7304 18.1392 29.1101L18.0854 29.0249C18.5429 28.2211 18.8041 28.297 18.8152 27.458Z" fill="#B1B0B8"/>
<path d="M19.4393 58.9611C23.4048 59.013 57.4601 58.537 58.5732 59.1204C58.7992 59.4778 58.8177 59.4815 58.7677 59.8983C58.4528 60.2187 58.3862 60.2872 57.9565 60.4076L40.5982 60.3984C37.2143 60.4113 19.8561 60.754 18.4429 60.2724C18.2132 60.1946 18.2225 60.0835 18.1206 59.8835C18.1614 59.7501 18.2243 59.5149 18.2966 59.4019C18.5633 58.9852 19.0022 59.0259 19.4393 58.9592V58.9611Z" fill="#EEC05B"/>
<path d="M44.0394 31.6253C48.2031 27.2524 54.9208 23.1592 60.4642 27.6951C60.142 27.9562 59.6956 28.3915 59.377 28.6841C58.5936 29.4805 57.7101 30.4251 56.8803 31.1493C52.9797 28.9712 50.8035 30.2066 47.8419 33.1292C47.2788 33.0496 46.5658 33.0681 45.9157 32.9977L45.7712 32.7996C45.16 32.644 45.1155 32.0939 44.0376 31.6253H44.0394Z" fill="white"/>
<path d="M44.0394 31.6253C48.2031 27.2524 54.9208 23.1592 60.4642 27.6951C60.142 27.9562 59.6956 28.3915 59.377 28.6841C58.4343 27.4487 57.8157 26.7338 56.2414 27.2691L56.0839 27.1635L56.1914 26.7782C55.5005 26.3022 52.5111 26.9542 51.7666 27.4209C51.5517 27.884 51.5591 27.9636 51.4702 28.4544L51.2054 28.5156C51.0387 28.1377 51.0683 28.0859 51.0442 27.6654C49.6274 28.197 46.951 30.0232 46.0268 31.2734C46.0268 31.642 46.0324 31.8513 46.0675 32.218L45.7712 32.7977C45.16 32.6421 45.1155 32.092 44.0376 31.6235L44.0394 31.6253Z" fill="#BEBDC2"/>
<path d="M30.7188 35.3537L33.8341 35.2963C33.8156 36.4353 33.8619 37.041 33.9841 38.18L33.8248 38.5468C34.0175 39.6562 33.9304 39.5321 32.9969 40.3063L33.1896 40.4082C33.4026 40.8916 33.2673 40.6656 33.7656 41.0472C33.5192 41.2842 33.5341 41.1787 33.4859 41.4287L32.9562 42.1473C32.7432 42.4103 32.3302 42.8734 32.1931 43.1512C31.4393 43.7291 30.5762 43.7735 29.9872 42.9308L30.2317 42.2807C29.5056 42.6122 28.5555 42.9271 28.148 41.964C28.3518 41.4287 28.4444 41.5176 29.0445 41.125L28.8444 40.8842C27.1979 41.3676 27.009 41.2213 25.7588 40.1174C27.5276 39.5395 29.0519 39.1135 30.8781 38.7727L31.104 38.7172L31.3633 38.5134C31.1503 38.343 30.9837 38.2967 30.7262 38.18L30.4614 37.6133L30.3799 37.9782C29.6223 38.8857 26.3755 39.3006 25.1976 39.4284C24.8734 39.0524 24.3956 38.5597 24.1807 38.1393L24.1604 37.667C23.3769 37.5781 23.0898 36.8021 22.7268 36.1723C24.353 35.9112 26.344 35.8241 27.9999 35.8482C29.0056 35.863 29.0815 35.913 29.6353 36.5224L29.6483 35.8852C30.4614 35.8093 31.5467 35.7945 32.3839 35.7574C32.0616 35.463 31.2004 35.4222 30.7206 35.3555L30.7188 35.3537Z" fill="#525356"/>
<path d="M22.7251 36.1705C24.3513 35.9093 26.3423 35.8223 27.9981 35.8464C29.0039 35.8612 29.0798 35.9112 29.6336 36.5205C28.5112 37.7226 25.683 37.0503 24.1587 37.667C23.3752 37.5781 23.0881 36.8021 22.7251 36.1723V36.1705Z" fill="#F1CE6D"/>
<path d="M24.179 38.1374C25.4236 37.6633 29.2964 37.1688 30.3781 37.9763C29.6205 38.8838 26.3737 39.2987 25.1958 39.4265C24.8717 39.0505 24.3938 38.5579 24.179 38.1374Z" fill="#F1CE6D"/>
<path d="M30.8781 38.7709C31.2133 40.0266 29.8557 40.3785 28.8445 40.8823C27.1979 41.3657 27.009 41.2194 25.7588 40.1155C27.5276 39.5377 29.0519 39.1117 30.8781 38.7709Z" fill="#F1CE6D"/>
<path d="M29.0444 41.1231C29.9779 40.623 30.5039 40.2322 31.5707 40.3507L31.7485 40.5804C31.5614 41.4287 30.9262 41.7583 30.2316 42.2806C29.5056 42.6122 28.5554 42.927 28.1479 41.9639C28.3517 41.4287 28.4443 41.5176 29.0444 41.1249V41.1231Z" fill="#F1CE6D"/>
<path d="M29.9873 42.9308C31.1579 41.9973 32.0024 40.9009 33.486 41.4287L32.9563 42.1474C32.7433 42.4104 32.3303 42.8734 32.1932 43.1512C31.4394 43.7291 30.5763 43.7735 29.9873 42.9308Z" fill="#F1CE6D"/>
<path d="M32.3821 35.7556C32.9766 35.6834 32.7488 35.5963 33.1322 35.8834L33.1192 36.1779C32.1913 36.9299 31.0393 37.2873 29.978 36.5613L29.6465 35.8816C30.4596 35.8056 31.5449 35.7908 32.3821 35.7538V35.7556Z" fill="#F1CE6D"/>
<path d="M30.4595 37.6114C31.0577 37.1262 32.1542 36.8187 32.8654 37.241C32.6894 37.8985 31.3429 38.0559 30.7243 38.1782L30.4595 37.6114Z" fill="#F1CE6D"/>
<path d="M33.825 38.5449C34.0176 39.6544 33.9305 39.5303 32.9971 40.3045C32.5785 40.3174 32.5618 40.2526 32.1821 40.0396L32.1506 39.7581C32.56 39.2413 33.2434 38.8987 33.8231 38.5449H33.825Z" fill="#EEC05B"/>
<path d="M31.3633 38.5116C31.8875 38.3005 32.519 37.9819 33.0636 37.9838C33.134 38.7635 32.3449 39.0876 31.6893 39.1858C31.3096 39.0321 31.3281 39.0562 31.104 38.7172L31.3633 38.5135V38.5116Z" fill="#EEC05B"/>
<path d="M58.6638 73.23L59.8455 73.1985C61.1716 73.33 62.5089 73.306 63.8406 73.3097C64.2221 73.3263 64.4221 73.393 64.7555 73.5764C65.3945 74.421 65.0889 75.6211 64.9982 76.6083C63.2479 76.7861 61.4402 76.6676 59.6807 76.6769C57.0691 76.688 54.4576 76.7584 51.8461 76.7528C51.8313 75.8749 51.6609 74.6321 51.8739 73.7986C51.9498 73.5023 52.0424 73.5264 52.2869 73.3745C54.1335 72.9244 56.7209 73.2504 58.6657 73.2282L58.6638 73.23Z" fill="#B1B0B8"/>
<path d="M58.6639 73.23L59.8455 73.1985C61.1717 73.33 62.5089 73.3059 63.8406 73.3096L64.0906 73.5708L64.0184 73.7356C62.3755 73.8968 53.476 74.0357 52.2703 73.7042L52.2869 73.3763C54.1335 72.9263 56.721 73.2522 58.6657 73.23H58.6639Z" fill="#E6E4E5"/>
<path d="M53.2632 74.4524C53.6373 74.2431 54.1115 74.3727 54.3263 74.745C54.5393 75.1173 54.4134 75.5933 54.0448 75.81C53.8022 75.9526 53.5003 75.9545 53.2577 75.8137C53.0132 75.6729 52.8632 75.4118 52.865 75.1303C52.8669 74.8487 53.0187 74.5894 53.2651 74.4505L53.2632 74.4524Z" fill="#3A3C4B"/>
<path d="M63.211 74.4783C63.574 74.3171 63.9981 74.4672 64.1796 74.8209C64.3611 75.1747 64.2352 75.6062 63.8925 75.8081C63.6536 75.947 63.3573 75.9433 63.1202 75.7989C62.885 75.6525 62.7498 75.3895 62.7683 75.1117C62.7868 74.8357 62.9572 74.5913 63.211 74.4801V74.4783Z" fill="#3D3F47"/>
<path d="M17.776 73.18C19.2262 73.1633 23.964 72.8688 24.8493 73.6801C25.0475 74.4876 24.9437 75.7248 24.9141 76.6027C23.5102 76.712 12.9289 76.7528 12.0621 76.4064C11.5342 75.5378 11.7676 74.358 11.8472 73.3245C12.9863 73.3096 13.9642 73.28 15.0978 73.1985C15.9905 73.217 16.8832 73.2115 17.776 73.1818V73.18Z" fill="white"/>
<path d="M22.8269 74.3283C23.0954 74.1746 23.427 74.182 23.6881 74.3487C23.9493 74.5136 24.0974 74.8117 24.0734 75.1192C24.0493 75.4285 23.8567 75.6989 23.5733 75.8212C23.1658 75.999 22.6917 75.8267 22.4916 75.4285C22.2935 75.0321 22.4379 74.5487 22.825 74.3283H22.8269Z" fill="#454850"/>
<path d="M12.9827 74.3635C13.2457 74.2005 13.5772 74.1968 13.8439 74.3524C14.1106 74.508 14.2699 74.7987 14.2588 75.108C14.2477 75.4174 14.0662 75.6933 13.7884 75.8285C13.3883 76.023 12.9049 75.8693 12.69 75.4785C12.4752 75.0877 12.6049 74.5987 12.9827 74.3635Z" fill="#3A3C4B"/>
<path d="M16.4075 28.0729L16.7427 27.8025L17.2428 28.3859C17.4558 28.5489 17.8781 28.8971 18.0836 29.0268L18.1374 29.112L20.1469 31.2882L19.921 31.7087C18.943 33.0718 18.9356 34.7147 19.0208 36.3427C17.6539 36.7409 16.3926 37.1132 15.0443 37.5836C14.4831 37.6948 14.4664 37.8263 14.0293 37.5188C13.4125 36.1742 13.7015 34.2016 14.0089 32.7903C14.4497 30.9715 15.0721 29.4231 16.4093 28.0766L16.4075 28.0729Z" fill="white"/>
<path d="M16.4075 28.0729L17.0983 28.7859C15.9963 29.8861 14.8276 32.3847 14.5164 33.8997C14.2571 33.5348 14.1627 33.2052 14.0071 32.7884C14.4479 30.9696 15.0702 29.4212 16.4075 28.0747V28.0729Z" fill="#BEBDC2"/>
<path d="M14.007 32.7866C14.1626 33.2052 14.257 33.533 14.5163 33.8979C14.3478 35.1407 14.6552 35.8945 14.6478 37.2318C14.8793 37.5392 14.7404 37.4318 15.0423 37.58C14.4811 37.6911 14.4645 37.8226 14.0274 37.5151C13.4106 36.1705 13.6995 34.198 14.007 32.7866Z" fill="#BEBDC2"/>
<path d="M16.4072 28.0729L16.7425 27.8025L17.2425 28.3859C17.4555 28.5489 17.8778 28.8971 18.0834 29.0268L18.1371 29.112L20.1467 31.2882L19.9207 31.7087C19.3021 31.1715 17.7704 29.4694 17.0999 28.7878L16.4091 28.0748L16.4072 28.0729Z" fill="#3D3F47"/>
<path d="M59.8586 28.8507L60.6272 28.0432C62.6813 30.3417 63.3517 32.918 63.411 36.0019C63.424 36.6446 63.2943 37.2613 62.8424 37.7355L62.2608 37.754C60.6143 37.2965 59.503 36.889 57.9213 36.2852C57.9694 34.2664 57.8749 33.4348 57.1934 31.566L59.8586 28.8544V28.8507Z" fill="white"/>
<path d="M59.8585 28.8507L60.6272 28.0432C62.6812 30.3417 63.3517 32.918 63.4109 36.0019C63.4239 36.6446 63.2943 37.2613 62.8423 37.7355L62.2608 37.754C62.8757 35.174 62.1959 30.3991 59.8567 28.8526L59.8585 28.8507Z" fill="#BEBDC2"/>
<path d="M49.0996 67.8643L57.0638 67.818C58.4863 69.7813 56.3211 68.7885 57.7158 71.2574C58.051 71.6964 58.64 72.3428 58.7011 72.8466C56.9397 73.0373 52.8928 72.8466 51.1703 72.6799C50.5295 71.0389 49.7571 69.6738 49.0996 67.8662V67.8643Z" fill="#B1B0B8"/>
<path d="M51.4629 69.4978C51.85 69.3812 52.2612 69.5905 52.3964 69.972C52.5316 70.3535 52.3408 70.774 51.9667 70.9258C51.7074 71.0314 51.4129 70.9851 51.198 70.8073C50.9832 70.6295 50.885 70.348 50.9406 70.0739C50.9961 69.7997 51.198 69.5793 51.4647 69.4978H51.4629Z" fill="#3D3F47"/>
<path d="M19.5911 67.8161C20.7635 67.7624 26.2922 67.5587 27.1756 67.7939L27.2571 68.544C26.6144 70.2406 26.2514 71.2519 25.1957 72.7095C23.7936 72.7243 19.2262 72.7095 18.1187 72.9114C18.3224 71.7149 20.2727 70.4202 19.8782 69.3738L19.3411 69.1756L19.3374 69.0923C19.0651 69.0367 19.1985 69.0923 18.9466 68.9052C19.1633 68.4403 19.3114 68.2347 19.5911 67.8161Z" fill="white"/>
<path d="M19.5912 67.8161C20.7636 67.7624 26.2922 67.5587 27.1757 67.7939L27.2572 68.544C26.3626 68.4681 20.5561 68.7329 19.6338 68.8422L19.3393 69.0923C19.067 69.0367 19.2004 69.0923 18.9485 68.9052C19.1652 68.4403 19.3134 68.2347 19.593 67.8161H19.5912Z" fill="#B1B0B8"/>
<path d="M24.6346 69.4572C24.8402 69.2609 25.1383 69.1924 25.4088 69.2813C25.6792 69.3702 25.8811 69.5998 25.9311 69.8814C25.9811 70.1629 25.8718 70.4481 25.6477 70.6241C25.3236 70.8797 24.8568 70.8352 24.5864 70.5241C24.316 70.2129 24.3364 69.7443 24.6346 69.4572Z" fill="#3D3F47"/>
<path d="M21.5396 70.0906C21.6896 70.1109 21.8137 70.1665 21.9545 70.2202C21.7544 70.6962 21.2414 70.974 20.8321 71.2889C20.5654 71.2019 20.5635 71.2574 20.4209 70.9926C20.6283 70.561 21.1432 70.3351 21.5377 70.0906H21.5396Z" fill="#2E3E4C"/>
<path d="M21.2692 36.7928L21.7878 36.3372C23.3862 39.1987 25.005 40.3841 27.1498 42.7548C27.7591 43.4272 28.1073 44.7774 28.7074 45.27C28.7408 44.6348 28.5389 44.2606 28.7463 43.8809C29.9391 44.2477 30.1058 45.7534 30.3836 46.8499C27.9481 45.9887 22.7565 42.3677 21.8601 39.8488C22.0582 39.5173 21.9823 39.6358 22.3453 39.4043C22.1212 38.5579 20.6265 38.4875 21.3841 37.0521L21.2692 36.7946V36.7928Z" fill="#A0A0AA"/>
<path d="M30.1964 67.7754C30.9021 67.8087 31.0799 67.6995 31.5929 68.018C31.6189 68.2995 31.6429 68.3403 31.6096 68.6181C31.304 69.6238 30.9373 71.0685 30.402 71.9205L30.4798 72.2131C31.1095 72.415 31.9356 72.2002 32.6838 72.3113L32.8061 72.7521C31.5466 72.7725 30.2279 72.7262 28.9647 72.7002C28.0424 72.7354 27.0126 72.7169 26.0791 72.7206C26.5699 71.5389 27.4589 69.2553 28.2035 68.3014C28.7332 67.6624 29.3796 67.8495 30.1946 67.7754H30.1964Z" fill="white"/>
<path d="M28.2056 68.3014C28.7353 67.6624 29.3817 67.8495 30.1966 67.7754L30.5948 68.5051L30.3818 68.57C29.9818 69.3293 29.7039 69.9313 28.7538 69.3719C28.6001 69.0497 28.6093 69.1163 28.5371 68.7737L28.2056 68.2995V68.3014Z" fill="#3D3F47"/>
<path d="M28.2056 68.3014C28.7353 67.6624 29.3817 67.8495 30.1966 67.7754L30.5948 68.5051L30.3818 68.57C29.8632 68.4033 29.3446 68.1532 28.8575 68.3255L28.539 68.7755L28.2074 68.3014H28.2056Z" fill="#CFCFD1"/>
<path d="M28.9648 72.6984C29.2223 72.454 29.5149 72.5336 29.9631 72.5262C30.0113 72.3484 30.0613 72.1706 30.1095 71.9928L30.404 71.9205L30.4817 72.2132C31.1115 72.4151 31.9375 72.2002 32.6858 72.3113L32.808 72.7521C31.5486 72.7725 30.2299 72.7262 28.9667 72.7003L28.9648 72.6984Z" fill="#CFCFD1"/>
<path d="M30.1965 67.7754C30.9022 67.8087 31.08 67.6995 31.593 68.018C31.619 68.2995 31.6431 68.3403 31.6097 68.6181C31.3449 68.5681 30.8781 68.5348 30.5947 68.5051L30.1965 67.7754Z" fill="#BEBDC2"/>
<path d="M27.898 71.1574C28.087 70.9981 28.35 70.9574 28.5778 71.0537C28.8056 71.15 28.9612 71.3667 28.9778 71.613C28.9945 71.8612 28.8723 72.0964 28.6593 72.2242C28.3648 72.4002 27.9851 72.3224 27.7851 72.0427C27.585 71.763 27.6332 71.3778 27.8962 71.1574H27.898Z" fill="#3D3F47"/>
<path d="M33.1471 20.3421C33.5286 20.3161 33.8527 20.3291 34.2306 20.3847C34.4751 20.6254 34.564 20.7014 34.6288 21.0551C34.864 22.3516 33.749 24.4612 33.0174 25.5058L31.3746 24.313C30.3744 23.6685 29.3317 23.1147 28.2815 22.5554C29.6632 21.4459 31.4098 20.6699 33.1471 20.3421Z" fill="white"/>
<path d="M64.0204 54.7901C64.0963 53.8566 64.1241 53.1528 64.6649 52.3527L64.9576 52.3786C65.0465 52.5212 65.0742 52.5545 65.1391 52.6953C65.6262 53.7881 65.6929 57.4034 65.3058 58.5388C65.2428 58.6611 65.1798 58.7814 65.1131 58.9018C64.8853 59.3037 64.7723 59.5038 64.3167 59.6279C64.0204 59.5056 63.8278 59.4297 63.5036 59.4482C63.2795 59.6242 63.1332 59.776 62.8535 59.8464C61.9812 57.9239 63.2573 56.6626 63.1462 54.9883C63.1239 54.6419 62.9443 54.277 62.8443 53.9436C62.6572 53.3213 62.7646 52.9676 63.0573 52.4101C63.2147 52.4582 63.3684 52.5453 63.5184 52.6157C63.8574 53.2824 63.9111 54.0566 64.0222 54.7901H64.0204Z" fill="#F2E9DA"/>
<path d="M15.1128 71.013C15.774 70.074 17.0482 68.1718 18.0891 67.8032C18.5374 67.8662 18.3651 67.7625 18.6337 68.0977L18.341 68.5978C18.3429 69.2701 18.2095 69.0664 18.53 69.4276C18.9819 69.4146 18.9504 69.4109 19.3393 69.1738L19.8765 69.372C20.271 70.4203 18.3207 71.7149 18.1169 72.9096L17.7743 73.1781C16.8816 73.2078 15.9888 73.2133 15.0961 73.1948C14.4256 73.1133 13.8014 73.2004 13.1643 72.9966L13.2921 73.0337L13.1976 72.9596C14.4275 72.8799 15.5554 72.9003 16.7778 72.841L17.4076 72.8059C17.2094 72.6818 16.8112 72.5021 16.5852 72.391L15.9333 72.3965L15.3443 72.7058C14.8664 72.7299 14.4867 72.8299 14.1793 72.4743C14.2237 71.9428 14.7497 71.4482 15.1128 71.0111V71.013Z" fill="#FAD97B"/>
<path d="M18.341 68.5978C18.3429 69.2701 18.2095 69.0664 18.53 69.4275C18.9819 69.4146 18.9504 69.4109 19.3393 69.1738L19.8765 69.372C20.271 70.4203 18.3207 71.7149 18.1169 72.9096L17.7743 73.1781C16.8816 73.2078 15.9888 73.2133 15.0961 73.1948C14.4256 73.1133 13.8014 73.2003 13.1643 72.9966L13.2921 73.0337L13.1976 72.9596C14.4275 72.8799 15.5554 72.9003 16.7778 72.841L17.4076 72.8058C18.1947 71.9631 18.8837 70.787 19.4727 69.8017C18.9578 69.7257 18.3892 69.7035 17.9836 69.409C17.9558 68.8867 17.9188 69.1553 18.341 68.5978Z" fill="#353641"/>
<path d="M15.1128 71.0129C15.1739 71.0852 15.4665 71.4389 15.5277 71.4871L15.9351 72.3983L15.3461 72.7076C14.8683 72.7317 14.4886 72.8317 14.1812 72.4761C14.2256 71.9446 14.7516 71.45 15.1146 71.0129H15.1128Z" fill="#F1CE6D"/>
<path d="M15.5275 71.4889C15.9924 71.2055 16.0961 71.0851 16.6351 71.1463C17.0666 71.6445 16.874 71.839 16.5851 72.3928L15.9331 72.3983L15.5256 71.4871L15.5275 71.4889Z" fill="#373637"/>
<path d="M16.6962 49.7207C17.0629 49.98 17.4204 50.28 17.7426 50.5931C19.2743 52.0914 21.3895 56.1347 21.3895 58.2406H19.5392C18.7317 56.1643 17.8778 54.2177 16.8332 52.2526C16.6906 51.9822 16.4258 51.5617 16.3813 51.2598C16.3387 50.9616 16.6406 50.0819 16.6962 49.7207Z" fill="#B1B0B8"/>
<path d="M58.2269 71.1667C57.8787 70.5333 57.7527 70.5666 57.8287 69.9999C58.2213 69.7017 58.2769 69.6924 58.7103 69.4961C58.9196 68.7275 58.2546 68.57 58.4806 67.9088C59.5326 68.0274 62.8665 72.0095 62.885 72.8874L62.7776 73.0856C61.8589 73.1559 60.6291 73.1022 59.8456 73.2004L58.664 73.2319L58.7029 72.8485C58.6417 72.3447 58.0528 71.6983 57.7175 71.2593L58.2269 71.1686V71.1667Z" fill="#D09F49"/>
<path d="M58.2269 71.1666C58.6603 71.7463 59.0233 72.2724 59.4252 72.8706C60.4698 72.8706 61.87 72.8261 62.885 72.8873L62.7776 73.0854C61.8589 73.1558 60.6291 73.1021 59.8456 73.2003L58.664 73.2318L58.7029 72.8484C58.6417 72.3446 58.0528 71.6982 57.7175 71.2592L58.2269 71.1685V71.1666Z" fill="#353641"/>
<path d="M60.4291 70.9889C60.768 70.8611 61.1477 71.0111 61.3051 71.3371C61.4625 71.6631 61.3459 72.0557 61.0347 72.2409C60.8069 72.3762 60.5235 72.3724 60.2994 72.2317C60.0771 72.0891 59.9531 71.8335 59.979 71.5705C60.0068 71.3075 60.179 71.0815 60.4253 70.987L60.4291 70.9889Z" fill="#373637"/>
<path d="M59.7697 50.1782C59.8252 50.193 59.8827 50.1986 59.9345 50.2208C60.2679 50.3671 60.4253 50.5616 60.5309 50.9135C60.705 51.4988 58.1898 56.594 57.7546 57.4479C57.536 57.8776 57.4212 57.9998 56.9692 58.1554C56.5859 58.1035 56.2932 58.0443 55.9302 57.8942C55.895 57.7072 55.8617 57.5331 55.8728 57.3423C55.995 55.2957 58.2491 51.4969 59.7697 50.1782Z" fill="#B1B0B8"/>
<path d="M40.5408 41.1472C41.8966 40.8324 41.0872 40.486 41.8874 40.2878C42.167 40.4786 42.3059 40.5971 42.5615 40.8194L42.693 41.2491C42.8301 41.3213 43.1727 41.4843 43.269 41.5769L43.6321 41.3862C44.5267 41.1028 44.6804 41.1269 45.5472 41.5825C46.2343 41.9437 46.9122 42.7753 46.3918 43.5032C45.8306 43.6921 45.3342 43.5106 44.9175 43.1142L44.7304 43.3383L44.7396 43.6217C44.3711 43.8903 44.0414 43.8662 43.5802 43.9125C43.1931 43.8773 42.9634 43.818 42.5856 43.7328L41.8281 43.605L41.5188 43.6013L41.0798 43.0753L40.9909 43.1883L41.1502 43.6661L40.8076 43.8458C40.6409 42.3622 39.8259 43.3828 40.539 41.1472H40.5408Z" fill="#EEC05B"/>
<path d="M40.5408 41.1472C41.8966 40.8324 41.0872 40.486 41.8874 40.2878C42.167 40.4786 42.3059 40.5971 42.5615 40.8194L42.693 41.2491C42.8301 41.3213 43.1727 41.4843 43.269 41.5769L42.5004 41.8103C42.1744 42.6234 43.0394 43.292 43.5802 43.9125C43.1931 43.8773 42.9634 43.818 42.5856 43.7328L41.8281 43.605L41.5188 43.6013L41.0798 43.0753L40.9909 43.1883L41.1502 43.6661L40.8076 43.8458C40.6409 42.3622 39.8259 43.3828 40.539 41.1472H40.5408Z" fill="#525356"/>
<path d="M41.828 43.6068C41.4891 43.1253 41.3465 43.0049 41.2891 42.4122L41.4521 42.1696C42.2374 42.4585 42.354 42.9678 42.5856 43.7346L41.828 43.6068Z" fill="#E8BA52"/>
<path d="M43.6321 41.3879C44.5267 41.1046 44.6804 41.1286 45.5472 41.5843C46.2343 41.9454 46.9122 42.777 46.3918 43.5049C45.8306 43.6939 45.3342 43.5123 44.9175 43.116C44.8082 42.8085 43.8951 41.7176 43.6339 41.3861L43.6321 41.3879Z" fill="#E8BA52"/>
<path d="M43.2689 41.5769L43.632 41.3861C43.8931 41.7176 44.8081 42.8067 44.9155 43.116L44.7284 43.3401C44.1895 42.7271 43.769 42.227 43.2671 41.5769H43.2689Z" fill="#4B423E"/>
<path d="M38.4812 33.3867C39.9925 31.4604 39.661 28.7545 41.0631 27.1301L41.2965 27.1375C41.7762 27.8895 42.0688 31.766 42.0484 32.7699C41.6595 33.4052 41.1261 33.1903 40.513 34.1405L40.663 34.5294C40.3796 34.4479 40.0148 34.3035 39.7295 34.2016L39.6518 33.9127C39.0572 33.7275 39.0276 33.7052 38.4831 33.3867H38.4812Z" fill="#B1B0B8"/>
<path d="M39.6499 33.9109C39.7981 33.3811 39.7573 33.0959 40.1055 32.8848C40.4019 33.4052 40.3963 33.533 40.5111 34.1368L40.6612 34.5258C40.3778 34.4443 40.0129 34.2998 39.7277 34.1979L39.6499 33.909V33.9109Z" fill="#A0A0AA"/>
<path d="M38.2458 3.72278L38.8922 3.76908L39.1849 4.39325C39.6701 5.59344 39.7035 6.18242 40.0554 7.18813C39.5775 7.74748 39.4405 7.81416 38.8219 8.242L38.3199 8.27905C37.7847 7.979 37.4253 7.64006 36.9604 7.2474C37.279 6.2065 37.7124 4.60255 38.2458 3.72278Z" fill="#6A6B6F"/>
<path d="M36.9586 7.2474C37.2772 6.2065 37.7106 4.60255 38.244 3.72278C38.3737 4.70071 38.4015 7.28259 38.3163 8.27905C37.781 7.979 37.4217 7.64006 36.9568 7.2474H36.9586Z" fill="white"/>
<path d="M39.1831 4.39331C39.6683 5.5935 39.7017 6.18248 40.0536 7.18819C39.3349 6.85851 39.1849 6.8511 38.7626 6.22693L38.5645 5.81205C39.0627 5.22122 39.1127 5.11194 39.1831 4.39331Z" fill="#C0B9B4"/>
<path d="M38.7627 6.22693C39.185 6.84925 39.335 6.85851 40.0536 7.18819C39.5758 7.74754 39.4387 7.81421 38.8201 8.24206L38.7627 6.22693Z" fill="#F2E9DA"/>
<path d="M38.8924 3.76917L39.185 4.39334C39.1146 5.11197 39.0646 5.22124 38.5664 5.81208C38.672 5.00825 38.5516 4.43408 38.8942 3.76917H38.8924Z" fill="#BEBDC2"/>
<path d="M38.1699 25.4966C38.6144 25.6114 38.5681 25.704 38.8959 25.8318C39.4312 25.8615 39.3942 25.8577 39.8665 26.1152C40.1795 26.7949 39.9331 27.208 39.6609 27.9507L39.5849 28.1544C39.3256 28.8397 39.1108 29.6102 38.6329 30.138L38.3755 30.1566L38.131 29.8417C37.7402 29.0064 37.0086 27.3172 37.2401 26.4078C37.3661 25.9152 37.7439 25.7503 38.1681 25.4966H38.1699Z" fill="#A0A0AA"/>
<path d="M38.17 25.4966C38.7942 26.2356 38.5775 28.9712 38.133 29.8417C37.7422 29.0064 37.0106 27.3172 37.2421 26.4078C37.368 25.9152 37.7459 25.7503 38.17 25.4966Z" fill="white"/>
<path d="M38.896 25.83C39.4312 25.8596 39.3942 25.8559 39.8665 26.1133C40.1795 26.7931 39.9332 27.2061 39.6609 27.9488L39.585 28.1525L39.4479 27.1802C39.0775 26.9801 39.1182 27.1283 38.8237 26.8931L38.8941 25.83H38.896Z" fill="#BEBDC2"/>
<path d="M11.1305 49.0687C12.1936 48.0149 12.9863 47.8704 14.0402 49.0317C14.1884 49.7337 14.3458 50.3671 13.8476 50.9931C13.5253 51.4043 13.0308 51.6395 12.5085 51.6321C11.4454 51.608 11.0323 50.8023 11.0546 49.8392L11.1305 49.0706V49.0687Z" fill="#CC6D59"/>
<path d="M11.1306 49.0687C12.1937 48.0149 12.9865 47.8704 14.0403 49.0317L13.3032 49.3929C13.0883 49.1817 13.1309 49.2336 12.8568 49.0873C12.0641 49.2206 11.8974 49.2762 11.1306 49.0687Z" fill="#E6755E"/>
<path d="M11.1306 49.0687C11.8974 49.2762 12.0641 49.2206 12.8568 49.0872C13.1309 49.2336 13.0883 49.1817 13.3032 49.3929C12.8531 50.043 13.0624 49.9263 12.4197 50.2245C11.8048 50.2245 11.6363 50.0948 11.0547 49.8374L11.1306 49.0687Z" fill="#F39A81"/>
<path d="M64.2055 48.2742C64.3759 48.2945 64.5945 48.3075 64.7593 48.3668C65.2483 48.5427 65.6076 48.9039 65.7835 49.391C65.9484 49.8522 65.8928 50.343 65.6595 50.7709C65.3816 51.282 64.9445 51.4173 64.4278 51.5821C64.0888 51.5617 63.7203 51.5599 63.4221 51.3784C63.0294 51.1413 62.7923 50.6968 62.709 50.2578C62.6182 49.7818 62.7609 49.2317 63.0553 48.8483C63.3813 48.4205 63.711 48.3668 64.2055 48.276V48.2742Z" fill="#CC6D59"/>
<path d="M63.411 48.6206C63.8259 48.7743 64.2148 48.9281 64.6056 49.1373C64.7853 49.5541 64.676 49.7115 64.5686 50.1431C64.4408 50.169 64.2667 50.2097 64.1408 50.2097C63.737 50.2097 63.6333 50.1245 63.3462 49.8764C63.1869 49.4004 63.2925 49.0855 63.411 48.6206Z" fill="#F39A81"/>
<path d="M46.6787 16.4396C47.0417 16.0247 47.4454 15.5857 47.7955 15.1653C48.879 15.5098 49.8662 15.7876 50.8015 16.4673C50.5459 16.6952 50.3385 16.9656 50.0551 17.023C48.6734 17.6434 48.1048 18.1824 46.8639 17.0267L46.6194 16.6711L46.6787 16.4396Z" fill="#605F63"/>
<path d="M46.6787 16.4396C47.0417 16.0247 47.4455 15.5857 47.7956 15.1653C48.8791 15.5098 49.8662 15.7876 50.8016 16.4673C49.4588 16.4933 48.0067 16.5618 46.6787 16.4396Z" fill="white"/>
<path d="M46.8621 17.0268C47.5862 16.9712 49.368 16.8805 50.0533 17.0231C48.6716 17.6436 48.103 18.1825 46.8621 17.0268Z" fill="#BEBDC2"/>
<path d="M52.4594 55.5587C52.8928 54.1918 53.3688 53.1917 54.9153 53.9955C55.2672 55.5031 54.2245 57.5349 52.7798 56.6366C52.489 56.118 52.4946 56.1495 52.4575 55.5587H52.4594Z" fill="#A0A0AA"/>
<path d="M52.4592 55.5587C52.8926 54.1918 53.3686 53.1917 54.9152 53.9955C53.9632 55.016 53.8706 55.6161 52.4592 55.5587Z" fill="white"/>
<path d="M22.5101 55.9865C22.0526 55.2308 21.8693 54.7863 22.2434 53.9417C23.1195 53.2361 23.5195 53.6861 24.1826 54.3899C24.5252 55.2197 24.6845 55.5975 24.3623 56.431C23.9066 56.8033 24.1641 56.6977 23.551 56.7255C22.9898 56.4847 22.9583 56.4236 22.5101 55.9846V55.9865Z" fill="#CFCFD1"/>
<path d="M24.1808 54.39C24.5234 55.2198 24.6827 55.5976 24.3604 56.4311C23.9048 56.8034 24.1623 56.6978 23.5492 56.7256C22.988 56.4848 22.9565 56.4237 22.5083 55.9847C23.6548 55.5291 23.6511 55.5069 24.1808 54.3882V54.39Z" fill="#B1B0B8"/>
<path d="M54.7429 37.4225L55.5152 37.3058L55.9171 37.5355C55.7171 38.4115 55.5245 38.5263 54.7614 38.9523C52.6277 40.0618 53.9816 41.5064 50.3718 42.5751C51.9832 40.8989 53.4112 39.3302 54.7429 37.4225Z" fill="url(#paint4_linear_375_451)"/>
<path d="M55.9153 37.5355C55.7152 38.4116 55.5226 38.5264 54.7595 38.9524C54.7947 38.5802 54.8447 38.3875 54.9244 38.0264C55.3652 37.5689 55.2114 37.7115 55.9153 37.5337V37.5355Z" fill="#B1B0B8"/>
<path d="M45.5526 40.0767C46.6306 40.3248 48.216 40.8935 48.9309 41.764L48.8994 42.0825L48.2808 42.5437C48.2141 42.5715 48.1493 42.6085 48.0789 42.6271C47.7326 42.716 47.2696 42.3807 46.9899 42.214C46.3435 41.8288 45.3248 41.2213 45.134 40.4471L45.5526 40.0785V40.0767Z" fill="#EEC05B"/>
<path d="M43.5616 67.7754C43.7265 67.8939 43.7802 67.9143 43.9024 68.0662C44.5081 68.8181 45.3156 70.661 45.2082 71.6167L44.5877 71.5612C44.4303 71.413 44.4136 71.4111 44.2729 71.2C43.7191 70.3647 43.4116 68.7552 43.5598 67.7772L43.5616 67.7754Z" fill="#E6E4E5"/>
<path d="M47.8437 33.1275C47.1251 33.2515 43.5004 33.3571 43.0559 32.9311C43.1985 32.457 43.6856 32.0106 44.0394 31.6254C45.1173 32.0921 45.1618 32.644 45.773 32.7996L45.9175 32.9978C46.5676 33.0682 47.2806 33.0497 47.8437 33.1293V33.1275Z" fill="#CFCFD1"/>
<path d="M30.7669 45.4016L30.491 44.9256L30.5817 44.72C31.367 44.7792 31.8004 45.083 32.5635 45.2941C32.8784 45.8553 33.0729 45.9739 33.0543 46.511C32.5969 46.5795 32.2301 46.3387 31.7875 46.1387L31.5115 46.5795C31.3689 46.4406 30.9559 46.1332 30.778 45.9942L30.7651 45.4034L30.7669 45.4016Z" fill="#828486"/>
<path d="M30.767 45.4015L31.7875 46.1386L31.5115 46.5795C31.3689 46.4405 30.9559 46.1331 30.7781 45.9942L30.7651 45.4033L30.767 45.4015Z" fill="#454850"/>
<path d="M48.4142 43.8124L48.5494 43.9531C48.6994 44.444 48.8254 44.9811 48.6012 45.4737C48.2864 46.1627 48.0234 46.3183 47.3473 46.611C47.1214 46.3257 47.1029 46.1146 47.1455 45.7479C47.2473 44.8811 47.7641 44.3365 48.4142 43.8124Z" fill="#A0A0AA"/>
<path d="M13.4457 47.4703C13.9884 47.4777 14.3588 47.6518 14.7366 48.0315C15.246 48.5427 15.4423 49.2262 15.4386 49.9355C15.4368 50.8246 15.2163 51.2857 14.6088 51.921C14.4607 51.8803 14.5551 51.9173 14.3607 51.7506C14.5792 51.1968 14.8718 50.6042 14.8756 50.0022C14.8848 48.8965 14.1477 48.213 13.4438 47.4703H13.4457Z" fill="#E8BA52"/>
<path d="M50.422 42.8252L50.7832 42.9734L50.9017 43.3049C50.6535 44.2773 50.0664 45.0033 49.3589 45.6942L49.0144 45.6034L48.9199 45.3052C49.2107 44.3717 49.6256 43.4271 50.4202 42.8252H50.422Z" fill="#A0A0AA"/>
<path d="M63.0293 47.4055C63.3609 47.5092 63.2312 47.4185 63.435 47.6444C63.3961 47.6907 63.3572 47.7371 63.3183 47.7852L63.1386 48.0149C63.0553 48.1204 62.9682 48.2242 62.8886 48.3334C62.057 49.4577 62.0644 50.2967 62.2774 51.6062C61.9866 51.4654 62.0662 51.5395 61.8495 51.2839C61.5087 50.8801 61.4439 50.3115 61.5087 49.804C61.6476 48.7205 62.2014 48.0538 63.0293 47.4055Z" fill="#F1CE6D"/>
<path d="M33.2971 29.8195L34.4287 29.9232C34.3435 30.6214 34.2361 31.3327 34.1417 32.0309C33.4916 31.3178 32.8322 30.6159 32.1636 29.9213L33.2989 29.8195H33.2971Z" fill="#DBDBDC"/>
<path d="M25.1235 33.0903C24.4586 33.0551 23.7603 33.1403 23.3584 32.7588C23.1806 32.2068 22.9713 31.7679 23.4696 31.366C23.977 31.4326 24.1493 31.716 24.5105 32.0957C24.829 32.5143 24.9642 32.6032 25.1235 33.0903Z" fill="#B1B0B8"/>
<path d="M22.3472 31.3326C22.5695 31.4678 22.6732 31.6253 22.7676 31.8753C22.8806 32.1698 22.814 32.5125 22.6324 32.7643C22.325 33.1903 21.9268 33.1181 21.4508 33.17L21.1452 32.9033L21.1211 32.5347C21.3915 32.005 21.8879 31.6901 22.3472 31.3326Z" fill="#B1B0B8"/>
<path d="M24.8568 31.8624C25.4532 31.6716 26.5571 32.3254 26.8127 32.8607L26.7016 33.0273C26.1774 33.107 26.1608 33.1051 25.6329 33.0607L25.2477 33.2811L25.1236 33.0885C24.9643 32.6032 24.8291 32.5143 24.5105 32.0939L24.8587 31.8605L24.8568 31.8624Z" fill="#B1B0B8"/>
<path d="M24.8567 31.8624C25.1142 32.2458 25.4087 32.6626 25.6309 33.0608L25.2457 33.2812L25.1216 33.0886C24.9623 32.6033 24.8271 32.5144 24.5085 32.094L24.8567 31.8606V31.8624Z" fill="#454850"/>
<path d="M53.739 31.1567C54.1002 31.4105 54.1872 31.4549 54.3632 31.8513C54.2798 32.3884 53.8001 32.8274 53.4538 33.2311C53.0519 33.0885 52.9278 33.1107 52.7092 32.7514C52.7815 32.1439 53.3575 31.6161 53.7372 31.1567H53.739Z" fill="#B1B0B8"/>
<path d="M55.0542 31.7939C55.4153 31.6494 55.8265 31.7902 56.0228 32.1254C56.2192 32.4606 56.1414 32.8885 55.8413 33.133C55.6024 33.3274 55.269 33.3645 54.993 33.2256C54.7171 33.0867 54.5485 32.7996 54.5615 32.4903C54.5745 32.181 54.7671 31.9087 55.0542 31.7939Z" fill="#B1B0B8"/>
<path d="M21.2692 36.7928C20.6006 36.352 19.9838 35.5464 20.3857 34.7314L20.6728 34.7129C21.2136 35.0852 21.4655 35.7334 21.7878 36.3372L21.2692 36.7928Z" fill="#B1B0B8"/>
<path d="M54.7429 37.4225C55.1467 36.665 55.656 35.3852 56.5154 35.1444C56.6877 36.026 56.0524 36.6947 55.5153 37.3059L54.7429 37.4225Z" fill="#A0A0AA"/>
<path d="M67.5487 38.4412C68.071 38.632 68.873 38.8579 69.1397 39.3765C68.9785 39.7266 68.7896 39.7118 68.447 39.8488C68.234 39.9155 67.9987 39.9562 67.782 40.0044C67.7172 39.9396 67.5357 39.7766 67.4931 39.6821C67.2783 39.2061 67.4227 38.9024 67.5487 38.4393V38.4412Z" fill="white"/>
<path d="M52.0889 31.516L52.3315 31.8494C52.2852 32.1513 52.2649 32.2847 52.05 32.5199C51.5518 33.0663 50.9276 33.1385 50.2293 33.1385L50.1238 32.9551C50.6202 32.3624 51.4425 31.9383 52.0889 31.5142V31.516Z" fill="#A0A0AA"/>
<path d="M9.32666 38.6449C9.35815 38.6579 9.39519 38.6634 9.42297 38.6856C9.78044 38.9727 9.67301 39.2228 9.69524 39.6302C9.71005 39.9081 9.71932 39.6376 9.68227 40.0377L9.22294 40.147C8.82844 39.9988 8.33021 39.8988 8.10425 39.5191C8.38207 39.0709 8.87103 38.8968 9.32851 38.6449H9.32666Z" fill="white"/>
<path d="M45.8806 44.7218C46.2195 44.7737 46.0695 44.6996 46.3214 44.9607C46.2936 45.0218 46.2714 45.0848 46.238 45.1441C46.0213 45.5145 45.5842 45.8775 45.1694 45.9998C44.7878 46.1128 45.1212 45.959 44.6878 46.1813C44.6156 46.2183 44.5452 46.2572 44.4729 46.2961L44.3396 46.4962L44.3081 46.1813C44.6841 45.37 45.099 45.1163 45.8806 44.7218Z" fill="#B1B0B8"/>
<path d="M56.4246 63.2914C56.9858 63.8507 57.2044 63.9526 57.9285 64.2786L57.9989 64.4156C57.3322 64.5768 57.121 64.5508 56.4209 64.5471L56.4246 63.2914Z" fill="#A0A0AA"/>
<path d="M30.7781 45.9943C30.9559 46.1332 31.3689 46.4406 31.5115 46.5796C31.7838 46.9296 32.1079 47.2278 32.0283 47.6519C31.1207 47.539 30.767 46.85 30.7781 45.9924V45.9943Z" fill="#A0A0AA"/>
<path d="M54.1392 40.3008L54.8894 40.899C54.2467 41.5973 53.7688 41.8658 52.9854 42.377C53.4002 41.6954 53.7633 41.0046 54.1411 40.3008H54.1392Z" fill="#A0A0AA"/>
<path d="M52.6946 42.6418L52.7038 42.9919C52.2815 43.5105 51.7648 43.7957 51.2036 44.1402C51.1832 43.8476 51.148 43.8717 51.2684 43.5994C51.5425 42.9789 52.1 42.8252 52.6946 42.6418Z" fill="#A0A0AA"/>
<path d="M31.1467 61.3245L34.5676 61.3393C34.2935 61.5912 34.1342 61.7875 33.7805 61.9023C33.3508 61.5523 32.7433 61.5189 32.2765 61.8171C32.108 61.5727 31.5116 61.4504 31.1467 61.3245Z" fill="#828486"/>
<path d="M45.6897 46.7554C46.0212 46.172 45.7971 46.3387 46.2824 46.0757C46.6621 46.3739 46.5232 46.1794 46.6232 46.7369C46.3991 47.2388 46.4343 47.2796 45.8416 47.3851L45.6897 46.7554Z" fill="#A0A0AA"/>
<path d="M54.1391 40.3007C54.591 39.7858 54.4261 39.8247 54.991 39.6432C55.4541 40.0692 55.154 40.4081 54.8873 40.8971L54.1372 40.2988L54.1391 40.3007Z" fill="#A0A0AA"/>
<path d="M9.16725 32.5088L9.35061 32.6458C9.37654 33.0274 9.37284 33.0163 9.13762 33.3219L8.74682 33.3571C8.4727 33.2089 8.28193 33.0681 8.06152 32.8496C8.2986 32.5551 8.79682 32.5755 9.16725 32.5106V32.5088Z" fill="white"/>
<path d="M13.657 22.0979C14.2589 22.3683 14.6627 22.5628 14.9405 23.1888C14.759 23.2481 14.5831 23.2685 14.3941 23.2962C13.9589 23.0499 13.8385 22.5387 13.657 22.0979Z" fill="#E6E4E5"/>
<path d="M63.6389 21.9608L63.7371 22.0719C63.6945 22.6109 63.3944 23.1314 63.1685 23.6185L62.8777 23.1221C62.9684 22.5998 63.2944 22.3572 63.6371 21.9608H63.6389Z" fill="#E6E4E5"/>
<path d="M16.5869 72.3928C16.8128 72.504 17.2111 72.6836 17.4092 72.8077L16.7795 72.8429C16.3702 72.7836 15.7719 72.7466 15.3459 72.7095L15.9349 72.4002L16.5869 72.3947V72.3928Z" fill="#F1CE6D"/>
<path d="M45.8396 47.3834C45.4044 47.5779 45.3414 47.6408 44.8599 47.6686C44.9339 47.3241 45.3618 47.0537 45.6878 46.7537L45.8396 47.3834Z" fill="#828486"/>
<path d="M55.6023 54.5215L56.0802 54.5696C56.0098 54.7956 55.9042 55.0586 55.8209 55.2846L55.6801 55.2068L55.6023 54.5215Z" fill="#B1B0B8"/>
</g>
</g>
<defs>
<linearGradient id="paint0_linear_375_451" x1="41.0822" y1="33.2492" x2="36.1736" y2="32.8999" gradientUnits="userSpaceOnUse">
<stop stop-color="#37393F"/>
<stop offset="1" stop-color="#525461"/>
</linearGradient>
<linearGradient id="paint1_linear_375_451" x1="38.5398" y1="66.5161" x2="38.5095" y2="64.809" gradientUnits="userSpaceOnUse">
<stop stop-color="#E0AC53"/>
<stop offset="1" stop-color="#FFE07C"/>
</linearGradient>
<linearGradient id="paint2_linear_375_451" x1="37.7168" y1="24.4465" x2="39.7732" y2="19.0094" gradientUnits="userSpaceOnUse">
<stop stop-color="#36363C"/>
<stop offset="1" stop-color="#4B505B"/>
</linearGradient>
<linearGradient id="paint3_linear_375_451" x1="59.2709" y1="57.0695" x2="52.9043" y2="22.5785" gradientUnits="userSpaceOnUse">
<stop stop-color="#B8B8BE"/>
<stop offset="1" stop-color="#F3F2F2"/>
</linearGradient>
<linearGradient id="paint4_linear_375_451" x1="52.7827" y1="39.0326" x2="53.5846" y2="40.9767" gradientUnits="userSpaceOnUse">
<stop stop-color="#999DA4"/>
<stop offset="1" stop-color="#BFBCC6"/>
</linearGradient>
<clipPath id="clip0_375_451">
<rect width="78.19" height="78.19" fill="white"/>
</clipPath>
<clipPath id="clip1_375_451">
<rect width="67.0327" height="78.19" fill="white" transform="translate(5)"/>
</clipPath>
</defs>
</svg>
