<svg width="79" height="79" viewBox="0 0 79 79" fill="none" xmlns="http://www.w3.org/2000/svg">
<g clip-path="url(#clip0_278_6839)">
<path d="M38.1229 0.0811412C43.2331 -0.284191 48.7867 0.620782 53.6476 2.16807C59.1653 3.9231 63.9423 6.84097 68.307 10.5826C69.1124 11.2727 70.2725 12.149 70.7063 13.128C71.3391 14.5535 69.9729 17.4451 69.4815 18.8683C73.2423 24.8974 75.1406 30.4586 75.7422 37.5456C76.1833 37.9443 76.6195 38.3479 76.9551 38.8445C78.2566 40.7619 78.1463 48.1283 77.6693 50.5399C76.9119 54.3675 72.5879 56.944 69.5798 59.0309C68.1872 62.5505 65.1719 63.7372 62.0056 65.3323L62.6336 68.8208C54.9132 70.8003 47.6146 73.957 39.5394 74C34.6617 74.0477 29.8368 72.8586 25.3426 71.0391C23.4898 71.3877 21.6154 71.8008 19.741 72.0038C15.6974 72.4431 13.3988 70.9484 9.65244 70.4207C8.61459 70.275 7.63425 70.552 6.58441 70.2487C5.52018 69.9383 4.49431 69.3724 3.64581 68.6656C1.53174 66.9058 0.457927 64.4345 0.191871 61.7482C-0.146092 58.3241 -0.285113 57.0777 1.96798 54.3556C2.07344 50.4707 1.29445 44.7448 2.62952 41.2013C3.44686 39.0355 4.86343 36.8841 5.99237 34.8497C5.46266 33.9854 5.13428 33.2165 4.82029 32.259C6.38547 24.482 9.6117 17.7221 15.7142 12.4475C16.0594 10.48 16.2871 7.90115 17.7156 6.38013C21.323 2.52863 32.6411 0.367676 38.1229 0.0811412Z" fill="#0A1C2A"/>
<path d="M28.3483 14.2934C29.621 14.8067 32.761 12.6673 34.2686 12.1133C43.7795 8.61042 54.1054 10.5923 61.67 17.259C67.3147 21.6955 70.378 28.9448 71.1809 35.9267C71.3727 37.5624 71.4638 39.2076 71.4494 40.8551C69.0189 43.8661 67.4849 44.9812 63.9902 46.8198C63.5276 47.0634 61.4974 48.1069 61.1858 48.3791C61.3464 51.0773 61.1091 55.8003 61.2673 58.6728C61.3896 58.8018 61.5118 58.9331 61.6317 59.062C60.9941 59.1743 60.3541 59.2793 59.7141 59.3748C59.5583 57.2091 59.3378 54.4942 59.6087 52.3715C59.6326 50.4015 58.9447 47.3786 60.0976 46.0462C63.6283 42.2663 63.0027 35.3823 61.1451 30.9697C58.8033 28.0446 56.543 26.1034 52.6672 25.6927C40.7786 24.4343 36.3707 40.7954 44.9372 47.5195C44.5226 48.4101 43.7723 50.1413 43.257 50.8958C40.8553 49.5013 39.8031 49.456 37.1737 49.573L37.1545 27.3307L23.7103 30.6808C21.3517 31.2777 11.2799 34.2123 9.67401 33.1187C9.50143 32.1898 9.43672 32.6077 9.77228 31.8078C11.4957 30.5853 13.6385 31.8388 14.2377 29.4558L13.6888 28.6153L13.4587 28.6607C13.382 29.0977 13.3125 29.5346 13.2478 29.974L12.3561 29.5872L12.0374 29.6779C11.5148 30.0719 11.3854 30.1889 10.7694 30.4659C9.98561 30.5733 9.64045 30.4133 9.27612 29.7448C9.27852 28.7849 9.69798 28.09 10.3332 27.3785L10.7478 27.3713L10.5033 26.6239C10.3427 25.3345 11.6347 22.388 13.0776 21.834C12.8763 21.6143 12.6773 21.3779 12.4808 21.1511L12.5958 20.7022C13.255 20.3369 13.9621 20.3966 14.7267 20.3727L15.0407 19.8832C16.1193 17.4047 19.4126 14.9476 21.6369 13.546C23.7678 12.3473 27.1618 11.4853 28.3483 14.2934Z" fill="url(#paint0_linear_278_6839)"/>
<path d="M15.0407 19.8831C16.4477 20.9218 15.4673 20.5278 16.2823 21.7121C16.8479 21.1605 16.5651 19.0235 17.0253 18.9327C21.4811 18.0516 29.4916 17.6959 33.6622 17.1443C30.2994 22.4643 26.0664 28.5508 19.5612 30.0766C17.6461 30.5278 15.9443 30.4467 14.2377 29.4557L13.6888 28.6152L13.4587 28.6606C13.382 29.0976 13.3125 29.5345 13.2478 29.9739L12.3561 29.5871L12.0374 29.6778C11.5148 30.0718 11.3854 30.1888 10.7694 30.4658C9.98561 30.5732 9.64045 30.4132 9.27612 29.7447C9.27852 28.7848 9.69798 28.0899 10.3332 27.3784L10.7478 27.3712L10.5033 26.6238C10.3427 25.3344 11.6347 22.3879 13.0776 21.8339C12.8763 21.6142 12.6773 21.3778 12.4808 21.151L12.5958 20.7021C13.255 20.3368 13.9621 20.3965 14.7267 20.3726L15.0407 19.8831Z" fill="#0F100F"/>
<path d="M14.7266 20.3726C15.067 21.9653 13.7151 22.1897 14.4654 23.0923C15.4553 23.3335 15.0742 23.3693 16.0186 23.1019C17.2721 22.0345 17.0348 20.8908 17.7419 19.642C18.0368 19.1167 30.3832 18.2451 31.9196 18.109L30.4455 19.685C26.4978 19.9906 22.5453 20.2413 18.5904 20.4419C18.2309 22.2662 16.7568 24.3197 14.8393 24.6372C14.1034 24.2934 13.9884 24.1525 14.0124 23.2786C12.8738 24.8856 13.4371 26.6143 10.7478 27.3712L10.5033 26.6239C10.3427 25.3345 11.6346 22.3879 13.0776 21.834C12.8762 21.6143 12.6773 21.3779 12.4807 21.1511L12.5958 20.7021C13.2549 20.3368 13.962 20.3965 14.7266 20.3726Z" fill="#E5B952"/>
<path d="M13.0776 21.834L13.2525 21.9987C12.9793 22.4071 10.3858 26.7457 10.5033 26.6239C10.3427 25.3345 11.6346 22.388 13.0776 21.834Z" fill="#E9DAAC"/>
<path d="M10.7693 30.4659C10.8316 29.6755 10.8244 28.3909 11.589 27.9945C12.0828 28.6894 11.9294 28.6989 12.0372 29.6779C11.5147 30.0719 11.3853 30.1889 10.7693 30.4659Z" fill="#E2AC42"/>
<path d="M12.356 29.5871C12.3608 28.7801 12.2674 27.856 12.6173 27.1611C13.1159 27.7151 13.183 29.2051 13.2477 29.9739L12.356 29.5871Z" fill="#D09B3D"/>
<path d="M27.8521 20.5279C28.5113 20.4491 29.065 20.387 29.7193 20.5135L29.9135 20.8574C29.7912 21.0484 29.7601 21.1248 29.5539 21.28C28.238 22.2686 26.6489 22.1969 25.1053 22.1253C24.5516 22.1301 24.0962 22.1134 23.5545 21.9701C23.5281 21.5379 23.5761 21.3755 23.9092 21.0603C24.6523 20.3583 26.8574 20.5422 27.8521 20.5279Z" fill="#D09B3D"/>
<path d="M23.147 22.5431C24.8871 22.5813 26.6297 22.6052 28.3722 22.6147L28.4082 22.8177L27.8449 23.5746C26.7471 24.131 24.9758 24.2313 23.7702 23.9614C23.2477 23.8444 22.9169 23.7752 22.6221 23.3263L23.147 22.5431Z" fill="#E2AC42"/>
<path d="M21.7542 23.9829C22.9431 24.2527 25.6084 24.0999 26.4449 24.938L25.8984 25.5039C25.3352 25.7666 24.8822 25.9528 24.2494 25.9075C23.3841 25.8478 22.188 25.7355 21.6391 24.9691C21.4354 24.6849 21.6631 24.2981 21.7542 23.9829Z" fill="#E2AC42"/>
<path d="M20.6493 20.9457C21.6081 20.8526 22.2768 20.7165 23.1205 21.2514L23.0942 21.6191C22.5357 22.0465 22.1594 22.099 21.4667 22.1611C20.9945 22.1205 20.4816 22.099 20.0166 21.9988C19.5444 21.8937 19.2687 21.7552 19.0146 21.3421C19.5971 20.9242 19.9446 20.9911 20.6493 20.9457Z" fill="#E2AC42"/>
<path d="M14.4389 24.8187L14.7601 25.2151L14.983 25.0671C15.4744 25.0074 16.0113 25.2103 16.4044 25.5088C16.8406 25.8407 16.855 26.2036 16.9197 26.7075C16.4523 26.951 16.2462 26.8818 15.7284 26.8436L15.0166 25.7667C15.0453 26.2466 15.0909 26.4735 14.9327 26.9319L14.2663 27.1134L13.9883 26.8531C14.0003 26.0771 14.1393 25.5327 14.4389 24.8187Z" fill="#E5B952"/>
<path d="M18.619 26.4471C19.6521 26.5474 21.0207 27.3712 21.8405 28.0064L21.6679 28.4911C21.2508 28.5794 20.8122 28.6678 20.3855 28.6391C19.6353 28.5866 19.0097 28.2762 18.5255 27.7222C18.317 27.068 18.3434 27.0799 18.619 26.4471Z" fill="#E2AC42"/>
<path d="M20.2227 25.4347C21.4235 25.4586 23.0606 26.1892 24.1464 26.7122L23.969 27.1085C23.7126 27.1826 23.6502 27.2064 23.3674 27.2637C22.3463 27.4739 21.2461 27.1826 20.4 26.6095C20.0813 26.0388 20.0669 26.0675 20.2227 25.4347Z" fill="#E5B952"/>
<path d="M18.6192 22.1372C19.5947 22.3163 21.3133 22.173 22.0731 22.844L21.9389 23.6248C21.6321 23.7084 21.3133 23.7896 20.9945 23.8039C20.194 23.8397 19.2232 23.7012 18.6767 23.0684C18.4035 22.7509 18.5617 22.5216 18.6192 22.1372Z" fill="#E5B952"/>
<path d="M17.6147 23.2858C18.4824 23.4983 20.0212 23.9161 20.6229 24.5585L20.5078 25.036C20.3975 25.0623 20.2897 25.0909 20.177 25.1148C19.4915 25.2652 18.7557 25.2032 18.1828 24.7638C17.6986 24.3913 17.6507 23.8469 17.6147 23.2858Z" fill="#E5B952"/>
<path d="M16.2678 24.3793C16.9174 24.3482 17.2793 24.5202 17.7827 24.907C18.3268 25.3249 18.7726 25.5708 18.8733 26.2537C18.6384 26.3086 18.4586 26.3564 18.2165 26.3826C17.7275 26.4352 17.2194 26.2537 16.8599 25.917C16.4116 25.492 16.3277 24.9595 16.2678 24.3793Z" fill="#E5B952"/>
<path d="M61.6698 17.2589C67.3145 21.6954 70.3778 28.9448 71.1807 35.9267C71.3725 37.5623 71.4636 39.2075 71.4492 40.8551C69.0187 43.8661 67.4847 44.9812 63.99 46.8198C63.5274 47.0633 61.4972 48.1068 61.1856 48.379C61.3462 51.0772 61.1089 55.8002 61.2671 58.6727C61.3894 58.8017 61.5116 58.933 61.6315 59.062C60.9939 59.1742 60.3539 59.2792 59.7139 59.3748C59.5581 57.209 59.3376 54.4941 59.6085 52.3714C59.6324 50.4014 58.9445 47.3785 60.0974 46.0461C63.6281 42.2662 63.0025 35.3822 61.1449 30.9696C64.1794 33.5078 64.8265 37.1922 65.0734 40.9028C69.3423 34.9644 68.0791 28.3215 64.7354 22.2184C63.8294 20.5612 62.6909 19.0975 61.7825 17.4666L61.6698 17.2589Z" fill="#A3B5B4"/>
<path d="M59.6085 52.3714C59.6324 50.4015 58.9445 47.3785 60.0974 46.0461C60.131 46.6694 60.2101 47.6245 60.1861 48.219C60.4378 49.9526 60.6583 51.6909 60.8429 53.434C61.1425 51.5213 61.0179 50.1197 61.1856 48.379C61.3462 51.0772 61.1089 55.8003 61.2671 58.6728C61.3894 58.8017 61.5116 58.933 61.6315 59.062C60.9939 59.1742 60.3539 59.2793 59.7139 59.3748C59.5581 57.2091 59.3376 54.4941 59.6085 52.3714Z" fill="#586B6F"/>
<path d="M59.6085 52.3714C59.6324 50.4015 58.9445 47.3785 60.0974 46.0461C60.131 46.6694 60.2101 47.6245 60.1861 48.219C60.0998 49.475 60.0951 51.285 59.6085 52.3714Z" fill="#55656C"/>
<path d="M21.6367 13.5459C23.7676 12.3472 27.1616 11.4852 28.348 14.2933C26.246 13.6104 23.8299 13.596 21.6367 13.5459Z" fill="#B6C0C4"/>
<path d="M37.3892 23.6964C37.7703 23.5269 38.2138 23.5722 38.5517 23.8206C38.8873 24.0689 39.0623 24.4796 39.0095 24.8927C38.9568 25.3058 38.6836 25.6592 38.2953 25.8144C37.7128 26.0484 37.0489 25.7738 36.802 25.1983C36.5551 24.6229 36.8164 23.9543 37.3892 23.6964Z" fill="#1B2932"/>
<path d="M38.2377 40.6951C38.5709 40.4802 38.9951 40.4635 39.3427 40.6521C39.6926 40.8384 39.9107 41.199 39.9155 41.5929C39.9179 41.9893 39.707 42.3546 39.3618 42.5481C38.8513 42.8346 38.2017 42.6651 37.8973 42.166C37.5929 41.6646 37.7439 41.0127 38.2377 40.6951Z" fill="#0A1C2A"/>
<path d="M31.5649 30.11C32.9312 29.7853 34.5634 29.4415 35.8722 28.9926C35.8841 31.3899 35.9249 33.7944 35.8122 36.187L35.8338 41.0963L33.7078 41.7481C27.5453 43.8971 25.0525 44.6708 23.6096 51.5619C19.7434 52.5696 17.567 56.082 18.7391 59.9526C19.2041 61.5381 20.3258 62.8514 21.8239 63.563C22.0061 63.6442 22.1882 63.723 22.3704 63.8041C24.5971 63.6083 29.2974 63.3361 31.3252 64.1098L31.5985 64.4775C31.3372 65.0792 31.203 65.084 30.6493 65.4446C26.5554 66.9107 20.0862 68.4006 16.3542 65.6475C15.2061 64.8094 14.1562 63.8567 13.0872 62.9207C11.7761 58.126 9.00527 55.6045 4.52786 59.1074L4.21387 59.0238C4.24263 58.0018 5.56812 56.679 6.26801 55.8695C6.41902 51.9464 6.32554 47.2472 6.33513 43.2668C7.83079 40.9912 8.81352 38.2118 10.4242 36.0055C11.3399 34.7853 14.0891 36.5022 15.1006 36.9988C18.032 38.441 20.1796 39.0141 23.4226 38.5962C26.6177 37.4692 27.9168 37.4644 31.3252 35.7548C31.3588 34.8116 31.3372 33.8708 31.3252 32.9276C31.3636 31.8101 31.4043 31.2251 31.5649 30.11Z" fill="white"/>
<path d="M31.5647 30.11C32.931 29.7853 34.5633 29.4415 35.872 28.9926C35.884 31.3899 35.9247 33.7944 35.8121 36.187L35.8336 41.0963L33.7076 41.7481C27.5451 43.8971 25.0524 44.6708 23.6094 51.5619C19.7432 52.5696 17.5668 56.082 18.7389 59.9526C19.2039 61.5381 20.3257 62.8514 21.8237 63.563C22.0059 63.6442 22.1881 63.723 22.3702 63.8041C24.597 63.6083 29.2973 63.3361 31.3251 64.1098L31.5983 64.4775C31.337 65.0792 31.2028 65.084 30.6491 65.4446C26.5552 66.9107 20.086 68.4006 16.354 65.6475L17.0012 65.4231C17.8425 63.8949 16.807 53.0854 18.5639 50.4373C19.2135 49.4559 21.6032 45.1221 21.5433 44.4392C21.6583 43.9568 22.0682 43.5987 22.5644 43.5509C23.2067 42.8226 23.667 39.5609 23.4225 38.5962C26.6175 37.4692 27.9167 37.4644 31.3251 35.7548C31.3586 34.8116 31.337 33.8708 31.3251 32.9276C31.3634 31.8101 31.4042 31.2251 31.5647 30.11Z" fill="#E8ECEC"/>
<path d="M22.3702 63.8041C24.597 63.6083 29.2973 63.3361 31.3251 64.1097L31.5983 64.4775C31.337 65.0792 31.2028 65.0839 30.6491 65.4445C26.5552 66.9106 20.086 68.4006 16.354 65.6475L17.0012 65.423C18.9043 65.4445 22.5955 65.4159 24.2758 64.5658C23.4968 64.3557 23.1085 64.1503 22.3702 63.8041Z" fill="#A3B5B4"/>
<path d="M22.3704 63.8041C24.5971 63.6083 29.2974 63.3361 31.3252 64.1097L31.5984 64.4775C31.3372 65.0792 31.2029 65.0839 30.6493 65.4445C28.5592 65.0219 26.6105 65.0243 24.2759 64.5658C23.4969 64.3557 23.1086 64.1503 22.3704 63.8041Z" fill="#78888A"/>
<path d="M31.5649 30.11C32.9311 29.7853 34.5634 29.4415 35.8721 28.9926C35.8841 31.3899 35.9249 33.7944 35.8122 36.187C35.0644 34.9573 35.3304 32.8894 35.213 31.2395L35.0308 30.7738C33.8827 30.6759 32.7537 31.206 31.7662 31.729C31.3995 32.2232 31.4331 32.3259 31.3252 32.9276C31.3635 31.8101 31.4043 31.2251 31.5649 30.11Z" fill="#88949A"/>
<path d="M35.2129 31.2395C35.3304 32.8895 35.0643 34.9573 35.8121 36.187L35.8337 41.0963L33.7077 41.7482L33.3865 40.9005C33.8203 41.0724 34.3165 40.9506 34.6233 40.5973C34.9277 40.2462 34.978 39.74 34.7455 39.3365C35.1937 38.8518 35.0715 32.677 35.2129 31.2395Z" fill="#B6C0C4"/>
<path d="M22.5644 43.5509C23.0678 43.5008 23.5447 43.7825 23.7461 44.2458C23.9474 44.709 23.8252 45.2462 23.4441 45.5781C23.063 45.9101 22.5093 45.9602 22.0778 45.6999C21.644 45.4397 21.4283 44.9311 21.5433 44.4392C21.6584 43.9568 22.0683 43.5987 22.5644 43.5509Z" fill="#101D25"/>
<path d="M33.3864 40.9005C32.9381 40.7238 32.6553 40.2772 32.6937 39.7973C32.7296 39.3174 33.0772 38.9186 33.547 38.8111C34.0191 38.7061 34.5033 38.9186 34.7454 39.3365C34.9779 39.74 34.9276 40.2462 34.6232 40.5972C34.3164 40.9506 33.8202 41.0724 33.3864 40.9005Z" fill="#101D25"/>
<path d="M13.854 48.9592C14.669 49.3461 15.0596 50.0361 15.5462 50.7525C15.5774 53.9163 15.5726 57.0801 15.527 60.2439C14.9182 59.8547 14.3981 59.3031 13.866 58.8136L13.854 48.9592Z" fill="#0A1C2A"/>
<path d="M10.8341 46.2324C11.3973 46.5285 11.8959 47.135 12.3537 47.5839C12.3897 50.7812 12.3753 53.9808 12.313 57.1781C11.7281 56.839 11.2296 56.3375 10.7286 55.8886C10.6591 52.7392 10.4098 49.3557 10.8341 46.2324Z" fill="url(#paint1_linear_278_6839)"/>
<path d="M7.72532 44.2672C8.128 44.3579 8.39645 44.5323 8.74161 44.7519C9.84658 46.495 9.20421 52.9062 9.14908 55.22L7.99377 54.9359C7.24354 53.9975 7.65341 45.9005 7.72532 44.2672Z" fill="#0A1C2A"/>
<path d="M20.9011 9.25036C24.9423 7.30431 27.7466 6.11757 32.2432 5.2126C42.1688 3.14716 52.509 5.0765 61.0132 10.5756C62.7366 11.545 64.9562 13.3908 66.3488 14.802C65.9485 15.8359 65.3756 17.4572 64.9202 18.4123C58.7889 12.2279 52.7703 9.38168 43.8346 9.09754C39.6928 8.96621 33.1013 10.3392 29.7912 12.8989L29.4508 12.9395C28.7749 12.493 28.226 10.6783 27.8952 9.80671C25.8315 9.73985 23.6407 9.77089 21.565 9.76612C21.2678 10.7881 21.1767 11.3182 20.5943 12.2208L20.3306 12.2661C20.2276 11.2203 20.6039 10.2795 20.9011 9.25036Z" fill="#A3B5B4"/>
<path d="M20.9011 9.25036C24.9423 7.30431 27.7466 6.11757 32.2432 5.2126C42.1688 3.14716 52.509 5.0765 61.0132 10.5756C59.4792 10.5756 56.845 8.91368 55.1456 8.35971C46.5695 5.49197 37.2288 5.8979 28.9355 9.4963C29.1656 10.3344 29.6953 12.1038 29.7912 12.8989L29.4508 12.9395C28.7749 12.493 28.226 10.6783 27.8952 9.80671C25.8315 9.73985 23.6407 9.77089 21.565 9.76612C21.2678 10.7881 21.1767 11.3182 20.5943 12.2208L20.3306 12.2661C20.2276 11.2203 20.6039 10.2795 20.9011 9.25036Z" fill="white"/>
<path d="M52.7487 50.5066C55.589 50.0959 56.4111 49.4727 58.5563 47.6412C58.6354 49.0453 58.8679 50.9889 58.4701 52.2807C58.2136 53.8113 58.9638 58.9665 58.6402 60.7598C58.5683 61.1561 57.8588 61.0129 57.5089 61.7579C59.2347 62.5363 59.2706 64.7306 59.0621 66.426L58.7577 66.6289C58.0985 66.3567 57.7582 65.8672 57.2692 65.33L56.0204 67.7082L54.8435 66.3687C53.1849 67.4862 51.6101 68.0377 49.7238 68.6562C50.4189 66.4857 50.4596 66.1657 50.45 63.9785C50.8407 63.7755 51.0732 63.7397 51.5095 63.6776L51.3632 63.0831C50.5267 63.0282 49.9299 64.6829 48.626 65.4518L48.3192 65.3348C47.9333 64.2674 48.312 61.6814 48.4702 60.5281L47.9524 60.0649C47.6552 58.5821 47.8662 55.8123 47.7919 54.2124C47.7559 53.403 47.9213 53.4436 48.4534 52.9278C48.5685 52.1924 48.2041 52.307 47.7967 51.5906C47.7967 51.5906 47.7367 50.5209 47.7319 50.4158L47.8374 49.6016L48.1706 49.3461C49.2156 49.4679 51.3153 50.2105 52.7487 50.5066Z" fill="#C6B28A"/>
<path d="M51.7179 51.6288C52.9427 51.8605 52.9883 51.8222 54.1891 51.6479L55.0424 51.5333C55.8574 52.1661 56.6028 52.6627 57.4561 53.231C57.7341 54.487 58.0242 55.4278 58.4101 56.6504C58.0122 57.3571 57.5208 58.9904 57.1541 59.4202C54.2442 62.8156 50.8694 61.8939 48.995 58.0997C48.5324 57.159 48.6331 56.0367 48.6091 55.0696C49.9706 53.4245 49.7333 52.4478 51.7179 51.6288Z" fill="#0F100F"/>
<path d="M49.4121 55.1961C51.6532 52.1708 50.5411 52.326 54.6326 52.1278L56.6244 53.6226C56.9264 54.8403 57.1182 55.6116 57.2811 56.8628C56.9336 57.6412 56.5645 58.4387 56.2337 59.2219L54.0717 60.3776C52.3891 61.2659 51.0516 59.4368 49.8004 58.3552C49.4289 57.2568 49.4624 56.3542 49.4121 55.1961Z" fill="#652528"/>
<path d="M49.4121 55.1961C51.6532 52.1708 50.5411 52.326 54.6326 52.1278L56.6244 53.6226C56.9264 54.8403 57.1182 55.6116 57.2811 56.8628C56.9336 57.6412 56.5645 58.4387 56.2337 59.2219L54.0717 60.3776C53.4053 60.3084 52.2692 59.9478 51.8426 59.4177L51.9528 59.1957C53.7409 59.795 55.4643 59.1766 56.2601 57.4215C56.6052 56.6574 56.6196 55.7859 56.3008 55.0123C55.9341 54.1073 55.1934 53.4053 54.2706 53.0805C53.1369 52.6937 52.2045 53.2548 51.2146 53.7539C50.7736 54.5275 50.4092 55.2678 50.0137 56.0629C50.2846 56.9416 50.5339 57.3499 50.7592 58.3241L50.4955 58.5414L49.8004 58.3552C49.4289 57.2568 49.4624 56.3542 49.4121 55.1961Z" fill="#B33A3A"/>
<path d="M47.7319 50.4158L47.8374 49.6016L48.1706 49.3461C49.2156 49.4678 51.3153 50.2104 52.7487 50.5065C53.8177 50.965 53.6978 50.5376 55.0041 51.3948L55.0425 51.5333L54.1892 51.6479C52.9883 51.8222 52.9428 51.8604 51.718 51.6288C50.915 51.113 49.0526 50.2391 48.1394 50.0075L47.7319 50.4158Z" fill="#907A5E"/>
<path d="M52.7485 50.5066C55.5889 50.0959 56.411 49.4727 58.5562 47.6412C58.6353 49.0453 58.8678 50.9889 58.4699 52.2807C58.4987 51.9703 58.5251 51.6575 58.5466 51.3447C58.5922 50.5758 58.6209 50.3347 58.1799 49.838C57.365 49.8046 55.8525 50.8982 55.004 51.3948C53.6977 50.5376 53.8176 50.965 52.7485 50.5066Z" fill="#735843"/>
<path d="M62.5544 49.7257L62.6359 49.1503C64.1412 48.0423 66.3368 47.1374 67.9786 46.082C69.2034 45.2916 72.1708 41.6025 73.1919 41.5881C73.597 42.2567 73.4771 42.0155 73.4723 42.8966C73.4316 45.2606 73.422 47.6269 73.4484 49.9908C70.5026 53.4029 66.7227 55.8886 62.5281 57.5386L62.5544 49.7257Z" fill="#A3B5B4"/>
<path d="M62.5544 49.7257L62.6359 49.1503C64.1412 48.0423 66.3367 47.1374 67.9786 46.082C69.2034 45.2916 72.1708 41.6025 73.1919 41.5881C73.597 42.2567 73.4771 42.0155 73.4723 42.8966C71.3007 45.2868 66.3056 49.5848 63.1513 50.1388C62.6695 49.9287 62.8205 50.0934 62.5544 49.7257Z" fill="white"/>
<path d="M35.6516 42.5696C36.1358 43.1641 35.8505 48.8256 35.8362 49.9956C32.0514 52.8753 29.7217 52.6055 25.273 52.4908C25.1484 52.3094 25.0453 52.1852 24.983 51.9631C24.6858 50.934 25.5846 48.7205 26.0832 47.8585C27.948 44.6374 32.3103 43.5151 35.6516 42.5696Z" fill="#78888A"/>
<path d="M28.9138 47.4598C30.1386 47.4526 33.1587 46.9154 34.0791 47.7415L34.0696 48.5653C32.792 48.6346 30.292 49.0453 29.2062 48.3815C28.8922 48.1928 28.9594 47.7941 28.9138 47.4598Z" fill="#0A1C2A"/>
<path d="M32.9791 49.8523C33.4705 49.8165 33.6023 49.7592 34.0218 50.0003C33.9714 50.2176 34.0002 50.2391 33.8348 50.3991C32.9431 51.2587 31.0568 51.1131 29.9087 51.1154L29.5252 51.1393C29.1009 50.9292 29.1177 50.8623 28.9211 50.4254L29.0937 50.0982C30.2634 49.709 31.7447 49.8523 32.9791 49.8523Z" fill="#0A1C2A"/>
<path d="M30.1817 45.0671C30.9415 45.0337 31.7133 45.0361 32.4731 45.0599C33.1539 45.0814 33.7842 45.0934 34.2564 45.602L34.1821 45.9291L33.5374 46.2371C32.3964 46.2347 30.5556 46.5332 29.5369 46.1273L29.4746 45.8216L30.1817 45.0671Z" fill="#0A1C2A"/>
<path d="M33.4657 65.7216L33.7101 65.7025C37.4781 65.4589 40.0451 66.9465 43.4895 64.308C44.7215 63.3624 45.8984 62.1088 47.1424 61.3018C47.2023 62.4789 47.4108 65.1103 47.1855 66.1442L47.2406 66.3734C48.2761 66.8462 48.0125 66.1824 49.1917 66.457C49.1821 67.6891 48.4822 68.4126 47.3126 68.7206C41.7949 70.1724 33.7245 69.905 28.552 67.4384C30.3856 66.8725 31.6824 66.4665 33.4657 65.7216Z" fill="#A3B5B4"/>
<path d="M33.4656 65.7216L33.7101 65.7025C37.478 65.4589 40.0451 66.9465 43.4894 64.308C44.7214 63.3624 45.8983 62.1088 47.1423 61.3018C47.2022 62.4789 47.4108 65.1103 47.1854 66.1442C47.1519 65.4111 47.0896 64.9169 46.9889 64.1886C41.5959 67.1495 39.5417 67.2545 33.4656 65.7216Z" fill="#55656C"/>
<path d="M47.8974 42.5457C47.8039 42.326 47.5714 41.8222 47.5451 41.6097C46.989 37.3666 46.627 32.2519 51.8403 31.0437L52.5043 31.464L52.3269 31.994C53.2185 33.7395 53.5397 34.0404 53.3887 36.1273C53.2521 38.0375 53.6308 40.7334 53.0483 42.5361C52.7176 43.6799 52.0656 44.4965 51.337 45.3919C49.628 44.4631 49.0287 44.1765 47.8974 42.5457Z" fill="#88949A"/>
<path d="M47.8974 42.5457C47.8039 42.326 47.5714 41.8222 47.5451 41.6097C46.989 37.3666 46.627 32.2519 51.8403 31.0437L52.5043 31.464L52.3269 31.994C53.2185 33.7395 53.5397 34.0404 53.3887 36.1273C53.2521 38.0375 53.6308 40.7334 53.0483 42.5361C52.1807 41.3757 53.2305 37.0705 52.3125 35.4587C51.5359 34.0929 49.9971 34.4081 48.9784 35.251C47.0992 36.8078 48.3984 40.2319 47.8974 42.5457Z" fill="#D8DADB"/>
<path d="M51.8401 31.0437C53.1152 30.7739 53.8271 30.7667 55.0999 31.0938C56.4206 31.7911 57.1061 32.2901 57.9905 33.5461C59.1986 35.4396 58.7264 39.6135 58.6425 41.975C56.8784 44.8976 55.7974 45.1412 52.4968 45.6402C55.6775 41.1822 54.0764 39.2099 54.4935 34.0332L53.5035 32.0824L52.504 31.4639L51.8401 31.0437Z" fill="#78888A"/>
<path d="M51.8401 31.0437C53.1152 30.7739 53.8271 30.7667 55.0999 31.0938C56.4206 31.7911 57.1061 32.2901 57.9905 33.5461C56.9143 34.0571 56.3582 33.0208 55.4978 33.6774C55.1071 34.8379 54.98 35.9816 54.7979 37.1899C54.7212 36.1344 54.6205 35.0814 54.4935 34.0332L53.5035 32.0824L52.504 31.4639L51.8401 31.0437Z" fill="#B6C0C4"/>
<path d="M51.8401 31.0437C53.1152 30.7739 53.8271 30.7667 55.0999 31.0938C54.4599 31.7361 54.3616 31.7839 53.5035 32.0824L52.504 31.4639L51.8401 31.0437Z" fill="#E8ECEC"/>
<path d="M42.0752 35.1029C43.3599 28.9185 48.451 25.7237 54.5535 27.4285L54.8603 29.6516C50.3349 29.1883 47.2933 30.6616 46.1116 35.2915C45.0713 35.3035 42.9429 35.4324 42.0752 35.1029Z" fill="white"/>
<path d="M7.24113 58.6442C7.71093 58.6322 8.25742 58.6203 8.71283 58.7444C9.70755 59.019 10.5872 59.8619 11.0882 60.7359C11.7018 61.8104 11.8887 63.138 11.4813 64.3175C11.0906 65.4541 10.3979 65.9914 9.35041 66.5095C8.84945 66.5215 8.28139 66.5358 7.79482 66.3949C6.7258 66.0845 5.76224 65.1819 5.2565 64.2149C4.72439 63.2144 4.62372 62.042 4.97846 60.9651C5.37874 59.764 6.16732 59.2196 7.24113 58.6442Z" fill="#88949A"/>
<path d="M7.01804 59.4822C7.14268 59.4798 7.26972 59.4751 7.39675 59.4727C8.34593 59.4607 9.02904 59.7258 9.69778 60.4063C10.3953 61.1202 10.7332 62.0467 10.6853 63.0376C10.6302 64.2124 10.1196 64.881 9.25196 65.6165C8.15417 65.6069 7.37039 65.3944 6.56743 64.6088C5.85555 63.914 5.51039 63.009 5.56552 62.0181C5.63263 60.8528 6.19591 60.2487 7.01804 59.4822Z" fill="#0A1C2A"/>
<path d="M7.40881 60.2606C7.93852 60.3394 8.31484 60.4373 8.74149 60.7788C9.26401 61.2014 9.55643 61.9822 9.57321 62.6341C9.59718 63.6728 9.24484 64.2435 8.53296 64.9646C8.16144 64.8547 7.75876 64.7449 7.44236 64.5061C6.89347 64.0906 6.50997 63.4006 6.45005 62.7177C6.35657 61.6503 6.72809 61.0414 7.40881 60.2606Z" fill="#707F81"/>
<path d="M7.68675 60.9436C8.10621 61.1657 8.54245 61.5143 8.74618 61.956C9.12489 62.7822 8.77494 63.52 8.41301 64.2722C8.3411 64.2268 8.2668 64.1838 8.19489 64.1337C7.64121 63.7397 7.12827 63.2216 7.06116 62.5124C7.00363 61.882 7.3392 61.4307 7.68675 60.9436Z" fill="#0A1C2A"/>
<path d="M35.2273 55.6952C36.1094 53.0853 37.001 52.763 39.1654 54.604C39.6783 55.3848 39.9084 55.731 40.28 56.5811C41.0134 62.6365 35.781 64.1002 35.0787 58.2668C35.0667 57.4263 35.1602 56.5357 35.2273 55.6952Z" fill="#707F81"/>
<path d="M35.2273 55.6952C36.1094 53.0853 37.001 52.763 39.1654 54.604C39.6783 55.3848 39.9084 55.731 40.28 56.5811C39.4171 57.5624 36.4473 58.009 35.0787 58.2668C35.0667 57.4263 35.1602 56.5357 35.2273 55.6952Z" fill="#B6C0C4"/>
<path d="M35.2273 55.6952C36.1094 53.0853 37.001 52.763 39.1654 54.604C38.2929 55.103 36.222 56.1512 35.2273 55.6952Z" fill="white"/>
<path d="M41.6894 51.4569C42.8088 52.221 43.0628 52.4025 43.9353 53.5009C45.1697 55.4493 45.3926 56.6456 45.1721 58.8638C43.7484 59.9503 42.8999 60.6953 41.0494 60.86C41.898 58.9832 41.874 57.8944 41.4234 55.9937C41.0974 55.2845 40.5485 54.4345 40.1362 53.7468L41.6894 51.4569Z" fill="#A3B5B4"/>
<path d="M41.6894 51.4569C42.8088 52.221 43.0628 52.4025 43.9353 53.5009C43.2522 54.5754 42.4301 55.2177 41.4234 55.9937C41.0974 55.2845 40.5485 54.4345 40.1362 53.7468L41.6894 51.4569Z" fill="#E8ECEC"/>
<path d="M42.2838 41.686C41.7493 39.7686 41.8979 37.0752 42.0753 35.1029C42.943 35.4324 45.0714 35.3035 46.1117 35.2915C46.0877 37.2949 46.0374 39.3508 46.0877 41.3494C44.6735 41.7314 43.7411 41.7123 42.2838 41.686Z" fill="#E8ECEC"/>
<path d="M42.2837 41.686C43.741 41.7123 44.6734 41.7314 46.0876 41.3494C46.7467 43.3456 47.4107 44.1359 48.8919 45.6211C47.3555 45.7214 47.2597 45.793 46.0828 46.7458C44.1509 45.1125 43.1777 44.1455 42.2837 41.686Z" fill="#88949A"/>
<path d="M41.0493 60.86C42.8997 60.6952 43.7482 59.9502 45.1719 58.8638C44.5559 60.8074 43.6259 63.1546 41.6701 64.019C40.196 64.6709 37.9189 64.7903 36.5623 63.8734C36.905 63.6155 37.1831 63.5223 37.6193 63.4627C39.0335 63.2645 40.1672 61.9727 41.0493 60.86Z" fill="#707F81"/>
<path d="M57.3627 28.8755C61.4039 32.3736 61.9049 36.2084 61.181 41.3517L60.0808 41.1535C60.3109 36.5045 60.692 33.4027 56.531 30.3464C57.0176 29.907 57.0799 29.5226 57.3627 28.8755Z" fill="#88949A"/>
<path d="M44.9371 47.5194L46.6676 48.6775C47.0703 52.4072 47.1374 53.3337 46.7827 57.1541C45.8599 54.0691 45.6729 53.114 43.2568 50.8957C43.7722 50.1412 44.5224 48.4101 44.9371 47.5194Z" fill="#A3B5B4"/>
<path d="M58.0337 45.4348C58.2902 45.5781 58.283 45.6545 58.4124 45.9052C58.2231 46.6717 57.679 47.1922 57.0822 47.6841C55.2318 49.2075 52.1829 50.1101 49.9682 48.7992C49.4001 48.4625 48.9567 47.9086 48.2568 47.8727C48.1369 47.868 48.0195 47.8727 47.902 47.8727C47.5233 47.7486 47.5401 47.7199 47.2932 47.4429L47.461 47.0728C48.9255 46.3374 50.8454 48.102 52.3507 48.2715C54.6493 48.527 56.4278 46.8054 58.0337 45.4348Z" fill="#B48539"/>
<path d="M29.2494 56.1274C29.9972 56.3232 30.0355 56.3423 30.7954 56.3614L30.6755 58.5988C30.8577 59.7808 31.711 61.7388 31.5815 62.2497C29.4699 62.3811 28.8707 59.9885 28.8994 58.2908C28.9545 57.5171 29.1008 56.8796 29.2494 56.1274Z" fill="#586B6F"/>
<path d="M29.2494 56.1274C29.9972 56.3232 30.0355 56.3423 30.7954 56.3614L30.6755 58.5988C29.6928 58.6131 29.5729 58.7445 28.8994 58.2908C28.9545 57.5171 29.1008 56.8796 29.2494 56.1274Z" fill="#B6C0C4"/>
<path d="M26.04 56.3328H27.7825L27.6507 57.1852C27.6962 59.2387 27.6267 60.0219 28.5879 61.8868C28.1996 62.2163 28.0054 62.0706 27.3151 62.042C26.2365 61.3853 25.8267 59.9168 25.7212 58.7253C25.8051 57.935 25.9297 57.1207 26.04 56.3328Z" fill="#707F81"/>
<path d="M26.04 56.3328H27.7825L27.6507 57.1852C27.5333 57.689 27.4494 58.0329 27.2912 58.5319C26.7662 58.7946 26.318 58.7277 25.7212 58.7253C25.8051 57.935 25.9297 57.1207 26.04 56.3328Z" fill="#B6C0C4"/>
<path d="M22.6412 57.2281L23.0199 56.0247L24.6043 56.3351L24.47 58.2644C24.518 59.8069 25.3689 61.5548 25.1867 61.9798C22.912 62.1255 22.4902 58.9043 22.6412 57.2281Z" fill="#707F81"/>
<path d="M22.6411 57.2281L23.0198 56.0247L24.6042 56.3351L24.4699 58.2644C23.9235 58.5605 23.9187 58.5103 23.2811 58.5175C22.6411 57.9779 22.8425 58.2166 22.6411 57.2281Z" fill="#B6C0C4"/>
<path d="M20.345 55.3156L21.7064 55.9149L21.5626 56.7052C21.2534 59.179 21.366 59.1432 22.3584 61.4187C22.5741 61.9154 22.6915 62.0563 22.4566 62.2903C20.4816 61.9608 19.6858 59.1432 19.6954 57.4216C19.8344 56.7793 20.134 55.9555 20.345 55.3156Z" fill="#707F81"/>
<path d="M20.3449 55.3156L21.7063 55.9149L21.5625 56.7052C21.318 57.4502 21.4211 57.6269 20.9129 57.9087C20.5079 57.7487 20.0908 57.5935 19.6953 57.4216C19.8343 56.7793 20.1339 55.9555 20.3449 55.3156Z" fill="#B6C0C4"/>
<path d="M40.1362 53.7468C38.6837 52.092 37.6554 52.6317 36.3994 51.5166L36.5672 51.2157C38.6765 50.5065 39.7455 50.719 41.6894 51.4569L40.1362 53.7468Z" fill="white"/>
<path d="M31.9556 58.4484C32.574 58.4364 33.2834 58.4388 33.8899 58.4054C34.0984 59.8882 34.4819 60.6141 35.0835 61.9823L34.99 62.1853C32.574 62.3405 32.3247 60.509 31.9556 58.4484Z" fill="#586B6F"/>
<path d="M12.8738 64.4059C14.7842 65.6666 15.6998 66.7937 17.9265 67.8658L17.4184 68.052C15.4913 67.756 13.7271 67.073 11.9438 66.309L12.8738 64.4059Z" fill="#586B6F"/>
<path d="M61.6315 59.062C63.2902 58.5773 64.2729 58.1714 65.8716 57.4861C64.8433 58.5057 61.1737 61.2946 59.8338 61.3018C59.6037 60.6117 59.6852 60.1007 59.714 59.3748C60.3539 59.2793 60.9939 59.1743 61.6315 59.062Z" fill="#78888A"/>
<path d="M54.5535 27.4286C55.9005 27.9085 56.181 28.1067 57.3626 28.8756C57.0798 29.5227 57.0175 29.9071 56.5309 30.3465L54.8603 29.6516L54.5535 27.4286Z" fill="#D8DADB"/>
<path d="M32.2144 56.1059L33.9138 56.0963L33.8899 58.4053C33.2834 58.4387 32.574 58.4363 31.9556 58.4483L32.2144 56.1059Z" fill="#B6C0C4"/>
<path d="M26.04 56.3328C26.553 55.0887 26.7735 54.5634 27.8329 53.625L28.425 53.9091C28.4657 55.1508 28.0942 55.2368 27.7826 56.3351H26.04V56.3328Z" fill="white"/>
<path d="M29.2495 56.1274C29.681 55.0576 29.9135 54.2553 31.0136 53.7157L31.3612 53.9187C31.5505 54.7496 31.1191 55.5137 30.7955 56.3614C30.0357 56.3423 29.9973 56.3232 29.2495 56.1274Z" fill="white"/>
<path d="M32.2144 56.1058C32.6386 55.0027 32.8831 54.0619 33.9905 53.4912C34.8486 53.9592 34.1654 55.2916 33.9138 56.0963L32.2144 56.1058Z" fill="white"/>
<path d="M20.345 55.3156C21.1791 54.1241 21.4931 53.668 22.8425 53.1307L23.1158 53.2597C22.6963 54.4392 22.205 54.5515 21.7064 55.9149L20.345 55.3156Z" fill="white"/>
<path d="M23.0198 56.0248C23.5423 55.0792 23.9833 54.2721 25.014 53.7731L25.3328 53.9307C25.4742 54.6876 24.9349 55.5114 24.6041 56.3352L23.0198 56.0248Z" fill="white"/>
<path d="M60.0807 41.1536L61.1808 41.3517C60.7494 42.6889 60.3252 43.5342 59.4383 44.6254H59.1651C59.0931 44.0619 59.9225 42.0872 60.0807 41.1536Z" fill="#707F81"/>
<path d="M50.5818 46.8294C51.7155 46.7004 52.9403 46.7912 54.0813 46.8031L54.3042 47.0753C52.8996 47.3332 51.9408 47.3905 50.5818 46.8294Z" fill="#49595E"/>
</g>
<defs>
<linearGradient id="paint0_linear_278_6839" x1="55.2943" y1="48.2454" x2="24.4461" y2="11.1667" gradientUnits="userSpaceOnUse">
<stop stop-color="#D7E0E0"/>
<stop offset="1" stop-color="white"/>
</linearGradient>
<linearGradient id="paint1_linear_278_6839" x1="9.98796" y1="51.3136" x2="12.9396" y2="52.0496" gradientUnits="userSpaceOnUse">
<stop stop-color="#041024"/>
<stop offset="1" stop-color="#041D2A"/>
</linearGradient>
<clipPath id="clip0_278_6839">
<rect width="78" height="74" fill="white"/>
</clipPath>
</defs>
</svg>
