<svg width="24" height="24" viewBox="0 0 24 24" fill="none" xmlns="http://www.w3.org/2000/svg">
<path d="M12.8737 1.14028C12.8125 1.1399 12.7514 1.14028 12.6902 1.14154C10.259 1.19099 7.80127 2.51151 6.35888 4.96856C6.72891 4.88188 7.11966 4.80084 7.52691 4.7227C9.43866 2.13684 12.6751 1.35613 15.2037 2.47996C16.7739 3.17784 18.0876 4.60382 18.6693 6.88612C18.9594 8.02406 19.0631 9.37799 18.9107 10.9538C18.7304 11.0255 18.5481 11.092 18.364 11.1532C16.7346 11.6963 14.4857 12.0319 12 12.0319C9.51431 12.0319 7.26544 11.6963 5.63597 11.1532C4.82044 10.8813 4.16466 10.5601 3.70725 10.1997C3.69366 10.1889 3.68077 10.1781 3.6675 10.1673C4.33426 9.61193 5.48384 9.13571 6.96861 8.79977C8.45337 8.46382 10.2055 8.2835 12 8.28196C14.2873 8.28483 16.4855 8.57788 18.1479 9.10157C18.142 8.73149 18.1035 8.28585 18.021 7.84171C17.8789 7.07774 17.6305 6.28223 17.3708 5.75662C15.8275 5.39278 13.987 5.18817 12 5.18817C9.43913 5.18817 7.11928 5.52674 5.3692 6.1101C4.49498 6.40153 3.75586 6.75163 3.18502 7.20149C2.61 7.65468 2.15625 8.27662 2.15625 9.03196C2.15625 9.78721 2.61 10.4092 3.18502 10.8623C3.2621 10.9229 3.34109 10.981 3.42188 11.0365V20.2819C3.42188 20.5251 3.57159 20.8057 3.96834 21.1184C4.36509 21.431 4.98567 21.7418 5.76947 22.003C7.33706 22.5255 9.55275 22.86 12 22.86C14.4473 22.86 16.6629 22.5255 18.2305 22.003C19.0143 21.7417 19.6349 21.431 20.0317 21.1184C20.4284 20.8057 20.5781 20.5251 20.5781 20.2819V11.8639C20.3188 14.3571 19.6643 15.8534 18.9563 17.3391C18.9564 17.3478 18.9568 17.3564 18.9568 17.3652C18.9568 17.8034 18.8227 18.2079 18.5819 18.5195C18.3412 18.8309 17.9735 19.0546 17.5555 19.0546C17.1375 19.0546 16.7699 18.8309 16.5292 18.5195C16.2885 18.2079 16.1543 17.8034 16.1543 17.3652C16.1543 16.9271 16.2885 16.5225 16.5292 16.211C16.77 15.8995 17.1375 15.6759 17.5555 15.6759C17.9651 15.6759 18.3261 15.8909 18.5669 16.1926C18.5756 16.1675 18.5845 16.1421 18.5931 16.117C19.1419 14.8823 19.5837 13.5747 19.7656 11.5017C20.1595 11.3126 20.5113 11.1017 20.815 10.8623C21.39 10.4092 21.8438 9.78721 21.8438 9.03192C21.8438 8.27662 21.39 7.65468 20.815 7.20149C20.423 6.89259 19.9517 6.63084 19.4118 6.40274C18.7375 4.05632 17.2839 2.48118 15.5463 1.70892C14.7003 1.33288 13.7908 1.14576 12.8737 1.14028ZM19.8229 9.81665C20.0161 9.92891 20.1873 10.0452 20.3354 10.1648C20.3212 10.1765 20.3074 10.1881 20.2927 10.1996C20.1459 10.3154 19.9784 10.427 19.792 10.5343C19.808 10.2905 19.8186 10.051 19.8229 9.81665ZM4.27744 11.5222C4.61227 11.6803 4.977 11.823 5.3692 11.9537C7.11928 12.5371 9.43913 12.8757 12 12.8757C13.8788 12.8757 15.627 12.6929 17.1165 12.3654C17.0534 13.4116 16.8501 15.3021 16.2023 15.279C14.5653 15.2206 15.1657 13.1636 14.1538 13.5563C13.4275 13.8382 13.5052 15.1816 12.8036 15.2091C11.959 15.2422 11.1279 13.9186 10.1032 13.8357C9.34345 13.7742 9.33211 16.8139 8.38055 16.8736C7.48242 16.93 7.41145 14.2644 6.98372 14.1848C5.29177 13.8702 7.82873 19.0837 5.19131 19.3994C4.06992 19.5336 4.39978 14.5985 4.27744 11.5223V11.5222ZM17.5555 16.5196C17.4326 16.5196 17.3106 16.5797 17.1968 16.7269C17.083 16.8741 16.998 17.1033 16.998 17.3652C16.998 17.6271 17.083 17.8563 17.1968 18.0036C17.3106 18.1507 17.4326 18.2109 17.5555 18.2109C17.6784 18.2109 17.8005 18.1507 17.9143 18.0036C18.0281 17.8563 18.1131 17.6271 18.1131 17.3652C18.1131 17.1033 18.0281 16.8741 17.9143 16.7269C17.8005 16.5797 17.6784 16.5196 17.5555 16.5196Z" fill="white"/>
</svg>
