<svg width="79" height="79" viewBox="0 0 79 79" fill="none" xmlns="http://www.w3.org/2000/svg">
<g clip-path="url(#clip0_278_2636)">
<g clip-path="url(#clip1_278_2636)">
<path d="M39.1881 0.0673596C41.257 -0.114781 43.225 0.0493704 45.1863 0.780181C48.4701 2.00794 51.115 4.52643 52.5092 7.75324C54.1276 11.459 53.8384 14.9242 52.3658 18.6075C52.3837 18.612 52.3994 18.6187 52.4173 18.6232C53.2355 18.8413 53.9819 19.037 54.6678 19.5676C60.267 23.894 64.1515 33.8556 64.8845 40.6082C68.453 40.6285 67.85 41.7978 70.2237 43.5675C70.8357 44.0262 71.6247 44.1881 72.2545 44.6153C75.1662 46.5964 72.7745 49.1104 73.2206 51.5277C73.3259 52.0988 73.4851 52.7532 73.4134 53.3333C73.1264 55.6719 70.5756 59.6251 68.825 61.1159C68.8452 61.1946 68.8676 61.2756 68.89 61.3543C69.2509 62.6158 69.3944 63.7401 69.4235 65.0555C69.4908 68.1812 70.2641 74.4437 67.8567 76.744C67.0094 77.5535 65.4157 77.8526 64.2726 77.9785C61.1928 78.3158 57.8731 78.0662 54.7709 78.064L35.6107 78.046C31.7732 78.0527 16.3114 78.6824 14.0632 77.2904C12.8864 76.5619 12.2431 75.035 11.9786 73.7331C11.3936 70.8526 11.304 62.8496 13.0165 60.4953C14.3793 58.6199 18.2683 58.4603 20.3887 58.114C19.4697 57.1088 18.7278 55.9957 17.9634 54.8714C17.4434 54.7343 16.9234 54.5926 16.4123 54.4194C13.3818 53.3941 10.7884 50.8531 9.38076 48.0108C8.70159 46.6391 8.06052 44.9751 8.56486 43.4663C8.6859 43.111 9.00419 42.4274 9.00867 42.0721C9.02884 40.4463 8.03811 38.562 8.00224 36.8103C7.96414 34.9619 8.46847 33.5565 9.73715 32.2275C9.75957 30.4826 9.82009 28.605 10.2908 26.9162C10.7682 25.2028 11.5236 24.1054 13.068 23.2239C13.7517 20.8719 14.8724 17.8519 16.9816 16.4083C17.5353 16.0305 18.266 16.1092 18.786 15.7539C19.9628 14.9512 21.1351 12.0729 23.3363 10.8092C24.6946 10.0311 25.2348 10.2785 26.6716 10.6877C26.8913 10.6225 27.1266 10.591 27.3306 10.4876C27.7923 10.2582 29.5183 5.96332 30.1123 5.14256C32.3134 2.09789 35.5636 0.627273 39.1881 0.0673596Z" fill="#31344A"/>
<path d="M32.4366 11.3759C34.7364 4.82335 41.6738 2.54997 46.7261 7.61617L46.8001 7.76234C52.6234 14.551 44.7648 19.6307 42.0974 25.2208C39.5085 30.6491 38.5962 36.545 38.3003 42.5174L43.0994 42.5085L43.1419 42.3443C43.2226 37.6806 47.2663 25.9629 51.6618 24.0695C52.4957 24.1505 52.2289 24.1235 52.9709 24.9398C53.6299 25.7853 54.4346 26.7432 54.9591 27.6606C58.5768 32.864 60.8721 40.0057 59.7805 46.3604C59.5362 47.7253 59.1282 49.0565 58.5612 50.3225C56.9899 50.3382 54.6879 50.4349 53.1726 50.336L47.5285 50.4012C48.4834 51.0083 51.1553 50.4214 51.9488 50.9206C51.5767 51.0376 51.3167 51.123 50.9356 51.1995L51.6731 51.2939C52.6503 51.2692 57.1714 51.1613 57.9492 51.3951C57.8506 52.0202 57.7385 52.1349 57.418 52.6633C57.1782 53.0119 57.01 53.3537 56.6805 53.5696C56.1067 54.1609 55.432 54.8963 54.8268 55.4337C54.596 55.5843 54.1096 55.8542 53.993 56.0543C53.3474 56.7042 53.1771 56.9583 52.2805 57.1067C51.6663 57.4215 51.9286 57.2011 51.5408 57.8622L50.6846 58.4873C50.2206 58.6155 50.4425 58.6403 50.0211 58.4289L49.9718 58.4604C49.5593 58.7504 49.0483 59.135 48.6224 59.3778L48.1382 59.4925L47.9029 59.0113L47.7706 59.2317C47.3694 59.5667 47.4949 59.461 46.9727 59.6477C45.7735 58.1321 47.5913 56.0363 45.6345 53.9338C45.2983 53.9743 44.7244 53.9451 44.3658 53.9428C43.4221 53.7562 43.2832 53.736 42.335 53.8686L42.019 54.1722C41.5012 54.1902 41.0775 54.0418 40.5598 53.9203C39.8514 53.682 38.112 53.7652 37.3589 53.9271C36.9666 54.008 36.2852 54.1924 35.9221 54.1632C35.1578 53.5583 34.2679 53.7539 33.331 53.9158C29.5518 54.939 32.4657 57.2483 30.9057 58.9078C30.222 58.7549 29.9754 58.3547 29.489 57.8262L28.1755 57.0999L27.6152 56.3984L27.1691 56.4253C26.2635 55.6136 26.5303 55.1818 26.0887 54.1115L26.0304 53.9698L25.2706 54.6287C25.1607 55.2853 25.3087 55.0289 24.8805 55.4562C23.5491 55.0402 21.3569 50.6778 20.6015 49.2994C20.1062 49.0947 19.5032 48.7642 19.0123 48.5146L18.6739 48.9508C19.0527 49.2252 19.2656 49.3039 19.4292 49.7311L18.9518 49.9155C17.2595 49.6704 13.6058 47.3026 13.7448 45.4609C15.6927 44.6109 19.3329 47.4667 20.4446 49.043C19.9515 47.5926 18.9899 43.9926 18.0799 43.0661L18.2749 42.0272L17.58 40.5971C17.6181 40.0304 17.5823 39.4975 17.8714 39.0298C18.0776 39.5425 18.3264 40.3902 18.5214 40.786C18.5775 39.6324 18.8621 37.1454 18.2502 36.2595L17.6248 36.4259L17.2976 36.7811C14.4195 34.7394 14.545 31.5306 14.805 28.4342C16.6184 30.2668 17.8826 31.6385 18.4497 34.1885L19.1446 34.1705C19.4561 33.0304 19.7587 31.8858 20.0524 30.7413L19.2723 30.4445L19.1087 30.2331C16.9569 26.8848 17.3984 24.7441 19.0684 21.3981C20.0456 23.1836 21.014 25.0634 20.8772 27.1412C20.8078 27.6944 20.7226 28.0496 20.8436 28.6006L21.1238 28.5286C21.9868 27.6246 23.2039 25.2411 23.7172 24.065C23.632 22.9924 23.836 22.084 24.0019 21.0204L24.7595 21.5286L24.8738 22.2504L24.9455 22.7181L25.2212 22.6799C27.317 20.9799 28.5543 19.9882 29.8028 17.5934L29.4465 17.0987C29.0609 17.843 29.1349 18.0027 28.5342 18.3805C27.4493 16.4219 30.1503 13.746 31.7193 12.7746C31.9905 12.1652 32.004 12.0977 32.1161 11.4299L32.143 11.2635L32.4366 11.3759Z" fill="#F2F5F8"/>
<path d="M31.7193 12.7746L32.6921 12.2979L33.0216 12.4553C33.5506 14.153 31.2419 17.4338 30.0853 18.7043L30.5044 19.1472L30.0741 19.462C33.1606 19.3339 34.0886 19.4036 36.8478 20.9169C34.4876 22.075 33.8353 22.2234 31.2284 22.3695C30.4036 22.5449 30.7331 22.3516 30.1682 22.9115L30.2399 23.3522L30.751 23.5456C30.3453 23.5883 28.7471 23.73 28.458 23.8896C29.1147 23.9931 30.0741 24.1123 30.695 24.2517C31.5109 24.4878 31.41 24.3236 31.865 24.8655L31.7328 25.023C30.4439 26.4104 29.0788 26.9748 27.27 27.4245C27.7877 27.4942 28.6036 27.5729 29.0587 27.7461L27.9783 28.1373L28.3123 28.6298L28.6911 28.6455L28.2316 29.174C27.9424 30.1296 27.7877 30.296 27.1893 31.1078L28.2091 31.227C27.3058 32.2366 26.2882 33.3025 25.0688 33.9388C26.2322 33.9478 26.0102 33.7859 26.9024 34.2896C27.9603 36.7249 24.2283 39.2951 24.2148 40.4464L25.423 40.0372C26.4742 40.9614 26.0304 44.0915 25.618 45.3597C25.1473 46.8056 22.4104 48.4179 22.908 50.0369C24.7259 50.5384 28.848 50.3202 30.8653 50.3652C36.3032 50.4844 42.1153 50.1808 47.5285 50.3967C48.4834 51.0038 51.1553 50.4169 51.9488 50.9161C51.5767 51.0331 51.3167 51.1185 50.9356 51.195L51.6731 51.2894C52.6503 51.2647 57.1714 51.1567 57.9492 51.3906C57.8506 52.0157 57.7385 52.1304 57.418 52.6588C57.1782 53.0074 57.01 53.3492 56.6805 53.5651C56.1067 54.1564 55.432 54.8918 54.8268 55.4292C54.596 55.5798 54.1096 55.8497 53.993 56.0498C53.3474 56.6997 53.1771 56.9538 52.2805 57.1022C51.6663 57.417 51.9286 57.1966 51.5408 57.8577L50.6846 58.4828C50.2206 58.611 50.4425 58.6358 50.0211 58.4244L49.9718 58.4559C49.5593 58.7459 49.0483 59.1305 48.6224 59.3733L48.1382 59.488L47.9029 59.0068L47.7706 59.2271C47.3694 59.5622 47.4949 59.4565 46.9727 59.6431C45.7735 58.1276 47.5913 56.0318 45.6345 53.9293C45.2983 53.9698 44.7244 53.9406 44.3658 53.9383C43.4221 53.7517 43.2832 53.7314 42.335 53.8641L42.019 54.1677C41.5012 54.1857 41.0775 54.0373 40.5598 53.9158C39.8514 53.6775 38.112 53.7607 37.3589 53.9226C36.9666 54.0035 36.2852 54.1879 35.9221 54.1587C35.1578 53.5538 34.2679 53.7494 33.331 53.9113C29.5518 54.9345 32.4657 57.2438 30.9057 58.9033C30.222 58.7504 29.9754 58.3502 29.489 57.8217L28.1755 57.0954L27.6152 56.3938L27.1691 56.4208C26.2635 55.6091 26.5303 55.1773 26.0887 54.107L26.0304 53.9653L25.2706 54.6242C25.1607 55.2808 25.3087 55.0244 24.8805 55.4517C23.5491 55.0357 21.3569 50.6733 20.6015 49.2949C20.1062 49.0902 19.5032 48.7597 19.0123 48.5101L18.6739 48.9463C19.0527 49.2207 19.2656 49.2994 19.4292 49.7266L18.9518 49.911C17.2595 49.6659 13.6058 47.2981 13.7448 45.4564C15.6927 44.6064 19.3329 47.4622 20.4446 49.0385C19.9515 47.5881 18.9899 43.9881 18.0799 43.0616L18.2749 42.0227L17.58 40.5926C17.6181 40.0259 17.5823 39.493 17.8714 39.0253C18.0776 39.538 18.3264 40.3857 18.5214 40.7815C18.5775 39.6279 18.8621 37.1409 18.2502 36.255L17.6248 36.4214L17.2976 36.7766C14.4195 34.7349 14.545 31.526 14.805 28.4297C16.6184 30.2623 17.8826 31.634 18.4497 34.1839L19.1446 34.166C19.4561 33.0259 19.7587 31.8813 20.0524 30.7368L19.2723 30.4399L19.1087 30.2286C16.9569 26.8803 17.3984 24.7396 19.0684 21.3936C20.0456 23.1791 21.014 25.0589 20.8772 27.1367C20.8078 27.6899 20.7226 28.0451 20.8436 28.5961L21.1238 28.5241C21.9868 27.6201 23.2039 25.2366 23.7172 24.0605C23.632 22.9879 23.836 22.0795 24.0019 21.0159L24.7595 21.5241L24.8738 22.2459L24.9455 22.7136L25.2212 22.6754C27.317 20.9754 28.5543 19.9837 29.8028 17.5889L29.4465 17.0942C29.0609 17.8385 29.1349 17.9982 28.5342 18.3759C27.4493 16.4174 30.1503 13.7415 31.7193 12.7701V12.7746Z" fill="#E0B348"/>
<path d="M24.8224 35.1509L24.9637 34.609L24.4414 34.2537L25.069 33.9434C26.2323 33.9523 26.0104 33.7904 26.9025 34.2941C27.9605 36.7294 24.2284 39.2996 24.215 40.4509L25.4232 40.0417C26.4744 40.9659 26.0306 44.096 25.6182 45.3642C25.1475 46.8101 22.4106 48.4224 22.9082 50.0414C24.7261 50.5429 28.8482 50.3248 30.8655 50.3697C36.3033 50.4889 42.1155 50.1853 47.5287 50.4012C48.4836 51.0083 51.1554 50.4214 51.9489 50.9206C51.5768 51.0376 51.3168 51.123 50.9358 51.1995L51.6732 51.2939C52.6505 51.2692 57.1716 51.1613 57.9494 51.3951C57.8508 52.0202 57.7387 52.1349 57.4182 52.6634C57.1783 53.0119 57.0102 53.3537 56.6807 53.5696C56.1069 54.161 55.4322 54.8963 54.827 55.4337C54.5961 55.5843 54.1097 55.8542 53.9932 56.0543C53.3476 56.7042 53.1773 56.9583 52.2807 57.1067C51.6665 57.4215 51.9288 57.2011 51.541 57.8622L50.6847 58.4874C50.2207 58.6155 50.4427 58.6403 50.0213 58.4289L49.9719 58.4604C49.5595 58.7504 49.0484 59.135 48.6226 59.3778L48.1384 59.4925L47.903 59.0113L47.7708 59.2317C47.3696 59.5667 47.4951 59.461 46.9728 59.6477C45.7736 58.1321 47.5915 56.0363 45.6347 53.9338C45.2984 53.9743 44.7246 53.9451 44.366 53.9428C43.4223 53.7562 43.2833 53.736 42.3352 53.8686L42.0191 54.1722C41.5014 54.1902 41.0777 54.0418 40.5599 53.9203C39.8516 53.682 38.1122 53.7652 37.3591 53.9271C36.9668 54.008 36.2854 54.1924 35.9223 54.1632C35.1579 53.5583 34.2681 53.7539 33.3311 53.9159C29.552 54.939 32.4659 57.2483 30.9058 58.9078C30.2222 58.7549 29.9756 58.3547 29.4892 57.8263L28.1757 57.0999L27.6153 56.3984L27.1693 56.4253C26.2637 55.6136 26.5305 55.1818 26.0889 54.1115L26.0306 53.9698L25.2707 54.6287C23.9976 53.5583 22.2313 51.0466 21.6171 49.4433C21.1554 48.2425 21.3683 48.211 21.8188 47.1002L22.2761 47.6871C22.4734 46.9473 22.5384 46.7809 22.8948 46.1063L23.3251 44.6289C23.5425 44.4693 23.4417 44.5862 23.5403 44.2197L23.3251 44.1702C23.018 43.5136 23.1301 43.0661 23.1727 42.3083C21.3392 44.3456 21.0769 45.407 20.8752 48.0986C19.862 45.2383 19.463 44.2309 19.3442 41.1593C20.6622 39.7606 21.8726 38.5149 23.5179 37.5097C22.2223 38.8701 21.2248 39.972 20.0144 41.4291L20.4381 41.2582C23.621 39.9607 24.7417 38.8859 26.0732 35.7063L26.0508 35.2948C25.5733 34.935 25.6294 35.0744 24.8224 35.1554V35.1509Z" fill="#363647"/>
<path d="M49.5728 53.9001C50.3035 53.6977 51.9914 53.6213 52.6728 53.8641C53.7375 54.1115 54.0423 54.1609 54.6229 55.0851C54.6946 55.1998 54.7619 55.3145 54.8269 55.4292C54.596 55.5798 54.1096 55.8497 53.993 56.0498C53.3475 56.6997 53.1771 56.9538 52.2805 57.1022C51.6664 57.417 51.9286 57.1966 51.5408 57.8577L50.6846 58.4828C50.2206 58.611 50.4425 58.6357 50.0211 58.4244L49.9718 58.4559C49.5594 58.7459 49.0483 59.1304 48.6224 59.3733L48.1383 59.488L47.9029 59.0068L47.7707 59.2271C47.3694 59.5622 47.495 59.4565 46.9727 59.6431C45.7735 58.1275 47.5913 56.0318 45.6345 53.9293C46.2689 53.7517 47.9164 53.8214 48.6538 53.8259C48.9026 53.8551 49.3464 53.9248 49.5728 53.9001Z" fill="#363647"/>
<path d="M52.673 53.8641C53.7377 54.1115 54.0425 54.161 54.6231 55.0852C54.6948 55.1998 54.7621 55.3145 54.8271 55.4292C54.5962 55.5799 54.1098 55.8497 53.9932 56.0498C53.3477 56.6997 53.1773 56.9538 52.2807 57.1022C51.6666 57.417 51.9288 57.1966 51.541 57.8577C51.4828 55.834 51.1824 55.3078 52.673 53.8641Z" fill="#363647"/>
<path d="M52.2805 57.1022C52.3455 56.097 52.2872 55.5708 53.1144 54.9277C53.7778 55.2898 53.5828 55.2223 53.993 56.0498C53.3475 56.6997 53.1771 56.9538 52.2805 57.1022Z" fill="#C1C8CC"/>
<path d="M45.6345 53.9294C46.2689 53.7517 47.9164 53.8214 48.6538 53.8259C47.347 55.1616 47.1049 57.5519 47.7707 59.2249C47.3694 59.56 47.495 59.4543 46.9727 59.6409C45.7735 58.1253 47.5913 56.0296 45.6345 53.9271V53.9294Z" fill="#EDF3F5"/>
<path d="M49.573 53.9001C50.3037 53.6977 51.9916 53.6213 52.673 53.8641C51.1824 55.3077 51.4827 55.8339 51.541 57.8577L50.6848 58.4828C50.5884 56.5378 51.0412 55.2718 49.573 53.9001Z" fill="#C1C8CC"/>
<path d="M48.6225 59.3711C48.0442 58.1995 48.3222 55.9936 48.9543 54.8445L49.499 54.9952C50.001 56.133 49.6671 57.1629 49.9719 58.4536C49.5595 58.7437 49.0484 59.1282 48.6225 59.3711Z" fill="#C1C8CC"/>
<path d="M50.9357 51.195L51.6731 51.2894L51.2741 52.6139C43.3348 52.7713 34.8889 52.6319 26.9114 52.6229C26.7276 52.371 26.6783 52.2249 26.5393 51.9438L26.806 51.6425C27.6466 51.5795 27.9537 51.5143 28.7741 51.3052C33.8914 51.1388 39.1185 51.3389 44.2403 51.2827C45.7825 51.2647 49.6154 51.3704 50.9357 51.1927V51.195Z" fill="#ECBE46"/>
<path d="M26.0305 53.9653C25.7436 53.9001 25.8646 53.9743 25.6741 53.736C27.3193 53.1581 52.9709 53.5876 56.6806 53.5673C56.1068 54.1587 55.4321 54.894 54.8269 55.4315C54.7619 55.3145 54.6946 55.1998 54.6229 55.0874C54.0424 54.161 53.7375 54.1115 52.6728 53.8664C51.9914 53.6235 50.3036 53.7 49.5728 53.9024C49.3464 53.9294 48.9026 53.8574 48.6538 53.8282C47.9164 53.8237 46.2689 53.754 45.6345 53.9316C45.2983 53.9721 44.7245 53.9429 44.3658 53.9406C43.4222 53.754 43.2832 53.7337 42.3351 53.8664L42.019 54.17C41.5012 54.188 41.0776 54.0395 40.5598 53.9181C39.8515 53.6798 38.1121 53.763 37.359 53.9249C36.9667 54.0058 36.2853 54.1902 35.9222 54.161C35.1578 53.5561 34.2679 53.7517 33.331 53.9136C29.5518 54.9368 32.4658 57.2461 30.9057 58.9056C30.2221 58.7527 29.9755 58.3524 29.4891 57.824L28.1756 57.0977L27.6152 56.3961L27.1691 56.4231C26.2636 55.6113 26.5303 55.1796 26.0887 54.1093L26.0305 53.9676V53.9653Z" fill="#D7D9E1"/>
<path d="M26.0305 53.9653C26.6895 53.673 27.5861 53.7225 28.2496 53.9383C29.1776 54.0283 29.2986 53.9856 29.9957 54.5387C30.973 56.0093 29.7671 57.1966 30.9058 58.9034C30.2221 58.7505 29.9755 58.3502 29.4891 57.8218L28.1756 57.0954L27.6153 56.3939L27.1692 56.4209C26.2636 55.6091 26.5304 55.1773 26.0888 54.107L26.0305 53.9653Z" fill="#363647"/>
<path d="M28.1755 57.0954C28.2114 55.9891 28.05 56.0228 28.5812 55.1189L28.9982 55.0694C29.8275 55.9779 29.5989 56.6817 29.489 57.824L28.1755 57.0977V57.0954Z" fill="#F2F5F8"/>
<path d="M26.0305 53.9653C26.6895 53.673 27.5861 53.7225 28.2496 53.9383C27.3351 55.002 27.3799 55.0941 27.1692 56.4209C26.2636 55.6091 26.5304 55.1773 26.0888 54.107L26.0305 53.9653Z" fill="#F2F5F8"/>
<path d="M51.6732 51.2917C52.6504 51.267 57.1715 51.159 57.9493 51.3929C57.8507 52.018 57.7386 52.1327 57.4181 52.6611C55.7168 52.5442 53.0562 52.6139 51.2742 52.6161L51.6732 51.2917Z" fill="#B3863D"/>
<path d="M23.1727 42.3038C23.8138 41.8451 24.5557 41.2852 25.2192 40.8827C25.2461 43.1853 25.2775 44.6357 23.8384 46.6055L22.8948 46.1041L23.3251 44.6267C23.5426 44.467 23.4417 44.584 23.5403 44.2174L23.3251 44.168C23.0181 43.5114 23.1301 43.0639 23.1727 42.3061V42.3038Z" fill="#E5BA57"/>
<path d="M26.9115 52.6251C25.5621 52.6251 24.7955 53.0007 24.0491 51.7617L24.2956 51.4109C25.459 51.0803 27.4875 51.2625 28.7741 51.3074C27.9537 51.5143 27.6467 51.5818 26.8061 51.6447L26.5394 51.946C26.6783 52.2271 26.7277 52.3733 26.9115 52.6251Z" fill="#E0B348"/>
<path d="M22.8948 46.1041L23.8384 46.6055C23.3408 47.2059 23.0427 47.6849 22.3411 48.0087L22.2761 47.6871C22.4734 46.9473 22.5384 46.7809 22.8948 46.1063V46.1041Z" fill="#E0B348"/>
<path d="M27.1893 31.1078L28.2092 31.227C27.3059 32.2366 26.2882 33.3025 25.0689 33.9388L24.4412 34.2491L24.9635 34.6044L24.8223 35.1464L23.7284 35.6051C21.7066 36.5585 20.8638 37.4715 19.7252 39.3806C19.2096 38.5508 19.3598 37.6693 19.38 36.6462C19.6176 34.3661 19.5615 33.8489 21.4623 32.6571L21.6013 33.4554L21.3704 33.6443C22.1527 33.8062 22.9462 33.7432 23.6993 33.4846C25.2078 32.9044 26.0058 32.1601 27.1893 31.1055V31.1078Z" fill="#31344A"/>
<path d="M28.2316 29.174C27.9424 30.1296 27.7877 30.296 27.1893 31.1078C26.0058 32.1624 25.2078 32.909 23.6993 33.4869C22.9461 33.7455 22.1526 33.8084 21.3704 33.6465L21.6012 33.4576L21.4623 32.6594L22.7937 32.0387C22.249 31.8161 22.1078 31.6385 21.6371 31.2719C23.038 30.0959 24.0736 29.8328 25.7906 29.3359L28.2316 29.174Z" fill="#E5BA57"/>
<path d="M21.6012 33.4599C22.0563 32.9922 22.6458 32.6931 23.2106 32.3603L23.6993 33.4891C22.9461 33.7477 22.1526 33.8107 21.3704 33.6488L21.6012 33.4599Z" fill="#E0B348"/>
<path d="M22.7938 32.041L24.002 31.5868L24.1253 31.7082L23.2108 32.3603C22.6459 32.6931 22.0564 32.9922 21.6014 33.4599L21.4624 32.6616L22.7938 32.041Z" fill="#564733"/>
<path d="M19.0685 21.3981C20.0458 23.1835 21.0141 25.0634 20.8774 27.1412L20.447 26.8533C19.8396 27.2738 19.8418 27.6943 19.806 28.4611L19.8149 28.7849C19.463 29.5 19.4473 29.6507 19.2725 30.4422L19.1089 30.2308C16.957 26.8826 17.3986 24.7419 19.0685 21.3959V21.3981Z" fill="#E5BA57"/>
<path d="M19.2254 25.2726L19.806 28.4612L19.815 28.785C19.463 29.5 19.4474 29.6507 19.2725 30.4422L19.1089 30.2308C19.2344 29.7339 19.2165 25.9966 19.2254 25.2703V25.2726Z" fill="#6A5939"/>
<path d="M23.603 25.6706C25.1183 23.4669 25.9812 22.5764 28.0501 20.8742L28.689 21.4139C29.7761 21.9356 30.0495 22.057 31.2286 22.3696C30.4037 22.545 30.7332 22.3516 30.1683 22.9115L30.2401 23.3522L30.7511 23.5456C30.3454 23.5883 28.7472 23.73 28.4581 23.8896C26.0059 24.1887 25.6719 24.3056 23.603 25.6683V25.6706Z" fill="#292D3B"/>
<path d="M23.6635 26.2867L24.1948 26.9006C24.7753 27.4762 25.2976 27.4717 26.1292 27.465C26.5102 27.4582 26.8913 27.447 27.2701 27.4267C27.7879 27.4965 28.6038 27.5752 29.0588 27.7483L27.9784 28.1396L28.3124 28.632L28.6912 28.6478L28.2317 29.1762L25.7907 29.3381C23.9011 28.18 22.6661 29.8868 22.4285 27.456C22.7311 27.1299 23.3206 26.6105 23.6635 26.2889V26.2867Z" fill="#31344A"/>
<path d="M28.3125 28.6298C27.9897 28.5938 27.6042 28.5106 27.2792 28.4499L27.2119 28.2475L27.9785 28.1373L28.3125 28.6298Z" fill="#A8AAB2"/>
<path d="M22.4285 27.4537C22.6661 29.8845 23.9011 28.1778 25.7907 29.3359C24.0737 29.8328 23.0382 30.0981 21.6372 31.2719L19.9651 33.2013C20.6331 31.2225 21.4557 29.2999 22.4285 27.4537Z" fill="#292D3B"/>
<path d="M24.8223 35.1509C25.6292 35.0699 25.5732 34.9328 26.0506 35.2903L26.073 35.7018C25.4051 36.2977 24.7976 37.1229 23.9391 36.9678L23.6589 36.4753C23.8024 36.1245 23.7822 35.9806 23.7284 35.6096L24.8223 35.1509Z" fill="#E5BA57"/>
<path d="M30.695 24.2516C31.5109 24.4878 31.41 24.3236 31.865 24.8655L31.7328 25.0229C30.5112 25.5334 30.0494 25.8549 28.8166 25.1376L28.7942 24.7396C29.4285 24.1977 29.8051 24.2899 30.695 24.2539V24.2516Z" fill="#ECBE46"/>
<path d="M28.3169 25.4839C27.5122 25.7493 24.7978 26.5993 24.1948 26.9006L23.6636 26.2867C25.1295 25.9966 26.851 25.6031 28.3169 25.4839Z" fill="#6A5939"/>
<path d="M17.5801 40.5971C17.6182 40.0304 17.5823 39.4975 17.8715 39.0298C18.0777 39.5425 18.3265 40.3902 18.5215 40.786L18.6313 41.7169C18.5484 41.7956 18.3646 41.9913 18.2749 42.0272L17.5801 40.5971Z" fill="#22283F"/>
<path d="M16.0515 32.1017C16.4079 32.8055 17.838 35.713 18.2504 36.2594L17.625 36.4258C16.9616 35.2745 16.4258 33.4126 16.0515 32.1017Z" fill="#564733"/>
<path d="M28.05 20.8742C29.0318 20.6178 30.6009 20.6673 31.6656 20.6561L30.5538 21.1575C29.7648 21.1665 29.3927 21.1058 28.6889 21.4116L28.05 20.8719V20.8742Z" fill="#3D3F3F"/>
<path d="M21.8188 47.0957C22.2806 46.1018 22.5339 45.407 23.3251 44.6245L22.8948 46.1018C22.5384 46.7764 22.4734 46.9428 22.2761 47.6826L21.8188 47.0957Z" fill="#6A5939"/>
<path d="M19.7253 39.385C19.6581 39.855 19.7208 39.6886 19.4182 40.0709C19.026 39.1489 19.1963 37.6199 19.3801 36.6507C19.36 37.6738 19.2098 38.5575 19.7253 39.385Z" fill="#564733"/>
<path d="M16.3181 47.2216L19.0124 48.5123L18.6739 48.9486C18.1292 48.6495 16.8695 47.6399 16.3181 47.2216Z" fill="#564733"/>
<path d="M29.4465 17.0987C30.0069 16.3522 30.5718 15.5786 31.159 14.8546C30.7533 15.6888 30.2467 16.8109 29.8029 17.5934L29.4465 17.0987Z" fill="#826436"/>
<path d="M19.2725 30.4444C19.4473 29.6529 19.463 29.5022 19.8149 28.7872L20.0525 30.7435L19.2725 30.4467V30.4444Z" fill="#3C3D39"/>
<path d="M18.4497 34.1885L19.1446 34.1705C19.0437 34.7124 18.9608 35.0002 18.8106 35.5197C18.4654 35.2588 18.5326 34.7776 18.4497 34.1862V34.1885Z" fill="#3C3D39"/>
<path d="M31.6657 20.6561C32.1051 20.7033 32.4659 20.6516 32.726 20.8854C31.7419 21.1463 31.5693 21.1733 30.554 21.1575L31.6657 20.6561Z" fill="#826436"/>
<path d="M31.7194 12.7746C31.9906 12.1652 32.004 12.0978 32.1161 11.4299L32.143 11.2635L32.4366 11.3759L33.7972 10.8542C34.6019 12.0348 33.5283 14.9153 33.1607 16.3162C35.4358 14.5038 39.7641 13.0961 42.0683 15.5382C42.9179 18.2635 37.5248 19.109 35.6622 19.2507C36.4825 19.7162 37.1841 19.9658 37.5674 20.7798C37.3141 22.2526 34.6535 22.7518 33.34 23.1004L33.1382 24.11C33.015 25.8685 30.6323 27.3413 29.0587 27.7506C28.6037 27.5752 27.7878 27.4987 27.27 27.429C29.0789 26.9771 30.444 26.4149 31.7328 25.0275L31.8651 24.8701C31.41 24.3281 31.5109 24.4923 30.695 24.2562C30.0741 24.1168 29.1148 23.9976 28.458 23.8942C28.7472 23.7345 30.3453 23.5906 30.7511 23.5501L30.24 23.3567L30.1683 22.916C30.7331 22.3561 30.4036 22.5495 31.2285 22.3741C33.8353 22.2279 34.4876 22.0795 36.8479 20.9214C34.0886 19.4104 33.1607 19.3384 30.0741 19.4666L30.5045 19.1518L30.0853 18.7088C31.2419 17.436 33.5507 14.1575 33.0217 12.4598L32.6922 12.3024L31.7194 12.7791V12.7746Z" fill="#363647"/>
<path d="M33.5598 17.1864C36.2093 14.6724 38.4821 14.8299 41.6807 16.0194C40.0512 17.2606 36.4715 19.3654 34.5393 17.879L34.6021 17.6092L35.3978 17.3708L35.0414 16.9773L33.849 17.3348L33.5598 17.1864Z" fill="#E0B348"/>
<path d="M35.0413 16.9773C35.8235 16.8401 36.6551 16.6085 37.4038 16.7839C36.5789 17.137 36.2898 17.1819 35.3977 17.3708L35.0413 16.9773Z" fill="#826436"/>
<path d="M38.901 15.8687C39.3202 16.0688 39.3673 15.9924 39.5578 16.4489L38.8047 17.4765C38.4774 17.0582 38.4191 16.993 38.3608 16.4691L38.901 15.8687Z" fill="#ECBE46"/>
<path d="M30.0854 18.7042C31.2286 18.1646 32.3875 17.6586 33.5598 17.1864L33.8489 17.3348C32.6632 18.0476 31.7464 18.5333 30.5046 19.145L30.0854 18.702V18.7042Z" fill="#8D6B42"/>
<path d="M33.1384 24.1078C32.4682 23.8829 32.197 23.7682 31.5693 23.4399C31.9414 23.0869 32.708 23.1499 33.3401 23.0981L33.1384 24.1078Z" fill="#EDF3F5"/>
<path d="M46.8002 7.76233C52.6236 14.551 44.7649 19.6307 42.0976 25.2208C39.5086 30.6491 38.5963 36.545 38.3005 42.5174L43.0995 42.5084C42.0527 42.7805 38.4417 42.7445 37.1528 42.7625C37.2066 35.3442 38.5201 27.7146 42.5414 21.3959C44.7851 17.8655 48.1675 15.4437 47.2619 10.807C47.0625 9.78611 46.7419 8.8057 46.8002 7.76233Z" fill="#E0B348"/>
<path d="M54.9591 27.6584C58.5768 32.8618 60.8721 40.0035 59.7805 46.3581C59.5362 47.7231 59.1282 49.0543 58.5611 50.3203C56.9899 50.336 54.6879 50.4327 53.1726 50.3338C54.0468 50.273 54.457 50.2506 55.3043 50.0437C58.5567 46.99 58.4042 38.0292 57.1826 34.0805C56.5281 31.9623 55.4567 29.8148 54.9591 27.6584Z" fill="#C1C8CC"/>
<path d="M43.1421 42.342C43.2228 37.6783 47.2664 25.9606 51.662 24.0673C52.4958 24.1482 52.2291 24.1212 52.971 24.9375C51.1464 25.3962 49.7567 27.5302 48.8198 29.1155C47.3651 31.5485 46.2241 34.1547 45.4239 36.8756C44.9667 38.4676 44.6147 42.3623 43.8907 42.7985C43.355 42.5939 43.5097 42.7265 43.1421 42.3443V42.342Z" fill="#FEFEFD"/>
<path d="M32.4368 11.3759C34.7365 4.82335 41.6739 2.54997 46.7263 7.61617L46.2555 8.16484C41.4677 6.43114 38.8497 4.55351 34.5729 10.1099C34.3129 10.4472 34.1851 10.8925 33.7974 10.8565L32.4368 11.3782V11.3759Z" fill="#FEFEFD"/>
<path d="M28.6912 28.6478L29.1866 28.9401C29.2068 29.9025 28.7876 30.3905 28.2093 31.2292L27.1895 31.11C27.7879 30.2983 27.9426 30.1319 28.2317 29.1762L28.6912 28.6478Z" fill="#363647"/>
<path d="M16.7193 64.95C18.7501 65.0107 20.8885 64.9995 22.9305 65.0175C33.6336 64.8173 44.8007 64.9837 55.5397 64.9927L59.5026 64.9747C62.7931 65.0107 64.5819 63.8099 64.546 67.5359C65.0212 68.224 64.8239 69.8678 64.6469 70.6885C63.7839 71.2192 63.1832 70.9359 62.2642 71.0753C61.065 71.8196 55.719 71.4463 53.343 71.8039C55.5016 71.9275 63.2706 71.5295 64.3712 72.1749L64.3981 72.6629C63.5037 73.3285 62.3448 73.0721 61.26 73.0339C56.1964 72.854 51.0522 73.2138 45.9954 73.0181C43.2294 73.0271 17.4658 73.1531 16.8875 72.854L16.7193 71.9523L18.3422 71.7409C18.1449 71.1495 18.3198 71.4126 17.6496 71.0416C17.199 70.9831 17.338 71.0101 16.9144 70.8212C16.5647 69.9397 16.7306 69.0403 16.7933 68.0644L16.7462 67.8822L16.7193 64.95Z" fill="#F2F5F8"/>
<path d="M16.7193 64.95C18.7501 65.0107 20.8885 64.9995 22.9305 65.0175L20.9042 65.3682C23.1793 67.1717 23.3362 68.4376 21.7717 70.9651C31.5692 70.8257 42.0571 71.1518 51.6821 70.8415C53.5246 69.7531 58.1891 68.604 55.5397 64.9927L59.5026 64.9747C62.7931 65.0107 64.5819 63.8099 64.546 67.5359C65.0212 68.224 64.8239 69.8678 64.6469 70.6885C63.7839 71.2192 63.1832 70.9359 62.2642 71.0753C61.065 71.8196 55.719 71.4463 53.343 71.8039C55.5016 71.9275 63.2706 71.5295 64.3712 72.1749L64.3981 72.6629C63.5037 73.3285 62.3448 73.0721 61.26 73.0339C56.1964 72.854 51.0522 73.2138 45.9954 73.0181C43.2294 73.0271 17.4658 73.1531 16.8875 72.854L16.7193 71.9523L18.3422 71.7409C18.1449 71.1495 18.3198 71.4126 17.6496 71.0416C17.199 70.9831 17.338 71.0101 16.9144 70.8212C16.5647 69.9397 16.7306 69.0403 16.7933 68.0644L16.7462 67.8822L16.7193 64.95Z" fill="#363647"/>
<path d="M18.3423 71.7408C21.2249 72.0197 27.3755 71.8308 30.4553 71.8195C38.0854 71.7746 45.7154 71.7701 53.3432 71.8061C55.5017 71.9297 63.2707 71.5317 64.3713 72.1771L64.3982 72.665C63.5038 73.3306 62.345 73.0743 61.2601 73.0361C56.1966 72.8562 51.0524 73.216 45.9956 73.0203C43.2296 73.0293 17.4659 73.1552 16.8876 72.8562L16.7195 71.9545L18.3423 71.7431V71.7408Z" fill="#ECBE46"/>
<path d="M18.3423 71.7408C21.2249 72.0197 27.3755 71.8308 30.4553 71.8195C38.0854 71.7746 45.7154 71.7701 53.3432 71.8061C55.5017 71.9297 63.2707 71.5317 64.3713 72.1771L64.3982 72.665C63.5038 73.3306 62.345 73.0743 61.2601 73.0361C56.1966 72.8562 51.0524 73.216 45.9956 73.0203C47.4817 72.7055 50.1177 72.9956 52.0072 72.7797C52.4645 72.4357 52.3255 72.656 52.4533 72.1051C51.6195 71.7453 20.0772 72.0624 16.7195 71.9545L18.3423 71.7431V71.7408Z" fill="#CF9F45"/>
<path d="M55.5397 64.9927L59.5027 64.9747L60.5831 65.3929C57.6826 66.9962 58.0435 68.5073 59.6327 70.9561C57.501 70.9403 53.6793 71.0303 51.6821 70.8414C53.5246 69.753 58.1892 68.604 55.5397 64.9927Z" fill="#C1C8CC"/>
<path d="M16.7933 68.0621C17.6899 70.0813 20.2161 71.7993 21.3189 69.0357C22.1774 66.8883 18.7143 65.2602 18.4139 68.1992C18.777 68.9998 18.8465 69.1527 19.7992 69.3101L19.9538 69.047C19.6669 68.5837 19.1469 67.8957 19.0998 67.4144C19.7073 67.1626 19.4876 67.2278 20.2475 67.41C20.7764 68.143 20.6666 67.8057 20.7608 68.6917C19.4495 71.0258 16.7552 68.8716 17.9544 67.0322C18.2817 66.5285 18.7995 66.1777 19.389 66.0653C20.5388 65.8516 21.8008 66.6949 22.2872 67.7293C22.4688 69.6519 20.5747 70.9044 18.8219 71.001C18.4318 71.0213 18.0418 71.0348 17.6496 71.0393C17.199 70.9808 17.338 71.0078 16.9144 70.8189C16.5647 69.9374 16.7306 69.038 16.7933 68.0621Z" fill="#EDF3F5"/>
<path d="M62.2642 71.0752C55.1923 69.5642 62.5757 62.3707 63.5418 68.1587C63.6987 69.1077 62.5174 69.8722 61.3743 69.5777C60.7489 69.0492 60.7489 69.0942 60.5584 68.3162C60.7579 67.5156 60.5539 67.8327 61.1658 67.3133L61.6746 67.3695C62.1992 67.9991 62.1252 67.673 62.1566 68.3162C61.5581 68.2959 61.5558 68.2037 61.0851 68.4421C61.2376 68.9435 61.1053 68.7277 61.5424 69.0785C62.3 69.0447 61.9302 69.1347 62.6474 68.6625C63.1764 67.4324 62.6856 66.9985 61.576 66.5959C57.3956 67.1514 61.4281 73.2497 64.2568 68.7794L64.4115 68.8019L64.6469 70.6862C63.7839 71.2169 63.1832 70.9336 62.2642 71.073V71.0752Z" fill="#C1C8CC"/>
<path d="M16.7195 64.9499C18.7503 65.0107 20.8887 64.9994 22.9306 65.0174L20.9043 65.3682C18.5351 65.1883 17.6878 65.5323 16.7464 67.8799L16.7195 64.9477V64.9499Z" fill="#D7D9E1"/>
<path d="M59.5027 64.9747C62.7932 65.0107 64.5819 63.8099 64.546 67.5359C63.1787 65.5144 62.9546 65.3907 60.5831 65.393L59.5027 64.9747Z" fill="#A8AAB2"/>
<path d="M15.9751 64.0033C22.5315 62.2381 40.748 59.841 46.9659 61.1273C49.2029 62.346 51.6349 62.5574 53.5918 64.0258C53.6478 64.0483 53.7016 64.0707 53.7576 64.0932L30.5605 64.0977C25.8533 64.1022 20.6464 64.2124 15.9751 64.0033Z" fill="#F2F5F8"/>
<path d="M61.52 52.3238C61.6567 51.2467 61.7194 50.1314 62.5488 49.4545L62.9724 49.5355L63.5104 50.4147L64.3151 52.036C64.4137 51.7054 64.5011 51.1455 64.5684 50.788L65.1198 51.0893L65.3529 51.1118L65.3103 51.7976L65.586 52.1012L64.593 52.3013L65.0839 53.2413C66.2316 52.8342 66.9802 52.4295 68.0875 52.913C68.2915 54.0103 66.7942 54.7366 65.9222 55.1459C66.6036 55.6113 66.236 55.4787 67.0721 55.5349C66.5162 56.3444 66.6059 55.9914 66.5543 56.92L66.3459 56.8616C65.1265 58.0803 63.9721 58.5166 62.2507 58.2535C61.3227 58.0893 61.1613 58.0399 60.3118 57.6374C57.6287 59.2092 53.9213 61.1925 50.7205 60.691C51.245 59.5217 55.3805 60.0479 58.2743 57.9882L58.4872 57.8352C58.4312 56.4321 58.5231 53.0344 60.2154 52.6049C60.7063 53.1378 60.639 53.6595 60.6951 54.4083L61.1658 54.3026C61.3182 53.7764 61.4303 52.8815 61.52 52.3171V52.3238Z" fill="#E5BA57"/>
<path d="M65.0839 53.2457C66.2315 52.8387 66.9802 52.434 68.0875 52.9174C68.2915 54.0148 66.7941 54.7411 65.9222 55.1503L65.7541 55.1413C64.7454 55.4651 63.8376 55.3797 62.7751 55.319C63.145 54.6893 63.6695 53.9653 64.0887 53.3514L64.472 53.7449L65.0839 53.248V53.2457Z" fill="#ECBE46"/>
<path d="M62.7751 55.319C63.145 54.6894 63.6695 53.9653 64.0887 53.3514L64.472 53.745L63.6448 54.7524L63.6942 55.0582C64.4271 55.2628 64.9987 55.1796 65.7541 55.1436C64.7454 55.4674 63.8376 55.382 62.7751 55.3213V55.319Z" fill="#6A5939"/>
<path d="M61.52 52.3238C61.6568 51.2467 61.7195 50.1314 62.5489 49.4545L62.9725 49.5355L63.5105 50.4147L64.3152 52.036C63.9834 52.5442 63.6113 53.3514 63.1563 53.4549L63.051 53.3514L61.928 53.7674L61.52 52.3238Z" fill="#E0B348"/>
<path d="M63.5105 50.4147L64.3152 52.0359C63.9835 52.5441 63.6114 53.3514 63.1564 53.4548L63.051 53.3514C63.4679 52.2428 63.4478 51.5952 63.5105 50.4147Z" fill="#3C3D39"/>
<path d="M65.7543 55.1413L65.9224 55.1503C66.6038 55.6158 66.2362 55.4831 67.0723 55.5394C66.5164 56.3489 66.606 55.9958 66.5545 56.9245L66.346 56.8661L65.0078 56.4703C62.8717 55.9981 62.1029 56.5985 60.2917 57.6396C61.1032 56.9358 61.9863 56.0633 62.7753 55.3167C63.8378 55.3775 64.7456 55.4629 65.7543 55.1391V55.1413Z" fill="#363647"/>
<path d="M65.0078 56.4725L66.3459 56.8683C65.1266 58.0871 63.9722 58.5233 62.2507 58.2602L62.383 57.6756C63.0689 56.9492 64.0103 56.5175 65.0078 56.4725Z" fill="#E0B348"/>
<path d="M60.6951 54.415L61.1658 54.3093C61.3182 53.7832 61.4303 52.8882 61.52 52.3238L61.9279 53.7674C62.1789 56.115 60.2423 56.8683 58.467 58.0421C59.6057 56.6839 60.2692 56.1263 60.6951 54.415Z" fill="#363647"/>
<path d="M64.5932 52.3036L65.0841 53.2435L64.4722 53.7405L64.0889 53.347L64.5932 52.3013V52.3036Z" fill="#292D3B"/>
<path d="M46.9661 61.1273C52.0968 61.5298 57.0662 62.4899 62.1387 63.3579L62.2822 64.1112L53.7578 64.091C53.7017 64.0685 53.6479 64.046 53.5919 64.0235C51.6351 62.5551 49.2031 62.3438 46.9661 61.125V61.1273Z" fill="#C1C8CC"/>
<path d="M12.9917 36.8126C15.0785 37.8425 16.1769 38.7869 17.58 40.5971L18.2749 42.0272L18.0799 43.0661L17.5083 42.4342L17.0757 42.794C17.32 43.1875 17.3312 43.2303 17.515 43.653L17.2326 43.8352C14.2783 43.192 13.3033 39.3558 12.9917 36.8149V36.8126Z" fill="#ECBE46"/>
<path d="M15.1929 40.1609C16.0133 40.8535 16.7574 41.6607 17.5083 42.4343L17.0757 42.7941C16.3741 42.1442 15.7263 40.9974 15.1929 40.1609Z" fill="#564733"/>
<path d="M25.3311 15.3853C25.7189 17.924 26.1067 19.8781 24.8739 22.2481L24.7595 21.5263L24.0019 21.0181C23.8361 22.0817 23.6321 22.9902 23.7173 24.0628C23.4595 23.4309 23.594 23.4781 23.1255 23.1768L22.9148 23.5591L22.6526 23.4916C21.2158 20.2356 23.2398 17.6182 25.3311 15.3853Z" fill="#E5BA57"/>
<path d="M23.1255 23.1791C23.1995 22.437 23.4146 20.8022 24.0109 20.33L24.0019 21.0204C23.836 22.084 23.6321 22.9924 23.7172 24.065C23.4595 23.4332 23.594 23.4804 23.1255 23.1791Z" fill="#564733"/>
<path d="M59.1641 60.754C58.4782 60.3042 58.1532 60.257 57.8506 59.5959L58.1577 59.2204C59.4151 58.8291 60.4776 58.9663 61.7037 59.3485C62.5151 59.6881 62.5308 59.5397 62.9343 60.1423C62.2013 61.0733 60.2288 61.017 59.1641 60.754Z" fill="#E5BA57"/>
<path d="M59.1641 60.754C58.4782 60.3042 58.1532 60.257 57.8506 59.5959L58.1577 59.2204C59.4151 58.8291 60.4776 58.9663 61.7037 59.3485C60.2893 59.3868 60.0876 59.0675 59.5317 60.5089L59.1641 60.7562V60.754Z" fill="#ECBE46"/>
<path d="M37.3591 53.9203C38.1123 53.7584 39.8517 53.6752 40.56 53.9136C38.8766 55.4089 39.381 57.3608 39.2711 59.6139L38.9506 59.8455L39.2285 59.9175L38.9932 60.0074C38.0921 57.6868 39.1792 55.5101 37.3591 53.9181V53.9203Z" fill="#F2F5F8"/>
<path d="M65.3529 51.114C65.8236 50.1179 66.6261 48.9868 67.6504 48.5146L68.2848 48.5348C69.5938 50.0976 66.9287 51.7571 65.586 52.1057L65.3103 51.8021L65.3529 51.1163V51.114Z" fill="#E0B348"/>
<path d="M42.019 54.1654L42.3351 53.8619C43.2832 53.7292 43.4222 53.7494 44.3659 53.9361C42.743 55.7215 44.0476 58.285 42.8193 60.0884C42.2589 58.5953 42.9067 56.1083 42.1221 54.3971L42.019 54.1654Z" fill="#F2F5F8"/>
<path d="M64.5685 50.7902C64.1224 49.4096 63.7862 46.8619 65.4695 46.23C66.7337 47.3566 65.7004 49.7918 65.1199 51.0916L64.5685 50.7902Z" fill="#E0B348"/>
<path d="M33.3311 53.9114C34.268 53.7472 35.1579 53.5516 35.9222 54.1587C34.9113 55.807 35.8258 57.6171 34.8418 59.7489L34.5818 59.533C34.407 57.3001 34.9808 55.436 33.3311 53.9114Z" fill="#F2F5F8"/>
<path d="M44.4578 54.7164C44.7515 54.7838 45.0406 54.8918 45.3298 54.984C46.1614 56.1892 45.7243 58.7482 45.6324 60.1873C45.3253 60.1244 44.7828 60.1109 44.5901 59.85C43.8123 58.7977 44.3189 55.9824 44.4578 54.7164Z" fill="#C1C8CC"/>
<path d="M40.719 54.7568C41.1606 54.9345 41.3892 54.957 41.5708 55.4449C41.9855 56.5558 41.8062 59.1957 41.3691 60.2593L40.6675 59.9939C40.4119 59.6971 40.3447 59.452 40.2864 59.072C40.0959 57.8667 39.9995 55.762 40.719 54.7568Z" fill="#C1C8CC"/>
<path d="M36.3459 54.9165L37.1551 55.0537C38.0428 56.2005 37.6214 58.7527 37.5586 60.1761C37.2246 60.0974 36.9041 59.9962 36.5768 59.8973C35.7676 58.5975 36.2159 56.3984 36.3459 54.9165Z" fill="#EDF3F5"/>
<path d="M32.32 54.9165C32.8311 54.975 32.9723 54.957 33.3691 55.2673C33.8196 56.594 33.5842 58.2557 33.5551 59.6477L32.6406 59.2024C31.7574 58.0983 32.1945 56.214 32.32 54.9165Z" fill="#F2F5F8"/>
<path d="M62.1387 63.3602C62.8223 63.4501 63.6068 63.4546 64.1112 63.8819C63.6113 64.2124 62.912 64.1202 62.2821 64.1157L62.1387 63.3624V63.3602Z" fill="#C1C8CC"/>
</g>
</g>
<defs>
<clipPath id="clip0_278_2636">
<rect width="78.19" height="78.19" fill="white"/>
</clipPath>
<clipPath id="clip1_278_2636">
<rect width="65.7249" height="78.19" fill="white" transform="translate(8)"/>
</clipPath>
</defs>
</svg>
