<svg width="79" height="79" viewBox="0 0 79 79" fill="none" xmlns="http://www.w3.org/2000/svg">
<g clip-path="url(#clip0_278_2323)">
<g clip-path="url(#clip1_278_2323)">
<path d="M37.816 0.0384273C43.5708 -0.366378 49.4809 2.59737 52.5086 7.32492C52.654 7.55623 52.7994 7.79237 52.9397 8.02369C53.6114 6.8671 54.1879 6.337 55.0551 5.33944C55.6617 5.92256 56.5139 6.98758 56.9751 7.69599C58.5992 10.1682 59.0554 12.2308 58.4338 15.0548C59.296 14.7415 60.1532 14.2307 61.0605 13.956C61.4966 16.5535 61.632 18.8811 60.3737 21.3582C59.7221 22.6449 58.534 23.999 57.1856 24.64C56.6743 24.8857 56.1279 25.0496 55.5815 25.2231C54.7494 26.5965 54.8095 26.9772 53.2405 27.8543C54.9549 28.9338 56.3735 30.3892 56.4888 32.4758C56.5389 33.7047 56.2081 34.895 55.3258 35.8058C54.3333 36.8323 53.3057 36.9865 51.9372 37.0299C51.9422 41.2948 53.4611 46.5765 55.386 50.3981C56.178 50.4752 56.8748 50.5812 57.1555 51.4197C57.5365 52.5426 58.123 53.4052 57.6418 54.5763C60.484 56.2485 62.6646 57.993 63.1408 61.4146C63.5268 64.1615 62.5543 65.9204 60.865 68.0167C62.0982 68.2963 62.8601 69.0432 63.0907 70.2528C65.8076 70.7877 65.2412 73.1973 65.2963 75.1538C65.3966 78.5513 63.8577 78.1513 61.1156 78.1465H56.2983H39.741L22.9781 78.1369L17.0529 78.1465C14.1706 78.1465 11.7293 78.7778 12.0251 75.0623C12.2055 72.7539 11.3684 71.1974 14.2357 70.2239C14.7019 69.0866 15.2533 68.277 16.5316 67.9637C16.2058 67.6264 15.9 67.265 15.6193 66.8891C12.8773 63.1543 14.0904 58.5038 17.7698 55.8148C18.3763 55.3714 19.0079 54.9859 19.6295 54.5618C19.4491 53.8871 19.434 53.5064 19.6446 52.851C20.1108 51.3956 20.3564 50.668 21.9304 50.2198C22.3665 49.468 22.6673 48.7114 22.9931 47.9162C24.4318 44.432 25.279 40.7502 25.4995 37.0058C25.1136 37.0106 24.6524 37.0203 24.2664 36.9769C23.1936 36.8468 22.2161 36.3118 21.5545 35.4878C20.1809 33.7577 20.4566 31.3337 21.8051 29.6759C22.4066 28.9386 23.1185 28.4471 23.8854 27.8832C22.7024 27.1748 22.3314 26.3556 21.755 25.2183C21.3339 25.0351 20.8276 24.9339 20.4065 24.7363C16.2158 22.7653 15.4589 17.8739 16.301 13.9753C17.1432 14.2982 17.9803 14.6307 18.8175 14.9777C18.7222 14.2933 18.6671 13.797 18.642 13.0982C18.5417 10.2694 20.1007 7.41648 22.151 5.41655C23.0332 6.18279 23.7801 7.07432 24.4368 8.02369C27.1989 3.18048 32.1315 0.395041 37.816 0.0384273Z" fill="#0E293F"/>
<path d="M25.9355 10.9297C26.0609 10.5827 26.2012 10.2406 26.3516 9.90324C26.7025 9.13218 27.0935 8.59726 27.5898 7.91777C30.7729 3.56612 36.5677 1.67221 41.8964 2.87698C42.5029 3.01192 43.1847 3.32034 43.7662 3.56612C46.7989 4.43356 50.6989 8.10571 51.3455 11.1128C50.4883 10.043 49.7866 9.41169 48.5534 8.69365C48.2777 8.53462 47.5558 8.22619 47.3603 8.08162C44.9141 7.02624 42.3074 7.06479 39.7358 7.62862C40.0166 9.8936 40.7033 11.8598 42.2372 13.667C42.5631 14.0525 43.2047 14.438 43.4654 14.7754C43.3952 14.8284 43.1997 14.9537 43.2047 15.0067C43.2198 15.3055 43.6007 15.9127 43.7511 16.1681C44.0669 16.5729 44.4379 17.1415 44.7537 17.503C45.1697 17.9752 45.9317 18.5535 46.438 18.9583C46.3026 19.0933 46.0069 19.368 45.9167 19.5077C45.9768 19.5945 46.062 19.7005 46.1122 19.792C46.2676 20.0041 46.5533 20.539 46.6936 20.8041C47.3403 21.9896 47.7965 22.5919 48.9043 23.3823C48.7238 23.604 48.5684 23.7678 48.3629 23.9702C45.8365 26.4665 42.3776 27.893 38.7533 27.9267C35.5802 27.9267 32.5023 26.881 30.041 24.9533C29.4445 24.4907 28.8881 23.9413 28.3367 23.4208C29.3944 22.5293 30.1664 21.6811 30.8431 20.4812C31.0336 20.1438 31.3895 19.633 31.2842 19.2619C31.1539 19.0836 31.0687 19.0644 30.8632 18.9583C31.3043 18.5535 31.8306 18.168 32.2667 17.7536C33.0838 16.9729 33.7906 15.9801 34.3571 15.0163C34.2017 14.9681 34.0914 14.9537 33.9861 14.838C33.9912 14.7272 34.0112 14.6163 34.1115 14.544C35.7807 13.3103 36.9788 11.0743 37.4149 9.09363C37.5102 8.64546 37.5904 8.12017 37.6656 7.66718C33.6804 6.85757 29.9458 7.19972 26.8729 10.0815C26.5672 10.3707 26.2514 10.6598 25.9355 10.9345V10.9297Z" fill="white"/>
<path d="M37.41 9.08881C37.7108 9.12254 37.9614 9.14664 38.2622 9.16591C37.7709 11.7441 36.7533 13.8308 34.7331 15.4741C34.4625 15.691 34.9036 16.0765 34.8434 16.2837C34.4324 17.5271 32.8132 18.9053 31.7856 19.6908C31.8357 19.8547 31.931 20.1101 31.9009 20.274C31.7656 21.1269 31.164 21.9655 30.6377 22.6353C34.0414 25.1461 40.6332 24.5871 43.8214 21.9992C44.3477 21.5703 45.8616 20.4426 46.0872 19.8691L46.1173 19.792C46.2727 20.0041 46.5584 20.539 46.6988 20.8041C47.3454 21.9896 47.8016 22.5919 48.9094 23.3823C48.7289 23.604 48.5735 23.7678 48.368 23.9702C45.8416 26.4665 42.3827 27.893 38.7584 27.9267C35.5853 27.9267 32.5075 26.8809 30.0462 24.9533C29.4496 24.4907 28.8932 23.9413 28.3418 23.4208C29.3995 22.5293 30.1715 21.6811 30.8482 20.4812C31.0387 20.1438 31.3946 19.633 31.2893 19.2619C31.159 19.0836 31.0738 19.0644 30.8683 18.9583C31.3094 18.5535 31.8357 18.168 32.2718 17.7536C33.0889 16.9729 33.7957 15.9801 34.3622 15.0163C34.2068 14.9681 34.0965 14.9537 33.9912 14.838C33.9963 14.7272 34.0163 14.6163 34.1166 14.544C35.7858 13.3103 36.9839 11.0743 37.42 9.09363L37.41 9.08881Z" fill="#B4C5CC"/>
<path d="M43.7612 3.56616C46.794 4.4336 50.694 8.10576 51.3406 11.1129C50.4834 10.043 49.7816 9.41174 48.5485 8.69369C48.2728 8.53466 47.5509 8.22624 47.3554 8.08167L47.4005 8.00456C47.2552 7.21423 45.7363 5.39742 45.1047 4.79021C44.7588 4.4577 43.8866 3.86495 43.7612 3.56616Z" fill="#B4C5CC"/>
<path d="M43.7511 16.1681C44.0669 16.5729 44.4379 17.1416 44.7537 17.503C45.1698 17.9753 45.9317 18.5535 46.438 18.9584C46.3027 19.0933 46.0069 19.368 45.9167 19.5077C45.3703 19.2089 43.5356 17.2909 43.1145 16.7367C43.3551 16.4765 43.5556 16.4476 43.7511 16.1681Z" fill="#B4C5CC"/>
<path d="M14.6719 72.6143C16.5116 72.5035 18.7875 72.5661 20.6623 72.5613H31.6955L49.6965 72.5517C52.0676 72.5565 54.554 72.5083 56.915 72.5613C57.1456 72.6047 57.2859 72.6191 57.5215 72.6384C57.4163 72.9324 57.311 73.236 57.2108 73.5299C56.9952 73.9155 56.9751 73.9203 56.7195 74.2383C56.4187 74.6142 55.4362 75.2985 55.3259 75.66H14.5566L14.6068 73.5492C14.6068 73.1926 14.6268 72.9661 14.6669 72.6095L14.6719 72.6143Z" fill="#DEAF49"/>
<path d="M14.6717 72.6143C16.5114 72.5035 18.7873 72.5661 20.662 72.5613H31.6953L49.6963 72.5517C52.0674 72.5565 54.5537 72.5083 56.9148 72.5613C57.1454 72.6047 57.2857 72.6191 57.5213 72.6384C57.4161 72.9324 57.3108 73.236 57.2105 73.5299C56.609 73.501 55.8069 73.5348 55.1954 73.5396H51.902L40.8537 73.5347L14.6116 73.5492C14.6116 73.1926 14.6316 72.9661 14.6717 72.6095V72.6143Z" fill="white"/>
<path d="M23.5945 31.4784C24.7124 31.3724 26.7626 31.4254 27.9356 31.4302L34.3771 31.4447L49.1098 31.4591C50.4232 31.4591 51.7315 31.4543 53.0399 31.4254C53.3106 31.4206 53.2955 31.4061 53.471 31.5314C53.9372 32.1531 54.1126 32.4711 53.9923 33.2904C53.882 34.0181 53.1902 34.5337 52.4483 34.6108C51.13 34.6783 49.7615 34.5771 48.4381 34.5915C46.2124 34.6446 43.9215 34.606 41.6908 34.606L32.5474 34.6301L27.2439 34.6397C26.3165 34.6397 25.1686 34.6976 24.2612 34.5674C23.3339 34.4325 23.1785 33.1169 23.2938 32.4085C23.389 32.076 23.4792 31.8061 23.5945 31.4784Z" fill="#DEAF49"/>
<path d="M23.5947 31.4784C24.7126 31.3724 26.7628 31.4254 27.9358 31.4302L34.3773 31.4447L49.11 31.4591C50.4233 31.4591 51.7317 31.4543 53.04 31.4254C53.3107 31.4206 53.2957 31.4061 53.4711 31.5314C53.9373 32.1531 54.1128 32.4711 53.9925 33.2904C53.8822 34.0181 53.1904 34.5337 52.4485 34.6108C51.1302 34.6783 49.7617 34.5771 48.4383 34.5915C49.2754 34.2494 49.8368 33.1988 50.0223 32.3844H32.1566L26.7077 32.3748C25.5948 32.3748 24.3968 32.3507 23.2939 32.4037C23.3892 32.0711 23.4794 31.8013 23.5947 31.4736V31.4784Z" fill="white"/>
<path d="M53.4711 31.5314C53.9373 32.1531 54.1127 32.4712 53.9924 33.2904C53.8822 34.0181 53.1904 34.5337 52.4485 34.6108C51.1301 34.6783 49.7616 34.5771 48.4382 34.5916C49.2754 34.2494 49.8368 33.1988 50.0223 32.3844C50.8093 32.394 52.273 32.476 52.9899 32.2591C53.2505 31.9748 53.3157 31.8591 53.4761 31.5266L53.4711 31.5314Z" fill="#C08F3A"/>
<path d="M26.5473 45.9743C27.4095 46.2249 28.4522 46.596 29.3294 46.8755C29.2643 47.7911 29.5951 48.3646 30.5425 48.6441C31.8108 48.6826 31.7506 48.2634 32.6379 48.0465C33.3748 48.2007 34.1016 48.5332 34.8185 48.7597C35.5453 48.9862 36.2872 49.1886 37.0191 49.4055C37.0993 49.7236 37.1294 49.8007 37.2748 50.0946C37.5104 50.2874 37.8111 50.5428 38.0518 50.7163C38.8037 50.803 39.2799 50.6344 39.9416 50.3019C40.5582 50.6729 43.3303 50.9717 44.1624 51.0295C44.789 51.0729 45.6512 51.0488 46.3229 51.1356C47.1601 51.2464 47.2954 51.9018 48.1726 51.7283C48.7391 51.6175 49.0098 51.0777 49.5211 50.938C50.4886 50.6729 51.4159 50.6103 52.3784 50.2488C52.6341 50.6826 52.7894 50.9524 52.9549 51.4295C51.9774 51.7235 50.8344 51.9211 49.8219 52.1138C49.3607 52.2054 48.2528 52.4223 47.8217 52.4512C46.3831 52.6391 44.9394 52.8415 43.4957 52.9572C38.8237 53.2993 34.1267 53.1451 29.4949 52.4946C27.8507 52.2536 25.9709 51.8633 24.3367 51.5356C25.1036 49.6995 25.9809 47.8634 26.5574 45.9695L26.5473 45.9743Z" fill="white"/>
<path d="M39.9364 50.3067C40.5529 50.6777 43.325 50.9765 44.1571 51.0344C44.7838 51.0777 45.646 51.0536 46.3177 51.1404C47.1548 51.2512 47.2902 51.9066 48.1674 51.7331C48.7339 51.6223 49.0045 51.0825 49.5159 50.9428C50.4833 50.6777 51.4107 50.6151 52.3732 50.2537C52.6288 50.6874 52.7842 50.9573 52.9496 51.4343C51.9721 51.7283 50.8292 51.9259 49.8166 52.1187C49.3554 52.2102 48.2476 52.4271 47.8165 52.456C47.611 52.1428 47.5809 52.0946 47.2651 51.8729C46.4079 51.7476 45.4154 51.7476 44.483 51.6078C43.7661 51.5934 42.152 51.3765 41.4753 51.1982C41.2597 51.1789 41.0542 51.1404 40.8286 51.1259C40.0366 51.0825 39.1995 51.3283 38.4275 51.1115C38.2019 51.0488 38.1267 50.9187 38.0415 50.7259C38.7934 50.8127 39.2696 50.644 39.9313 50.3115L39.9364 50.3067Z" fill="#B4C5CC"/>
<path d="M41.4753 51.1933C41.5455 51.1259 41.5856 51.0584 41.6959 51.0777C42.8639 51.2994 44.1522 51.3379 45.3051 51.5644C45.0294 51.5644 44.7537 51.5837 44.483 51.603C43.7662 51.5885 42.1521 51.3717 41.4753 51.1933Z" fill="#A8AFBD"/>
<path d="M30.5374 48.6489C31.8056 48.6875 31.7454 48.2682 32.6327 48.0513C33.3696 48.2055 34.0965 48.5381 34.8133 48.7646C35.5402 48.9911 36.282 49.1935 37.0139 49.4103C37.0941 49.7284 37.1242 49.8055 37.2696 50.0995C35.9111 49.7669 34.3722 49.2127 33.0287 48.9911C32.8834 48.967 31.56 49.1212 31.0336 49.1019C30.7429 48.9573 30.6426 48.9284 30.5374 48.6489Z" fill="#B4C5CC"/>
<path d="M52.6289 55.3426C53.2806 55.2125 54.0977 55.039 54.7343 54.8463C55.5414 56.2583 55.6867 56.5619 57.1906 57.3474C60.5392 59.0919 61.6771 62.9761 59.2007 65.8724C57.2357 65.9061 55.2707 65.9157 53.3057 65.8916C53.4009 64.5278 53.5062 63.1978 53.4661 61.834C53.4611 61.6364 53.456 61.4002 53.4661 61.2027C53.4209 59.3425 53.3357 58.5377 52.9046 56.7257C52.8044 56.2872 52.7242 55.7522 52.6189 55.3426H52.6289Z" fill="#B4C5CC"/>
<path d="M52.9146 56.7305C53.0148 56.6052 53.2354 56.5667 53.3958 56.5474C53.5662 56.5281 53.7367 56.5088 53.9071 56.4992C54.5187 56.7739 54.7442 57.0727 55.2305 57.4534C56.1528 58.1473 56.8997 58.7594 57.3308 59.8437C57.9374 61.3569 57.4762 63.1207 55.8721 63.8243C55.4059 64.0267 54.0324 63.9399 53.491 63.9447C53.5261 63.458 53.5813 61.6364 53.476 61.2027C53.4309 59.3425 53.3457 58.5377 52.9146 56.7257V56.7305Z" fill="white"/>
<path d="M22.4115 54.8993C23.0682 55.0487 23.9204 55.2463 24.5921 55.3282C24.547 55.6896 24.4467 56.4318 24.3364 56.7836C23.9555 58.8317 23.6196 61.646 23.8151 63.7424C23.9154 64.4315 23.9505 65.164 24.0256 65.8579L20.5367 65.911C19.7748 65.9206 18.8474 65.9495 18.1005 65.8917C17.5591 65.2604 17.1831 64.7351 16.9526 63.9351C16.4062 61.6171 17.2333 59.357 19.2534 57.9257C20.261 57.2125 20.9628 56.9185 21.8501 56.0173C22.1358 55.6029 22.2611 55.386 22.4065 54.9041L22.4115 54.8993Z" fill="white"/>
<path d="M23.8152 63.7375C23.9154 64.4266 23.9505 65.1591 24.0257 65.8531L20.5368 65.9061C19.7749 65.9157 18.8475 65.9446 18.1006 65.8868C17.5592 65.2555 17.1832 64.7302 16.9526 63.9303C17.474 63.9206 18.0905 63.9592 18.6319 63.964C19.815 63.9688 20.998 63.964 22.181 63.9495C22.5219 63.9495 23.4843 63.9592 23.75 63.8821L23.8102 63.7327L23.8152 63.7375Z" fill="#B4C5CC"/>
<path d="M22.4116 54.8993C23.0683 55.0487 23.9205 55.2463 24.5922 55.3282C24.5471 55.6896 24.4469 56.4318 24.3366 56.7836C24.0909 56.4221 22.3966 56.2679 21.8552 56.0173C22.141 55.6029 22.2663 55.386 22.4116 54.9041V54.8993Z" fill="#B4C5CC"/>
<path d="M17.3536 70.2771C18.8475 70.1903 20.7423 70.2289 22.2612 70.2337L30.6226 70.2433L48.1925 70.2337C50.9044 70.2144 53.6164 70.224 56.3233 70.2578C56.8597 70.4409 57.0552 71.0722 57.1805 71.5686C53.9472 71.6119 50.714 71.6216 47.4807 71.5879L31.4898 71.5734L20.4265 71.583C19.1683 71.5734 17.7496 71.6216 16.5115 71.5589C16.6919 70.9565 16.8323 70.6578 17.3586 70.2722L17.3536 70.2771Z" fill="white"/>
<path d="M49.1701 53.227C49.3556 53.1644 50.7742 52.9427 51.085 52.88C52.2881 52.6439 53.5112 52.3451 54.7143 52.1572C54.9398 52.6294 55.1153 53.1354 55.2958 53.6222C53.5864 54.1426 50.9095 54.5812 49.13 54.8607C41.0543 56.2052 32.7782 56.0076 24.7827 54.2872C23.9004 54.1041 22.9079 53.839 22.0156 53.627C22.166 53.333 22.2963 53.0583 22.4317 52.7596C22.4918 52.5861 22.557 52.3837 22.6222 52.2198L22.6974 52.2294C23.5395 52.321 25.0083 52.6728 25.9056 52.8511C27.5097 53.1595 29.1188 53.4246 30.7379 53.6463C35.44 54.2535 40.1971 54.3113 44.9092 53.8198C46.3429 53.6655 47.7515 53.4005 49.1651 53.2222L49.1701 53.227Z" fill="url(#paint0_linear_278_2323)"/>
<path d="M22.6221 52.2247L22.6973 52.2343C23.5395 52.3259 25.0082 52.6777 25.9055 52.856C27.5096 53.1644 29.1187 53.4294 30.7379 53.6511C35.4399 54.2583 40.1971 54.3162 44.9091 53.8246C46.3428 53.6704 47.7514 53.4053 49.165 53.227L49.1951 53.2993C48.9946 53.9403 46.3077 54.1138 45.6962 54.215C43.9818 54.4896 42.2072 54.5523 40.4778 54.639C34.307 54.9378 28.447 54.0897 22.4316 52.7692C22.4918 52.5957 22.557 52.3933 22.6221 52.2295V52.2247Z" fill="white"/>
<path d="M19.0781 67.0289C19.419 66.9952 20.1659 67.0145 20.5369 67.0145L23.6598 67.0289L34.5477 67.0386L50.1727 67.0241L55.1704 67.0097C56.0677 67.0097 57.356 66.9759 58.2132 67.053C57.9626 67.3374 57.8774 67.4241 57.5816 67.6602C57.2006 67.9253 56.8046 68.2193 56.3234 68.2482C55.1704 68.3156 53.9724 68.2964 52.8194 68.2964L45.3954 68.2626H32.5325C28.9333 68.2771 25.3341 68.2964 21.7349 68.2723C20.6221 68.2626 19.8401 67.7807 19.0781 67.0193V67.0289Z" fill="#B4C5CC"/>
<path d="M31.7053 28.558C32.4773 28.5098 33.4147 28.4954 34.1716 28.611C35.7607 28.8761 37.1542 29.146 38.7834 29.1411C40.4076 29.1315 41.9114 28.7556 43.4754 28.6159C44.4529 28.5291 46.819 28.4665 47.7664 28.6014C48.0321 28.6014 48.2927 28.6014 48.5584 28.6159C50.2878 28.6881 50.9245 29.2038 52.0423 30.37C51.3305 30.4182 50.2176 30.3796 49.4758 30.3796C47.7764 30.3893 46.072 30.3941 44.3727 30.3893L31.7404 30.4037C29.5097 30.4037 27.0684 30.3315 24.8628 30.3989C27.3542 28.3219 28.5472 28.5532 31.7003 28.5677L31.7053 28.558Z" fill="white"/>
<path d="M31.7053 28.558C32.4773 28.5098 33.4147 28.4954 34.1716 28.611C35.7607 28.8761 37.1543 29.146 38.7834 29.1411C40.4076 29.1315 41.9114 28.7556 43.4754 28.6159C44.4529 28.5291 46.819 28.4665 47.7664 28.6014C46.8741 28.6785 45.8816 28.4086 45.0144 28.799C42.0117 30.1435 38.4075 30.2688 35.1742 29.6953C34.1466 29.5122 32.5475 28.6351 31.7053 28.5628V28.558Z" fill="#B4C5CC"/>
<path d="M27.6301 40.9383C28.2015 41.1407 28.8382 41.3624 29.3695 41.6515C29.7705 42.6973 30.3019 41.9744 31.2543 42.3069C35.5904 43.8105 40.3877 43.743 44.809 42.6443C45.3654 42.5045 45.962 42.3166 46.5284 42.2346L46.6036 42.225C46.6337 42.7214 46.6638 43.6177 46.769 44.0563C42.7387 45.1165 37.761 45.7044 33.6404 44.7888C32.8133 43.5792 31.6453 42.8081 30.3069 44.0466C29.1189 43.7093 28.4421 43.4731 27.2842 43.025C27.3493 42.4178 27.5198 41.5648 27.6251 40.9431L27.6301 40.9383Z" fill="white"/>
<path d="M27.9407 38.7311C29.3643 39.1649 30.7429 39.748 32.2066 40.0805C36.8535 41.1359 41.5605 40.9817 46.1673 39.854L46.2826 39.9118C46.3628 40.2154 46.2826 40.3889 46.3528 40.6636C46.2576 40.8901 46.1423 41.1311 46.042 41.3527C40.3073 42.8611 36.6831 42.9719 31.0637 41.2467C30.793 40.2732 30.1814 40.1335 29.3142 40.7118C28.8179 40.4564 28.3016 40.2395 27.7703 40.0612L27.9357 38.7263L27.9407 38.7311Z" fill="white"/>
<path d="M26.4769 13.6959C27.0835 11.2815 30.0862 9.39246 32.4923 9.0503C33.0487 8.9732 34.8734 8.75152 35.3647 8.99247C35.4649 9.1515 35.4198 9.14668 35.3897 9.38282C34.9085 11.19 33.53 13.3971 31.59 14.0043C30.4371 13.7393 29.9258 13.5995 28.7377 13.5176C29.5749 13.0887 31.2341 11.9707 31.7655 11.2285C30.6977 11.5803 29.6651 12.0285 28.6876 12.5682C28.2264 12.8285 27.5547 13.2767 27.0935 13.4694C26.898 13.5513 26.6724 13.6236 26.4719 13.6959H26.4769Z" fill="#DEAF49"/>
<path d="M26.4769 13.6959C27.0835 11.2815 30.0862 9.39246 32.4923 9.0503C33.0487 8.9732 34.8734 8.75152 35.3647 8.99247C35.4649 9.1515 35.4198 9.14668 35.3897 9.38282C33.6954 9.36354 31.59 9.79244 30.1012 10.578C29.3894 10.9538 27.1988 12.6116 27.0935 13.4694C26.898 13.5513 26.6724 13.6236 26.4719 13.6959H26.4769Z" fill="url(#paint1_linear_278_2323)"/>
<path d="M42.0217 9.50809C41.9866 9.33942 41.9165 9.14184 41.9716 9.0069C42.2824 8.9298 42.6784 8.94425 43.0042 8.9298C44.6635 8.84787 46.1924 9.27677 47.6261 10.0623C47.7614 10.1394 48.1173 10.337 48.2276 10.4382C48.6136 10.6261 49.1149 11.0743 49.4206 11.3731C50.1575 11.9755 50.5435 12.8044 50.7691 13.6911C49.967 13.4983 49.0697 12.9104 48.3479 12.4911C47.3253 11.8887 46.5082 11.4984 45.3302 11.2285C46.0621 12.1008 47.4105 12.8333 48.398 13.5128C47.3604 13.6477 46.5834 13.7778 45.5608 14.0043C45.2901 13.8549 44.9392 13.6429 44.6785 13.4694C43.285 12.5393 42.3225 11.1177 42.0117 9.50809H42.0217Z" fill="#DEAF49"/>
<path d="M42.0217 9.50809C41.9866 9.33942 41.9165 9.14184 41.9716 9.0069C42.2824 8.9298 42.6784 8.94425 43.0042 8.9298C44.6635 8.84787 46.1924 9.27677 47.6261 10.0623C47.7614 10.1394 48.1173 10.337 48.2276 10.4382C48.2777 10.602 48.3078 10.6117 48.4381 10.7177C48.3279 10.7948 48.373 10.7755 48.2326 10.7948C46.5834 9.76832 43.9466 9.2093 42.0217 9.50809Z" fill="white"/>
<path d="M48.2278 10.4382C48.6138 10.6261 49.1151 11.0743 49.4208 11.3731L49.3356 11.455C49.1251 11.4743 48.4684 10.9538 48.2328 10.7996C48.3732 10.7803 48.328 10.7996 48.4383 10.7225C48.313 10.6165 48.2779 10.6068 48.2278 10.443V10.4382Z" fill="#F4E4B1"/>
<path d="M28.1613 36.7891C28.8029 36.8517 29.5649 37.1119 30.1915 37.2999C30.9585 37.5312 31.7304 37.7384 32.5124 37.9216C37.3548 39.0348 40.949 38.7697 45.7363 37.6565C45.8917 38.0806 45.9919 38.3167 46.0571 38.7649C40.8838 40.1962 37.1393 40.36 31.8608 38.9432C30.6978 38.63 29.1789 38.1818 28.1162 37.6517C28.0961 37.3143 28.1212 37.1312 28.1613 36.7939V36.7891Z" fill="#DEAF49"/>
<path d="M21.2737 16.2308C20.6722 15.3681 20.3814 14.1634 20.3614 13.1369C20.3363 11.6285 20.9128 10.0382 21.7148 8.7515C21.8753 8.49609 21.9956 8.26477 22.2111 8.04791C22.3615 8.08647 22.3615 8.14911 22.4768 8.29851C23.8303 9.79725 24.507 11.7538 24.3566 13.7345C24.2864 14.6019 23.8152 15.4211 23.1786 16.0235C22.9279 14.5152 22.8628 13.5562 22.4618 12.0381C21.8953 13.6236 22.181 15.5705 22.2161 17.209C21.9304 16.9536 21.4592 16.5392 21.2737 16.2259V16.2308Z" fill="#DEAF49"/>
<path d="M21.2737 16.2308C20.6722 15.3681 20.3814 14.1634 20.3614 13.1369C20.3363 11.6285 20.9128 10.0382 21.7148 8.7515C21.8753 8.49609 21.9956 8.26477 22.2111 8.04791C22.3615 8.08647 22.3615 8.14911 22.4768 8.29851C22.3665 8.79487 22.0256 9.43582 21.8251 9.92254C21.2988 11.2141 20.9278 12.5827 20.9629 13.9802C20.983 14.5971 21.2336 15.426 21.3589 16.0524C21.3589 16.0765 21.2938 16.197 21.2687 16.2259L21.2737 16.2308Z" fill="white"/>
<path d="M53.5514 15.3682C52.8747 14.5152 52.8947 13.7297 52.9148 12.6887C52.9398 11.4068 54.0126 8.92019 55.0051 8.08167L55.0903 8.09612L55.1806 8.25033C56.5039 10.0575 57.2057 12.1008 56.7997 14.3176C56.5841 15.4838 56.0628 16.5247 55.0402 17.2187C55.1956 16.3175 55.5064 12.9538 54.945 12.3466L54.8597 12.3562C54.4336 12.9297 54.3234 15.4212 54.2031 16.1729C53.9975 15.9272 53.7268 15.6236 53.5564 15.3585L53.5514 15.3682Z" fill="#DEAF49"/>
<path d="M53.5514 15.3682C52.8747 14.5152 52.8947 13.7297 52.9148 12.6887C52.9398 11.4068 54.0126 8.92019 55.0051 8.08167L55.0903 8.09612L55.1806 8.25033C54.9249 9.43583 53.9374 10.8045 53.7669 12.0767C53.6717 12.7948 53.5414 13.5128 53.5464 14.2405C53.5363 14.5344 53.6366 15.1754 53.5564 15.3633L53.5514 15.3682Z" fill="white"/>
<path d="M56.91 72.5661C57.7221 72.5661 62.1384 72.4649 62.6146 72.6336C62.785 72.8986 62.7449 73.2312 62.7449 73.5396C62.7349 74.2384 62.7349 74.9419 62.7349 75.6407L57.9426 75.6793C57.1406 75.6793 56.1079 75.713 55.3259 75.6648C55.4362 75.3034 56.4137 74.6142 56.7195 74.2432C56.9751 73.9299 56.9952 73.9251 57.2107 73.5348C57.311 73.236 57.4163 72.9372 57.5215 72.6432C57.2859 72.624 57.1456 72.6095 56.915 72.5661H56.91Z" fill="#C08F3A"/>
<path d="M56.9099 72.5661C57.722 72.5661 62.1383 72.4649 62.6145 72.6336C62.7849 72.8986 62.7448 73.2312 62.7448 73.5396C62.0731 73.4769 61.0806 73.5299 60.3938 73.5396C59.3311 73.5589 58.2684 73.554 57.2107 73.5299C57.3109 73.2312 57.4162 72.9324 57.5215 72.6384C57.2859 72.6191 57.1455 72.6047 56.9149 72.5613L56.9099 72.5661Z" fill="#B4C5CC"/>
<path d="M28.1664 56.0607L29.7855 56.2631C29.7605 56.8317 29.7304 57.2895 29.6652 57.8582C29.57 58.6871 29.4547 59.5931 29.4045 60.422C29.3444 61.3761 29.3845 62.4026 29.3945 63.3616C29.4998 63.9929 29.5299 65.2025 29.57 65.8868L27.8305 65.9109C27.6851 65.1447 27.5398 64.2339 27.5749 63.458C27.4947 61.0966 27.5398 59.6509 27.9258 57.2992C28.036 56.9522 28.1112 56.4317 28.1664 56.0607Z" fill="white"/>
<path d="M29.3945 63.3616C29.4998 63.9929 29.5299 65.2025 29.57 65.8868L27.8305 65.9109C27.6852 65.1447 27.5398 64.2339 27.5749 63.458C27.5949 63.6026 27.5899 63.6749 27.6651 63.805C27.8907 63.9255 29.2542 63.9688 29.3795 63.8773L29.3945 63.3616Z" fill="#B4C5CC"/>
<path d="M28.1663 56.0607L29.7854 56.2631C29.7603 56.8317 29.7303 57.2895 29.6651 57.8582C29.6651 57.7281 29.6801 57.6124 29.5999 57.516C29.1738 57.2654 28.462 57.3136 27.9307 57.2944C28.0409 56.9474 28.1161 56.4269 28.1713 56.0558L28.1663 56.0607Z" fill="#B4C5CC"/>
<path d="M51.501 55.6125C51.5311 55.6221 51.5511 55.6221 51.5662 55.651C52.664 58.5859 52.6289 62.9713 52.1828 65.8724C51.8319 65.9013 51.4409 65.9013 51.0849 65.9061L50.5436 65.8916C50.5987 64.3062 50.7591 62.6677 50.709 61.0774C50.6538 59.3521 50.3932 57.5498 50.1726 55.8293L51.501 55.6077V55.6125Z" fill="#B4C5CC"/>
<path d="M44.6384 56.5667C45.2149 56.5233 45.7914 56.4703 46.3678 56.4028C46.428 56.8366 46.4831 57.1594 46.5784 57.5883C46.7589 58.9907 46.8591 60.3979 46.8691 61.8099C46.8691 62.4604 46.824 63.1303 46.824 63.7616C46.7589 64.4604 46.7137 65.1447 46.5984 65.8386C46.0119 65.882 45.4355 65.8676 44.849 65.8676C44.879 65.0676 44.8841 64.2001 44.9492 63.4098C44.9242 62.5906 44.9943 61.6508 44.9793 60.8123C44.9592 59.7955 44.879 58.8943 44.7838 57.8823C44.7287 57.7425 44.6585 56.7787 44.6384 56.5715V56.5667Z" fill="white"/>
<path d="M44.8491 65.8627C44.8792 65.0627 44.8842 64.1953 44.9494 63.405C44.9594 63.5544 44.9494 63.8387 45.0346 63.9206C45.3304 63.9447 46.6738 63.9688 46.8242 63.7568C46.759 64.4555 46.7139 65.1398 46.5986 65.8338C46.0121 65.8772 45.4356 65.8627 44.8491 65.8627Z" fill="#B4C5CC"/>
<path d="M44.6384 56.5667C45.2149 56.5233 45.7914 56.4703 46.3679 56.4028C46.428 56.8366 46.4831 57.1594 46.5784 57.5883C46.3227 57.6172 44.864 57.7425 44.7838 57.8775C44.7287 57.7377 44.6585 56.7739 44.6384 56.5667Z" fill="#B4C5CC"/>
<path d="M30.8532 56.4655C31.4096 56.4992 32.0713 56.5233 32.6177 56.5956C32.5976 56.8028 32.5325 57.622 32.4773 57.7763C32.2568 59.6364 32.2818 61.6026 32.3019 63.4724C32.3871 64.2242 32.4372 65.1206 32.4673 65.8772C31.9009 65.8723 31.2241 65.8772 30.6677 65.8531C30.5574 65.1254 30.5173 64.5278 30.4371 63.8098C30.4171 61.3376 30.397 60.1713 30.7078 57.6317L30.8582 56.4655H30.8532Z" fill="white"/>
<path d="M32.302 63.4725C32.3872 64.2243 32.4374 65.1206 32.4675 65.8772C31.901 65.8724 31.2243 65.8772 30.6678 65.8531C30.5576 65.1254 30.5175 64.5279 30.4373 63.8098L30.4824 63.8773C30.723 64.0122 31.906 63.9881 32.2218 63.9544C32.3121 63.8628 32.292 63.6267 32.302 63.4677V63.4725Z" fill="#B4C5CC"/>
<path d="M30.8533 56.4655C31.4097 56.4992 32.0714 56.5233 32.6178 56.5956C32.5977 56.8028 32.5326 57.622 32.4774 57.7763C32.0513 57.6461 31.1741 57.6461 30.7029 57.6317L30.8533 56.4655Z" fill="#B4C5CC"/>
<path d="M25.5697 55.5739C26.1061 55.6414 26.6425 55.7137 27.1638 55.8534C27.1036 56.292 27.0084 57.1305 26.9031 57.5449C26.8179 58.3449 26.6826 59.1449 26.6124 59.94C26.5272 60.9472 26.5522 61.9592 26.5472 62.9664C26.6475 63.9351 26.6074 64.8941 26.7477 65.8868L25.1085 65.8964C24.9832 65.2507 24.9281 64.5856 24.8729 63.9302C24.7376 61.5737 24.888 59.2123 25.3141 56.8895C25.4193 56.4221 25.4895 56.0462 25.5647 55.5787L25.5697 55.5739Z" fill="white"/>
<path d="M26.5473 62.9664C26.6476 63.9351 26.6075 64.8941 26.7478 65.8868L25.1086 65.8964C24.9833 65.2507 24.9282 64.5857 24.873 63.9303C25.4245 63.964 25.9959 63.9736 26.5523 63.9881C26.5323 63.6026 26.5173 63.3471 26.5423 62.9664H26.5473Z" fill="#B4C5CC"/>
<path d="M25.5697 55.5739C26.1061 55.6414 26.6425 55.7137 27.1638 55.8534C27.1037 56.292 27.0084 57.1305 26.9031 57.5449C26.9082 57.3666 26.9182 57.2751 26.8881 57.1016C26.5673 56.957 25.7101 56.9184 25.3191 56.8847C25.4244 56.4173 25.4945 56.0414 25.5697 55.5739Z" fill="#B4C5CC"/>
<path d="M36.3823 56.8751C36.9537 56.8751 37.5502 56.8896 38.1217 56.8992L38.1418 58.1425C38.1768 60.7159 38.1618 63.2894 38.0966 65.8579C37.5051 65.8676 36.9086 65.8724 36.3171 65.8724C36.2369 64.9809 36.1717 64.2098 36.1918 63.3134C36.1366 61.8774 36.1767 59.9642 36.2419 58.5377C36.2218 58.0317 36.3221 57.3811 36.3823 56.8703V56.8751Z" fill="white"/>
<path d="M38.1419 58.1473C38.177 60.7207 38.1619 63.2941 38.0968 65.8627C37.5053 65.8724 36.9087 65.8772 36.3172 65.8772C36.237 64.9856 36.1718 64.2146 36.1919 63.3182C36.217 63.4724 36.237 63.6941 36.2571 63.8532C36.8486 63.8387 37.5002 63.8532 38.0918 63.858C38.1268 62.0412 38.0116 59.9063 38.1068 58.1329L38.1419 58.1425V58.1473Z" fill="#B4C5CC"/>
<path d="M36.3824 56.8751C36.9538 56.8751 37.5503 56.8896 38.1218 56.8992L38.1419 58.1425L38.1068 58.1329C37.7559 58.0558 36.7383 58.0462 36.3673 58.0751C36.2671 58.1666 36.2671 58.3739 36.237 58.5377C36.2169 58.0317 36.3172 57.3811 36.3773 56.8703L36.3824 56.8751Z" fill="#B4C5CC"/>
<path d="M39.1393 56.9233C39.7358 56.8895 40.3123 56.8943 40.9088 56.8895C40.9088 57.251 40.8988 57.6268 40.9489 57.9835C41.0291 58.5232 41.0342 59.2846 41.0492 59.8436C41.0743 61.1689 41.0843 62.4941 41.0692 63.8194C41.0091 64.5182 40.9539 65.2121 40.9038 65.9109C40.3324 65.9254 39.7308 65.9157 39.1594 65.9109C39.1493 64.8941 39.1343 63.8194 39.1594 62.8026C39.0942 61.4243 39.1493 59.6316 39.1343 58.2051L39.1443 56.9233H39.1393Z" fill="white"/>
<path d="M39.1493 62.8026C39.1894 63.2026 39.1995 63.5207 39.2045 63.9255C39.5253 63.9255 40.8988 64.017 41.0642 63.8194C41.0041 64.5182 40.9489 65.2122 40.8988 65.9109C40.3273 65.9254 39.7258 65.9158 39.1543 65.9109C39.1443 64.8941 39.1293 63.8194 39.1543 62.8026H39.1493Z" fill="#B4C5CC"/>
<path d="M39.1394 56.9233C39.7359 56.8895 40.3124 56.8943 40.9089 56.8895C40.9089 57.251 40.8989 57.6268 40.949 57.9835C40.3375 58.0076 39.7259 58.0798 39.1294 58.2051L39.1394 56.9233Z" fill="#B4C5CC"/>
<path d="M41.8865 56.8269C42.473 56.769 43.0896 56.7112 43.6811 56.716C43.7312 57.2172 43.7813 57.7184 43.8365 58.2244C43.9117 59.9786 43.9768 61.4773 43.9217 63.2556C43.9618 63.9736 43.8365 65.1447 43.7312 65.8723L42.0168 65.8964C42.0218 65.5639 42.0268 64.2098 42.087 63.9158C42.1321 61.9689 42.097 60.0219 41.9817 58.0798C41.9216 57.7859 41.8965 57.1401 41.8865 56.8269Z" fill="white"/>
<path d="M43.8666 63.9158C43.8766 63.6893 43.8967 63.4773 43.9117 63.2508C43.9518 63.9688 43.8265 65.1399 43.7212 65.8676L42.0068 65.8917C42.0118 65.5591 42.0169 64.205 42.077 63.911C42.5733 63.8773 43.3402 63.911 43.8616 63.911L43.8666 63.9158Z" fill="#B4C5CC"/>
<path d="M41.8865 56.8269C42.473 56.769 43.0896 56.7112 43.6811 56.716C43.7312 57.2172 43.7813 57.7184 43.8365 58.2244L43.7512 58.0268C43.4856 57.9208 42.1522 57.9208 41.9817 58.0798C41.9216 57.7859 41.8965 57.1401 41.8865 56.8269Z" fill="#B4C5CC"/>
<path d="M48.6489 14.7609C50.7041 14.6646 52.0175 15.4501 52.9699 17.1657C52.0977 16.8332 49.8118 15.9272 48.9045 16.1055L48.8544 16.1633C48.8945 16.3223 49.08 16.4717 49.2253 16.5296C50.2981 16.9729 51.3808 17.45 52.4436 17.903C51.1954 18.1295 49.8219 18.4186 48.5837 17.9849C47.4357 17.5801 46.2627 16.6356 45.5359 15.7007C45.5459 15.2959 46.9896 14.9874 47.3355 14.9296C47.7516 14.8188 48.2228 14.7899 48.6539 14.7561L48.6489 14.7609Z" fill="#DEAF49"/>
<path d="M45.5359 15.7006C45.5459 15.2958 46.9896 14.9874 47.3355 14.9296C47.6212 14.9681 47.6764 14.9392 47.8318 15.1271C47.2102 15.2717 46.0622 15.7054 45.5359 15.7006Z" fill="#F4F1D6"/>
<path d="M47.3303 14.9296C47.7464 14.8188 48.2176 14.7898 48.6487 14.7561L48.8292 14.8236L48.8141 14.9007C48.5885 15.0308 48.1023 15.0838 47.8266 15.1272C47.6712 14.9392 47.6161 14.9681 47.3303 14.9296Z" fill="#F4E4B1"/>
<path d="M24.2714 16.9584C25.0935 15.3874 26.5522 14.8332 28.3117 14.7464C29.1839 14.7031 29.991 14.9103 30.8131 15.1512C31.2392 15.2862 31.4247 15.3777 31.8157 15.5994C29.6652 17.9367 28.021 18.7656 24.7827 17.7728C25.8354 17.3873 26.9031 16.9054 27.9658 16.5391C28.1262 16.4813 28.3067 16.3416 28.3418 16.1729C27.7904 15.9223 26.2163 16.4428 25.5998 16.544C25.1486 16.6355 24.7025 16.809 24.2664 16.9632L24.2714 16.9584Z" fill="#DEAF49"/>
<path d="M24.2715 16.9584C25.0936 15.3874 26.5523 14.8332 28.3118 14.7464C29.1841 14.7031 29.9911 14.9103 30.8132 15.1512C30.7631 15.2765 30.7831 15.2524 30.7029 15.3536C29.3094 15.1561 28.2216 14.9247 26.8431 15.503C26.2766 15.7392 25.8104 15.9175 25.6049 16.5391C25.1537 16.6307 24.7076 16.8042 24.2715 16.9584Z" fill="url(#paint2_linear_278_2323)"/>
<path d="M47.4055 56.239C47.9419 56.1667 48.5083 56.0799 49.0497 56.0173C49.1349 56.4173 49.2402 56.9666 49.3505 57.3473C49.7816 59.622 49.7716 61.4821 49.6864 63.7616C49.5711 63.8965 49.6011 63.8869 49.3555 63.9013C48.8592 63.9351 48.3429 63.9013 47.8517 63.9158C48.0522 61.8147 47.7865 59.434 47.5509 57.3522C47.5108 57.0196 47.4707 56.5667 47.4155 56.2438L47.4055 56.239Z" fill="white"/>
<path d="M47.4055 56.239C47.9419 56.1667 48.5083 56.0799 49.0497 56.0173C49.1349 56.4173 49.2402 56.9666 49.3505 57.3473C49.2101 57.2702 47.8116 57.3473 47.5459 57.3473C47.5058 57.0148 47.4657 56.5618 47.4105 56.239H47.4055Z" fill="#B4C5CC"/>
<path d="M58.494 16.8958C58.7497 16.7271 59.2058 16.5199 59.5066 16.4573C59.7422 19.1415 58.5692 22.2932 55.7119 23.2137C56.6744 21.5944 57.1405 21.127 57.7471 19.3198C57.0804 19.7969 56.3285 20.7945 55.8071 21.4547L55.4562 21.898C55.4011 21.5125 55.381 21.2908 55.4161 20.9053C55.5364 19.3198 56.9551 17.4548 58.494 16.9006V16.8958Z" fill="#DEAF49"/>
<path d="M58.4939 16.8958C58.6342 16.8765 58.7696 16.8572 58.91 16.838L58.94 16.9343L58.8949 16.9873L58.91 17.0596C57.4663 18.0572 56.2481 19.2571 55.5864 20.8812L55.416 20.9101C55.5363 19.3246 56.955 17.4596 58.4939 16.9054V16.8958Z" fill="white"/>
<path d="M58.494 16.8958C58.7497 16.7271 59.2058 16.5199 59.5066 16.4573C59.4465 16.7802 59.2309 16.9488 58.9051 17.0548L58.89 16.9826L58.9352 16.9295L58.9051 16.8332C58.7647 16.8524 58.6294 16.8717 58.489 16.891L58.494 16.8958Z" fill="#F4F1D6"/>
<path d="M55.416 20.9005L55.5865 20.8716C55.6165 21.1318 55.6817 21.2186 55.802 21.4499L55.4511 21.8932C55.396 21.5077 55.3759 21.286 55.411 20.9005H55.416Z" fill="#DEAF49"/>
<path d="M17.7596 16.3898C18.1356 16.5488 18.4514 16.7127 18.8123 16.8958C20.9678 17.9174 22.1759 19.7053 21.8 22.0378C20.9277 20.886 20.8425 20.2981 19.5993 19.2089C19.85 20.8956 20.7523 21.7583 21.5443 23.2425C20.5768 22.9148 19.6595 22.298 19.1281 21.4402C18.1707 19.9945 17.5942 18.1054 17.7596 16.3898Z" fill="#DEAF49"/>
<path d="M17.7596 16.3898C18.1356 16.5488 18.4514 16.7127 18.8123 16.8958C18.6369 17.0548 18.5567 17.0548 18.3211 17.1175C18.1506 17.6717 18.5517 20.1535 18.9777 20.6499C19.0479 20.727 19.2936 21.2282 19.3086 21.3197C19.2133 21.4113 19.2535 21.3872 19.1281 21.4402C18.1707 19.9945 17.5942 18.1054 17.7596 16.3898Z" fill="url(#paint3_linear_278_2323)"/>
<path d="M33.6653 56.6823C34.2418 56.7016 34.8183 56.7257 35.3947 56.7546C35.3697 57.1449 35.3296 58.2726 35.2644 58.6051C35.2042 60.3689 35.1942 62.1327 35.2193 63.9013C34.8533 63.9399 33.6954 63.9833 33.3896 63.8821C33.2492 61.646 33.3996 60.2099 33.4899 58.0558C33.545 57.6172 33.6202 57.1208 33.6653 56.6871V56.6823Z" fill="white"/>
<path d="M33.6654 56.6823C34.2419 56.7016 34.8184 56.7257 35.3949 56.7546C35.3698 57.1449 35.3297 58.2726 35.2645 58.6051C35.2645 58.4316 35.2796 58.1473 35.2044 58.0124C34.7883 57.9401 34.282 57.9594 33.8559 57.9449C33.6404 57.9401 33.6103 57.9401 33.49 58.0558C33.5451 57.6172 33.6203 57.1208 33.6654 56.6871V56.6823Z" fill="#B4C5CC"/>
<path d="M41.0845 46.0659C42.0419 45.9309 43.0295 45.8201 43.9769 45.637C46.0723 45.237 48.1275 44.6539 50.1376 43.9695C50.278 44.3695 50.3582 44.6346 50.4535 45.049C48.9496 45.5117 47.4307 46.0128 45.9068 46.4128C44.9644 46.6586 43.9167 46.8128 42.9543 46.9911C42.6635 47.0441 41.6359 47.2273 41.3903 47.2176C41.1497 47.1839 40.5632 47.1694 40.3175 47.2176C40.1972 47.2369 40.2624 47.2562 40.0869 47.2417C40.3977 46.8706 39.9366 46.8321 39.9917 46.5622C40.097 45.9984 40.6484 46.3598 41.0795 46.0707L41.0845 46.0659Z" fill="url(#paint4_linear_278_2323)"/>
<path d="M48.373 19.9511C48.9094 19.474 50.684 19.4644 51.3557 19.5849C52.5688 19.7294 53.5964 20.8137 53.9072 21.9221C53.441 21.7486 51.2554 20.8041 50.9496 20.9824C51.0048 21.4932 52.8696 22.3558 53.3558 22.7173C51.8419 22.8619 51.0098 22.7847 49.8167 21.8065C49.4257 21.4884 48.3881 20.4427 48.3781 19.9511H48.373Z" fill="#DEAF49"/>
<path d="M48.373 19.9511C48.9094 19.474 50.684 19.4644 51.3557 19.5849C51.3206 19.6186 51.2855 19.6523 51.2504 19.6861C50.3882 19.8355 49.4909 19.9174 48.6187 20.0571C48.5184 20.0716 48.4232 19.9897 48.373 19.9511Z" fill="#F4E4B1"/>
<path d="M23.8153 21.6667C23.6198 21.7342 23.6499 21.7583 23.4845 21.7149C23.4544 21.5896 23.4394 21.5462 23.4945 21.4209C24.3367 19.527 26.7829 19.2523 28.6026 19.821C28.768 19.8692 28.9284 19.9222 29.0989 19.9559C27.6602 22.1775 26.5574 22.9919 23.8254 22.6691C24.8129 22.1486 25.8656 21.7149 26.5574 20.8764C25.4395 21.0065 24.848 21.2812 23.8153 21.6667Z" fill="#DEAF49"/>
<path d="M23.8153 21.6667C23.6198 21.7342 23.6499 21.7583 23.4845 21.7149C23.4544 21.5896 23.4394 21.5462 23.4945 21.4209C24.3367 19.527 26.7829 19.2523 28.6026 19.821C28.5525 19.8547 28.4973 19.8981 28.4271 19.9463C27.6401 19.9896 26.8581 19.8643 26.0761 20.033C25.5397 20.1487 25.0535 20.38 24.5873 20.6547C24.2214 20.8715 23.8203 21.2233 23.8153 21.6667Z" fill="url(#paint5_linear_278_2323)"/>
<path d="M47.0797 47.0249C47.6111 46.8706 48.1124 46.7357 48.6387 46.5719C49.2603 46.3791 50.1526 46.0418 50.7692 45.9598C51.0549 46.8514 51.3005 47.5598 51.6715 48.4224C50.9747 48.6055 49.6964 48.9911 49.0397 48.9814C48.1876 48.967 48.3079 48.4706 47.2301 48.7405C47.1098 48.2055 47.2602 47.6465 47.0747 47.0249H47.0797Z" fill="#B4C5CC"/>
<path d="M31.6753 44.3213C32.5876 44.2153 32.6177 45.6658 32.6027 46.249C33.4348 46.4899 36.5127 47.767 37.1844 48.2152L37.2295 48.3115L37.1944 48.4031C36.7633 48.4513 32.9736 47.1598 32.4122 46.9333C32.0061 47.3043 31.0086 48.0031 30.402 47.473C30.3419 47.42 30.2868 47.3284 30.2817 47.2513C30.4772 46.9574 30.9936 46.6297 31.3144 46.355C31.3144 45.608 30.8331 44.6827 31.6803 44.3213H31.6753Z" fill="#DEAF49"/>
<path d="M31.6754 44.3214C31.8559 44.6346 31.7456 46.2249 31.5601 46.5815C31.4147 46.4996 31.4097 46.4803 31.3095 46.355C31.3095 45.6081 30.8282 44.6828 31.6754 44.3214Z" fill="white"/>
<path d="M31.3044 46.355C31.4046 46.4803 31.4096 46.4996 31.555 46.5815C31.3144 46.8995 30.8282 47.1598 30.4472 47.2851C30.372 47.2754 30.3419 47.2802 30.2717 47.2513C30.4672 46.9574 30.9835 46.6297 31.3044 46.355Z" fill="#F4E4B1"/>
<path d="M47.2352 48.7453C45.6712 49.3477 43.9668 48.7453 42.3477 48.62C42.0168 48.5959 40.7787 48.4609 40.5681 48.2585C40.6483 48.2152 42.0469 48.1188 42.3076 48.0802C43.9217 47.8345 45.5158 47.4875 47.0748 47.0345C47.2602 47.661 47.1098 48.2152 47.2302 48.7501L47.2352 48.7453Z" fill="white"/>
<path d="M32.3572 36.8614C32.7281 36.8469 33.2144 36.8999 33.5953 36.9047C34.1117 36.9095 34.618 36.9047 35.1393 36.8951C37.5805 36.8517 40.0218 36.8469 42.463 36.8758C43.2901 36.8758 44.1022 36.8276 44.9243 36.8517L44.2576 36.9963C40.6634 37.7143 37.8562 38.0131 34.2119 37.2469C33.7006 37.1409 32.8033 37.0734 32.3572 36.8614Z" fill="#B4C5CC"/>
<path d="M47.9119 41.6082C48.373 41.4202 49.1149 41.1985 49.6062 41.0684C49.6864 41.613 49.8017 42.4611 49.932 42.9864C48.9044 43.343 47.7715 43.69 46.7689 44.0514C46.6637 43.6129 46.6336 42.7166 46.6035 42.2202C46.9544 42.2298 47.2502 42.2346 47.6011 42.2202L47.9068 41.613L47.9119 41.6082Z" fill="#B4C5CC"/>
<path d="M33.6453 45.8394C33.9761 45.8586 34.3721 45.902 34.703 45.955C36.8585 46.2972 38.9188 46.1189 41.0893 46.0659C40.6582 46.355 40.1068 45.9936 40.0015 46.5574C39.9514 46.8321 40.4126 46.8658 40.0968 47.2369C40.2722 47.2514 40.2121 47.2369 40.3274 47.2128C40.573 47.1694 41.1595 47.1839 41.4001 47.2128C40.4076 47.4007 38.1769 47.4297 37.1994 47.1068C36.1316 46.7502 34.708 46.2442 33.6453 45.8394Z" fill="#DEAF49"/>
<path d="M56.3235 70.2578C57.4163 70.2867 59.0254 70.2192 60.033 70.33C60.5493 70.7541 60.6195 70.9083 60.815 71.5396C59.6069 71.5782 58.3888 71.5396 57.1807 71.5685C57.0554 71.0722 56.8599 70.4409 56.3235 70.2578Z" fill="#B4C5CC"/>
<path d="M27.0284 44.037C27.8305 44.1382 29.0285 44.6876 29.8306 44.9237C30.3569 45.0827 30.4171 45.555 30.1715 45.9887C29.1689 46.008 27.9307 45.3574 26.8831 45.0972C26.9131 44.702 26.9432 44.4177 27.0284 44.0322V44.037Z" fill="#DEAF49"/>
<path d="M46.1675 39.854L49.2654 38.7023C49.3456 39.1697 49.3907 39.5697 49.4358 40.0372C48.9295 40.2347 48.313 40.495 47.8017 40.6636C47.2703 40.4902 46.8492 40.2926 46.353 40.6636C46.2828 40.389 46.363 40.2203 46.2828 39.9119L46.1675 39.854Z" fill="#B4C5CC"/>
<path d="M45.7412 37.6565C46.9292 37.377 48.0772 37.0204 49.2301 36.7505L49.18 37.6709C48.3479 38.0709 46.9794 38.5962 46.067 38.7697C46.0019 38.3215 45.8966 38.0854 45.7462 37.6613L45.7412 37.6565Z" fill="#C08F3A"/>
<path d="M47.8418 63.9158C48.338 63.9014 48.8544 63.9351 49.3456 63.9014C49.5912 63.8869 49.5662 63.8917 49.6765 63.7616C49.6263 64.4604 49.5712 65.1591 49.511 65.8531L47.7014 65.8724C47.7165 65.4965 47.7616 64.2483 47.8368 63.9158H47.8418Z" fill="#B4C5CC"/>
<path d="M33.3898 63.8773C33.6905 63.9833 34.8535 63.9351 35.2195 63.8965C35.2896 64.3592 35.2896 65.3615 35.3047 65.8724L33.5602 65.8579C33.465 65.2073 33.3948 64.5375 33.3848 63.8773H33.3898Z" fill="#B4C5CC"/>
<path d="M51.7767 24.6594C52.3933 24.6594 52.9096 24.8714 53.3909 25.228C52.9898 25.9364 52.6139 26.1196 51.892 26.4376C51.8218 26.4569 51.7517 26.4762 51.6815 26.4906C51.115 26.6111 50.7591 26.4232 50.313 26.1485C50.7792 25.6907 51.2754 25.0642 51.7767 24.6642V24.6594Z" fill="#C08F3A"/>
<path d="M25.1437 24.5099C25.64 24.6545 26.447 25.6954 26.7929 26.1003C26.3368 26.3557 26.2064 26.4328 25.6801 26.5002C25.1788 26.399 24.3818 26.0135 24.0409 25.6328C23.5546 25.0882 24.7377 24.6979 25.1437 24.5099Z" fill="#DEAF49"/>
<path d="M43.1145 49.6272C43.6158 49.4874 44.7487 49.4248 45.0845 49.8537C45.4605 49.8874 46.042 49.897 46.3378 50.0657V50.1332C45.8816 50.35 42.7837 49.9549 42.1069 49.8296C42.3927 49.6995 42.4779 49.8055 42.8388 49.5983L43.1195 49.6224L43.1145 49.6272Z" fill="url(#paint6_linear_278_2323)"/>
<path d="M43.1145 49.6272C43.6158 49.4874 44.7487 49.4248 45.0845 49.8537C44.4128 49.7862 43.7862 49.7284 43.1145 49.6272Z" fill="#13252B"/>
<path d="M38.0217 49.0151C38.132 48.591 38.2623 48.0465 38.8287 48.1525C39.2248 48.4127 39.3551 48.4657 39.2699 48.9573C38.7084 50.1091 37.8312 49.497 38.0217 49.0151Z" fill="#DEAF49"/>
<path d="M38.0215 49.0151C38.1318 48.591 38.2621 48.0465 38.8285 48.1525L38.7183 48.4658C38.4777 48.7404 38.3774 48.9236 38.0215 49.0103V49.0151Z" fill="#F4E4B1"/>
<path d="M47.1399 50.0561C47.3104 49.4874 47.4808 49.2465 48.0673 49.6223C49.2754 50.938 47.0297 51.2512 47.1399 50.0561Z" fill="#C08F3A"/>
<path d="M47.1399 50.0561C47.3103 49.4874 47.4808 49.2465 48.0673 49.6223C47.9018 49.7284 47.3153 50.1717 47.2 50.1621L47.1399 50.0561Z" fill="#F4E4B1"/>
<path d="M42.107 49.8344C41.7962 49.791 40.3475 49.526 40.2122 49.3525C40.2523 49.1742 40.2021 49.2368 40.3224 49.1308C40.6984 49.1501 42.2925 49.5115 42.8339 49.6079C42.4729 49.8151 42.3927 49.7091 42.102 49.8392L42.107 49.8344Z" fill="#DEAF49"/>
<path d="M51.7868 49.3139C51.847 49.3043 51.8971 49.3139 51.9623 49.3139V49.3814C51.5111 49.7043 50.1175 50.0271 49.5561 50.085C49.4458 50.1139 49.4559 50.1187 49.3506 50.085C49.5912 49.7476 51.3106 49.4296 51.7918 49.3139H51.7868Z" fill="#96793D"/>
</g>
</g>
<defs>
<linearGradient id="paint0_linear_278_2323" x1="39.1043" y1="50.35" x2="38.376" y2="56.1403" gradientUnits="userSpaceOnUse">
<stop stop-color="#AB873F"/>
<stop offset="1" stop-color="#EABB51"/>
</linearGradient>
<linearGradient id="paint1_linear_278_2323" x1="31.174" y1="12.0381" x2="30.4176" y2="9.70212" gradientUnits="userSpaceOnUse">
<stop stop-color="#FEFCE6"/>
<stop offset="1" stop-color="#FDFDFF"/>
</linearGradient>
<linearGradient id="paint2_linear_278_2323" x1="27.4747" y1="15.8597" x2="27.1901" y2="14.9279" gradientUnits="userSpaceOnUse">
<stop stop-color="#F1DBA7"/>
<stop offset="1" stop-color="#FFFBDC"/>
</linearGradient>
<linearGradient id="paint3_linear_278_2323" x1="18.7171" y1="18.8957" x2="17.9505" y2="18.9582" gradientUnits="userSpaceOnUse">
<stop stop-color="#FFFEF1"/>
<stop offset="1" stop-color="#FAFBFF"/>
</linearGradient>
<linearGradient id="paint4_linear_278_2323" x1="49.1802" y1="42.9623" x2="41.3416" y2="48.8849" gradientUnits="userSpaceOnUse">
<stop stop-color="#A6863B"/>
<stop offset="1" stop-color="#ECC25F"/>
</linearGradient>
<linearGradient id="paint5_linear_278_2323" x1="25.9608" y1="20.6209" x2="25.518" y2="19.7535" gradientUnits="userSpaceOnUse">
<stop stop-color="#E8D8B2"/>
<stop offset="1" stop-color="#F4F2EA"/>
</linearGradient>
<linearGradient id="paint6_linear_278_2323" x1="43.0894" y1="49.179" x2="45.4653" y2="50.9349" gradientUnits="userSpaceOnUse">
<stop stop-color="#D9B753"/>
<stop offset="1" stop-color="#9A9366"/>
</linearGradient>
<clipPath id="clip0_278_2323">
<rect width="78.19" height="78.19" fill="white"/>
</clipPath>
<clipPath id="clip1_278_2323">
<rect width="53.3114" height="78.19" fill="white" transform="translate(12)"/>
</clipPath>
</defs>
</svg>
