<svg width="79" height="79" viewBox="0 0 79 79" fill="none" xmlns="http://www.w3.org/2000/svg">
<path d="M28.5754 18.3348C28.1389 17.1357 27.9002 15.8415 27.9002 14.4931C27.9002 8.288 32.9304 3.25781 39.1355 3.25781C45.3406 3.25781 50.3708 8.288 50.3708 14.4931C50.3708 16.3107 49.9364 18.0337 49.1664 19.5572C50.2744 19.6338 51.3512 20.1331 52.1362 21.0302C56.4013 25.9047 60.1338 32.8548 60.1338 40.9106C60.1338 46.6699 58.151 50.9376 55.4717 54.0127L60.5605 54.9051C62.6382 55.2696 64.1538 57.0741 64.1538 59.1836V67.3281C64.1538 68.4802 63.6962 69.585 62.8816 70.3996C62.067 71.2142 60.9621 71.6719 59.8101 71.6719L18.4609 71.6719C16.0619 71.6719 14.1172 69.7271 14.1172 67.3281V59.1836C14.1172 57.0765 15.6294 55.2733 17.7042 54.9063L22.2946 54.0942C19.5788 51.0134 17.563 46.7218 17.563 40.9106C17.563 34.6255 19.9986 29.1519 22.8553 24.9571C24.6509 22.3204 26.6838 20.082 28.5754 18.3348Z" fill="#F4F7FA"/>
<path d="M41.2656 40.3363H36.9219C36.9219 32.3603 39.341 24.3977 44.693 18.5692C45.5316 17.4276 46.027 16.0182 46.027 14.4931C46.027 10.687 42.9416 7.60156 39.1355 7.60156C35.3294 7.60156 32.244 10.687 32.244 14.4931C32.244 16.3709 32.9951 18.0733 34.2131 19.3163C29.9083 22.3852 21.9067 30.6113 21.9067 40.9106C21.9067 51.3044 30.0557 55.5123 34.3307 56.3761L18.4609 59.1836V67.3281L59.8101 67.3281V59.1836L43.564 56.3343C47.8874 55.3827 55.79 51.1461 55.79 40.9106C55.79 34.2086 52.668 28.2344 48.8672 23.8906C44.693 27.1484 41.2656 34.75 41.2656 40.3363Z" fill="#34364C"/>
</svg>
