<svg width="79" height="79" viewBox="0 0 79 79" fill="none" xmlns="http://www.w3.org/2000/svg">
<g clip-path="url(#clip0_173_264)">
<path fill-rule="evenodd" clip-rule="evenodd" d="M32.5801 4.20807C32.6534 1.86306 34.5756 0 36.9218 0H43.4374C45.7836 0 47.7057 1.86306 47.779 4.20807L47.8172 5.42969H49.953C52.352 5.42969 54.2968 7.37445 54.2968 9.77344V12.408C59.0316 11.3365 64.1422 12.0522 68.4799 15.6669C77.4912 23.1764 76.6621 38.9179 65.9675 47.5281C63.3867 49.6059 61.3592 51.3285 59.963 53.1034C59.6445 53.5084 59.3716 53.9001 59.1419 54.2836L63.5441 54.879C65.6985 55.1704 67.3057 57.0096 67.3057 59.1836V67.3281C67.3057 69.7271 65.361 71.6719 62.962 71.6719H17.3972C14.9982 71.6719 13.0534 69.7271 13.0534 67.3281V59.1836C13.0534 57.0096 14.6606 55.1704 16.815 54.879L21.2173 54.2836C20.9876 53.9001 20.7147 53.5084 20.3961 53.1034C19 51.3285 16.9725 49.6059 14.3916 47.5281C3.6971 38.9179 2.86795 23.1764 11.8792 15.6669C16.2169 12.0522 21.3275 11.3365 26.0624 12.408V9.77344C26.0624 7.37445 28.0072 5.42969 30.4061 5.42969H32.542L32.5801 4.20807Z" fill="#F4F7FA"/>
<path fill-rule="evenodd" clip-rule="evenodd" d="M36.9218 4.34375H43.4375L43.6071 9.77344H49.9531V16.2891H43.8108L44.1092 23.6658C44.2282 23.5256 44.3508 23.388 44.4772 23.2537C50.4098 16.9483 59.206 13.5929 65.6992 19.0039C72.2148 24.4336 72.2148 36.9219 63.2436 44.1446C58.1617 48.2361 53.6098 52.1803 53.8341 57.9491L62.962 59.1836V67.3281H17.3973V59.1836L26.5252 57.9491C26.7495 52.1803 22.1976 48.236 17.1157 44.1446C8.1445 36.9219 8.1445 24.4336 14.6601 19.0039C21.1533 13.5929 29.9495 16.9483 35.8821 23.2537C36.0085 23.388 36.1311 23.5256 36.2502 23.6658L36.5486 16.2891H30.4062V9.77344H36.7522L36.9218 4.34375ZM30.7842 29.2911C34.7659 35.8133 35.2929 43.4375 35.2929 46.7531C33.2971 46.7567 25.7734 43.4467 21.79 38.0128C18.9222 34.1009 18.1744 28.2968 20.6328 26.0435C23.0911 23.7902 28.2955 25.2148 30.7842 29.2911ZM49.5752 29.2911C45.5934 35.8133 45.0664 43.4375 45.0664 46.7531C47.0622 46.7567 54.5859 43.4467 58.5693 38.0128C61.4371 34.1009 62.1849 28.2968 59.7265 26.0435C57.2682 23.7902 52.0638 25.2148 49.5752 29.2911Z" fill="#34364C"/>
</g>
<defs>
<clipPath id="clip0_173_264">
<rect width="78.1875" height="78.1875" fill="white"/>
</clipPath>
</defs>
</svg>
