<svg width="79" height="79" viewBox="0 0 79 79" fill="none" xmlns="http://www.w3.org/2000/svg">
<path d="M25.0933 44.6613C24.5751 45.3688 23.9567 46.1055 23.2359 46.8634C20.692 49.5381 17.5722 51.7387 15.5586 52.8893L15.2199 53.0829C13.8665 53.8563 13.0312 55.2955 13.0312 56.8543V67.3281C13.0312 69.7271 14.976 71.6719 17.375 71.6719H59.7266C62.1256 71.6719 64.0703 69.7271 64.0703 67.3281V56.8543C64.0703 55.2955 63.2351 53.8563 61.8817 53.0829L61.543 52.8893C59.5294 51.7387 56.4095 49.5381 53.8657 46.8634C53.1449 46.1055 52.5265 45.3688 52.0083 44.6613C53.9147 44.2021 55.3311 42.4856 55.3311 40.4382V33.3674C55.3311 31.9561 54.6454 30.6327 53.4923 29.8187L51.6474 28.5165C52.7119 26.4482 53.3144 24.101 53.3144 21.6153C53.3144 13.276 46.554 6.51562 38.2147 6.51562C29.8753 6.51562 23.115 13.276 23.115 21.6153C23.115 24.2409 23.7868 26.7111 24.9652 28.8616L23.6092 29.8187C22.4562 30.6327 21.7705 31.9561 21.7705 33.3674V40.4382C21.7705 42.4856 23.1869 44.2021 25.0933 44.6613Z" fill="#F4F7FA"/>
<path d="M48.9706 21.6153C48.9706 24.7349 47.6426 27.5442 45.5211 29.5089L50.9874 33.3674V40.4382H45.636C45.8941 43.7158 47.997 46.9959 50.7182 49.857C53.606 52.8934 57.0805 55.3422 59.3878 56.6607L59.7266 56.8543V67.3281H17.375V56.8543L17.7137 56.6607C20.0211 55.3422 23.4955 52.8934 26.3834 49.857C29.1045 46.9959 31.2075 43.7158 31.4655 40.4382H26.1142V33.3674L31.2052 29.7738C28.9114 27.8013 27.4587 24.8779 27.4587 21.6153C27.4587 15.675 32.2743 10.8594 38.2147 10.8594C44.155 10.8594 48.9706 15.675 48.9706 21.6153Z" fill="#34364C"/>
</svg>
