<svg width="79" height="79" viewBox="0 0 79 79" fill="none" xmlns="http://www.w3.org/2000/svg">
<path d="M19.5469 10.8594C19.5469 11.9316 19.7193 12.9632 20.0381 13.9281L17.894 14.9339C16.1164 13.0914 13.6217 11.9453 10.8594 11.9453C5.46165 11.9453 1.08594 16.3211 1.08594 21.7188C1.08594 26.5303 4.56289 30.5298 9.14132 31.3417L14.2909 48.9975C14.3984 49.3661 14.5543 49.7188 14.7545 50.0463L17.7225 54.903L17.7042 54.9063C15.6294 55.2733 14.1172 57.0765 14.1172 59.1836V67.3281C14.1172 69.7271 16.0619 71.6719 18.4609 71.6719L59.8101 71.6719C60.9621 71.6719 62.067 71.2142 62.8816 70.3996C63.6962 69.585 64.1538 68.4802 64.1538 67.3281V59.1836C64.1538 57.0741 62.6382 55.2696 60.5605 54.9052L60.4731 54.8898L63.433 50.0463C63.6332 49.7188 63.7891 49.3661 63.8966 48.9975L69.0462 31.3417C73.6246 30.5298 77.1016 26.5303 77.1016 21.7188C77.1016 16.3211 72.7258 11.9453 67.3281 11.9453C64.5623 11.9453 62.0648 13.0942 60.2868 14.9408L58.1465 13.9368C58.4671 12.9694 58.6406 11.9348 58.6406 10.8594C58.6406 5.46167 54.2649 1.08595 48.8672 1.08595C43.4695 1.08595 39.0938 5.46167 39.0938 10.8594C39.0938 5.46167 34.718 1.08595 29.3203 1.08595C23.9226 1.08595 19.5469 5.46167 19.5469 10.8594Z" fill="#F4F7FA"/>
<path d="M31.2694 15.9288C33.3052 15.1455 34.75 13.1712 34.75 10.8594C34.75 7.86064 32.319 5.42969 29.3203 5.42969C26.3216 5.42969 23.8906 7.86064 23.8906 10.8594C23.8906 13.6305 25.9666 15.9168 28.6482 16.2479L26.2268 35.8359L14.554 25.6977C15.6213 24.7062 16.2891 23.2905 16.2891 21.7188C16.2891 18.72 13.8581 16.2891 10.8594 16.2891C7.86064 16.2891 5.42969 18.72 5.42969 21.7188C5.42969 24.7175 7.86064 27.1484 10.8594 27.1484C11.3873 27.1484 11.8976 27.0731 12.3801 26.9326L18.4609 47.7813L24.7492 58.0711L18.4609 59.1836V67.3281L59.8101 67.3281V59.1836L53.4411 58.0666L59.7266 47.7813L65.8074 26.9326C66.29 27.0731 66.8002 27.1484 67.3281 27.1484C70.3269 27.1484 72.7578 24.7175 72.7578 21.7188C72.7578 18.72 70.3269 16.2891 67.3281 16.2891C64.3294 16.2891 61.8984 18.72 61.8984 21.7188C61.8984 23.2905 62.5662 24.7062 63.6335 25.6977L51.9607 35.8359L49.5393 16.2479C52.2209 15.9168 54.2969 13.6305 54.2969 10.8594C54.2969 7.86064 51.8659 5.42969 48.8672 5.42969C45.8685 5.42969 43.4375 7.86064 43.4375 10.8594C43.4375 13.1712 44.8823 15.1455 46.9181 15.9288L39.0938 33.6641L31.2694 15.9288Z" fill="#34364C"/>
</svg>
