<svg width="79" height="79" viewBox="0 0 79 79" fill="none" xmlns="http://www.w3.org/2000/svg">
<path d="M32.2413 0.550502C33.6711 0.389724 35.0877 0.947405 36.0243 2.03972L44.8866 12.3762C55.0639 14.8912 60.9607 22.5547 64.2221 32.1216C67.5827 41.9795 68.414 54.4945 68.414 67.3281C68.414 69.7271 66.4692 71.6718 64.0702 71.6718H23.5701C21.2641 71.6718 19.36 69.8698 19.233 67.5673C19.1196 65.5125 19.5924 61.9472 21.033 58.3055L21.0595 58.2388C16.9685 60.4347 12.4283 59.9088 9.05788 57.5091C4.96188 54.5928 2.6844 48.8839 5.28645 43.2461C7.16282 39.1806 9.18515 37.0278 10.715 35.3996C12.144 33.8787 12.7396 33.2098 13.1609 31.5246C15.7153 21.307 20.9704 15.421 26.6139 12.7348C26.5323 11.5708 26.5987 10.4494 26.7415 9.43121C27.0969 6.89684 27.9816 4.5548 28.8835 2.84268C29.554 1.56965 30.8114 0.71128 32.2413 0.550502Z" fill="#34364C"/>
<path fill-rule="evenodd" clip-rule="evenodd" d="M42.5369 16.3091L32.7267 4.86707C31.3067 7.56301 29.9299 12.3211 31.9093 15.756C30.9486 15.8416 30.0305 16.0041 29.3203 16.2891C24.7896 18.1072 19.8184 22.8047 17.375 32.5781C16.6675 35.4081 15.3941 36.7633 13.8807 38.3741C12.4531 39.8934 10.8118 41.6401 9.23048 45.0664C5.97267 52.125 14.7648 59.1836 21.1758 52.7726C24.7802 49.1682 27.9307 47.6802 30.5759 46.431C34.383 44.6329 37.143 43.3294 38.7021 36.9219C39.4439 39.9107 39.1472 46.9643 32.0263 51.2682C24.9054 55.5721 23.4219 64.6382 23.5702 67.3281H64.0703C64.0703 41.7904 60.6892 19.7258 42.5369 16.3091Z" fill="#F4F7FA"/>
<circle cx="30.4062" cy="29.3203" r="3.25781" fill="#34364C"/>
</svg>
