<svg width="79" height="79" viewBox="0 0 79 79" fill="none" xmlns="http://www.w3.org/2000/svg">
<path d="M28.2344 5.42969C29.0256 5.42969 29.7673 5.64122 30.4063 6.01081C31.0452 5.64122 31.7869 5.42969 32.5781 5.42969H44.5234C45.3146 5.42969 46.0564 5.64122 46.6953 6.01081C47.3342 5.64122 48.076 5.42969 48.8672 5.42969H59.7266C62.1255 5.42969 64.0703 7.37445 64.0703 9.77344V19.5469C64.0703 20.9141 63.4266 22.2015 62.3328 23.0219L55.6302 28.0488L57.5281 45.1297C58.0306 49.6518 60.1354 51.9462 63.2016 56.0344C63.7655 56.7863 64.0703 57.7008 64.0703 58.6406V67.3281C64.0703 69.7271 62.1256 71.6719 59.7266 71.6719H17.375C14.976 71.6719 13.0312 69.7271 13.0312 67.3281V58.6406C13.0312 57.7008 13.3361 56.7863 13.9 56.0344C16.9662 51.9462 19.071 49.6518 19.5734 45.1297L21.4713 28.0488L14.7688 23.0219C13.675 22.2015 13.0312 20.9141 13.0312 19.5469V9.77344C13.0312 7.37445 14.976 5.42969 17.375 5.42969H28.2344Z" fill="#34364C"/>
<path d="M17.375 9.77344H28.2344V16.2891H32.5781V9.77344H44.5234V16.2891H48.8672V9.77344H59.7266V19.5469L51.0391 26.0625L53.2109 45.6094H23.8906L26.0625 26.0625L17.375 19.5469V9.77344Z" fill="#F4F7FA"/>
<path d="M23.8906 49.9531H53.2109L59.7266 58.6406V67.3281H17.375V58.6406L23.8906 49.9531Z" fill="#F4F7FA"/>
</svg>
